<?xml version="1.0" encoding="UTF-8"?>
<!DOCTYPE svg PUBLIC "-//W3C//DTD SVG 1.1//EN" "http://www.w3.org/Graphics/SVG/1.1/DTD/svg11.dtd">
<svg xmlns="http://www.w3.org/2000/svg" version="1.1" width="294px" height="240px" style="shape-rendering:geometricPrecision; text-rendering:geometricPrecision; image-rendering:optimizeQuality; fill-rule:evenodd; clip-rule:evenodd" xmlns:xlink="http://www.w3.org/1999/xlink">
<g><path style="opacity:1" fill="#000000" d="M -0.5,-0.5 C 97.5,-0.5 195.5,-0.5 293.5,-0.5C 293.5,11.8333 293.5,24.1667 293.5,36.5C 229.998,36.1676 166.664,36.5009 103.5,37.5C 68.8363,36.9167 34.1696,36.5834 -0.5,36.5C -0.5,24.1667 -0.5,11.8333 -0.5,-0.5 Z"/></g>
<g><path style="opacity:1" fill="#646061" d="M 27.5,37.5 C 38.1667,37.5 48.8333,37.5 59.5,37.5C 60.3242,40.7644 60.6576,44.0977 60.5,47.5C 59.5386,45.7354 59.2053,43.7354 59.5,41.5C 51.7647,41.8002 44.098,41.8002 36.5,41.5C 35.3646,39.7868 33.698,39.1201 31.5,39.5C 29.5168,39.8432 28.1834,39.1765 27.5,37.5 Z"/></g>
<g><path style="opacity:1" fill="#727375" d="M 103.5,37.5 C 122.167,37.5 140.833,37.5 159.5,37.5C 159.5,38.8333 159.5,40.1667 159.5,41.5C 156.833,41.5 154.167,41.5 151.5,41.5C 148.887,40.9045 148.887,40.0712 151.5,39C 143.811,38.2679 136.144,38.4345 128.5,39.5C 123.42,40.913 121.087,44.2464 121.5,49.5C 122.978,49.238 124.311,49.5713 125.5,50.5C 123.604,51.4656 121.604,51.7989 119.5,51.5C 119.5,52.8333 119.5,54.1667 119.5,55.5C 117.517,55.1568 116.183,55.8235 115.5,57.5C 113.278,57.178 111.444,57.8446 110,59.5C 109.692,58.6919 109.192,58.0253 108.5,57.5C 105.788,59.2603 102.788,59.927 99.5,59.5C 98.3433,56.9741 98.3433,54.3074 99.5,51.5C 100.128,48.91 101.295,46.5766 103,44.5C 103.497,42.1902 103.663,39.8568 103.5,37.5 Z"/></g>
<g><path style="opacity:1" fill="#756a6b" d="M 159.5,37.5 C 165.842,37.3338 172.175,37.5005 178.5,38C 179.056,38.3826 179.389,38.8826 179.5,39.5C 172.252,41.1386 165.585,43.8052 159.5,47.5C 155.5,47.5 151.5,47.5 147.5,47.5C 147.5,48.8333 147.5,50.1667 147.5,51.5C 140.926,53.2456 134.259,54.5789 127.5,55.5C 128.918,53.6921 130.918,53.0254 133.5,53.5C 133.33,52.1779 133.663,51.0113 134.5,50C 136.107,50.0187 137.774,50.1854 139.5,50.5C 139.5,49.5 139.5,48.5 139.5,47.5C 144.225,46.7842 148.225,44.7842 151.5,41.5C 154.167,41.5 156.833,41.5 159.5,41.5C 159.5,40.1667 159.5,38.8333 159.5,37.5 Z"/></g>
<g><path style="opacity:1" fill="#393335" d="M -0.5,37.5 C -0.5,37.1667 -0.5,36.8333 -0.5,36.5C 34.1696,36.5834 68.8363,36.9167 103.5,37.5C 103.663,39.8568 103.497,42.1902 103,44.5C 101.295,46.5766 100.128,48.91 99.5,51.5C 96.4649,51.5393 93.7982,52.5393 91.5,54.5C 91.369,53.7611 91.5357,53.0944 92,52.5C 95.9008,50.7708 99.0675,48.1042 101.5,44.5C 102.52,42.5675 102.687,40.5675 102,38.5C 97.699,38.6727 93.199,39.1727 88.5,40C 88.4709,42.2599 88.8042,44.5933 89.5,47C 86.9814,50.8787 84.9814,55.0453 83.5,59.5C 83.1667,59.5 82.8333,59.5 82.5,59.5C 82.428,57.6891 81.5947,56.3557 80,55.5C 76.527,57.0516 73.027,58.3849 69.5,59.5C 69.6646,56.4816 69.498,53.4816 69,50.5C 66.7559,49.0456 64.4226,47.7122 62,46.5C 62.1123,44.8217 62.6123,43.155 63.5,41.5C 62.789,39.4554 61.4557,38.1221 59.5,37.5C 48.8333,37.5 38.1667,37.5 27.5,37.5C 18.1667,37.5 8.83333,37.5 -0.5,37.5 Z"/></g>
<g><path style="opacity:1" fill="#312c2f" d="M 91.5,54.5 C 90.1992,57.023 89.1992,59.6897 88.5,62.5C 87.675,63.3857 86.675,63.719 85.5,63.5C 85.2671,61.9382 84.6005,60.6049 83.5,59.5C 84.9814,55.0453 86.9814,50.8787 89.5,47C 88.8042,44.5933 88.4709,42.2599 88.5,40C 93.199,39.1727 97.699,38.6727 102,38.5C 102.687,40.5675 102.52,42.5675 101.5,44.5C 99.0675,48.1042 95.9008,50.7708 92,52.5C 91.5357,53.0944 91.369,53.7611 91.5,54.5 Z"/></g>
<g><path style="opacity:1" fill="#746d72" d="M 151.5,41.5 C 148.225,44.7842 144.225,46.7842 139.5,47.5C 139.5,48.5 139.5,49.5 139.5,50.5C 137.774,50.1854 136.107,50.0187 134.5,50C 133.663,51.0113 133.33,52.1779 133.5,53.5C 130.918,53.0254 128.918,53.6921 127.5,55.5C 124.833,55.5 122.167,55.5 119.5,55.5C 119.5,54.1667 119.5,52.8333 119.5,51.5C 121.604,51.7989 123.604,51.4656 125.5,50.5C 124.311,49.5713 122.978,49.238 121.5,49.5C 121.087,44.2464 123.42,40.913 128.5,39.5C 136.144,38.4345 143.811,38.2679 151.5,39C 148.887,40.0712 148.887,40.9045 151.5,41.5 Z"/></g>
<g><path style="opacity:1" fill="#766260" d="M 179.5,39.5 C 180.912,41.6036 181.912,43.9369 182.5,46.5C 175.817,45.6004 170.817,47.9338 167.5,53.5C 155.636,59.4381 143.636,64.7714 131.5,69.5C 128.921,69.0833 126.754,69.75 125,71.5C 124.283,70.9558 123.783,70.2891 123.5,69.5C 125.264,67.8795 127.264,66.5462 129.5,65.5C 131.593,64.9553 133.593,64.122 135.5,63C 135.616,61.7318 135.949,60.3985 136.5,59C 140.177,58.5475 143.844,58.7142 147.5,59.5C 151.532,58.1448 155.532,56.8114 159.5,55.5C 159.16,52.8559 159.827,50.5225 161.5,48.5C 161.043,47.7025 160.376,47.3691 159.5,47.5C 165.585,43.8052 172.252,41.1386 179.5,39.5 Z"/></g>
<g><path style="opacity:1" fill="#705a55" d="M 220.5,37.5 C 220.833,39.5 221.167,41.5 221.5,43.5C 222.833,43.5 224.167,43.5 225.5,43.5C 227.5,43.5 229.5,43.5 231.5,43.5C 231.5,45.5 231.5,47.5 231.5,49.5C 234.887,50.0181 238.221,50.8514 241.5,52C 243.544,52.4983 244.878,53.665 245.5,55.5C 243.741,55.9539 241.741,55.9539 239.5,55.5C 239.833,57.5 240.167,59.5 240.5,61.5C 239.5,61.5 238.5,61.5 237.5,61.5C 237.34,63.1992 237.506,64.8659 238,66.5C 239.755,67.67 240.755,69.3367 241,71.5C 241.801,74.367 241.634,77.0336 240.5,79.5C 240.879,75.4177 239.879,71.7511 237.5,68.5C 234.223,69.2537 230.89,69.7537 227.5,70C 228.598,70.7697 228.598,71.603 227.5,72.5C 222.353,75.604 217.853,74.9373 214,70.5C 212.953,67.7053 211.453,65.3719 209.5,63.5C 210.036,60.3019 209.369,57.6353 207.5,55.5C 206.833,55.5 206.167,55.5 205.5,55.5C 205.579,54.0695 205.246,52.7362 204.5,51.5C 200.891,49.1934 199.057,45.86 199,41.5C 196.757,40.0292 194.257,39.0292 191.5,38.5C 201.144,37.5016 210.81,37.1682 220.5,37.5 Z"/></g>
<g><path style="opacity:1" fill="#c6cbc0" d="M 255.5,37.5 C 268.167,37.5 280.833,37.5 293.5,37.5C 293.5,40.1667 293.5,42.8333 293.5,45.5C 285.359,46.0323 277.359,45.3657 269.5,43.5C 264.509,45.4713 259.509,46.3046 254.5,46C 255.38,47.3561 255.714,48.8561 255.5,50.5C 253.821,50.7148 252.821,50.0481 252.5,48.5C 253.699,44.9014 254.699,41.2347 255.5,37.5 Z"/></g>
<g><path style="opacity:1" fill="#89807a" d="M 220.5,37.5 C 232.167,37.5 243.833,37.5 255.5,37.5C 254.699,41.2347 253.699,44.9014 252.5,48.5C 251.833,49.8333 251.167,51.1667 250.5,52.5C 250.5,51.5 250.5,50.5 250.5,49.5C 246.309,48.7378 242.642,46.9044 239.5,44C 240.138,42.2933 240.138,40.46 239.5,38.5C 234.156,38.334 228.823,38.5006 223.5,39C 225.107,40.049 225.773,41.549 225.5,43.5C 224.167,43.5 222.833,43.5 221.5,43.5C 221.167,41.5 220.833,39.5 220.5,37.5 Z"/></g>
<g><path style="opacity:1" fill="#524145" d="M 103.5,37.5 C 166.664,36.5009 229.998,36.1676 293.5,36.5C 293.5,36.8333 293.5,37.1667 293.5,37.5C 280.833,37.5 268.167,37.5 255.5,37.5C 243.833,37.5 232.167,37.5 220.5,37.5C 210.81,37.1682 201.144,37.5016 191.5,38.5C 194.257,39.0292 196.757,40.0292 199,41.5C 199.057,45.86 200.891,49.1934 204.5,51.5C 205.246,52.7362 205.579,54.0695 205.5,55.5C 203.236,53.9029 201.236,51.9029 199.5,49.5C 197.187,48.7267 194.854,48.0601 192.5,47.5C 191.852,49.1492 190.852,50.4825 189.5,51.5C 187.358,50.5629 187.024,49.2296 188.5,47.5C 188.938,47.5654 189.272,47.3988 189.5,47C 187.655,45.872 185.655,45.372 183.5,45.5C 183.5,46.5 183.5,47.5 183.5,48.5C 181.473,48.3379 179.473,48.5045 177.5,49C 176.171,51.5746 174.337,53.7412 172,55.5C 170.594,54.5862 169.094,53.9195 167.5,53.5C 170.817,47.9338 175.817,45.6004 182.5,46.5C 181.912,43.9369 180.912,41.6036 179.5,39.5C 179.389,38.8826 179.056,38.3826 178.5,38C 172.175,37.5005 165.842,37.3338 159.5,37.5C 140.833,37.5 122.167,37.5 103.5,37.5 Z"/></g>
<g><path style="opacity:1" fill="#716a6e" d="M 36.5,41.5 C 44.098,41.8002 51.7647,41.8002 59.5,41.5C 59.2053,43.7354 59.5386,45.7354 60.5,47.5C 60.5,48.1667 60.5,48.8333 60.5,49.5C 58.6028,50.8048 56.2695,51.4714 53.5,51.5C 51.1667,51.3333 48.8333,51.1667 46.5,51C 43.2858,47.6238 39.6192,44.7905 35.5,42.5C 35.6236,41.8933 35.9569,41.56 36.5,41.5 Z"/></g>
<g><path style="opacity:1" fill="#746661" d="M 250.5,52.5 C 250.5,52.8333 250.5,53.1667 250.5,53.5C 249.157,55.6834 249.49,57.6834 251.5,59.5C 249.613,60.6563 248.279,62.323 247.5,64.5C 247.167,64.5 246.833,64.5 246.5,64.5C 247.776,61.6644 248.442,58.6644 248.5,55.5C 247.5,55.5 246.5,55.5 245.5,55.5C 244.878,53.665 243.544,52.4983 241.5,52C 238.221,50.8514 234.887,50.0181 231.5,49.5C 231.5,47.5 231.5,45.5 231.5,43.5C 229.5,43.5 227.5,43.5 225.5,43.5C 225.773,41.549 225.107,40.049 223.5,39C 228.823,38.5006 234.156,38.334 239.5,38.5C 240.138,40.46 240.138,42.2933 239.5,44C 242.642,46.9044 246.309,48.7378 250.5,49.5C 250.5,50.5 250.5,51.5 250.5,52.5 Z"/></g>
<g><path style="opacity:1" fill="#6d665a" d="M -0.5,37.5 C 8.83333,37.5 18.1667,37.5 27.5,37.5C 28.1834,39.1765 29.5168,39.8432 31.5,39.5C 31.8333,40.8333 32.1667,42.1667 32.5,43.5C 27.7252,45.2374 22.7252,46.5707 17.5,47.5C 17.6633,49.8568 17.4966,52.1902 17,54.5C 14.876,55.2272 12.7094,55.8938 10.5,56.5C 7.44308,52.4406 3.77641,49.1073 -0.5,46.5C -0.5,43.5 -0.5,40.5 -0.5,37.5 Z"/></g>
<g><path style="opacity:1" fill="#74665d" d="M 159.5,47.5 C 160.376,47.3691 161.043,47.7025 161.5,48.5C 159.827,50.5225 159.16,52.8559 159.5,55.5C 155.532,56.8114 151.532,58.1448 147.5,59.5C 143.844,58.7142 140.177,58.5475 136.5,59C 135.949,60.3985 135.616,61.7318 135.5,63C 133.593,64.122 131.593,64.9553 129.5,65.5C 126.908,63.9112 126.908,62.2445 129.5,60.5C 127.995,59.1585 127.328,57.4918 127.5,55.5C 134.259,54.5789 140.926,53.2456 147.5,51.5C 147.5,50.1667 147.5,48.8333 147.5,47.5C 151.5,47.5 155.5,47.5 159.5,47.5 Z"/></g>
<g><path style="opacity:1" fill="#5b3e4c" d="M 188.5,47.5 C 186.915,48.4737 185.915,49.9737 185.5,52C 189.944,54.482 194.278,57.1487 198.5,60C 199.337,61.0113 199.67,62.1779 199.5,63.5C 206.938,65.1613 209.605,62.4947 207.5,55.5C 209.369,57.6353 210.036,60.3019 209.5,63.5C 209.5,66.1667 209.5,68.8333 209.5,71.5C 206.167,71.5 202.833,71.5 199.5,71.5C 199.577,70.2502 200.244,69.4169 201.5,69C 203.473,68.5045 205.473,68.3379 207.5,68.5C 207.5,67.5 207.5,66.5 207.5,65.5C 201.618,65.2323 195.785,65.5656 190,66.5C 188.989,65.9444 188.156,65.2778 187.5,64.5C 185.027,64.0882 183.694,65.0882 183.5,67.5C 183.167,67.5 182.833,67.5 182.5,67.5C 182.939,62.3678 180.606,59.7011 175.5,59.5C 169.697,60.09 164.364,61.7567 159.5,64.5C 159.33,63.1779 159.663,62.0113 160.5,61C 162.5,60.1667 164.5,59.3333 166.5,58.5C 167.309,56.9291 167.643,55.2624 167.5,53.5C 169.094,53.9195 170.594,54.5862 172,55.5C 174.337,53.7412 176.171,51.5746 177.5,49C 179.473,48.5045 181.473,48.3379 183.5,48.5C 183.5,47.5 183.5,46.5 183.5,45.5C 185.655,45.372 187.655,45.872 189.5,47C 189.272,47.3988 188.938,47.5654 188.5,47.5 Z"/></g>
<g><path style="opacity:1" fill="#675e55" d="M 31.5,39.5 C 33.698,39.1201 35.3646,39.7868 36.5,41.5C 35.9569,41.56 35.6236,41.8933 35.5,42.5C 39.6192,44.7905 43.2858,47.6238 46.5,51C 48.8333,51.1667 51.1667,51.3333 53.5,51.5C 56.2695,51.4714 58.6028,50.8048 60.5,49.5C 61.1614,50.7175 61.8281,52.0508 62.5,53.5C 63.4948,58.7921 63.8282,64.1254 63.5,69.5C 61.3387,67.6617 59.0054,67.3284 56.5,68.5C 55.0035,64.6646 54.0035,64.6646 53.5,68.5C 50.3019,68.4802 47.4686,68.1469 45,67.5C 43.9164,68.6651 43.0831,69.9984 42.5,71.5C 41.675,72.3857 40.675,72.719 39.5,72.5C 40.0522,70.6693 40.0522,69.0026 39.5,67.5C 37.0415,66.081 34.3749,65.081 31.5,64.5C 33.8333,62.1667 36.1667,59.8333 38.5,57.5C 40.0046,60.1306 40.6713,59.7973 40.5,56.5C 38.4727,56.3379 36.4727,56.5045 34.5,57C 33.3474,58.883 31.6807,59.7163 29.5,59.5C 31.9209,56.8927 34.5876,54.5593 37.5,52.5C 36.0122,49.338 34.3455,46.338 32.5,43.5C 32.1667,42.1667 31.8333,40.8333 31.5,39.5 Z"/></g>
<g><path style="opacity:1" fill="#4e3742" d="M 188.5,47.5 C 187.024,49.2296 187.358,50.5629 189.5,51.5C 190.852,50.4825 191.852,49.1492 192.5,47.5C 194.854,48.0601 197.187,48.7267 199.5,49.5C 201.236,51.9029 203.236,53.9029 205.5,55.5C 206.167,55.5 206.833,55.5 207.5,55.5C 209.605,62.4947 206.938,65.1613 199.5,63.5C 199.67,62.1779 199.337,61.0113 198.5,60C 194.278,57.1487 189.944,54.482 185.5,52C 185.915,49.9737 186.915,48.4737 188.5,47.5 Z"/></g>
<g><path style="opacity:1" fill="#bbc5b6" d="M 293.5,45.5 C 293.5,51.1667 293.5,56.8333 293.5,62.5C 287.077,61.6356 281.077,59.4689 275.5,56C 268.623,54.4505 261.956,52.6172 255.5,50.5C 255.714,48.8561 255.38,47.3561 254.5,46C 259.509,46.3046 264.509,45.4713 269.5,43.5C 277.359,45.3657 285.359,46.0323 293.5,45.5 Z"/></g>
<g><path style="opacity:1" fill="#473e41" d="M 59.5,37.5 C 61.4557,38.1221 62.789,39.4554 63.5,41.5C 62.6123,43.155 62.1123,44.8217 62,46.5C 64.4226,47.7122 66.7559,49.0456 69,50.5C 69.498,53.4816 69.6646,56.4816 69.5,59.5C 73.027,58.3849 76.527,57.0516 80,55.5C 81.5947,56.3557 82.428,57.6891 82.5,59.5C 81.5084,59.3284 80.8417,59.6618 80.5,60.5C 80.1667,60.5 79.8333,60.5 79.5,60.5C 75.8372,62.2444 72.0038,63.5777 68,64.5C 66.3542,62.8592 65.3542,63.1925 65,65.5C 64.4163,68.2567 64.7496,70.9234 66,73.5C 67.7261,74.5762 69.5594,74.7429 71.5,74C 71.1667,73.6667 70.8333,73.3333 70.5,73C 73.1666,71.1383 75.4999,68.9716 77.5,66.5C 77.2287,68.3117 76.562,69.9783 75.5,71.5C 73.4476,72.7337 71.781,74.4004 70.5,76.5C 70.7093,77.086 71.0426,77.586 71.5,78C 69.8659,78.4935 68.1992,78.6602 66.5,78.5C 65.8501,78.1961 65.1835,77.8627 64.5,77.5C 63.52,74.9135 63.1866,72.2469 63.5,69.5C 63.8282,64.1254 63.4948,58.7921 62.5,53.5C 61.8281,52.0508 61.1614,50.7175 60.5,49.5C 60.5,48.8333 60.5,48.1667 60.5,47.5C 60.6576,44.0977 60.3242,40.7644 59.5,37.5 Z"/></g>
<g><path style="opacity:1" fill="#675d53" d="M -0.5,53.5 C 4.93936,57.371 10.9394,58.871 17.5,58C 12.4203,60.5867 7.08694,61.9201 1.5,62C 2.67209,61.5814 3.67209,60.9147 4.5,60C 2.75099,59.2152 1.08432,58.3818 -0.5,57.5C -0.5,56.1667 -0.5,54.8333 -0.5,53.5 Z"/></g>
<g><path style="opacity:1" fill="#817566" d="M 32.5,43.5 C 34.3455,46.338 36.0122,49.338 37.5,52.5C 34.5876,54.5593 31.9209,56.8927 29.5,59.5C 27.8267,60.343 26.66,61.6763 26,63.5C 25.501,67.8206 25.3343,72.1539 25.5,76.5C 24.8333,76.5 24.5,76.1667 24.5,75.5C 24.5,71.8333 24.5,68.1667 24.5,64.5C 21.1667,64.5 17.8333,64.5 14.5,64.5C 9.47255,64.4971 4.47255,64.1637 -0.5,63.5C -0.5,61.5 -0.5,59.5 -0.5,57.5C 1.08432,58.3818 2.75099,59.2152 4.5,60C 3.67209,60.9147 2.67209,61.5814 1.5,62C 7.08694,61.9201 12.4203,60.5867 17.5,58C 10.9394,58.871 4.93936,57.371 -0.5,53.5C -0.5,51.1667 -0.5,48.8333 -0.5,46.5C 3.77641,49.1073 7.44308,52.4406 10.5,56.5C 12.7094,55.8938 14.876,55.2272 17,54.5C 17.4966,52.1902 17.6633,49.8568 17.5,47.5C 22.7252,46.5707 27.7252,45.2374 32.5,43.5 Z"/></g>
<g><path style="opacity:1" fill="#6c625c" d="M 119.5,55.5 C 122.167,55.5 124.833,55.5 127.5,55.5C 127.328,57.4918 127.995,59.1585 129.5,60.5C 126.908,62.2445 126.908,63.9112 129.5,65.5C 127.264,66.5462 125.264,67.8795 123.5,69.5C 122.167,69.5 120.833,69.5 119.5,69.5C 119.5,70.8333 119.5,72.1667 119.5,73.5C 116.833,73.1667 114.167,72.8333 111.5,72.5C 112.395,67.4657 113.729,62.4657 115.5,57.5C 116.183,55.8235 117.517,55.1568 119.5,55.5 Z"/></g>
<g><path style="opacity:1" fill="#94968b" d="M 250.5,53.5 C 250.5,54.8333 250.5,56.1667 250.5,57.5C 259.158,58.2482 267.491,60.4149 275.5,64C 279.688,64.1762 283.688,64.6762 287.5,65.5C 282.12,65.6757 276.787,65.3424 271.5,64.5C 265.001,62.5107 258.334,60.8441 251.5,59.5C 249.49,57.6834 249.157,55.6834 250.5,53.5 Z"/></g>
<g><path style="opacity:1" fill="#564844" d="M 245.5,55.5 C 246.5,55.5 247.5,55.5 248.5,55.5C 248.442,58.6644 247.776,61.6644 246.5,64.5C 245.5,64.5 244.5,64.5 243.5,64.5C 242.167,63.8333 241.167,62.8333 240.5,61.5C 240.167,59.5 239.833,57.5 239.5,55.5C 241.741,55.9539 243.741,55.9539 245.5,55.5 Z"/></g>
<g><path style="opacity:1" fill="#a4aa9e" d="M 252.5,48.5 C 252.821,50.0481 253.821,50.7148 255.5,50.5C 261.956,52.6172 268.623,54.4505 275.5,56C 281.077,59.4689 287.077,61.6356 293.5,62.5C 293.5,63.5 293.5,64.5 293.5,65.5C 291.5,65.5 289.5,65.5 287.5,65.5C 283.688,64.6762 279.688,64.1762 275.5,64C 267.491,60.4149 259.158,58.2482 250.5,57.5C 250.5,56.1667 250.5,54.8333 250.5,53.5C 250.5,53.1667 250.5,52.8333 250.5,52.5C 251.167,51.1667 251.833,49.8333 252.5,48.5 Z"/></g>
<g><path style="opacity:1" fill="#533743" d="M 182.5,67.5 C 182.628,69.6547 182.128,71.6547 181,73.5C 179.187,73.793 177.187,74.4597 175,75.5C 172.759,75.3199 172.259,74.4865 173.5,73C 171.392,72.6401 169.392,71.9734 167.5,71C 167.167,70 166.833,69 166.5,68C 164.167,67.6667 161.833,67.3333 159.5,67C 160.833,66.6667 162.167,66.3333 163.5,66C 161.942,65.79 160.609,65.29 159.5,64.5C 164.364,61.7567 169.697,60.09 175.5,59.5C 180.606,59.7011 182.939,62.3678 182.5,67.5 Z"/></g>
<g><path style="opacity:1" fill="#573c48" d="M 167.5,53.5 C 167.643,55.2624 167.309,56.9291 166.5,58.5C 164.5,59.3333 162.5,60.1667 160.5,61C 159.663,62.0113 159.33,63.1779 159.5,64.5C 160.609,65.29 161.942,65.79 163.5,66C 162.167,66.3333 160.833,66.6667 159.5,67C 161.833,67.3333 164.167,67.6667 166.5,68C 166.833,69 167.167,70 167.5,71C 169.392,71.9734 171.392,72.6401 173.5,73C 172.259,74.4865 172.759,75.3199 175,75.5C 177.187,74.4597 179.187,73.793 181,73.5C 182.128,71.6547 182.628,69.6547 182.5,67.5C 182.833,67.5 183.167,67.5 183.5,67.5C 183.5,69.8333 183.5,72.1667 183.5,74.5C 183.5,75.5 183.5,76.5 183.5,77.5C 183.5,78.1667 183.5,78.8333 183.5,79.5C 179.51,79.9987 175.51,80.4987 171.5,81C 172.167,81.3333 172.833,81.6667 173.5,82C 172.207,82.49 170.873,82.6567 169.5,82.5C 153.367,80.4569 137.367,77.6236 121.5,74C 125.061,72.7679 128.394,71.2679 131.5,69.5C 143.636,64.7714 155.636,59.4381 167.5,53.5 Z"/></g>
<g><path style="opacity:1" fill="#625b4e" d="M 39.5,72.5 C 39.1667,73.1667 38.8333,73.8333 38.5,74.5C 36.3193,74.2837 34.6526,75.117 33.5,77C 31.5273,77.4955 29.5273,77.6621 27.5,77.5C 26.8333,77.1667 26.1667,76.8333 25.5,76.5C 25.3343,72.1539 25.501,67.8206 26,63.5C 26.66,61.6763 27.8267,60.343 29.5,59.5C 31.6807,59.7163 33.3474,58.883 34.5,57C 36.4727,56.5045 38.4727,56.3379 40.5,56.5C 40.6713,59.7973 40.0046,60.1306 38.5,57.5C 36.1667,59.8333 33.8333,62.1667 31.5,64.5C 34.3749,65.081 37.0415,66.081 39.5,67.5C 40.0522,69.0026 40.0522,70.6693 39.5,72.5 Z"/></g>
<g><path style="opacity:1" fill="#474243" d="M 99.5,51.5 C 98.3433,54.3074 98.3433,56.9741 99.5,59.5C 100.537,61.7375 100.703,64.0709 100,66.5C 97.7678,67.843 95.9345,69.5097 94.5,71.5C 94.311,74.624 94.1443,77.9574 94,81.5C 91.846,82.2301 89.6794,82.8968 87.5,83.5C 87.0825,82.7784 86.4158,82.2784 85.5,82C 82.1832,81.5017 78.8499,81.335 75.5,81.5C 75.1961,80.8501 74.8627,80.1835 74.5,79.5C 79.7578,79.0308 84.7578,77.6975 89.5,75.5C 90.7757,72.6969 90.7757,70.0303 89.5,67.5C 88.6613,65.6161 87.328,64.2828 85.5,63.5C 86.675,63.719 87.675,63.3857 88.5,62.5C 89.1992,59.6897 90.1992,57.023 91.5,54.5C 93.7982,52.5393 96.4649,51.5393 99.5,51.5 Z"/></g>
<g><path style="opacity:1" fill="#707068" d="M 251.5,59.5 C 258.334,60.8441 265.001,62.5107 271.5,64.5C 278.189,68.6815 285.523,71.3482 293.5,72.5C 293.5,74.8333 293.5,77.1667 293.5,79.5C 288.883,78.5127 284.216,77.846 279.5,77.5C 277.747,75.7775 275.747,74.2775 273.5,73C 264.918,69.8743 256.252,67.0409 247.5,64.5C 248.279,62.323 249.613,60.6563 251.5,59.5 Z"/></g>
<g><path style="opacity:1" fill="#6c6359" d="M 63.5,69.5 C 63.1866,72.2469 63.52,74.9135 64.5,77.5C 65.1835,77.8627 65.8501,78.1961 66.5,78.5C 65.4479,80.256 63.7812,80.9227 61.5,80.5C 61.7593,84.0681 63.7593,85.4015 67.5,84.5C 67.702,86.9496 67.3686,89.283 66.5,91.5C 66.1667,91.5 65.8333,91.5 65.5,91.5C 62.9592,92.6489 60.4592,92.6489 58,91.5C 57.8155,87.3437 56.9821,83.3437 55.5,79.5C 53.3121,80.4443 51.9788,82.111 51.5,84.5C 50.3112,85.4287 48.9778,85.762 47.5,85.5C 47.6621,87.5273 47.4955,89.5273 47,91.5C 44.7463,94.0854 42.5796,96.7521 40.5,99.5C 37.5491,100.357 34.5491,100.357 31.5,99.5C 30.5222,99.189 29.8555,98.5223 29.5,97.5C 31.5435,96.9348 33.2102,95.9348 34.5,94.5C 35.6935,93.7281 36.6935,92.7281 37.5,91.5C 38.8791,88.0527 39.5458,84.386 39.5,80.5C 39.4954,78.3035 39.162,76.3035 38.5,74.5C 38.8333,73.8333 39.1667,73.1667 39.5,72.5C 40.675,72.719 41.675,72.3857 42.5,71.5C 43.0831,69.9984 43.9164,68.6651 45,67.5C 47.4686,68.1469 50.3019,68.4802 53.5,68.5C 54.0035,64.6646 55.0035,64.6646 56.5,68.5C 59.0054,67.3284 61.3387,67.6617 63.5,69.5 Z"/></g>
<g><path style="opacity:1" fill="#8b7c77" d="M 240.5,61.5 C 241.167,62.8333 242.167,63.8333 243.5,64.5C 242.911,71.5271 242.411,78.5271 242,85.5C 245.716,86.7045 249.55,87.5378 253.5,88C 254.598,88.7697 254.598,89.603 253.5,90.5C 249.538,89.6245 245.538,88.9578 241.5,88.5C 240.058,87.1805 239.392,85.5138 239.5,83.5C 239.5,82.8333 239.5,82.1667 239.5,81.5C 240.338,81.1583 240.672,80.4916 240.5,79.5C 241.634,77.0336 241.801,74.367 241,71.5C 240.755,69.3367 239.755,67.67 238,66.5C 237.506,64.8659 237.34,63.1992 237.5,61.5C 238.5,61.5 239.5,61.5 240.5,61.5 Z"/></g>
<g><path style="opacity:1" fill="#848781" d="M 271.5,64.5 C 276.787,65.3424 282.12,65.6757 287.5,65.5C 289.5,65.5 291.5,65.5 293.5,65.5C 293.5,67.8333 293.5,70.1667 293.5,72.5C 285.523,71.3482 278.189,68.6815 271.5,64.5 Z"/></g>
<g><path style="opacity:1" fill="#969387" d="M -0.5,63.5 C 4.47255,64.1637 9.47255,64.4971 14.5,64.5C 9.98435,67.9266 4.98435,70.5932 -0.5,72.5C -0.5,69.5 -0.5,66.5 -0.5,63.5 Z"/></g>
<g><path style="opacity:1" fill="#8d7e8c" d="M 187.5,64.5 C 187.5,65.8333 187.5,67.1667 187.5,68.5C 186.834,71.0277 186.168,73.6944 185.5,76.5C 184.818,75.7573 184.151,75.0906 183.5,74.5C 183.5,72.1667 183.5,69.8333 183.5,67.5C 183.694,65.0882 185.027,64.0882 187.5,64.5 Z"/></g>
<g><path style="opacity:1" fill="#644259" d="M 187.5,64.5 C 188.156,65.2778 188.989,65.9444 190,66.5C 195.785,65.5656 201.618,65.2323 207.5,65.5C 207.5,66.5 207.5,67.5 207.5,68.5C 205.473,68.3379 203.473,68.5045 201.5,69C 200.244,69.4169 199.577,70.2502 199.5,71.5C 199.5,71.8333 199.5,72.1667 199.5,72.5C 195.5,72.8333 191.5,73.1667 187.5,73.5C 187.5,71.8333 187.5,70.1667 187.5,68.5C 187.5,67.1667 187.5,65.8333 187.5,64.5 Z"/></g>
<g><path style="opacity:1" fill="#3a3335" d="M 79.5,60.5 C 79.405,62.7857 78.7384,64.7857 77.5,66.5C 75.4999,68.9716 73.1666,71.1383 70.5,73C 70.8333,73.3333 71.1667,73.6667 71.5,74C 69.5594,74.7429 67.7261,74.5762 66,73.5C 64.7496,70.9234 64.4163,68.2567 65,65.5C 65.3542,63.1925 66.3542,62.8592 68,64.5C 72.0038,63.5777 75.8372,62.2444 79.5,60.5 Z"/></g>
<g><path style="opacity:1" fill="#655c58" d="M 82.5,59.5 C 82.8333,59.5 83.1667,59.5 83.5,59.5C 84.6005,60.6049 85.2671,61.9382 85.5,63.5C 87.328,64.2828 88.6613,65.6161 89.5,67.5C 89.5,69.5 89.5,71.5 89.5,73.5C 86.2139,72.7929 82.8806,72.4595 79.5,72.5C 79.8333,68.5 80.1667,64.5 80.5,60.5C 80.8417,59.6618 81.5084,59.3284 82.5,59.5 Z"/></g>
<g><path style="opacity:1" fill="#757068" d="M 115.5,57.5 C 113.729,62.4657 112.395,67.4657 111.5,72.5C 114.167,72.8333 116.833,73.1667 119.5,73.5C 119.5,74.5 119.5,75.5 119.5,76.5C 116.214,77.2071 112.881,77.5405 109.5,77.5C 107.718,78.7196 105.718,79.3862 103.5,79.5C 100.728,79.22 98.2276,79.8866 96,81.5C 95.6614,78.1204 95.1614,74.7871 94.5,71.5C 95.9345,69.5097 97.7678,67.843 100,66.5C 100.703,64.0709 100.537,61.7375 99.5,59.5C 102.788,59.927 105.788,59.2603 108.5,57.5C 109.192,58.0253 109.692,58.6919 110,59.5C 111.444,57.8446 113.278,57.178 115.5,57.5 Z"/></g>
<g><path style="opacity:1" fill="#786977" d="M 187.5,68.5 C 187.5,70.1667 187.5,71.8333 187.5,73.5C 191.5,73.1667 195.5,72.8333 199.5,72.5C 202.187,72.3359 204.854,72.5026 207.5,73C 206.167,73.6667 204.833,74.3333 203.5,75C 198.177,75.4994 192.844,75.666 187.5,75.5C 187.719,76.675 187.386,77.675 186.5,78.5C 185.583,77.8728 184.583,77.5394 183.5,77.5C 183.5,76.5 183.5,75.5 183.5,74.5C 184.151,75.0906 184.818,75.7573 185.5,76.5C 186.168,73.6944 186.834,71.0277 187.5,68.5 Z"/></g>
<g><path style="opacity:1" fill="#614b4a" d="M 240.5,79.5 C 240.672,80.4916 240.338,81.1583 239.5,81.5C 239.5,80.1667 238.833,79.5 237.5,79.5C 232.25,80.8603 229.583,78.8603 229.5,73.5C 229.043,72.7025 228.376,72.3691 227.5,72.5C 228.598,71.603 228.598,70.7697 227.5,70C 230.89,69.7537 234.223,69.2537 237.5,68.5C 239.879,71.7511 240.879,75.4177 240.5,79.5 Z"/></g>
<g><path style="opacity:1" fill="#655961" d="M 199.5,72.5 C 199.5,72.1667 199.5,71.8333 199.5,71.5C 202.833,71.5 206.167,71.5 209.5,71.5C 210.66,72.265 211.66,73.265 212.5,74.5C 211.995,75.9185 210.995,76.5852 209.5,76.5C 208.833,76.8333 208.167,77.1667 207.5,77.5C 200.041,76.8077 193.041,78.141 186.5,81.5C 185.261,81.0576 184.261,80.3909 183.5,79.5C 183.5,78.8333 183.5,78.1667 183.5,77.5C 184.583,77.5394 185.583,77.8728 186.5,78.5C 187.386,77.675 187.719,76.675 187.5,75.5C 192.844,75.666 198.177,75.4994 203.5,75C 204.833,74.3333 206.167,73.6667 207.5,73C 204.854,72.5026 202.187,72.3359 199.5,72.5 Z"/></g>
<g><path style="opacity:1" fill="#514945" d="M 79.5,60.5 C 79.8333,60.5 80.1667,60.5 80.5,60.5C 80.1667,64.5 79.8333,68.5 79.5,72.5C 82.8806,72.4595 86.2139,72.7929 89.5,73.5C 89.5,71.5 89.5,69.5 89.5,67.5C 90.7757,70.0303 90.7757,72.6969 89.5,75.5C 84.7578,77.6975 79.7578,79.0308 74.5,79.5C 74.8627,80.1835 75.1961,80.8501 75.5,81.5C 73.2495,81.1814 71.2495,81.6814 69.5,83C 70.448,83.4828 71.448,83.6495 72.5,83.5C 72.67,84.8221 72.3366,85.9887 71.5,87C 72.0944,87.4643 72.7611,87.631 73.5,87.5C 71.4163,89.246 69.083,90.5793 66.5,91.5C 67.3686,89.283 67.702,86.9496 67.5,84.5C 63.7593,85.4015 61.7593,84.0681 61.5,80.5C 63.7812,80.9227 65.4479,80.256 66.5,78.5C 68.1992,78.6602 69.8659,78.4935 71.5,78C 71.0426,77.586 70.7093,77.086 70.5,76.5C 71.781,74.4004 73.4476,72.7337 75.5,71.5C 76.562,69.9783 77.2287,68.3117 77.5,66.5C 78.7384,64.7857 79.405,62.7857 79.5,60.5 Z"/></g>
<g><path style="opacity:1" fill="#5a4346" d="M 209.5,63.5 C 211.453,65.3719 212.953,67.7053 214,70.5C 217.853,74.9373 222.353,75.604 227.5,72.5C 228.376,72.3691 229.043,72.7025 229.5,73.5C 229.583,78.8603 232.25,80.8603 237.5,79.5C 236.233,81.7726 234.567,83.7726 232.5,85.5C 230.142,83.9757 228.309,81.9757 227,79.5C 226.667,80.5 226.333,81.5 226,82.5C 224.261,80.7166 222.428,79.0499 220.5,77.5C 218.5,78.1667 216.5,78.8333 214.5,79.5C 212.897,78.2066 211.231,77.2066 209.5,76.5C 210.995,76.5852 211.995,75.9185 212.5,74.5C 211.66,73.265 210.66,72.265 209.5,71.5C 209.5,68.8333 209.5,66.1667 209.5,63.5 Z"/></g>
<g><path style="opacity:1" fill="#847f78" d="M 279.5,77.5 C 284.216,77.846 288.883,78.5127 293.5,79.5C 293.5,103.5 293.5,127.5 293.5,151.5C 288.737,151.774 284.07,151.441 279.5,150.5C 279.5,148.833 279.5,147.167 279.5,145.5C 279.334,141.486 279.501,137.486 280,133.5C 281.699,132.594 283.533,132.261 285.5,132.5C 285.715,130.821 285.048,129.821 283.5,129.5C 284.167,128.833 284.833,128.167 285.5,127.5C 287.167,127.5 288.833,127.5 290.5,127.5C 290.383,125.516 291.05,123.85 292.5,122.5C 291.36,120.527 290.027,118.693 288.5,117C 284.819,116.128 281.819,114.294 279.5,111.5C 279.5,105.5 279.5,99.5 279.5,93.5C 271.686,92.5657 264.019,91.5657 256.5,90.5C 259.487,90.0022 262.487,89.5022 265.5,89C 267.135,87.2518 269.135,86.0851 271.5,85.5C 272.761,83.5466 273.927,81.5466 275,79.5C 276.049,81.1066 277.549,81.7733 279.5,81.5C 279.5,80.1667 279.5,78.8333 279.5,77.5 Z"/></g>
<g><path style="opacity:1" fill="#8b877e" d="M 243.5,64.5 C 244.5,64.5 245.5,64.5 246.5,64.5C 246.833,64.5 247.167,64.5 247.5,64.5C 256.252,67.0409 264.918,69.8743 273.5,73C 275.747,74.2775 277.747,75.7775 279.5,77.5C 279.5,78.8333 279.5,80.1667 279.5,81.5C 277.549,81.7733 276.049,81.1066 275,79.5C 273.927,81.5466 272.761,83.5466 271.5,85.5C 269.135,86.0851 267.135,87.2518 265.5,89C 262.487,89.5022 259.487,90.0022 256.5,90.5C 255.5,90.5 254.5,90.5 253.5,90.5C 254.598,89.603 254.598,88.7697 253.5,88C 249.55,87.5378 245.716,86.7045 242,85.5C 242.411,78.5271 242.911,71.5271 243.5,64.5 Z"/></g>
<g><path style="opacity:1" fill="#6b5e58" d="M 65.5,91.5 C 65.1667,92.1667 64.8333,92.8333 64.5,93.5C 60.8333,93.5 57.1667,93.5 53.5,93.5C 53.1742,95.6607 52.1742,97.4941 50.5,99C 46.8007,100.519 43.1341,102.019 39.5,103.5C 39.719,104.675 39.3857,105.675 38.5,106.5C 36.3379,108.02 34.0046,109.02 31.5,109.5C 30.1667,106.167 30.1667,102.833 31.5,99.5C 34.5491,100.357 37.5491,100.357 40.5,99.5C 42.5796,96.7521 44.7463,94.0854 47,91.5C 47.4955,89.5273 47.6621,87.5273 47.5,85.5C 48.9778,85.762 50.3112,85.4287 51.5,84.5C 51.9788,82.111 53.3121,80.4443 55.5,79.5C 56.9821,83.3437 57.8155,87.3437 58,91.5C 60.4592,92.6489 62.9592,92.6489 65.5,91.5 Z"/></g>
<g><path style="opacity:1" fill="#b9b4a3" d="M 14.5,64.5 C 17.8333,64.5 21.1667,64.5 24.5,64.5C 24.5,68.1667 24.5,71.8333 24.5,75.5C 23.5655,76.5676 23.2322,77.901 23.5,79.5C 20.1498,82.6938 17.3165,86.3605 15,90.5C 9.96189,88.8794 4.79522,88.2127 -0.5,88.5C -0.5,83.1667 -0.5,77.8333 -0.5,72.5C 4.98435,70.5932 9.98435,67.9266 14.5,64.5 Z"/></g>
<g><path style="opacity:1" fill="#605356" d="M 94.5,71.5 C 95.1614,74.7871 95.6614,78.1204 96,81.5C 98.2276,79.8866 100.728,79.22 103.5,79.5C 103.5,80.1667 103.5,80.8333 103.5,81.5C 95.9982,83.4213 88.3315,84.7547 80.5,85.5C 82.6568,84.5933 84.9902,83.9267 87.5,83.5C 89.6794,82.8968 91.846,82.2301 94,81.5C 94.1443,77.9574 94.311,74.624 94.5,71.5 Z"/></g>
<g><path style="opacity:1" fill="#7d6567" d="M 119.5,76.5 C 123.311,76.5958 123.311,77.2624 119.5,78.5C 127.5,79.1667 135.5,79.8333 143.5,80.5C 146.485,81.9074 148.985,83.9074 151,86.5C 157.046,87.2512 163.213,87.2512 169.5,86.5C 176.668,87.9205 177.668,90.7538 172.5,95C 168.311,96.6309 163.978,97.4643 159.5,97.5C 159.5,96.1667 159.5,94.8333 159.5,93.5C 148.743,93.1909 138.076,92.0243 127.5,90C 123.156,88.5903 119.156,86.5903 115.5,84C 113.527,83.5045 111.527,83.3379 109.5,83.5C 109.5,81.5 109.5,79.5 109.5,77.5C 112.881,77.5405 116.214,77.2071 119.5,76.5 Z"/></g>
<g><path style="opacity:1" fill="#5d474f" d="M 207.5,77.5 C 207.209,78.6491 206.376,79.3158 205,79.5C 199.679,79.6109 195.179,81.4443 191.5,85C 195.546,86.0614 199.546,87.2281 203.5,88.5C 206.059,94.3409 205.725,100.174 202.5,106C 199.625,107.065 196.625,107.565 193.5,107.5C 187.307,107.243 181.307,106.576 175.5,105.5C 182.843,105.891 190.176,106.057 197.5,106C 198.667,105.5 199.5,104.667 200,103.5C 199.611,100.268 199.778,97.1016 200.5,94C 200.042,91.6023 198.708,89.9356 196.5,89C 188.482,85.7454 180.148,83.9121 171.5,83.5C 170.508,83.6716 169.842,83.3382 169.5,82.5C 170.873,82.6567 172.207,82.49 173.5,82C 172.833,81.6667 172.167,81.3333 171.5,81C 175.51,80.4987 179.51,79.9987 183.5,79.5C 184.261,80.3909 185.261,81.0576 186.5,81.5C 193.041,78.141 200.041,76.8077 207.5,77.5 Z"/></g>
<g><path style="opacity:1" fill="#503841" d="M 209.5,76.5 C 211.231,77.2066 212.897,78.2066 214.5,79.5C 216.5,78.8333 218.5,78.1667 220.5,77.5C 222.428,79.0499 224.261,80.7166 226,82.5C 226.333,81.5 226.667,80.5 227,79.5C 228.309,81.9757 230.142,83.9757 232.5,85.5C 234.567,83.7726 236.233,81.7726 237.5,79.5C 238.833,79.5 239.5,80.1667 239.5,81.5C 239.5,82.1667 239.5,82.8333 239.5,83.5C 238.046,86.3533 237.046,89.3533 236.5,92.5C 235.662,92.8417 235.328,93.5084 235.5,94.5C 234.778,94.9175 234.278,95.5842 234,96.5C 233.224,93.3514 231.724,92.8514 229.5,95C 228.283,96.6477 227.45,98.481 227,100.5C 226.506,98.8659 226.34,97.1992 226.5,95.5C 225.5,95.5 224.5,95.5 223.5,95.5C 223.5,98.8333 223.5,102.167 223.5,105.5C 222.5,105.5 221.5,105.5 220.5,105.5C 220.662,103.473 220.495,101.473 220,99.5C 218.246,101.25 216.079,101.917 213.5,101.5C 215.066,96.2827 213.733,91.7827 209.5,88C 208.563,87.3083 207.897,87.475 207.5,88.5C 206.039,87.3143 204.705,87.3143 203.5,88.5C 199.546,87.2281 195.546,86.0614 191.5,85C 195.179,81.4443 199.679,79.6109 205,79.5C 206.376,79.3158 207.209,78.6491 207.5,77.5C 208.167,77.1667 208.833,76.8333 209.5,76.5 Z"/></g>
<g><path style="opacity:1" fill="#7f7463" d="M 38.5,74.5 C 39.162,76.3035 39.4954,78.3035 39.5,80.5C 39.5458,84.386 38.8791,88.0527 37.5,91.5C 36.8614,90.9032 36.528,90.0698 36.5,89C 38.0281,86.7187 38.5281,84.2187 38,81.5C 35.2497,85.3318 32.7497,89.3318 30.5,93.5C 31.6888,94.4287 33.0222,94.762 34.5,94.5C 33.2102,95.9348 31.5435,96.9348 29.5,97.5C 29.8555,98.5223 30.5222,99.189 31.5,99.5C 30.1667,102.833 30.1667,106.167 31.5,109.5C 28.8333,109.5 26.1667,109.5 23.5,109.5C 23.6107,108.883 23.944,108.383 24.5,108C 22.1667,107.667 19.8333,107.333 17.5,107C 19.3734,104.791 21.54,102.958 24,101.5C 24.7914,100.255 25.2914,98.9217 25.5,97.5C 28.6659,93.3102 30.9993,88.6436 32.5,83.5C 31.8333,82.8333 31.1667,82.1667 30.5,81.5C 31.8333,80.8333 33.1667,80.1667 34.5,79.5C 32.0312,78.8319 29.6979,78.1653 27.5,77.5C 29.5273,77.6621 31.5273,77.4955 33.5,77C 34.6526,75.117 36.3193,74.2837 38.5,74.5 Z"/></g>
<g><path style="opacity:1" fill="#38312f" d="M 75.5,81.5 C 78.8499,81.335 82.1832,81.5017 85.5,82C 86.4158,82.2784 87.0825,82.7784 87.5,83.5C 84.9902,83.9267 82.6568,84.5933 80.5,85.5C 80.1667,85.5 79.8333,85.5 79.5,85.5C 77.5,86.1667 75.5,86.8333 73.5,87.5C 72.7611,87.631 72.0944,87.4643 71.5,87C 72.3366,85.9887 72.67,84.8221 72.5,83.5C 71.448,83.6495 70.448,83.4828 69.5,83C 71.2495,81.6814 73.2495,81.1814 75.5,81.5 Z"/></g>
<g><path style="opacity:1" fill="#775e63" d="M 123.5,69.5 C 123.783,70.2891 124.283,70.9558 125,71.5C 126.754,69.75 128.921,69.0833 131.5,69.5C 128.394,71.2679 125.061,72.7679 121.5,74C 137.367,77.6236 153.367,80.4569 169.5,82.5C 169.842,83.3382 170.508,83.6716 171.5,83.5C 171.611,84.1174 171.944,84.6174 172.5,85C 176.558,85.3404 180.558,86.0071 184.5,87C 184.167,87.3333 183.833,87.6667 183.5,88C 185.607,89.2635 186.607,91.0968 186.5,93.5C 188.665,93.1159 190.332,93.7826 191.5,95.5C 187.849,103.015 181.849,105.682 173.5,103.5C 171.265,103.795 169.265,103.461 167.5,102.5C 162.48,100.591 157.147,99.5908 151.5,99.5C 152.035,96.7615 151.035,94.9282 148.5,94C 142.509,93.5005 136.509,93.3338 130.5,93.5C 122.78,93.7616 115.113,93.2616 107.5,92C 106.556,89.2809 106.223,86.4475 106.5,83.5C 104.821,83.7148 103.821,83.0481 103.5,81.5C 103.5,80.8333 103.5,80.1667 103.5,79.5C 105.718,79.3862 107.718,78.7196 109.5,77.5C 109.5,79.5 109.5,81.5 109.5,83.5C 111.527,83.3379 113.527,83.5045 115.5,84C 119.156,86.5903 123.156,88.5903 127.5,90C 138.076,92.0243 148.743,93.1909 159.5,93.5C 159.5,94.8333 159.5,96.1667 159.5,97.5C 163.978,97.4643 168.311,96.6309 172.5,95C 177.668,90.7538 176.668,87.9205 169.5,86.5C 163.213,87.2512 157.046,87.2512 151,86.5C 148.985,83.9074 146.485,81.9074 143.5,80.5C 135.5,79.8333 127.5,79.1667 119.5,78.5C 123.311,77.2624 123.311,76.5958 119.5,76.5C 119.5,75.5 119.5,74.5 119.5,73.5C 119.5,72.1667 119.5,70.8333 119.5,69.5C 120.833,69.5 122.167,69.5 123.5,69.5 Z"/></g>
<g><path style="opacity:1" fill="#978f7c" d="M 23.5,79.5 C 23.3739,81.1998 22.7073,82.6998 21.5,84C 23.1408,85.6458 22.8075,86.6458 20.5,87C 22.8468,87.8456 24.6801,89.3456 26,91.5C 26.6838,92.7839 26.5171,93.9505 25.5,95C 17.0953,93.0809 8.4286,91.9142 -0.5,91.5C -0.5,90.5 -0.5,89.5 -0.5,88.5C 4.79522,88.2127 9.96189,88.8794 15,90.5C 17.3165,86.3605 20.1498,82.6938 23.5,79.5 Z"/></g>
<g><path style="opacity:1" fill="#a09786" d="M 37.5,91.5 C 36.6935,92.7281 35.6935,93.7281 34.5,94.5C 33.0222,94.762 31.6888,94.4287 30.5,93.5C 32.7497,89.3318 35.2497,85.3318 38,81.5C 38.5281,84.2187 38.0281,86.7187 36.5,89C 36.528,90.0698 36.8614,90.9032 37.5,91.5 Z"/></g>
<g><path style="opacity:1" fill="#543743" d="M 235.5,94.5 C 235.146,98.2298 233.813,101.563 231.5,104.5C 231.709,105.086 232.043,105.586 232.5,106C 232.176,110.864 231.176,115.364 229.5,119.5C 222.442,119.797 215.442,119.464 208.5,118.5C 207.866,120.567 206.866,122.4 205.5,124C 202.183,124.498 198.85,124.665 195.5,124.5C 195.5,122.833 195.5,121.167 195.5,119.5C 198.572,119.817 201.572,119.484 204.5,118.5C 203.96,117.252 203.293,116.085 202.5,115C 203.624,114.161 204.291,112.994 204.5,111.5C 204.36,109.97 203.693,108.97 202.5,108.5C 203.914,106.946 205.581,105.612 207.5,104.5C 206.968,99.2282 206.968,93.8949 207.5,88.5C 207.897,87.475 208.563,87.3083 209.5,88C 213.733,91.7827 215.066,96.2827 213.5,101.5C 216.079,101.917 218.246,101.25 220,99.5C 220.495,101.473 220.662,103.473 220.5,105.5C 221.5,105.5 222.5,105.5 223.5,105.5C 223.5,102.167 223.5,98.8333 223.5,95.5C 224.5,95.5 225.5,95.5 226.5,95.5C 226.34,97.1992 226.506,98.8659 227,100.5C 227.45,98.481 228.283,96.6477 229.5,95C 231.724,92.8514 233.224,93.3514 234,96.5C 234.278,95.5842 234.778,94.9175 235.5,94.5 Z"/></g>
<g><path style="opacity:1" fill="#7e7167" d="M 253.5,90.5 C 254.5,90.5 255.5,90.5 256.5,90.5C 264.019,91.5657 271.686,92.5657 279.5,93.5C 279.5,99.5 279.5,105.5 279.5,111.5C 277.833,111.5 276.167,111.5 274.5,111.5C 275.024,107.69 273.357,105.69 269.5,105.5C 265.941,104.575 262.607,103.242 259.5,101.5C 259.657,100.127 259.49,98.7932 259,97.5C 257.027,96.3601 255.193,95.0267 253.5,93.5C 254.025,92.8076 254.692,92.3076 255.5,92C 254.584,91.7216 253.918,91.2216 253.5,90.5 Z"/></g>
<g><path style="opacity:1" fill="#908472" d="M 24.5,75.5 C 24.5,76.1667 24.8333,76.5 25.5,76.5C 26.1667,76.8333 26.8333,77.1667 27.5,77.5C 29.6979,78.1653 32.0312,78.8319 34.5,79.5C 33.1667,80.1667 31.8333,80.8333 30.5,81.5C 31.1667,82.1667 31.8333,82.8333 32.5,83.5C 30.9993,88.6436 28.6659,93.3102 25.5,97.5C 21.6651,100.511 17.8318,103.511 14,106.5C 14.8753,104.689 15.2086,102.689 15,100.5C 14.7508,101.624 14.2508,102.624 13.5,103.5C 12.6344,101.418 11.1344,100.085 9,99.5C 7.12854,99.7094 5.96188,100.709 5.5,102.5C 3.60395,103.466 1.60395,103.799 -0.5,103.5C -0.5,99.5 -0.5,95.5 -0.5,91.5C 8.4286,91.9142 17.0953,93.0809 25.5,95C 26.5171,93.9505 26.6838,92.7839 26,91.5C 24.6801,89.3456 22.8468,87.8456 20.5,87C 22.8075,86.6458 23.1408,85.6458 21.5,84C 22.7073,82.6998 23.3739,81.1998 23.5,79.5C 23.2322,77.901 23.5655,76.5676 24.5,75.5 Z"/></g>
<g><path style="opacity:1" fill="#644d59" d="M 103.5,81.5 C 103.821,83.0481 104.821,83.7148 106.5,83.5C 106.223,86.4475 106.556,89.2809 107.5,92C 115.113,93.2616 122.78,93.7616 130.5,93.5C 132.72,96.7696 135.72,98.7696 139.5,99.5C 137.856,99.2865 136.356,99.6198 135,100.5C 132.151,98.6905 128.985,97.6905 125.5,97.5C 125.5,96.5 125.5,95.5 125.5,94.5C 119.131,94.4245 112.798,94.2578 106.5,94C 104.808,95.4007 104.141,97.2341 104.5,99.5C 103.705,106.087 103.205,112.754 103,119.5C 102.722,120.416 102.222,121.082 101.5,121.5C 100.935,123.386 99.9348,125.053 98.5,126.5C 96.9541,122.097 93.9541,119.93 89.5,120C 94.4615,121.297 95.1282,123.297 91.5,126C 92.7932,126.49 94.1266,126.657 95.5,126.5C 95.5,127.5 95.5,128.5 95.5,129.5C 91.0329,129.133 86.6996,129.633 82.5,131C 82.8333,131.333 83.1667,131.667 83.5,132C 86.5251,132.133 89.1918,133.133 91.5,135C 87.8691,137.243 83.8691,138.077 79.5,137.5C 79.1667,137.5 78.8333,137.5 78.5,137.5C 78.5394,136.417 78.8728,135.417 79.5,134.5C 78.383,133.051 77.7163,131.384 77.5,129.5C 81.6911,115.01 82.3577,100.343 79.5,85.5C 79.8333,85.5 80.1667,85.5 80.5,85.5C 88.3315,84.7547 95.9982,83.4213 103.5,81.5 Z"/></g>
<g><path style="opacity:1" fill="#6b535a" d="M 171.5,83.5 C 180.148,83.9121 188.482,85.7454 196.5,89C 198.708,89.9356 200.042,91.6023 200.5,94C 199.778,97.1016 199.611,100.268 200,103.5C 199.5,104.667 198.667,105.5 197.5,106C 190.176,106.057 182.843,105.891 175.5,105.5C 174.833,104.833 174.167,104.167 173.5,103.5C 181.849,105.682 187.849,103.015 191.5,95.5C 190.332,93.7826 188.665,93.1159 186.5,93.5C 186.607,91.0968 185.607,89.2635 183.5,88C 183.833,87.6667 184.167,87.3333 184.5,87C 180.558,86.0071 176.558,85.3404 172.5,85C 171.944,84.6174 171.611,84.1174 171.5,83.5 Z"/></g>
<g><path style="opacity:1" fill="#583e4b" d="M 59.5,129.5 C 56.9429,130.485 54.2763,131.485 51.5,132.5C 52.9079,133.243 54.2412,134.077 55.5,135C 60.039,135.253 64.539,135.753 69,136.5C 70.6413,135.486 71.8079,134.486 72.5,133.5C 73.9778,133.238 75.3112,133.571 76.5,134.5C 74.8164,135.15 73.4831,136.15 72.5,137.5C 66.1318,137.83 59.7985,137.496 53.5,136.5C 50.7833,136.026 48.4499,135.026 46.5,133.5C 46.4326,132.041 46.7659,130.708 47.5,129.5C 51.3246,130.211 54.3246,129.045 56.5,126C 57.448,125.517 58.448,125.351 59.5,125.5C 59.7135,123.856 59.3802,122.356 58.5,121C 54.6224,119.53 50.6224,118.697 46.5,118.5C 45.6766,113.661 47.6766,111.327 52.5,111.5C 52.4609,109.641 53.2942,108.308 55,107.5C 55.3333,105.5 55.6667,103.5 56,101.5C 56.1129,103.974 57.1129,105.974 59,107.5C 63.372,104.636 65.872,100.636 66.5,95.5C 68.7373,94.551 71.0706,93.8844 73.5,93.5C 73.6495,94.552 73.4828,95.552 73,96.5C 70.5197,97.9817 68.3531,99.815 66.5,102C 66.9903,103.982 67.9903,105.649 69.5,107C 68.1667,108.333 66.8333,109.667 65.5,111C 65.6651,112.117 65.9984,113.284 66.5,114.5C 65.0095,115.244 63.5095,115.91 62,116.5C 61.2483,119.894 61.4149,123.227 62.5,126.5C 61.2299,127.288 60.2299,128.288 59.5,129.5 Z"/></g>
<g><path style="opacity:1" fill="#634652" d="M 64.5,93.5 C 65.1667,94.1667 65.8333,94.8333 66.5,95.5C 65.872,100.636 63.372,104.636 59,107.5C 57.1129,105.974 56.1129,103.974 56,101.5C 55.6667,103.5 55.3333,105.5 55,107.5C 53.2942,108.308 52.4609,109.641 52.5,111.5C 47.6766,111.327 45.6766,113.661 46.5,118.5C 50.6224,118.697 54.6224,119.53 58.5,121C 59.3802,122.356 59.7135,123.856 59.5,125.5C 58.448,125.351 57.448,125.517 56.5,126C 54.3246,129.045 51.3246,130.211 47.5,129.5C 47.5,126.167 47.5,122.833 47.5,119.5C 38.1667,119.5 28.8333,119.5 19.5,119.5C 19.5,118.833 19.5,118.167 19.5,117.5C 19.5,116.167 19.5,114.833 19.5,113.5C 22.8851,113.154 26.2184,112.488 29.5,111.5C 30.7133,111.253 31.38,110.586 31.5,109.5C 34.0046,109.02 36.3379,108.02 38.5,106.5C 39.3857,105.675 39.719,104.675 39.5,103.5C 43.1341,102.019 46.8007,100.519 50.5,99C 52.1742,97.4941 53.1742,95.6607 53.5,93.5C 57.1667,93.5 60.8333,93.5 64.5,93.5 Z"/></g>
<g><path style="opacity:1" fill="#6b5157" d="M 239.5,83.5 C 239.392,85.5138 240.058,87.1805 241.5,88.5C 241.822,90.7224 241.155,92.5557 239.5,94C 240.126,94.7504 240.626,95.5838 241,96.5C 241.333,96.1667 241.667,95.8333 242,95.5C 242.483,96.448 242.649,97.448 242.5,98.5C 244.861,98.6741 247.194,99.0074 249.5,99.5C 249.16,102.144 249.827,104.477 251.5,106.5C 250.145,107.675 250.312,108.675 252,109.5C 252.333,109.167 252.667,108.833 253,108.5C 253.495,110.473 253.662,112.473 253.5,114.5C 252.395,121.081 248.395,124.414 241.5,124.5C 239.059,125.709 237.059,127.376 235.5,129.5C 234.5,129.5 233.5,129.5 232.5,129.5C 233.029,127.417 234.029,125.583 235.5,124C 239.041,121.14 242.874,118.64 247,116.5C 247.817,112.289 245.984,110.289 241.5,110.5C 240.734,106.168 239.9,101.834 239,97.5C 238.692,98.3081 238.192,98.9747 237.5,99.5C 236.526,97.2573 236.192,94.924 236.5,92.5C 237.046,89.3533 238.046,86.3533 239.5,83.5 Z"/></g>
<g><path style="opacity:1" fill="#6e5657" d="M 241.5,88.5 C 245.538,88.9578 249.538,89.6245 253.5,90.5C 253.918,91.2216 254.584,91.7216 255.5,92C 254.692,92.3076 254.025,92.8076 253.5,93.5C 255.193,95.0267 257.027,96.3601 259,97.5C 259.49,98.7932 259.657,100.127 259.5,101.5C 262.607,103.242 265.941,104.575 269.5,105.5C 273.229,108.579 273.229,111.579 269.5,114.5C 264.188,115.437 258.854,115.437 253.5,114.5C 253.662,112.473 253.495,110.473 253,108.5C 252.667,108.833 252.333,109.167 252,109.5C 250.312,108.675 250.145,107.675 251.5,106.5C 249.827,104.477 249.16,102.144 249.5,99.5C 247.194,99.0074 244.861,98.6741 242.5,98.5C 242.649,97.448 242.483,96.448 242,95.5C 241.667,95.8333 241.333,96.1667 241,96.5C 240.626,95.5838 240.126,94.7504 239.5,94C 241.155,92.5557 241.822,90.7224 241.5,88.5 Z"/></g>
<g><path style="opacity:1" fill="#5a3a48" d="M 202.5,108.5 C 203.693,108.97 204.36,109.97 204.5,111.5C 204.291,112.994 203.624,114.161 202.5,115C 203.293,116.085 203.96,117.252 204.5,118.5C 201.572,119.484 198.572,119.817 195.5,119.5C 195.5,121.167 195.5,122.833 195.5,124.5C 191.593,126.47 187.593,127.137 183.5,126.5C 183.859,128.766 183.192,130.599 181.5,132C 181.833,132.333 182.167,132.667 182.5,133C 178.409,133.645 174.409,134.645 170.5,136C 171.99,136.745 172.99,137.912 173.5,139.5C 172.802,140.863 172.802,142.029 173.5,143C 172.906,143.464 172.239,143.631 171.5,143.5C 170.833,143.5 170.167,143.5 169.5,143.5C 167.11,140.972 164.11,139.472 160.5,139C 161.191,137.933 161.691,136.766 162,135.5C 163.84,136.833 164.34,136.666 163.5,135C 167.62,133.721 168.62,131.221 166.5,127.5C 160.033,125.872 153.367,125.205 146.5,125.5C 146.5,123.833 146.5,122.167 146.5,120.5C 149.685,120.02 152.519,120.686 155,122.5C 159.194,120.235 163.694,119.235 168.5,119.5C 168.372,117.345 168.872,115.345 170,113.5C 172.569,112.476 175.402,111.143 178.5,109.5C 177.271,108.719 175.938,108.219 174.5,108C 177.13,107.155 179.464,107.655 181.5,109.5C 183.061,108.653 184.561,108.986 186,110.5C 186.333,109.833 186.667,109.167 187,108.5C 192.106,109.545 197.273,109.545 202.5,108.5 Z"/></g>
<g><path style="opacity:1" fill="#5e3e4c" d="M 203.5,88.5 C 204.705,87.3143 206.039,87.3143 207.5,88.5C 206.968,93.8949 206.968,99.2282 207.5,104.5C 205.581,105.612 203.914,106.946 202.5,108.5C 197.273,109.545 192.106,109.545 187,108.5C 186.667,109.167 186.333,109.833 186,110.5C 184.561,108.986 183.061,108.653 181.5,109.5C 179.464,107.655 177.13,107.155 174.5,108C 175.938,108.219 177.271,108.719 178.5,109.5C 175.402,111.143 172.569,112.476 170,113.5C 168.872,115.345 168.372,117.345 168.5,119.5C 163.694,119.235 159.194,120.235 155,122.5C 152.519,120.686 149.685,120.02 146.5,120.5C 146.5,122.167 146.5,123.833 146.5,125.5C 153.367,125.205 160.033,125.872 166.5,127.5C 168.62,131.221 167.62,133.721 163.5,135C 164.34,136.666 163.84,136.833 162,135.5C 161.691,136.766 161.191,137.933 160.5,139C 164.11,139.472 167.11,140.972 169.5,143.5C 164.36,144.041 159.693,142.874 155.5,140C 143.302,137.662 131.302,135.162 119.5,132.5C 124.762,132.195 129.928,132.529 135,133.5C 135.5,133 136,132.5 136.5,132C 134.382,131.74 132.716,130.74 131.5,129C 127.172,128.653 123.172,127.486 119.5,125.5C 119.5,123.833 119.5,122.167 119.5,120.5C 121.861,120.326 124.194,119.993 126.5,119.5C 126.833,114.5 124.5,112.167 119.5,112.5C 119.784,109.223 119.451,106.057 118.5,103C 114.022,101.087 109.355,99.9202 104.5,99.5C 104.141,97.2341 104.808,95.4007 106.5,94C 112.798,94.2578 119.131,94.4245 125.5,94.5C 125.5,95.5 125.5,96.5 125.5,97.5C 128.985,97.6905 132.151,98.6905 135,100.5C 136.356,99.6198 137.856,99.2865 139.5,99.5C 148.805,100.827 158.138,101.827 167.5,102.5C 169.265,103.461 171.265,103.795 173.5,103.5C 174.167,104.167 174.833,104.833 175.5,105.5C 181.307,106.576 187.307,107.243 193.5,107.5C 196.625,107.565 199.625,107.065 202.5,106C 205.725,100.174 206.059,94.3409 203.5,88.5 Z"/></g>
<g><path style="opacity:1" fill="#795964" d="M 130.5,93.5 C 136.509,93.3338 142.509,93.5005 148.5,94C 151.035,94.9282 152.035,96.7615 151.5,99.5C 157.147,99.5908 162.48,100.591 167.5,102.5C 158.138,101.827 148.805,100.827 139.5,99.5C 135.72,98.7696 132.72,96.7696 130.5,93.5 Z"/></g>
<g><path style="opacity:1" fill="#988676" d="M 3.5,119.5 C 2.16667,119.5 0.833333,119.5 -0.5,119.5C -0.5,117.167 -0.5,114.833 -0.5,112.5C 4.74758,113.006 7.58092,110.673 8,105.5C 8.74117,106.641 9.57451,106.641 10.5,105.5C 10.8333,106.167 11.1667,106.833 11.5,107.5C 9.17385,111.808 6.50719,115.808 3.5,119.5 Z"/></g>
<g><path style="opacity:1" fill="#5f464e" d="M 236.5,92.5 C 236.192,94.924 236.526,97.2573 237.5,99.5C 238.192,98.9747 238.692,98.3081 239,97.5C 239.9,101.834 240.734,106.168 241.5,110.5C 245.984,110.289 247.817,112.289 247,116.5C 242.874,118.64 239.041,121.14 235.5,124C 234.029,125.583 233.029,127.417 232.5,129.5C 229.519,129.182 227.185,130.182 225.5,132.5C 224.833,132.5 224.167,132.5 223.5,132.5C 226.373,129.866 228.707,126.7 230.5,123C 229.663,121.989 229.33,120.822 229.5,119.5C 231.176,115.364 232.176,110.864 232.5,106C 232.043,105.586 231.709,105.086 231.5,104.5C 233.813,101.563 235.146,98.2298 235.5,94.5C 235.328,93.5084 235.662,92.8417 236.5,92.5 Z"/></g>
<g><path style="opacity:1" fill="#847468" d="M 25.5,97.5 C 25.2914,98.9217 24.7914,100.255 24,101.5C 21.54,102.958 19.3734,104.791 17.5,107C 19.8333,107.333 22.1667,107.667 24.5,108C 23.944,108.383 23.6107,108.883 23.5,109.5C 19.7318,109.924 17.0651,111.924 15.5,115.5C 16.2255,116.867 16.8921,118.2 17.5,119.5C 15.6508,120.593 13.9842,121.926 12.5,123.5C 11.5,123.5 10.5,123.5 9.5,123.5C 8.26515,123.279 7.26515,122.612 6.5,121.5C 4.28637,123.924 3.28637,123.257 3.5,119.5C 6.50719,115.808 9.17385,111.808 11.5,107.5C 11.1667,106.833 10.8333,106.167 10.5,105.5C 9.57451,106.641 8.74117,106.641 8,105.5C 7.58092,110.673 4.74758,113.006 -0.5,112.5C -0.5,109.5 -0.5,106.5 -0.5,103.5C 1.60395,103.799 3.60395,103.466 5.5,102.5C 5.96188,100.709 7.12854,99.7094 9,99.5C 11.1344,100.085 12.6344,101.418 13.5,103.5C 14.2508,102.624 14.7508,101.624 15,100.5C 15.2086,102.689 14.8753,104.689 14,106.5C 17.8318,103.511 21.6651,100.511 25.5,97.5 Z"/></g>
<g><path style="opacity:1" fill="#826b6a" d="M 23.5,109.5 C 26.1667,109.5 28.8333,109.5 31.5,109.5C 31.38,110.586 30.7133,111.253 29.5,111.5C 26.2184,112.488 22.8851,113.154 19.5,113.5C 19.5,114.833 19.5,116.167 19.5,117.5C 18.8333,118.167 18.1667,118.833 17.5,119.5C 16.8921,118.2 16.2255,116.867 15.5,115.5C 17.0651,111.924 19.7318,109.924 23.5,109.5 Z"/></g>
<g><path style="opacity:1" fill="#523d47" d="M 79.5,85.5 C 82.3577,100.343 81.6911,115.01 77.5,129.5C 77.7163,131.384 78.383,133.051 79.5,134.5C 78.8728,135.417 78.5394,136.417 78.5,137.5C 76.5,137.5 74.5,137.5 72.5,137.5C 73.4831,136.15 74.8164,135.15 76.5,134.5C 75.3112,133.571 73.9778,133.238 72.5,133.5C 71.7003,131.318 70.2003,129.651 68,128.5C 65.2382,128.315 62.4049,128.648 59.5,129.5C 60.2299,128.288 61.2299,127.288 62.5,126.5C 61.4149,123.227 61.2483,119.894 62,116.5C 63.5095,115.91 65.0095,115.244 66.5,114.5C 65.9984,113.284 65.6651,112.117 65.5,111C 66.8333,109.667 68.1667,108.333 69.5,107C 67.9903,105.649 66.9903,103.982 66.5,102C 68.3531,99.815 70.5197,97.9817 73,96.5C 73.4828,95.552 73.6495,94.552 73.5,93.5C 71.0706,93.8844 68.7373,94.551 66.5,95.5C 65.8333,94.8333 65.1667,94.1667 64.5,93.5C 64.8333,92.8333 65.1667,92.1667 65.5,91.5C 65.8333,91.5 66.1667,91.5 66.5,91.5C 69.083,90.5793 71.4163,89.246 73.5,87.5C 75.5,86.8333 77.5,86.1667 79.5,85.5 Z"/></g>
<g><path style="opacity:1" fill="#786261" d="M 269.5,105.5 C 273.357,105.69 275.024,107.69 274.5,111.5C 273.662,111.842 273.328,112.508 273.5,113.5C 271.713,114.447 270.047,115.613 268.5,117C 263.312,117.293 258.312,118.127 253.5,119.5C 253.545,122.077 252.545,124.077 250.5,125.5C 250.565,125.062 250.399,124.728 250,124.5C 247.931,125.264 245.764,125.764 243.5,126C 242.151,126.772 241.318,127.939 241,129.5C 239.374,129.146 237.541,129.146 235.5,129.5C 237.059,127.376 239.059,125.709 241.5,124.5C 248.395,124.414 252.395,121.081 253.5,114.5C 258.854,115.437 264.188,115.437 269.5,114.5C 273.229,111.579 273.229,108.579 269.5,105.5 Z"/></g>
<g><path style="opacity:1" fill="#938c88" d="M 274.5,111.5 C 276.167,111.5 277.833,111.5 279.5,111.5C 281.819,114.294 284.819,116.128 288.5,117C 290.027,118.693 291.36,120.527 292.5,122.5C 291.05,123.85 290.383,125.516 290.5,127.5C 288.833,127.5 287.167,127.5 285.5,127.5C 285.799,125.396 285.466,123.396 284.5,121.5C 281.259,120.258 278.259,118.591 275.5,116.5C 274.534,118.396 274.201,120.396 274.5,122.5C 282.021,122.108 282.355,123.108 275.5,125.5C 274.322,124.001 272.655,123.001 270.5,122.5C 271.398,119.427 272.398,116.427 273.5,113.5C 273.328,112.508 273.662,111.842 274.5,111.5 Z"/></g>
<g><path style="opacity:1" fill="#988a83" d="M -0.5,119.5 C 0.833333,119.5 2.16667,119.5 3.5,119.5C 3.28637,123.257 4.28637,123.924 6.5,121.5C 7.26515,122.612 8.26515,123.279 9.5,123.5C 9.5,125.167 9.5,126.833 9.5,128.5C 6.90778,128.454 4.74111,127.454 3,125.5C 1.86151,125.989 0.69484,126.322 -0.5,126.5C -0.5,124.167 -0.5,121.833 -0.5,119.5 Z"/></g>
<g><path style="opacity:1" fill="#503640" d="M 229.5,119.5 C 229.33,120.822 229.663,121.989 230.5,123C 228.707,126.7 226.373,129.866 223.5,132.5C 220.214,133.207 216.881,133.54 213.5,133.5C 213.67,134.822 213.337,135.989 212.5,137C 204.885,137.887 197.552,139.721 190.5,142.5C 187.5,142.167 186.167,143.5 186.5,146.5C 182.486,146.666 178.486,146.499 174.5,146C 172.881,145.764 171.881,144.931 171.5,143.5C 172.239,143.631 172.906,143.464 173.5,143C 172.802,142.029 172.802,140.863 173.5,139.5C 172.99,137.912 171.99,136.745 170.5,136C 174.409,134.645 178.409,133.645 182.5,133C 182.167,132.667 181.833,132.333 181.5,132C 183.192,130.599 183.859,128.766 183.5,126.5C 187.593,127.137 191.593,126.47 195.5,124.5C 198.85,124.665 202.183,124.498 205.5,124C 206.866,122.4 207.866,120.567 208.5,118.5C 215.442,119.464 222.442,119.797 229.5,119.5 Z"/></g>
<g><path style="opacity:1" fill="#6f5c58" d="M 19.5,117.5 C 19.5,118.167 19.5,118.833 19.5,119.5C 21.7339,122.298 24.7339,124.131 28.5,125C 29.9993,127.328 31.666,129.495 33.5,131.5C 30.9179,131.025 28.9179,131.692 27.5,133.5C 23.3209,134.343 20.3209,133.01 18.5,129.5C 17.4262,127.716 15.7596,126.549 13.5,126C 12.7476,125.329 12.4142,124.496 12.5,123.5C 13.9842,121.926 15.6508,120.593 17.5,119.5C 18.1667,118.833 18.8333,118.167 19.5,117.5 Z"/></g>
<g><path style="opacity:1" fill="#65494c" d="M 19.5,119.5 C 28.8333,119.5 38.1667,119.5 47.5,119.5C 47.5,122.833 47.5,126.167 47.5,129.5C 46.7659,130.708 46.4326,132.041 46.5,133.5C 44.1667,133.5 41.8333,133.5 39.5,133.5C 37.4458,133.635 35.7791,132.968 34.5,131.5C 34.1667,131.5 33.8333,131.5 33.5,131.5C 31.666,129.495 29.9993,127.328 28.5,125C 24.7339,124.131 21.7339,122.298 19.5,119.5 Z"/></g>
<g><path style="opacity:1" fill="#543844" d="M 104.5,99.5 C 109.355,99.9202 114.022,101.087 118.5,103C 119.451,106.057 119.784,109.223 119.5,112.5C 124.5,112.167 126.833,114.5 126.5,119.5C 124.194,119.993 121.861,120.326 119.5,120.5C 119.5,122.167 119.5,123.833 119.5,125.5C 123.172,127.486 127.172,128.653 131.5,129C 132.716,130.74 134.382,131.74 136.5,132C 136,132.5 135.5,133 135,133.5C 129.928,132.529 124.762,132.195 119.5,132.5C 119.5,131.5 119.5,130.5 119.5,129.5C 114.156,129.666 108.823,129.499 103.5,129C 102.328,128.581 101.328,127.915 100.5,127C 101.406,125.301 101.739,123.467 101.5,121.5C 102.222,121.082 102.722,120.416 103,119.5C 103.205,112.754 103.705,106.087 104.5,99.5 Z"/></g>
<g><path style="opacity:1" fill="#7d6a68" d="M 9.5,123.5 C 10.5,123.5 11.5,123.5 12.5,123.5C 12.4142,124.496 12.7476,125.329 13.5,126C 15.7596,126.549 17.4262,127.716 18.5,129.5C 17.9573,132.038 16.9573,134.372 15.5,136.5C 11.9206,136.234 11.5873,134.901 14.5,132.5C 9.79296,129.76 4.79296,129.093 -0.5,130.5C -0.5,129.167 -0.5,127.833 -0.5,126.5C 0.69484,126.322 1.86151,125.989 3,125.5C 4.74111,127.454 6.90778,128.454 9.5,128.5C 9.5,126.833 9.5,125.167 9.5,123.5 Z"/></g>
<g><path style="opacity:1" fill="#9d988e" d="M 285.5,127.5 C 284.833,128.167 284.167,128.833 283.5,129.5C 280.33,130.084 277.163,130.75 274,131.5C 273.167,131.167 272.333,130.833 271.5,130.5C 272.309,128.929 272.643,127.262 272.5,125.5C 273.5,125.5 274.5,125.5 275.5,125.5C 282.355,123.108 282.021,122.108 274.5,122.5C 274.201,120.396 274.534,118.396 275.5,116.5C 278.259,118.591 281.259,120.258 284.5,121.5C 285.466,123.396 285.799,125.396 285.5,127.5 Z"/></g>
<g><path style="opacity:1" fill="#6e4c5a" d="M 34.5,131.5 C 35.7791,132.968 37.4458,133.635 39.5,133.5C 39.3893,134.117 39.056,134.617 38.5,135C 45.4705,135.669 45.8038,136.169 39.5,136.5C 39.5,138.833 39.5,141.167 39.5,143.5C 39.154,146.602 39.8207,149.435 41.5,152C 45.1141,153.32 48.7808,154.487 52.5,155.5C 54.6068,157.727 56.9401,159.727 59.5,161.5C 58.9747,162.192 58.3081,162.692 57.5,163C 62.021,163.729 66.3543,165.063 70.5,167C 73.8721,170.747 76.8721,174.58 79.5,178.5C 76.6639,179.318 74.3305,178.318 72.5,175.5C 67.0885,174.258 62.0885,172.258 57.5,169.5C 54.8576,165.017 51.1909,161.683 46.5,159.5C 46.7035,157.61 46.0368,156.11 44.5,155C 41.2811,153.243 37.9478,151.743 34.5,150.5C 33.7568,149.092 32.9234,147.759 32,146.5C 30.5064,147.747 29.0064,147.747 27.5,146.5C 26.233,144.629 26.233,142.796 27.5,141C 26.0267,140.29 25.3601,139.124 25.5,137.5C 28.3181,136.03 31.3181,135.03 34.5,134.5C 34.5,133.5 34.5,132.5 34.5,131.5 Z"/></g>
<g><path style="opacity:1" fill="#7a6967" d="M 250.5,125.5 C 249.766,126.708 249.433,128.041 249.5,129.5C 245.04,128.877 243.374,130.543 244.5,134.5C 249.301,136.303 253.634,135.637 257.5,132.5C 258.594,133.868 258.26,135.035 256.5,136C 258.55,137.332 260.55,137.498 262.5,136.5C 262.167,137.167 261.833,137.833 261.5,138.5C 258.211,139.374 254.877,140.041 251.5,140.5C 244.446,138.383 237.446,139.05 230.5,142.5C 229.702,142.957 229.369,143.624 229.5,144.5C 226.542,142.966 223.375,141.966 220,141.5C 218.028,143.411 215.695,144.745 213,145.5C 207.331,145.006 201.831,144.34 196.5,143.5C 198.833,143.5 201.167,143.5 203.5,143.5C 203.5,142.167 203.5,140.833 203.5,139.5C 210.279,139.713 216.946,139.047 223.5,137.5C 223.365,135.446 224.032,133.779 225.5,132.5C 227.185,130.182 229.519,129.182 232.5,129.5C 233.5,129.5 234.5,129.5 235.5,129.5C 237.541,129.146 239.374,129.146 241,129.5C 241.318,127.939 242.151,126.772 243.5,126C 245.764,125.764 247.931,125.264 250,124.5C 250.399,124.728 250.565,125.062 250.5,125.5 Z"/></g>
<g><path style="opacity:1" fill="#85776f" d="M 273.5,113.5 C 272.398,116.427 271.398,119.427 270.5,122.5C 272.655,123.001 274.322,124.001 275.5,125.5C 274.5,125.5 273.5,125.5 272.5,125.5C 272.643,127.262 272.309,128.929 271.5,130.5C 272.333,130.833 273.167,131.167 274,131.5C 277.163,130.75 280.33,130.084 283.5,129.5C 285.048,129.821 285.715,130.821 285.5,132.5C 283.533,132.261 281.699,132.594 280,133.5C 279.501,137.486 279.334,141.486 279.5,145.5C 278.167,145.5 276.833,145.5 275.5,145.5C 274.833,141.5 274.167,137.5 273.5,133.5C 269.393,133.123 265.726,134.123 262.5,136.5C 260.55,137.498 258.55,137.332 256.5,136C 258.26,135.035 258.594,133.868 257.5,132.5C 253.634,135.637 249.301,136.303 244.5,134.5C 243.374,130.543 245.04,128.877 249.5,129.5C 249.433,128.041 249.766,126.708 250.5,125.5C 252.545,124.077 253.545,122.077 253.5,119.5C 258.312,118.127 263.312,117.293 268.5,117C 270.047,115.613 271.713,114.447 273.5,113.5 Z"/></g>
<g><path style="opacity:1" fill="#6a4557" d="M 39.5,133.5 C 41.8333,133.5 44.1667,133.5 46.5,133.5C 48.4499,135.026 50.7833,136.026 53.5,136.5C 59.7985,137.496 66.1318,137.83 72.5,137.5C 74.5,137.5 76.5,137.5 78.5,137.5C 78.8333,137.5 79.1667,137.5 79.5,137.5C 79.2322,139.099 79.5655,140.432 80.5,141.5C 81.7329,144.494 83.0663,147.494 84.5,150.5C 80.1667,151.833 75.8333,151.833 71.5,150.5C 70.3595,149.575 70.3595,148.741 71.5,148C 68.8434,147.873 66.1768,148.04 63.5,148.5C 58.2143,147.107 53.381,144.774 49,141.5C 48.5,141.667 48,141.833 47.5,142C 48.3805,142.708 49.0472,143.542 49.5,144.5C 47.3071,143.32 44.9738,142.32 42.5,141.5C 41.7348,142.612 40.7348,143.279 39.5,143.5C 39.5,141.167 39.5,138.833 39.5,136.5C 45.8038,136.169 45.4705,135.669 38.5,135C 39.056,134.617 39.3893,134.117 39.5,133.5 Z"/></g>
<g><path style="opacity:1" fill="#4a313d" d="M 72.5,133.5 C 71.8079,134.486 70.6413,135.486 69,136.5C 64.539,135.753 60.039,135.253 55.5,135C 54.2412,134.077 52.9079,133.243 51.5,132.5C 54.2763,131.485 56.9429,130.485 59.5,129.5C 62.4049,128.648 65.2382,128.315 68,128.5C 70.2003,129.651 71.7003,131.318 72.5,133.5 Z"/></g>
<g><path style="opacity:1" fill="#6f5857" d="M 15.5,136.5 C 15.8076,138.924 15.4742,141.257 14.5,143.5C 12.7419,144.128 11.2419,145.128 10,146.5C 8.91476,145.707 7.7481,145.04 6.5,144.5C 4.2534,145.374 1.92006,145.708 -0.5,145.5C -0.5,140.5 -0.5,135.5 -0.5,130.5C 4.79296,129.093 9.79296,129.76 14.5,132.5C 11.5873,134.901 11.9206,136.234 15.5,136.5 Z"/></g>
<g><path style="opacity:1" fill="#5f4550" d="M 101.5,121.5 C 101.739,123.467 101.406,125.301 100.5,127C 101.328,127.915 102.328,128.581 103.5,129C 108.823,129.499 114.156,129.666 119.5,129.5C 119.5,130.5 119.5,131.5 119.5,132.5C 112.649,130.712 105.649,130.879 98.5,133C 97.87,134.892 96.87,136.559 95.5,138C 96.7932,138.49 98.1266,138.657 99.5,138.5C 100.11,139.391 100.443,140.391 100.5,141.5C 99.0821,143.308 97.0821,143.975 94.5,143.5C 90.8506,142.295 87.0172,141.295 83,140.5C 81.9302,140.528 81.0968,140.861 80.5,141.5C 79.5655,140.432 79.2322,139.099 79.5,137.5C 83.8691,138.077 87.8691,137.243 91.5,135C 89.1918,133.133 86.5251,132.133 83.5,132C 83.1667,131.667 82.8333,131.333 82.5,131C 86.6996,129.633 91.0329,129.133 95.5,129.5C 95.5,128.5 95.5,127.5 95.5,126.5C 94.1266,126.657 92.7932,126.49 91.5,126C 95.1282,123.297 94.4615,121.297 89.5,120C 93.9541,119.93 96.9541,122.097 98.5,126.5C 99.9348,125.053 100.935,123.386 101.5,121.5 Z"/></g>
<g><path style="opacity:1" fill="#75595f" d="M 132.5,139.5 C 123.553,138.77 114.72,137.436 106,135.5C 106.163,138.819 106.663,142.152 107.5,145.5C 105.5,145.5 103.5,145.5 101.5,145.5C 101.768,143.901 101.434,142.568 100.5,141.5C 100.443,140.391 100.11,139.391 99.5,138.5C 99.2865,136.856 99.6198,135.356 100.5,134C 103.06,134.438 105.56,134.271 108,133.5C 108.5,134 109,134.5 109.5,135C 114.709,135.089 119.709,135.922 124.5,137.5C 127.678,136.295 130.345,136.961 132.5,139.5 Z"/></g>
<g><path style="opacity:1" fill="#6a5258" d="M 223.5,132.5 C 224.167,132.5 224.833,132.5 225.5,132.5C 224.032,133.779 223.365,135.446 223.5,137.5C 216.946,139.047 210.279,139.713 203.5,139.5C 203.5,140.833 203.5,142.167 203.5,143.5C 201.167,143.5 198.833,143.5 196.5,143.5C 194.712,143.215 193.045,143.548 191.5,144.5C 190.812,145.855 189.812,146.855 188.5,147.5C 188.167,147.5 187.833,147.5 187.5,147.5C 188.473,145.851 189.473,144.184 190.5,142.5C 197.552,139.721 204.885,137.887 212.5,137C 213.337,135.989 213.67,134.822 213.5,133.5C 216.881,133.54 220.214,133.207 223.5,132.5 Z"/></g>
<g><path style="opacity:1" fill="#816467" d="M 132.5,139.5 C 137.971,140.324 142.971,142.324 147.5,145.5C 149.5,146.167 151.5,146.833 153.5,147.5C 147.824,147.334 142.157,147.501 136.5,148C 135.663,149.011 135.33,150.178 135.5,151.5C 134.5,151.5 133.5,151.5 132.5,151.5C 133.683,148.865 134.516,146.198 135,143.5C 130.973,148.519 125.806,149.852 119.5,147.5C 115.63,146.201 111.63,145.534 107.5,145.5C 106.663,142.152 106.163,138.819 106,135.5C 114.72,137.436 123.553,138.77 132.5,139.5 Z"/></g>
<g><path style="opacity:1" fill="#6c4b53" d="M 119.5,132.5 C 131.302,135.162 143.302,137.662 155.5,140C 159.693,142.874 164.36,144.041 169.5,143.5C 170.167,143.5 170.833,143.5 171.5,143.5C 171.881,144.931 172.881,145.764 174.5,146C 178.486,146.499 182.486,146.666 186.5,146.5C 186.167,143.5 187.5,142.167 190.5,142.5C 189.473,144.184 188.473,145.851 187.5,147.5C 173.626,147.654 160.292,146.987 147.5,145.5C 142.971,142.324 137.971,140.324 132.5,139.5C 130.345,136.961 127.678,136.295 124.5,137.5C 119.709,135.922 114.709,135.089 109.5,135C 109,134.5 108.5,134 108,133.5C 105.56,134.271 103.06,134.438 100.5,134C 99.6198,135.356 99.2865,136.856 99.5,138.5C 98.1266,138.657 96.7932,138.49 95.5,138C 96.87,136.559 97.87,134.892 98.5,133C 105.649,130.879 112.649,130.712 119.5,132.5 Z"/></g>
<g><path style="opacity:1" fill="#6d5c57" d="M 251.5,140.5 C 247.702,144.135 243.036,145.968 237.5,146C 238.737,146.232 239.737,146.732 240.5,147.5C 238.833,147.5 237.167,147.5 235.5,147.5C 233.75,146.13 231.75,145.13 229.5,144.5C 229.369,143.624 229.702,142.957 230.5,142.5C 237.446,139.05 244.446,138.383 251.5,140.5 Z"/></g>
<g><path style="opacity:1" fill="#7c5b63" d="M 18.5,129.5 C 20.3209,133.01 23.3209,134.343 27.5,133.5C 24.1297,136.155 20.7964,138.155 17.5,139.5C 19.4648,140.292 21.4648,140.959 23.5,141.5C 24.9277,145.339 25.4277,149.006 25,152.5C 21.9433,151.549 18.7766,151.216 15.5,151.5C 10.0695,151.081 4.73612,151.081 -0.5,151.5C -0.5,149.5 -0.5,147.5 -0.5,145.5C 1.92006,145.708 4.2534,145.374 6.5,144.5C 7.7481,145.04 8.91476,145.707 10,146.5C 11.2419,145.128 12.7419,144.128 14.5,143.5C 15.4742,141.257 15.8076,138.924 15.5,136.5C 16.9573,134.372 17.9573,132.038 18.5,129.5 Z"/></g>
<g><path style="opacity:1" fill="#724d5f" d="M 94.5,143.5 C 92.4508,143.706 92.1175,144.539 93.5,146C 92.2341,146.309 91.0674,146.809 90,147.5C 89.7822,152.317 88.9489,156.984 87.5,161.5C 82.8723,161.884 78.539,161.05 74.5,159C 72.3843,157.829 71.7176,156.329 72.5,154.5C 75.4671,156.004 78.4671,156.338 81.5,155.5C 74.9947,154.239 68.9947,151.906 63.5,148.5C 66.1768,148.04 68.8434,147.873 71.5,148C 70.3595,148.741 70.3595,149.575 71.5,150.5C 75.8333,151.833 80.1667,151.833 84.5,150.5C 83.0663,147.494 81.7329,144.494 80.5,141.5C 81.0968,140.861 81.9302,140.528 83,140.5C 87.0172,141.295 90.8506,142.295 94.5,143.5 Z"/></g>
<g><path style="opacity:1" fill="#5d4b43" d="M 257.5,151.5 C 251.833,150.167 246.167,148.833 240.5,147.5C 239.737,146.732 238.737,146.232 237.5,146C 243.036,145.968 247.702,144.135 251.5,140.5C 254.877,140.041 258.211,139.374 261.5,138.5C 262.583,138.461 263.583,138.127 264.5,137.5C 264.833,138.167 265.167,138.833 265.5,139.5C 264.455,141.205 263.122,142.705 261.5,144C 264.004,145.456 264.67,147.623 263.5,150.5C 261.604,151.466 259.604,151.799 257.5,151.5 Z"/></g>
<g><path style="opacity:1" fill="#806561" d="M 153.5,147.5 C 155.5,147.5 157.5,147.5 159.5,147.5C 159.5,149.833 159.5,152.167 159.5,154.5C 162.049,153.491 164.715,152.658 167.5,152C 166.833,151.667 166.167,151.333 165.5,151C 172.837,150.051 180.17,149.217 187.5,148.5C 184.972,149.166 182.306,149.832 179.5,150.5C 177.104,153.809 174.437,154.143 171.5,151.5C 169.889,152.32 169.222,153.654 169.5,155.5C 163.995,155.659 158.661,155.159 153.5,154C 152.386,155.57 151.053,156.903 149.5,158C 149.833,158.333 150.167,158.667 150.5,159C 147.833,159.333 145.167,159.667 142.5,160C 143.602,162.391 142.936,162.891 140.5,161.5C 139.396,162.631 139.729,163.465 141.5,164C 140.747,165.487 139.914,165.654 139,164.5C 136.651,166.744 137.151,167.911 140.5,168C 139.552,168.483 138.552,168.649 137.5,168.5C 137.857,172.958 136.524,176.624 133.5,179.5C 134.279,176.925 134.113,174.592 133,172.5C 131.951,173.517 130.784,173.684 129.5,173C 129.833,172.667 130.167,172.333 130.5,172C 128.325,168.133 127.325,163.967 127.5,159.5C 124.833,159.5 122.167,159.5 119.5,159.5C 119.5,155.5 119.5,151.5 119.5,147.5C 125.806,149.852 130.973,148.519 135,143.5C 134.516,146.198 133.683,148.865 132.5,151.5C 133.5,151.5 134.5,151.5 135.5,151.5C 135.33,150.178 135.663,149.011 136.5,148C 142.157,147.501 147.824,147.334 153.5,147.5 Z"/></g>
<g><path style="opacity:1" fill="#79595a" d="M 147.5,145.5 C 160.292,146.987 173.626,147.654 187.5,147.5C 187.5,147.833 187.5,148.167 187.5,148.5C 180.17,149.217 172.837,150.051 165.5,151C 166.167,151.333 166.833,151.667 167.5,152C 164.715,152.658 162.049,153.491 159.5,154.5C 159.5,152.167 159.5,149.833 159.5,147.5C 157.5,147.5 155.5,147.5 153.5,147.5C 151.5,146.833 149.5,146.167 147.5,145.5 Z"/></g>
<g><path style="opacity:1" fill="#a29488" d="M 229.5,144.5 C 231.75,145.13 233.75,146.13 235.5,147.5C 234.167,147.5 232.833,147.5 231.5,147.5C 220.828,147.333 210.161,147.5 199.5,148C 199.167,148.333 198.833,148.667 198.5,149C 199.737,149.232 200.737,149.732 201.5,150.5C 199.862,151.657 198.196,152.824 196.5,154C 198.891,154.691 198.891,155.691 196.5,157C 193.049,157.747 192.716,157.08 195.5,155C 195.167,154.833 194.833,154.667 194.5,154.5C 191.466,157.178 188.133,159.011 184.5,160C 186.066,157.27 187.4,154.436 188.5,151.5C 188.5,150.167 188.5,148.833 188.5,147.5C 189.812,146.855 190.812,145.855 191.5,144.5C 193.045,143.548 194.712,143.215 196.5,143.5C 201.831,144.34 207.331,145.006 213,145.5C 215.695,144.745 218.028,143.411 220,141.5C 223.375,141.966 226.542,142.966 229.5,144.5 Z"/></g>
<g><path style="opacity:1" fill="#664553" d="M 49.5,144.5 C 59.2605,151.558 69.2605,158.391 79.5,165C 83.8918,167.409 88.5584,168.909 93.5,169.5C 94.4961,170.665 95.8295,171.332 97.5,171.5C 99.3337,170.246 101.334,169.579 103.5,169.5C 103.5,168.167 103.5,166.833 103.5,165.5C 104.5,165.5 105.5,165.5 106.5,165.5C 106.5,164.167 106.5,162.833 106.5,161.5C 108.527,161.338 110.527,161.505 112.5,162C 114.734,163.75 117.068,165.25 119.5,166.5C 121.288,166.215 122.955,166.548 124.5,167.5C 125.093,169.382 125.76,171.215 126.5,173C 125.5,173.333 124.5,173.667 123.5,174C 125.167,175.667 126.833,177.333 128.5,179C 125.166,180.084 121.832,180.918 118.5,181.5C 117.624,181.631 116.957,181.298 116.5,180.5C 117.5,179.833 118.5,179.167 119.5,178.5C 119.222,175.933 119.056,173.267 119,170.5C 117.246,168.75 115.079,168.083 112.5,168.5C 112.445,172.718 110.612,173.718 107,171.5C 105.833,171.667 104.667,171.833 103.5,172C 104.167,172.333 104.833,172.667 105.5,173C 101.514,173.499 97.5138,173.666 93.5,173.5C 93.1065,176.93 93.7732,180.096 95.5,183C 94.5,183.333 93.5,183.667 92.5,184C 94.74,184.977 97.0733,185.477 99.5,185.5C 99.5,187.5 99.5,189.5 99.5,191.5C 98.8333,191.5 98.1667,191.5 97.5,191.5C 96.2228,189.852 95.2228,188.018 94.5,186C 93.5509,185.383 92.7175,185.549 92,186.5C 91.5172,185.552 91.3505,184.552 91.5,183.5C 89.8561,183.286 88.3561,183.62 87,184.5C 84.7908,184.011 82.9575,183.011 81.5,181.5C 81.573,179.973 80.9063,178.973 79.5,178.5C 76.8721,174.58 73.8721,170.747 70.5,167C 66.3543,165.063 62.021,163.729 57.5,163C 58.3081,162.692 58.9747,162.192 59.5,161.5C 56.9401,159.727 54.6068,157.727 52.5,155.5C 48.7808,154.487 45.1141,153.32 41.5,152C 39.8207,149.435 39.154,146.602 39.5,143.5C 40.7348,143.279 41.7348,142.612 42.5,141.5C 44.9738,142.32 47.3071,143.32 49.5,144.5 Z"/></g>
<g><path style="opacity:1" fill="#705f54" d="M 275.5,145.5 C 275.439,148.05 274.106,149.55 271.5,150C 268.232,151.137 264.898,151.97 261.5,152.5C 259.955,152.489 258.622,152.156 257.5,151.5C 259.604,151.799 261.604,151.466 263.5,150.5C 264.67,147.623 264.004,145.456 261.5,144C 263.122,142.705 264.455,141.205 265.5,139.5C 265.167,138.833 264.833,138.167 264.5,137.5C 263.583,138.127 262.583,138.461 261.5,138.5C 261.833,137.833 262.167,137.167 262.5,136.5C 265.726,134.123 269.393,133.123 273.5,133.5C 274.167,137.5 274.833,141.5 275.5,145.5 Z"/></g>
<g><path style="opacity:1" fill="#927b75" d="M 187.5,147.5 C 187.833,147.5 188.167,147.5 188.5,147.5C 188.5,148.833 188.5,150.167 188.5,151.5C 184.515,151.44 182.848,153.44 183.5,157.5C 182.167,157.5 180.833,157.5 179.5,157.5C 179.082,156.778 178.416,156.278 177.5,156C 174.854,155.503 172.187,155.336 169.5,155.5C 169.222,153.654 169.889,152.32 171.5,151.5C 174.437,154.143 177.104,153.809 179.5,150.5C 182.306,149.832 184.972,149.166 187.5,148.5C 187.5,148.167 187.5,147.833 187.5,147.5 Z"/></g>
<g><path style="opacity:1" fill="#9c8f7b" d="M 231.5,147.5 C 226.025,152.901 219.358,156.234 211.5,157.5C 209.131,157.851 206.797,158.018 204.5,158C 206.891,157.309 206.891,156.309 204.5,155C 202.945,153.354 201.279,153.021 199.5,154C 202.245,151.965 205.245,150.299 208.5,149C 205.935,148.391 203.601,148.891 201.5,150.5C 200.737,149.732 199.737,149.232 198.5,149C 198.833,148.667 199.167,148.333 199.5,148C 210.161,147.5 220.828,147.333 231.5,147.5 Z"/></g>
<g><path style="opacity:1" fill="#6c4858" d="M 15.5,153.5 C 18.4005,153.28 21.0671,153.946 23.5,155.5C 22.4659,158.057 23.4659,159.391 26.5,159.5C 26.4117,166.245 29.745,169.411 36.5,169C 35.6634,170.011 35.33,171.178 35.5,172.5C 40.0883,171.56 44.5883,170.227 49,168.5C 49.5,168.833 50,169.167 50.5,169.5C 48.8164,170.15 47.4831,171.15 46.5,172.5C 44.1944,172.993 41.861,173.326 39.5,173.5C 39.5,175.5 39.5,177.5 39.5,179.5C 34.1691,179.88 29.0024,179.213 24,177.5C 21.8886,177.701 20.0552,178.367 18.5,179.5C 14.6052,180.462 10.9385,181.796 7.5,183.5C 4.83333,183.833 2.16667,184.167 -0.5,184.5C -0.5,183.5 -0.5,182.5 -0.5,181.5C 6.77661,180.974 13.4433,178.974 19.5,175.5C 20.8333,175.5 22.1667,175.5 23.5,175.5C 23.6495,174.448 23.4828,173.448 23,172.5C 20.4957,174.647 18.1624,174.647 16,172.5C 11.674,174.314 7.17396,174.814 2.5,174C 3.30787,172.294 4.6412,171.461 6.5,171.5C 6.11923,169.058 6.7859,168.391 8.5,169.5C 10.5148,166.705 13.0148,166.039 16,167.5C 16.49,166.207 16.6567,164.873 16.5,163.5C 13.2234,163.216 10.0567,163.549 7,164.5C 5.4874,162.26 3.9874,160.76 2.5,160C 2.92597,156.873 4.42597,156.039 7,157.5C 9.68759,155.7 12.5209,154.367 15.5,153.5 Z"/></g>
<g><path style="opacity:1" fill="#754d61" d="M 109.5,154.5 C 110.675,154.281 111.675,154.614 112.5,155.5C 111.41,156.609 111.41,157.609 112.5,158.5C 114.747,159.374 117.08,159.708 119.5,159.5C 119.5,161.833 119.5,164.167 119.5,166.5C 117.068,165.25 114.734,163.75 112.5,162C 110.527,161.505 108.527,161.338 106.5,161.5C 106.5,162.833 106.5,164.167 106.5,165.5C 105.5,165.5 104.5,165.5 103.5,165.5C 103.5,166.833 103.5,168.167 103.5,169.5C 101.334,169.579 99.3337,170.246 97.5,171.5C 95.8295,171.332 94.4961,170.665 93.5,169.5C 94.9454,167.867 96.2787,166.034 97.5,164C 95.327,161.302 94.9937,158.469 96.5,155.5C 97.1577,156.398 97.8243,157.398 98.5,158.5C 101.844,157.308 105.511,155.974 109.5,154.5 Z"/></g>
<g><path style="opacity:1" fill="#847361" d="M 275.5,145.5 C 276.833,145.5 278.167,145.5 279.5,145.5C 279.5,147.167 279.5,148.833 279.5,150.5C 277.365,152.369 274.698,153.036 271.5,152.5C 270.833,154.833 270.167,157.167 269.5,159.5C 268.167,159.5 266.833,159.5 265.5,159.5C 265.477,161.927 264.977,164.26 264,166.5C 263.124,164.275 261.957,162.275 260.5,160.5C 258.556,161.189 256.556,161.689 254.5,162C 249.146,164.699 244.146,167.865 239.5,171.5C 239.082,170.778 238.416,170.278 237.5,170C 239.306,168.194 241.14,166.36 243,164.5C 243.333,164.833 243.667,165.167 244,165.5C 244.483,164.552 244.649,163.552 244.5,162.5C 237.432,162.646 230.766,164.313 224.5,167.5C 220.196,166.79 215.863,166.29 211.5,166C 213.359,165.399 213.692,164.566 212.5,163.5C 213.209,162.596 214.209,162.263 215.5,162.5C 215.48,160.857 216.147,159.524 217.5,158.5C 215.54,157.481 213.54,157.481 211.5,158.5C 211.5,158.167 211.5,157.833 211.5,157.5C 219.358,156.234 226.025,152.901 231.5,147.5C 232.833,147.5 234.167,147.5 235.5,147.5C 237.167,147.5 238.833,147.5 240.5,147.5C 246.167,148.833 251.833,150.167 257.5,151.5C 258.622,152.156 259.955,152.489 261.5,152.5C 264.898,151.97 268.232,151.137 271.5,150C 274.106,149.55 275.439,148.05 275.5,145.5 Z"/></g>
<g><path style="opacity:1" fill="#7b5763" d="M 33.5,131.5 C 33.8333,131.5 34.1667,131.5 34.5,131.5C 34.5,132.5 34.5,133.5 34.5,134.5C 31.3181,135.03 28.3181,136.03 25.5,137.5C 25.3601,139.124 26.0267,140.29 27.5,141C 26.233,142.796 26.233,144.629 27.5,146.5C 29.0064,147.747 30.5064,147.747 32,146.5C 32.9234,147.759 33.7568,149.092 34.5,150.5C 37.9478,151.743 41.2811,153.243 44.5,155C 46.0368,156.11 46.7035,157.61 46.5,159.5C 51.1909,161.683 54.8576,165.017 57.5,169.5C 54.6259,170.681 51.7926,172.014 49,173.5C 48.0494,173.116 47.2161,172.783 46.5,172.5C 47.4831,171.15 48.8164,170.15 50.5,169.5C 50,169.167 49.5,168.833 49,168.5C 44.5883,170.227 40.0883,171.56 35.5,172.5C 35.33,171.178 35.6634,170.011 36.5,169C 29.745,169.411 26.4117,166.245 26.5,159.5C 23.4659,159.391 22.4659,158.057 23.5,155.5C 21.0671,153.946 18.4005,153.28 15.5,153.5C 15.5,152.833 15.5,152.167 15.5,151.5C 18.7766,151.216 21.9433,151.549 25,152.5C 25.4277,149.006 24.9277,145.339 23.5,141.5C 21.4648,140.959 19.4648,140.292 17.5,139.5C 20.7964,138.155 24.1297,136.155 27.5,133.5C 28.9179,131.692 30.9179,131.025 33.5,131.5 Z"/></g>
<g><path style="opacity:1" fill="#734e5f" d="M 15.5,151.5 C 15.5,152.167 15.5,152.833 15.5,153.5C 12.5209,154.367 9.68759,155.7 7,157.5C 4.42597,156.039 2.92597,156.873 2.5,160C 3.9874,160.76 5.4874,162.26 7,164.5C 10.0567,163.549 13.2234,163.216 16.5,163.5C 16.6567,164.873 16.49,166.207 16,167.5C 13.0148,166.039 10.5148,166.705 8.5,169.5C 6.7859,168.391 6.11923,169.058 6.5,171.5C 4.6412,171.461 3.30787,172.294 2.5,174C 7.17396,174.814 11.674,174.314 16,172.5C 18.1624,174.647 20.4957,174.647 23,172.5C 23.4828,173.448 23.6495,174.448 23.5,175.5C 22.1667,175.5 20.8333,175.5 19.5,175.5C 12.5491,176.066 5.88241,175.399 -0.5,173.5C -0.5,166.167 -0.5,158.833 -0.5,151.5C 4.73612,151.081 10.0695,151.081 15.5,151.5 Z"/></g>
<g><path style="opacity:1" fill="#7a5767" d="M 63.5,148.5 C 68.9947,151.906 74.9947,154.239 81.5,155.5C 78.4671,156.338 75.4671,156.004 72.5,154.5C 71.7176,156.329 72.3843,157.829 74.5,159C 78.539,161.05 82.8723,161.884 87.5,161.5C 88.9489,156.984 89.7822,152.317 90,147.5C 91.0674,146.809 92.2341,146.309 93.5,146C 92.1175,144.539 92.4508,143.706 94.5,143.5C 97.0821,143.975 99.0821,143.308 100.5,141.5C 101.434,142.568 101.768,143.901 101.5,145.5C 103.5,145.5 105.5,145.5 107.5,145.5C 111.63,145.534 115.63,146.201 119.5,147.5C 119.5,151.5 119.5,155.5 119.5,159.5C 117.08,159.708 114.747,159.374 112.5,158.5C 111.41,157.609 111.41,156.609 112.5,155.5C 111.675,154.614 110.675,154.281 109.5,154.5C 112.588,152.635 112.921,150.469 110.5,148C 105.701,146.406 101.035,146.906 96.5,149.5C 95.3058,151.516 95.3058,153.516 96.5,155.5C 94.9937,158.469 95.327,161.302 97.5,164C 96.2787,166.034 94.9454,167.867 93.5,169.5C 88.5584,168.909 83.8918,167.409 79.5,165C 69.2605,158.391 59.2605,151.558 49.5,144.5C 49.0472,143.542 48.3805,142.708 47.5,142C 48,141.833 48.5,141.667 49,141.5C 53.381,144.774 58.2143,147.107 63.5,148.5 Z"/></g>
<g><path style="opacity:1" fill="#7f576d" d="M 109.5,154.5 C 105.511,155.974 101.844,157.308 98.5,158.5C 97.8243,157.398 97.1577,156.398 96.5,155.5C 95.3058,153.516 95.3058,151.516 96.5,149.5C 101.035,146.906 105.701,146.406 110.5,148C 112.921,150.469 112.588,152.635 109.5,154.5 Z"/></g>
<g><path style="opacity:1" fill="#7b595f" d="M 119.5,159.5 C 122.167,159.5 124.833,159.5 127.5,159.5C 127.325,163.967 128.325,168.133 130.5,172C 130.167,172.333 129.833,172.667 129.5,173C 130.784,173.684 131.951,173.517 133,172.5C 134.113,174.592 134.279,176.925 133.5,179.5C 130.452,181.119 127.119,182.119 123.5,182.5C 122.167,182.5 120.833,182.5 119.5,182.5C 119.5,181.833 119.167,181.5 118.5,181.5C 121.832,180.918 125.166,180.084 128.5,179C 126.833,177.333 125.167,175.667 123.5,174C 124.5,173.667 125.5,173.333 126.5,173C 125.76,171.215 125.093,169.382 124.5,167.5C 122.955,166.548 121.288,166.215 119.5,166.5C 119.5,164.167 119.5,161.833 119.5,159.5 Z"/></g>
<g><path style="opacity:1" fill="#a69a8b" d="M 169.5,155.5 C 172.187,155.336 174.854,155.503 177.5,156C 178.416,156.278 179.082,156.778 179.5,157.5C 179.449,159.57 180.115,161.403 181.5,163C 181.355,163.772 181.022,164.439 180.5,165C 175.842,166.609 171.175,168.109 166.5,169.5C 162.714,170.656 159.88,170.656 158,169.5C 157.066,168.142 156.232,166.808 155.5,165.5C 155.278,163.393 154.278,161.726 152.5,160.5C 158.5,159.354 164.167,157.688 169.5,155.5 Z"/></g>
<g><path style="opacity:1" fill="#928574" d="M 211.5,157.5 C 211.5,157.833 211.5,158.167 211.5,158.5C 202.414,161.859 193.414,165.192 184.5,168.5C 184.389,169.117 184.056,169.617 183.5,170C 178.943,171.775 174.276,173.275 169.5,174.5C 170.028,173.279 170.695,172.113 171.5,171C 169.618,170.802 167.952,170.302 166.5,169.5C 171.175,168.109 175.842,166.609 180.5,165C 181.022,164.439 181.355,163.772 181.5,163C 180.115,161.403 179.449,159.57 179.5,157.5C 180.833,157.5 182.167,157.5 183.5,157.5C 182.848,153.44 184.515,151.44 188.5,151.5C 187.4,154.436 186.066,157.27 184.5,160C 188.133,159.011 191.466,157.178 194.5,154.5C 194.833,154.667 195.167,154.833 195.5,155C 192.716,157.08 193.049,157.747 196.5,157C 198.891,155.691 198.891,154.691 196.5,154C 198.196,152.824 199.862,151.657 201.5,150.5C 203.601,148.891 205.935,148.391 208.5,149C 205.245,150.299 202.245,151.965 199.5,154C 201.279,153.021 202.945,153.354 204.5,155C 206.891,156.309 206.891,157.309 204.5,158C 206.797,158.018 209.131,157.851 211.5,157.5 Z"/></g>
<g><path style="opacity:1" fill="#816e5f" d="M 239.5,171.5 C 239.209,172.649 238.376,173.316 237,173.5C 231.959,172.434 228.125,174.267 225.5,179C 222.469,181.015 219.136,182.181 215.5,182.5C 215.762,183.978 215.429,185.311 214.5,186.5C 212.253,187.374 209.92,187.708 207.5,187.5C 207.649,188.552 207.483,189.552 207,190.5C 202.921,189.371 198.755,189.204 194.5,190C 187.374,193.063 180.374,196.397 173.5,200C 168.649,200.174 163.982,200.674 159.5,201.5C 151.5,201.5 143.5,201.5 135.5,201.5C 137.948,200.527 140.615,200.194 143.5,200.5C 149.674,199.897 155.341,197.897 160.5,194.5C 164.122,193.675 167.789,193.175 171.5,193C 172.685,191.647 174.019,190.48 175.5,189.5C 172.963,187.733 170.297,186.233 167.5,185C 168.416,184.722 169.082,184.222 169.5,183.5C 172.908,181.263 175.908,178.43 178.5,175C 180.797,174.982 183.131,175.149 185.5,175.5C 190.167,175.5 194.833,175.5 199.5,175.5C 199.5,173.5 199.5,171.5 199.5,169.5C 202.247,169.813 204.914,169.48 207.5,168.5C 207.291,167.914 206.957,167.414 206.5,167C 208.727,166.059 210.727,164.892 212.5,163.5C 213.692,164.566 213.359,165.399 211.5,166C 215.863,166.29 220.196,166.79 224.5,167.5C 230.766,164.313 237.432,162.646 244.5,162.5C 244.649,163.552 244.483,164.552 244,165.5C 243.667,165.167 243.333,164.833 243,164.5C 241.14,166.36 239.306,168.194 237.5,170C 238.416,170.278 239.082,170.778 239.5,171.5 Z"/></g>
<g><path style="opacity:1" fill="#988672" d="M 287.5,159.5 C 288.416,162.46 287.082,163.793 283.5,163.5C 283.5,164.5 283.5,165.5 283.5,166.5C 279.455,166.87 276.455,168.87 274.5,172.5C 270.705,173.307 267.372,174.974 264.5,177.5C 264.335,174.15 264.502,170.817 265,167.5C 269.36,166.303 272.194,163.636 273.5,159.5C 275.5,159.5 277.5,159.5 279.5,159.5C 279.433,154.899 281.767,152.566 286.5,152.5C 287.72,153.711 288.887,153.711 290,152.5C 290.5,153 291,153.5 291.5,154C 289.79,155.651 288.456,157.484 287.5,159.5 Z"/></g>
<g><path style="opacity:1" fill="#887169" d="M 169.5,155.5 C 164.167,157.688 158.5,159.354 152.5,160.5C 154.278,161.726 155.278,163.393 155.5,165.5C 155.265,166.097 154.765,166.43 154,166.5C 152.263,165.38 150.429,164.38 148.5,163.5C 145.629,167.72 142.629,171.72 139.5,175.5C 140.263,176.268 141.263,176.768 142.5,177C 141.833,178.667 141.167,180.333 140.5,182C 141.448,182.483 142.448,182.649 143.5,182.5C 143.5,182.833 143.5,183.167 143.5,183.5C 138.167,183.5 132.833,183.5 127.5,183.5C 126.041,183.567 124.708,183.234 123.5,182.5C 127.119,182.119 130.452,181.119 133.5,179.5C 136.524,176.624 137.857,172.958 137.5,168.5C 138.552,168.649 139.552,168.483 140.5,168C 137.151,167.911 136.651,166.744 139,164.5C 139.914,165.654 140.747,165.487 141.5,164C 139.729,163.465 139.396,162.631 140.5,161.5C 142.936,162.891 143.602,162.391 142.5,160C 145.167,159.667 147.833,159.333 150.5,159C 150.167,158.667 149.833,158.333 149.5,158C 151.053,156.903 152.386,155.57 153.5,154C 158.661,155.159 163.995,155.659 169.5,155.5 Z"/></g>
<g><path style="opacity:1" fill="#786957" d="M 212.5,163.5 C 210.727,164.892 208.727,166.059 206.5,167C 206.957,167.414 207.291,167.914 207.5,168.5C 204.914,169.48 202.247,169.813 199.5,169.5C 199.5,171.5 199.5,173.5 199.5,175.5C 194.833,175.5 190.167,175.5 185.5,175.5C 187.148,173.544 187.815,171.211 187.5,168.5C 186.5,168.5 185.5,168.5 184.5,168.5C 193.414,165.192 202.414,161.859 211.5,158.5C 213.54,157.481 215.54,157.481 217.5,158.5C 216.147,159.524 215.48,160.857 215.5,162.5C 214.209,162.263 213.209,162.596 212.5,163.5 Z"/></g>
<g><path style="opacity:1" fill="#8f7d6a" d="M 279.5,150.5 C 284.07,151.441 288.737,151.774 293.5,151.5C 293.5,154.167 293.5,156.833 293.5,159.5C 291.5,159.5 289.5,159.5 287.5,159.5C 288.456,157.484 289.79,155.651 291.5,154C 291,153.5 290.5,153 290,152.5C 288.887,153.711 287.72,153.711 286.5,152.5C 281.767,152.566 279.433,154.899 279.5,159.5C 277.5,159.5 275.5,159.5 273.5,159.5C 272.194,163.636 269.36,166.303 265,167.5C 264.502,170.817 264.335,174.15 264.5,177.5C 263.5,177.5 262.5,177.5 261.5,177.5C 262.029,174.396 261.029,172.063 258.5,170.5C 252.6,171.782 247.6,174.615 243.5,179C 242.207,179.49 240.873,179.657 239.5,179.5C 239.5,180.833 239.5,182.167 239.5,183.5C 237.459,183.854 235.626,183.854 234,183.5C 230.849,185.368 227.349,186.368 223.5,186.5C 223.5,187.5 223.5,188.5 223.5,189.5C 225.92,189.708 228.253,189.374 230.5,188.5C 231.748,189.04 232.915,189.707 234,190.5C 239.961,188.39 245.794,186.056 251.5,183.5C 251.586,184.496 251.252,185.329 250.5,186C 246.598,187.565 242.931,189.398 239.5,191.5C 235.643,192.175 231.977,193.342 228.5,195C 227.62,196.356 227.286,197.856 227.5,199.5C 224.167,199.5 220.833,199.5 217.5,199.5C 216.761,199.631 216.094,199.464 215.5,199C 219.13,197.542 222.797,196.209 226.5,195C 224.167,194.333 221.833,194.333 219.5,195C 214.07,196.492 209.07,198.659 204.5,201.5C 189.5,201.5 174.5,201.5 159.5,201.5C 163.982,200.674 168.649,200.174 173.5,200C 180.374,196.397 187.374,193.063 194.5,190C 198.755,189.204 202.921,189.371 207,190.5C 207.483,189.552 207.649,188.552 207.5,187.5C 209.92,187.708 212.253,187.374 214.5,186.5C 215.429,185.311 215.762,183.978 215.5,182.5C 219.136,182.181 222.469,181.015 225.5,179C 228.125,174.267 231.959,172.434 237,173.5C 238.376,173.316 239.209,172.649 239.5,171.5C 244.146,167.865 249.146,164.699 254.5,162C 256.556,161.689 258.556,161.189 260.5,160.5C 261.957,162.275 263.124,164.275 264,166.5C 264.977,164.26 265.477,161.927 265.5,159.5C 266.833,159.5 268.167,159.5 269.5,159.5C 270.167,157.167 270.833,154.833 271.5,152.5C 274.698,153.036 277.365,152.369 279.5,150.5 Z"/></g>
<g><path style="opacity:1" fill="#957d73" d="M 287.5,159.5 C 289.5,159.5 291.5,159.5 293.5,159.5C 293.5,171.833 293.5,184.167 293.5,196.5C 290.238,196.025 287.238,195.025 284.5,193.5C 285.552,193.649 286.552,193.483 287.5,193C 282.846,191.393 278.18,189.893 273.5,188.5C 271.401,187.388 269.067,186.721 266.5,186.5C 265.959,190.295 267.625,192.295 271.5,192.5C 271.333,192.833 271.167,193.167 271,193.5C 267.715,195.137 264.215,195.804 260.5,195.5C 260.5,192.167 260.5,188.833 260.5,185.5C 258.473,185.338 256.473,185.505 254.5,186C 253.307,190.199 251.14,191.032 248,188.5C 247.517,189.448 247.351,190.448 247.5,191.5C 244.833,191.5 242.167,191.5 239.5,191.5C 242.931,189.398 246.598,187.565 250.5,186C 251.252,185.329 251.586,184.496 251.5,183.5C 254.825,181.503 258.159,179.503 261.5,177.5C 262.5,177.5 263.5,177.5 264.5,177.5C 267.372,174.974 270.705,173.307 274.5,172.5C 276.455,168.87 279.455,166.87 283.5,166.5C 283.5,165.5 283.5,164.5 283.5,163.5C 287.082,163.793 288.416,162.46 287.5,159.5 Z"/></g>
<g><path style="opacity:1" fill="#9a8f7e" d="M 155.5,165.5 C 156.232,166.808 157.066,168.142 158,169.5C 159.88,170.656 162.714,170.656 166.5,169.5C 167.952,170.302 169.618,170.802 171.5,171C 170.695,172.113 170.028,173.279 169.5,174.5C 167.214,174.595 165.214,175.262 163.5,176.5C 161.304,176.59 159.137,176.923 157,177.5C 155.674,177.245 154.674,176.578 154,175.5C 153.51,176.793 153.343,178.127 153.5,179.5C 151.94,179.519 150.44,179.852 149,180.5C 147.133,179.623 145.966,178.123 145.5,176C 143.527,175.505 141.527,175.338 139.5,175.5C 142.629,171.72 145.629,167.72 148.5,163.5C 150.429,164.38 152.263,165.38 154,166.5C 154.765,166.43 155.265,166.097 155.5,165.5 Z"/></g>
<g><path style="opacity:1" fill="#6f6352" d="M 184.5,168.5 C 185.5,168.5 186.5,168.5 187.5,168.5C 187.815,171.211 187.148,173.544 185.5,175.5C 183.131,175.149 180.797,174.982 178.5,175C 175.908,178.43 172.908,181.263 169.5,183.5C 166.032,184.484 162.532,185.484 159,186.5C 158.5,186.333 158,186.167 157.5,186C 158.308,185.692 158.975,185.192 159.5,184.5C 157.604,183.534 155.604,183.201 153.5,183.5C 150.332,182.556 146.999,182.556 143.5,183.5C 143.5,183.167 143.5,182.833 143.5,182.5C 150.778,181.974 157.445,179.974 163.5,176.5C 165.214,175.262 167.214,174.595 169.5,174.5C 174.276,173.275 178.943,171.775 183.5,170C 184.056,169.617 184.389,169.117 184.5,168.5 Z"/></g>
<g><path style="opacity:1" fill="#7d5465" d="M 57.5,169.5 C 62.0885,172.258 67.0885,174.258 72.5,175.5C 74.3305,178.318 76.6639,179.318 79.5,178.5C 80.9063,178.973 81.573,179.973 81.5,181.5C 81.1667,181.5 80.8333,181.5 80.5,181.5C 77.5214,180.683 74.5214,179.849 71.5,179C 71.8333,178.667 72.1667,178.333 72.5,178C 70.0892,175.302 67.4226,174.968 64.5,177C 65.8333,177.667 66.8333,178.667 67.5,180C 63.7834,181.405 60.1168,182.905 56.5,184.5C 43.7601,183.135 31.0934,181.468 18.5,179.5C 20.0552,178.367 21.8886,177.701 24,177.5C 29.0024,179.213 34.1691,179.88 39.5,179.5C 39.5,177.5 39.5,175.5 39.5,173.5C 41.861,173.326 44.1944,172.993 46.5,172.5C 47.2161,172.783 48.0494,173.116 49,173.5C 51.7926,172.014 54.6259,170.681 57.5,169.5 Z"/></g>
<g><path style="opacity:1" fill="#51383f" d="M 118.5,181.5 C 119.167,181.5 119.5,181.833 119.5,182.5C 119.923,184.781 119.256,186.448 117.5,187.5C 111.924,187.917 106.924,189.917 102.5,193.5C 101.482,192.807 100.482,192.141 99.5,191.5C 99.5,189.5 99.5,187.5 99.5,185.5C 97.0733,185.477 94.74,184.977 92.5,184C 93.5,183.667 94.5,183.333 95.5,183C 93.7732,180.096 93.1065,176.93 93.5,173.5C 97.5138,173.666 101.514,173.499 105.5,173C 104.833,172.667 104.167,172.333 103.5,172C 104.667,171.833 105.833,171.667 107,171.5C 110.612,173.718 112.445,172.718 112.5,168.5C 115.079,168.083 117.246,168.75 119,170.5C 119.056,173.267 119.222,175.933 119.5,178.5C 118.5,179.167 117.5,179.833 116.5,180.5C 116.957,181.298 117.624,181.631 118.5,181.5 Z"/></g>
<g><path style="opacity:1" fill="#7e5d67" d="M -0.5,173.5 C 5.88241,175.399 12.5491,176.066 19.5,175.5C 13.4433,178.974 6.77661,180.974 -0.5,181.5C -0.5,178.833 -0.5,176.167 -0.5,173.5 Z"/></g>
<g><path style="opacity:1" fill="#897a6c" d="M 139.5,175.5 C 141.527,175.338 143.527,175.505 145.5,176C 145.966,178.123 147.133,179.623 149,180.5C 150.44,179.852 151.94,179.519 153.5,179.5C 153.343,178.127 153.51,176.793 154,175.5C 154.674,176.578 155.674,177.245 157,177.5C 159.137,176.923 161.304,176.59 163.5,176.5C 157.445,179.974 150.778,181.974 143.5,182.5C 142.448,182.649 141.448,182.483 140.5,182C 141.167,180.333 141.833,178.667 142.5,177C 141.263,176.768 140.263,176.268 139.5,175.5 Z"/></g>
<g><path style="opacity:1" fill="#998a75" d="M 261.5,177.5 C 258.159,179.503 254.825,181.503 251.5,183.5C 245.794,186.056 239.961,188.39 234,190.5C 232.915,189.707 231.748,189.04 230.5,188.5C 228.253,189.374 225.92,189.708 223.5,189.5C 223.5,188.5 223.5,187.5 223.5,186.5C 227.349,186.368 230.849,185.368 234,183.5C 235.626,183.854 237.459,183.854 239.5,183.5C 239.5,182.167 239.5,180.833 239.5,179.5C 240.873,179.657 242.207,179.49 243.5,179C 247.6,174.615 252.6,171.782 258.5,170.5C 261.029,172.063 262.029,174.396 261.5,177.5 Z"/></g>
<g><path style="opacity:1" fill="#825c69" d="M 80.5,181.5 C 80.5,182.167 80.5,182.833 80.5,183.5C 79.0773,187.275 77.244,187.275 75,183.5C 74.6667,183.833 74.3333,184.167 74,184.5C 73.7508,183.376 73.2508,182.376 72.5,181.5C 70.0226,183.365 67.6892,185.032 65.5,186.5C 61.8531,187.087 58.3531,188.087 55,189.5C 51.0609,187.211 46.8942,186.544 42.5,187.5C 38.7744,186.009 34.9411,184.676 31,183.5C 26.9036,183.728 22.7369,183.895 18.5,184C 17.3333,184.5 16.5,185.333 16,186.5C 15.8333,185.667 15.6667,184.833 15.5,184C 16.0077,182.107 17.0077,180.607 18.5,179.5C 31.0934,181.468 43.7601,183.135 56.5,184.5C 60.1168,182.905 63.7834,181.405 67.5,180C 66.8333,178.667 65.8333,177.667 64.5,177C 67.4226,174.968 70.0892,175.302 72.5,178C 72.1667,178.333 71.8333,178.667 71.5,179C 74.5214,179.849 77.5214,180.683 80.5,181.5 Z"/></g>
<g><path style="opacity:1" fill="#412a2f" d="M 106.5,176.5 C 113.566,176.601 115.566,179.601 112.5,185.5C 110.417,186.959 108.25,188.292 106,189.5C 105.056,188.737 104.556,187.737 104.5,186.5C 106.18,183.429 106.847,180.096 106.5,176.5 Z"/></g>
<g><path style="opacity:1" fill="#776558" d="M 153.5,183.5 C 155.604,183.201 157.604,183.534 159.5,184.5C 158.975,185.192 158.308,185.692 157.5,186C 158,186.167 158.5,186.333 159,186.5C 162.532,185.484 166.032,184.484 169.5,183.5C 169.082,184.222 168.416,184.722 167.5,185C 170.297,186.233 172.963,187.733 175.5,189.5C 174.019,190.48 172.685,191.647 171.5,193C 167.789,193.175 164.122,193.675 160.5,194.5C 155.341,197.897 149.674,199.897 143.5,200.5C 138.267,199.578 132.934,198.578 127.5,197.5C 127.389,196.883 127.056,196.383 126.5,196C 132.432,195.52 137.765,193.52 142.5,190C 143.337,188.989 143.67,187.822 143.5,186.5C 147.142,185.92 150.809,185.42 154.5,185C 153.944,184.617 153.611,184.117 153.5,183.5 Z"/></g>
<g><path style="opacity:1" fill="#826068" d="M 18.5,179.5 C 17.0077,180.607 16.0077,182.107 15.5,184C 15.6667,184.833 15.8333,185.667 16,186.5C 16.5,185.333 17.3333,184.5 18.5,184C 22.7369,183.895 26.9036,183.728 31,183.5C 34.9411,184.676 38.7744,186.009 42.5,187.5C 46.8942,186.544 51.0609,187.211 55,189.5C 58.3531,188.087 61.8531,187.087 65.5,186.5C 67.6892,185.032 70.0226,183.365 72.5,181.5C 73.2508,182.376 73.7508,183.376 74,184.5C 74.3333,184.167 74.6667,183.833 75,183.5C 77.244,187.275 79.0773,187.275 80.5,183.5C 80.5394,184.583 80.8728,185.583 81.5,186.5C 79.8955,188.179 79.2289,190.179 79.5,192.5C 79.5654,192.938 79.3988,193.272 79,193.5C 77.951,191.893 76.451,191.227 74.5,191.5C 74.6567,190.127 74.49,188.793 74,187.5C 72.2942,188.308 71.4609,189.641 71.5,191.5C 64.5502,190.364 57.7168,191.031 51,193.5C 48.1143,191.775 44.9477,191.108 41.5,191.5C 41.67,190.178 41.3366,189.011 40.5,188C 34.6282,185.015 30.2948,186.349 27.5,192C 22.4555,192.551 17.4555,192.218 12.5,191C 12.0426,190.586 11.7093,190.086 11.5,189.5C 8.16667,188.833 4.83333,188.167 1.5,187.5C 2.92157,187.412 4.42157,187.412 6,187.5C 7.18819,186.437 7.68819,185.103 7.5,183.5C 10.9385,181.796 14.6052,180.462 18.5,179.5 Z"/></g>
<g><path style="opacity:1" fill="#79575c" d="M 80.5,181.5 C 80.8333,181.5 81.1667,181.5 81.5,181.5C 82.9575,183.011 84.7908,184.011 87,184.5C 88.3561,183.62 89.8561,183.286 91.5,183.5C 91.3505,184.552 91.5172,185.552 92,186.5C 92.7175,185.549 93.5509,185.383 94.5,186C 95.2228,188.018 96.2228,189.852 97.5,191.5C 97.5,192.833 97.5,194.167 97.5,195.5C 93.8493,195.162 92.1826,196.828 92.5,200.5C 88.8705,199.9 85.2039,199.233 81.5,198.5C 82.724,196.161 82.724,193.828 81.5,191.5C 80.8165,191.863 80.1499,192.196 79.5,192.5C 79.2289,190.179 79.8955,188.179 81.5,186.5C 80.8728,185.583 80.5394,184.583 80.5,183.5C 80.5,182.833 80.5,182.167 80.5,181.5 Z"/></g>
<g><path style="opacity:1" fill="#755b54" d="M 273.5,188.5 C 278.18,189.893 282.846,191.393 287.5,193C 286.552,193.483 285.552,193.649 284.5,193.5C 279.921,192.358 276.254,190.691 273.5,188.5 Z"/></g>
<g><path style="opacity:1" fill="#6c584f" d="M 153.5,183.5 C 153.611,184.117 153.944,184.617 154.5,185C 150.809,185.42 147.142,185.92 143.5,186.5C 143.67,187.822 143.337,188.989 142.5,190C 137.765,193.52 132.432,195.52 126.5,196C 127.056,196.383 127.389,196.883 127.5,197.5C 124.548,198.973 121.881,198.64 119.5,196.5C 120.609,195.71 121.942,195.21 123.5,195C 122.062,194.781 120.729,194.281 119.5,193.5C 121.49,192.502 123.49,191.502 125.5,190.5C 126.086,190.709 126.586,191.043 127,191.5C 128.02,190.109 128.853,188.609 129.5,187C 131.384,186.784 133.051,186.117 134.5,185C 131.964,184.814 129.631,184.314 127.5,183.5C 132.833,183.5 138.167,183.5 143.5,183.5C 146.999,182.556 150.332,182.556 153.5,183.5 Z"/></g>
<g><path style="opacity:1" fill="#836468" d="M 7.5,183.5 C 7.68819,185.103 7.18819,186.437 6,187.5C 4.42157,187.412 2.92157,187.412 1.5,187.5C 4.83333,188.167 8.16667,188.833 11.5,189.5C 11.7093,190.086 12.0426,190.586 12.5,191C 17.4555,192.218 22.4555,192.551 27.5,192C 30.2948,186.349 34.6282,185.015 40.5,188C 41.3366,189.011 41.67,190.178 41.5,191.5C 44.9477,191.108 48.1143,191.775 51,193.5C 57.7168,191.031 64.5502,190.364 71.5,191.5C 71.4609,189.641 72.2942,188.308 74,187.5C 74.49,188.793 74.6567,190.127 74.5,191.5C 76.451,191.227 77.951,191.893 79,193.5C 79.3988,193.272 79.5654,192.938 79.5,192.5C 80.1499,192.196 80.8165,191.863 81.5,191.5C 82.724,193.828 82.724,196.161 81.5,198.5C 85.2039,199.233 88.8705,199.9 92.5,200.5C 90.2957,201.505 87.2957,201.838 83.5,201.5C 79.6877,200.676 75.6877,200.176 71.5,200C 68.9405,199.773 67.2738,198.44 66.5,196C 59.9826,196.042 53.3159,195.708 46.5,195C 41.5964,192.698 36.5964,190.865 31.5,189.5C 31.5461,194.862 34.2128,196.862 39.5,195.5C 39.5294,198.773 38.1961,199.44 35.5,197.5C 34.2867,197.747 33.62,198.414 33.5,199.5C 22.1667,199.5 10.8333,199.5 -0.5,199.5C -0.5,194.5 -0.5,189.5 -0.5,184.5C 2.16667,184.167 4.83333,183.833 7.5,183.5 Z"/></g>
<g><path style="opacity:1" fill="#5b3d3f" d="M 117.5,187.5 C 116.972,188.721 116.305,189.887 115.5,191C 111.796,192.354 108.296,194.187 105,196.5C 103.189,195.922 101.355,195.422 99.5,195C 98.8288,194.014 98.8288,192.847 99.5,191.5C 100.482,192.141 101.482,192.807 102.5,193.5C 106.924,189.917 111.924,187.917 117.5,187.5 Z"/></g>
<g><path style="opacity:1" fill="#977b77" d="M 273.5,188.5 C 276.254,190.691 279.921,192.358 284.5,193.5C 287.238,195.025 290.238,196.025 293.5,196.5C 293.5,198.167 293.5,199.833 293.5,201.5C 286.167,201.5 278.833,201.5 271.5,201.5C 273.969,200.683 276.635,200.183 279.5,200C 274.167,199.667 268.833,199.333 263.5,199C 257.043,196.423 250.376,194.59 243.5,193.5C 236.636,192.37 231.97,195.037 229.5,201.5C 224.5,201.5 219.5,201.5 214.5,201.5C 215.5,200.833 216.5,200.167 217.5,199.5C 220.833,199.5 224.167,199.5 227.5,199.5C 227.286,197.856 227.62,196.356 228.5,195C 231.977,193.342 235.643,192.175 239.5,191.5C 242.167,191.5 244.833,191.5 247.5,191.5C 247.351,190.448 247.517,189.448 248,188.5C 251.14,191.032 253.307,190.199 254.5,186C 256.473,185.505 258.473,185.338 260.5,185.5C 260.5,188.833 260.5,192.167 260.5,195.5C 264.215,195.804 267.715,195.137 271,193.5C 271.167,193.167 271.333,192.833 271.5,192.5C 267.625,192.295 265.959,190.295 266.5,186.5C 269.067,186.721 271.401,187.388 273.5,188.5 Z"/></g>
<g><path style="opacity:1" fill="#8a6d6f" d="M 83.5,201.5 C 74.8333,201.5 66.1667,201.5 57.5,201.5C 49.9032,199.533 41.9032,198.866 33.5,199.5C 33.62,198.414 34.2867,197.747 35.5,197.5C 38.1961,199.44 39.5294,198.773 39.5,195.5C 34.2128,196.862 31.5461,194.862 31.5,189.5C 36.5964,190.865 41.5964,192.698 46.5,195C 53.3159,195.708 59.9826,196.042 66.5,196C 67.2738,198.44 68.9405,199.773 71.5,200C 75.6877,200.176 79.6877,200.676 83.5,201.5 Z"/></g>
<g><path style="opacity:1" fill="#7c6a59" d="M 217.5,199.5 C 216.5,200.167 215.5,200.833 214.5,201.5C 211.167,201.5 207.833,201.5 204.5,201.5C 209.07,198.659 214.07,196.492 219.5,195C 221.833,194.333 224.167,194.333 226.5,195C 222.797,196.209 219.13,197.542 215.5,199C 216.094,199.464 216.761,199.631 217.5,199.5 Z"/></g>
<g><path style="opacity:1" fill="#936d78" d="M 243.5,193.5 C 250.376,194.59 257.043,196.423 263.5,199C 268.833,199.333 274.167,199.667 279.5,200C 276.635,200.183 273.969,200.683 271.5,201.5C 265.5,201.5 259.5,201.5 253.5,201.5C 254.091,200.849 254.757,200.182 255.5,199.5C 250.841,198.63 246.175,197.797 241.5,197C 243.939,196.467 244.605,195.3 243.5,193.5 Z"/></g>
<g><path style="opacity:1" fill="#594442" d="M 119.5,182.5 C 120.833,182.5 122.167,182.5 123.5,182.5C 124.708,183.234 126.041,183.567 127.5,183.5C 129.631,184.314 131.964,184.814 134.5,185C 133.051,186.117 131.384,186.784 129.5,187C 128.853,188.609 128.02,190.109 127,191.5C 126.586,191.043 126.086,190.709 125.5,190.5C 123.49,191.502 121.49,192.502 119.5,193.5C 120.729,194.281 122.062,194.781 123.5,195C 121.942,195.21 120.609,195.71 119.5,196.5C 117.116,196.443 114.782,196.777 112.5,197.5C 110.892,199.262 108.892,200.428 106.5,201C 116.161,201.5 125.828,201.666 135.5,201.5C 143.5,201.5 151.5,201.5 159.5,201.5C 174.5,201.5 189.5,201.5 204.5,201.5C 207.833,201.5 211.167,201.5 214.5,201.5C 219.5,201.5 224.5,201.5 229.5,201.5C 237.5,201.5 245.5,201.5 253.5,201.5C 259.5,201.5 265.5,201.5 271.5,201.5C 278.833,201.5 286.167,201.5 293.5,201.5C 293.5,201.833 293.5,202.167 293.5,202.5C 195.5,202.5 97.5,202.5 -0.5,202.5C -0.5,202.167 -0.5,201.833 -0.5,201.5C 18.8333,201.5 38.1667,201.5 57.5,201.5C 66.1667,201.5 74.8333,201.5 83.5,201.5C 87.2957,201.838 90.2957,201.505 92.5,200.5C 92.1826,196.828 93.8493,195.162 97.5,195.5C 97.5,194.167 97.5,192.833 97.5,191.5C 98.1667,191.5 98.8333,191.5 99.5,191.5C 98.8288,192.847 98.8288,194.014 99.5,195C 101.355,195.422 103.189,195.922 105,196.5C 108.296,194.187 111.796,192.354 115.5,191C 116.305,189.887 116.972,188.721 117.5,187.5C 119.256,186.448 119.923,184.781 119.5,182.5 Z"/></g>
<g><path style="opacity:1" fill="#7f6560" d="M 119.5,196.5 C 121.881,198.64 124.548,198.973 127.5,197.5C 132.934,198.578 138.267,199.578 143.5,200.5C 140.615,200.194 137.948,200.527 135.5,201.5C 125.828,201.666 116.161,201.5 106.5,201C 108.892,200.428 110.892,199.262 112.5,197.5C 114.782,196.777 117.116,196.443 119.5,196.5 Z"/></g>
<g><path style="opacity:1" fill="#845e6b" d="M 243.5,193.5 C 244.605,195.3 243.939,196.467 241.5,197C 246.175,197.797 250.841,198.63 255.5,199.5C 254.757,200.182 254.091,200.849 253.5,201.5C 245.5,201.5 237.5,201.5 229.5,201.5C 231.97,195.037 236.636,192.37 243.5,193.5 Z"/></g>
<g><path style="opacity:1" fill="#7f6f69" d="M -0.5,199.5 C 10.8333,199.5 22.1667,199.5 33.5,199.5C 41.9032,198.866 49.9032,199.533 57.5,201.5C 38.1667,201.5 18.8333,201.5 -0.5,201.5C -0.5,200.833 -0.5,200.167 -0.5,199.5 Z"/></g>
<g><path style="opacity:1" fill="#000000" d="M -0.5,202.5 C 97.5,202.5 195.5,202.5 293.5,202.5C 293.5,214.833 293.5,227.167 293.5,239.5C 195.5,239.5 97.5,239.5 -0.5,239.5C -0.5,227.167 -0.5,214.833 -0.5,202.5 Z"/></g>
</svg>
