<?xml version="1.0" encoding="UTF-8"?>
<!DOCTYPE svg PUBLIC "-//W3C//DTD SVG 1.1//EN" "http://www.w3.org/Graphics/SVG/1.1/DTD/svg11.dtd">
<svg xmlns="http://www.w3.org/2000/svg" version="1.1" width="294px" height="240px" style="shape-rendering:geometricPrecision; text-rendering:geometricPrecision; image-rendering:optimizeQuality; fill-rule:evenodd; clip-rule:evenodd" xmlns:xlink="http://www.w3.org/1999/xlink">
<g><path style="opacity:1" fill="#000000" d="M -0.5,-0.5 C 97.5,-0.5 195.5,-0.5 293.5,-0.5C 293.5,11.8333 293.5,24.1667 293.5,36.5C 195.5,36.5 97.5,36.5 -0.5,36.5C -0.5,24.1667 -0.5,11.8333 -0.5,-0.5 Z"/></g>
<g><path style="opacity:1" fill="#797f7f" d="M -0.5,37.5 C 15.4321,37.5136 15.4321,38.1803 -0.5,39.5C -0.5,38.8333 -0.5,38.1667 -0.5,37.5 Z"/></g>
<g><path style="opacity:1" fill="#aab6b4" d="M 77.5,37.5 C 78.1667,37.5 78.8333,37.5 79.5,37.5C 84.6405,38.4881 89.9738,38.8214 95.5,38.5C 94.6091,39.2613 93.9424,40.2613 93.5,41.5C 94.7664,47.229 96.4331,52.8956 98.5,58.5C 97.0065,59.1411 96.0065,60.1411 95.5,61.5C 93.0137,62.6812 90.6804,62.3479 88.5,60.5C 84.8946,61.3079 81.5613,62.6412 78.5,64.5C 79.2751,62.6119 79.2751,60.6119 78.5,58.5C 78.7955,51.4122 78.4621,44.4122 77.5,37.5 Z"/></g>
<g><path style="opacity:1" fill="#b2beba" d="M 95.5,38.5 C 101.842,38.3338 108.175,38.5005 114.5,39C 113.833,39.3333 113.167,39.6667 112.5,40C 114.044,40.2896 115.377,40.9563 116.5,42C 114.444,42.3108 112.444,42.8108 110.5,43.5C 109.52,46.0865 109.187,48.7531 109.5,51.5C 112.807,52.0508 116.14,52.3841 119.5,52.5C 119.5,54.1667 119.5,55.8333 119.5,57.5C 117.396,57.2011 115.396,57.5344 113.5,58.5C 114.243,59.1818 114.909,59.8485 115.5,60.5C 113.712,60.9705 111.878,61.3038 110,61.5C 107.328,61.7457 105.828,61.079 105.5,59.5C 103.962,59.4534 102.962,60.1201 102.5,61.5C 100.167,61.5 97.8333,61.5 95.5,61.5C 96.0065,60.1411 97.0065,59.1411 98.5,58.5C 96.4331,52.8956 94.7664,47.229 93.5,41.5C 93.9424,40.2613 94.6091,39.2613 95.5,38.5 Z"/></g>
<g><path style="opacity:1" fill="#b5c0bc" d="M 253.5,37.5 C 263.5,37.5 273.5,37.5 283.5,37.5C 275.01,38.3296 266.343,38.8296 257.5,39C 260.817,39.4983 264.15,39.665 267.5,39.5C 267.087,45.9768 267.087,52.3102 267.5,58.5C 267.333,60.5 267.167,62.5 267,64.5C 266.667,62.8333 266.333,61.1667 266,59.5C 265.503,62.146 265.336,64.8127 265.5,67.5C 262.128,67.8504 258.961,68.1838 256,68.5C 250.61,67.0563 245.11,66.5563 239.5,67C 244.524,67.9191 249.524,68.9191 254.5,70C 252.239,70.2395 250.239,70.4062 248.5,70.5C 250.045,71.4519 251.712,71.7852 253.5,71.5C 253.5,72.5 253.5,73.5 253.5,74.5C 251.856,74.7135 250.356,74.3802 249,73.5C 248.667,74.1667 248.333,74.8333 248,75.5C 246.584,72.8052 244.584,72.1386 242,73.5C 241.667,72.8333 241.333,72.1667 241,71.5C 236.712,71.6187 232.212,71.6187 227.5,71.5C 220.167,71.5 212.833,71.5 205.5,71.5C 199.255,70.9751 192.755,70.3084 186,69.5C 183.456,69.336 181.29,70.0027 179.5,71.5C 179.167,71.5 178.833,71.5 178.5,71.5C 178.03,70.3065 177.03,69.6399 175.5,69.5C 171.868,68.7543 168.202,68.421 164.5,68.5C 163.737,67.7321 162.737,67.2321 161.5,67C 162.056,66.6174 162.389,66.1174 162.5,65.5C 174.833,65.5 187.167,65.5 199.5,65.5C 199.5,64.5 199.5,63.5 199.5,62.5C 206.167,64.5 208.5,62.1667 206.5,55.5C 208.833,55.5 211.167,55.5 213.5,55.5C 213.799,53.396 213.466,51.396 212.5,49.5C 210.618,50.0933 208.785,50.7599 207,51.5C 206.706,47.8816 207.54,44.5483 209.5,41.5C 212.518,41.6646 215.518,41.498 218.5,41C 214.713,40.8404 211.046,40.1737 207.5,39C 223.005,38.8314 238.339,38.3314 253.5,37.5 Z"/></g>
<g><path style="opacity:1" fill="#acb8b4" d="M 283.5,37.5 C 286.833,37.5 290.167,37.5 293.5,37.5C 293.5,37.8333 293.5,38.1667 293.5,38.5C 290.5,38.5 287.5,38.5 284.5,38.5C 284.5,39.5 284.5,40.5 284.5,41.5C 283.325,41.281 282.325,41.6143 281.5,42.5C 283.573,45.119 284.573,48.119 284.5,51.5C 288.5,51.8333 288.5,52.1667 284.5,52.5C 284.5,53.5 284.5,54.5 284.5,55.5C 279.532,55.8659 279.866,56.3659 285.5,57C 279.097,58.4234 279.431,59.2567 286.5,59.5C 286.543,62.0878 287.543,64.2544 289.5,66C 287.048,67.8064 287.381,69.3064 290.5,70.5C 291.309,72.0709 291.643,73.7376 291.5,75.5C 289.833,75.5 288.167,75.5 286.5,75.5C 286.5,76.8333 286.5,78.1667 286.5,79.5C 290.099,79.2619 290.433,80.2619 287.5,82.5C 282.508,83.332 277.508,83.9986 272.5,84.5C 272.649,83.448 272.483,82.448 272,81.5C 270.115,83.02 267.949,84.02 265.5,84.5C 264.289,83.6102 262.955,83.6102 261.5,84.5C 260.353,84.1822 259.519,83.5156 259,82.5C 254.013,82.8533 248.847,83.5199 243.5,84.5C 241.952,84.1788 241.285,83.1788 241.5,81.5C 241.771,79.6203 241.104,78.287 239.5,77.5C 239.167,76.5 238.5,75.8333 237.5,75.5C 237.5,74.8333 237.167,74.5 236.5,74.5C 233.713,73.5233 230.713,73.19 227.5,73.5C 227.5,72.8333 227.5,72.1667 227.5,71.5C 232.212,71.6187 236.712,71.6187 241,71.5C 241.333,72.1667 241.667,72.8333 242,73.5C 244.584,72.1386 246.584,72.8052 248,75.5C 248.333,74.8333 248.667,74.1667 249,73.5C 250.356,74.3802 251.856,74.7135 253.5,74.5C 253.5,73.5 253.5,72.5 253.5,71.5C 251.712,71.7852 250.045,71.4519 248.5,70.5C 250.239,70.4062 252.239,70.2395 254.5,70C 249.524,68.9191 244.524,67.9191 239.5,67C 245.11,66.5563 250.61,67.0563 256,68.5C 258.961,68.1838 262.128,67.8504 265.5,67.5C 265.336,64.8127 265.503,62.146 266,59.5C 266.333,61.1667 266.667,62.8333 267,64.5C 267.167,62.5 267.333,60.5 267.5,58.5C 267.087,52.3102 267.087,45.9768 267.5,39.5C 264.15,39.665 260.817,39.4983 257.5,39C 266.343,38.8296 275.01,38.3296 283.5,37.5 Z"/></g>
<g><path style="opacity:1" fill="#7c8489" d="M 39.5,37.5 C 39.5,40.1667 39.5,42.8333 39.5,45.5C 38.5,45.5 37.5,45.5 36.5,45.5C 36.6621,43.4727 36.4955,41.4727 36,39.5C 35.9326,42.047 35.0993,44.2137 33.5,46C 28.1446,46.8354 22.8113,47.6687 17.5,48.5C 16.6561,44.9009 16.3227,41.2343 16.5,37.5C 24.1667,37.5 31.8333,37.5 39.5,37.5 Z"/></g>
<g><path style="opacity:1" fill="#626c6e" d="M 50.5,45.5 C 47.1603,46.7296 43.827,47.0629 40.5,46.5C 42.2914,45.8302 43.9581,45.1635 45.5,44.5C 52.4882,44.4485 59.1548,43.1152 65.5,40.5C 68.1052,41.0355 70.7718,41.2022 73.5,41C 72.8729,42.7378 72.5396,44.5711 72.5,46.5C 72.6132,48.6413 73.2799,50.4747 74.5,52C 68.0712,54.293 61.4046,55.293 54.5,55C 57.7928,54.1744 61.1262,53.6744 64.5,53.5C 65.1587,50.5448 65.4921,47.5448 65.5,44.5C 60.6102,44.4044 55.6102,44.7378 50.5,45.5 Z"/></g>
<g><path style="opacity:1" fill="#bac7c3" d="M 79.5,37.5 C 137.5,37.5 195.5,37.5 253.5,37.5C 238.339,38.3314 223.005,38.8314 207.5,39C 211.046,40.1737 214.713,40.8404 218.5,41C 215.518,41.498 212.518,41.6646 209.5,41.5C 207.54,44.5483 206.706,47.8816 207,51.5C 208.785,50.7599 210.618,50.0933 212.5,49.5C 213.466,51.396 213.799,53.396 213.5,55.5C 211.167,55.5 208.833,55.5 206.5,55.5C 208.5,62.1667 206.167,64.5 199.5,62.5C 199.5,63.5 199.5,64.5 199.5,65.5C 187.167,65.5 174.833,65.5 162.5,65.5C 158.167,65.5 153.833,65.5 149.5,65.5C 142.557,64.5733 135.557,64.24 128.5,64.5C 124.522,62.7562 120.188,61.4228 115.5,60.5C 114.909,59.8485 114.243,59.1818 113.5,58.5C 115.396,57.5344 117.396,57.2011 119.5,57.5C 119.5,55.8333 119.5,54.1667 119.5,52.5C 116.14,52.3841 112.807,52.0508 109.5,51.5C 109.187,48.7531 109.52,46.0865 110.5,43.5C 112.444,42.8108 114.444,42.3108 116.5,42C 115.377,40.9563 114.044,40.2896 112.5,40C 113.167,39.6667 113.833,39.3333 114.5,39C 108.175,38.5005 101.842,38.3338 95.5,38.5C 89.9738,38.8214 84.6405,38.4881 79.5,37.5 Z"/></g>
<g><path style="opacity:1" fill="#656f6e" d="M 78.5,58.5 C 79.2751,60.6119 79.2751,62.6119 78.5,64.5C 77.1667,64.5 75.8333,64.5 74.5,64.5C 75.2422,62.4057 75.9089,60.239 76.5,58C 75.5446,51.8579 74.878,45.6912 74.5,39.5C 75.5,39.5 76.5,39.5 77.5,39.5C 77.1765,46.0221 77.5098,52.3554 78.5,58.5 Z"/></g>
<g><path style="opacity:1" fill="#798189" d="M 14.5,43.5 C 14.7989,45.604 14.4656,47.604 13.5,49.5C 8.93419,50.8163 4.26753,51.483 -0.5,51.5C -0.5,48.8333 -0.5,46.1667 -0.5,43.5C 0.26791,44.2625 0.76791,45.2625 1,46.5C 0.516048,41.1381 2.68271,39.4714 7.5,41.5C 9.50976,39.8287 11.8431,39.162 14.5,39.5C 14.5,40.8333 14.5,42.1667 14.5,43.5 Z"/></g>
<g><path style="opacity:1" fill="#4f5457" d="M -0.5,37.5 C -0.5,37.1667 -0.5,36.8333 -0.5,36.5C 97.5,36.5 195.5,36.5 293.5,36.5C 293.5,36.8333 293.5,37.1667 293.5,37.5C 290.167,37.5 286.833,37.5 283.5,37.5C 273.5,37.5 263.5,37.5 253.5,37.5C 195.5,37.5 137.5,37.5 79.5,37.5C 78.8333,37.5 78.1667,37.5 77.5,37.5C 65.8333,37.5 54.1667,37.5 42.5,37.5C 41.5,37.5 40.5,37.5 39.5,37.5C 31.8333,37.5 24.1667,37.5 16.5,37.5C 16.3227,41.2343 16.6561,44.9009 17.5,48.5C 19.803,49.2307 22.1363,49.564 24.5,49.5C 22.2573,50.4742 19.924,50.8076 17.5,50.5C 18.1099,55.3167 17.7765,57.3167 16.5,56.5C 16.2296,51.9725 15.5629,47.6391 14.5,43.5C 14.5,42.1667 14.5,40.8333 14.5,39.5C 11.8431,39.162 9.50976,39.8287 7.5,41.5C 2.68271,39.4714 0.516048,41.1381 1,46.5C 0.76791,45.2625 0.26791,44.2625 -0.5,43.5C -0.5,42.1667 -0.5,40.8333 -0.5,39.5C 15.4321,38.1803 15.4321,37.5136 -0.5,37.5 Z"/></g>
<g><path style="opacity:1" fill="#636970" d="M 14.5,43.5 C 15.5629,47.6391 16.2296,51.9725 16.5,56.5C 15.5655,55.4324 15.2322,54.099 15.5,52.5C 12.9556,52.1043 10.7889,52.771 9,54.5C 7.30054,53.5939 5.4672,53.2606 3.5,53.5C 3.71901,54.675 3.38568,55.675 2.5,56.5C 1.58317,55.8728 0.583168,55.5394 -0.5,55.5C -0.5,54.1667 -0.5,52.8333 -0.5,51.5C 4.26753,51.483 8.93419,50.8163 13.5,49.5C 14.4656,47.604 14.7989,45.604 14.5,43.5 Z"/></g>
<g><path style="opacity:1" fill="#7b8486" d="M 42.5,37.5 C 54.1667,37.5 65.8333,37.5 77.5,37.5C 78.4621,44.4122 78.7955,51.4122 78.5,58.5C 77.5098,52.3554 77.1765,46.0221 77.5,39.5C 76.5,39.5 75.5,39.5 74.5,39.5C 74.878,45.6912 75.5446,51.8579 76.5,58C 75.9089,60.239 75.2422,62.4057 74.5,64.5C 74.1667,64.5 73.8333,64.5 73.5,64.5C 73.5674,63.0413 73.2341,61.7079 72.5,60.5C 72.9382,60.5654 73.2716,60.3988 73.5,60C 72.6721,59.0853 71.6721,58.4186 70.5,58C 61.8654,56.9187 53.1987,56.4187 44.5,56.5C 44.1826,53.4281 44.5159,50.4281 45.5,47.5C 46.48,50.0865 46.8134,52.7531 46.5,55.5C 47.8333,55.5 49.1667,55.5 50.5,55.5C 50.5,52.1667 50.5,48.8333 50.5,45.5C 55.6102,44.7378 60.6102,44.4044 65.5,44.5C 65.4921,47.5448 65.1587,50.5448 64.5,53.5C 61.1262,53.6744 57.7928,54.1744 54.5,55C 61.4046,55.293 68.0712,54.293 74.5,52C 73.2799,50.4747 72.6132,48.6413 72.5,46.5C 72.5396,44.5711 72.8729,42.7378 73.5,41C 70.7718,41.2022 68.1052,41.0355 65.5,40.5C 59.1548,43.1152 52.4882,44.4485 45.5,44.5C 44.5,44.5 43.5,44.5 42.5,44.5C 42.5,42.1667 42.5,39.8333 42.5,37.5 Z"/></g>
<g><path style="opacity:1" fill="#7c8788" d="M 68.5,42.5 C 69.4959,42.4142 70.3292,42.7476 71,43.5C 71.4974,46.146 71.6641,48.8127 71.5,51.5C 70.1667,51.5 68.8333,51.5 67.5,51.5C 67.2641,48.3915 67.5975,45.3915 68.5,42.5 Z"/></g>
<g><path style="opacity:1" fill="#a0a7a1" d="M 44.5,56.5 C 53.1987,56.4187 61.8654,56.9187 70.5,58C 71.6721,58.4186 72.6721,59.0853 73.5,60C 73.2716,60.3988 72.9382,60.5654 72.5,60.5C 71.0695,60.5792 69.7362,60.2458 68.5,59.5C 66.5188,61.3297 64.1855,62.4964 61.5,63C 54.0577,64.5345 46.5577,65.7011 39,66.5C 32.3819,66.312 31.8819,64.6453 37.5,61.5C 35.3691,60.8313 33.3691,60.1646 31.5,59.5C 35.9305,58.4009 40.2638,57.4009 44.5,56.5 Z"/></g>
<g><path style="opacity:1" fill="#747d84" d="M 39.5,37.5 C 40.5,37.5 41.5,37.5 42.5,37.5C 42.5,39.8333 42.5,42.1667 42.5,44.5C 43.5,44.5 44.5,44.5 45.5,44.5C 43.9581,45.1635 42.2914,45.8302 40.5,46.5C 43.827,47.0629 47.1603,46.7296 50.5,45.5C 50.5,48.8333 50.5,52.1667 50.5,55.5C 49.1667,55.5 47.8333,55.5 46.5,55.5C 46.8134,52.7531 46.48,50.0865 45.5,47.5C 44.5159,50.4281 44.1826,53.4281 44.5,56.5C 40.2638,57.4009 35.9305,58.4009 31.5,59.5C 29.3024,59.8751 27.3024,60.5418 25.5,61.5C 16.9517,63.4695 8.28506,64.4695 -0.5,64.5C -0.5,61.5 -0.5,58.5 -0.5,55.5C 0.583168,55.5394 1.58317,55.8728 2.5,56.5C 3.38568,55.675 3.71901,54.675 3.5,53.5C 5.4672,53.2606 7.30054,53.5939 9,54.5C 10.7889,52.771 12.9556,52.1043 15.5,52.5C 15.2322,54.099 15.5655,55.4324 16.5,56.5C 17.7765,57.3167 18.1099,55.3167 17.5,50.5C 19.924,50.8076 22.2573,50.4742 24.5,49.5C 22.1363,49.564 19.803,49.2307 17.5,48.5C 22.8113,47.6687 28.1446,46.8354 33.5,46C 35.0993,44.2137 35.9326,42.047 36,39.5C 36.4955,41.4727 36.6621,43.4727 36.5,45.5C 37.5,45.5 38.5,45.5 39.5,45.5C 39.5,42.8333 39.5,40.1667 39.5,37.5 Z"/></g>
<g><path style="opacity:1" fill="#9ea4a2" d="M 25.5,61.5 C 26.1667,61.8333 26.8333,62.1667 27.5,62.5C 25.563,63.9314 23.7297,65.5981 22,67.5C 20.0937,66.8689 18.0937,66.5356 16,66.5C 11.9147,67.0794 8.0814,68.4127 4.5,70.5C 2.92908,69.6906 1.26241,69.3573 -0.5,69.5C -0.5,67.8333 -0.5,66.1667 -0.5,64.5C 8.28506,64.4695 16.9517,63.4695 25.5,61.5 Z"/></g>
<g><path style="opacity:1" fill="#bac2b3" d="M 115.5,60.5 C 120.188,61.4228 124.522,62.7562 128.5,64.5C 128.821,66.0481 129.821,66.7148 131.5,66.5C 132.048,70.8357 130.881,71.8357 128,69.5C 123.562,72.3305 118.729,73.1638 113.5,72C 114.423,69.9592 114.756,67.7925 114.5,65.5C 111.654,66.0946 108.654,66.0946 105.5,65.5C 105.565,65.0618 105.399,64.7284 105,64.5C 104.073,67.7058 102.907,68.0392 101.5,65.5C 101.433,64.0413 101.766,62.7079 102.5,61.5C 102.962,60.1201 103.962,59.4534 105.5,59.5C 105.828,61.079 107.328,61.7457 110,61.5C 111.878,61.3038 113.712,60.9705 115.5,60.5 Z"/></g>
<g><path style="opacity:1" fill="#acb1aa" d="M 27.5,62.5 C 28.5289,63.1257 29.5289,63.959 30.5,65C 25.3793,66.4232 25.3793,67.4232 30.5,68C 23.5327,69.3771 16.866,70.8771 10.5,72.5C 6.79364,73.0869 3.12697,73.7536 -0.5,74.5C -0.5,72.8333 -0.5,71.1667 -0.5,69.5C 1.26241,69.3573 2.92908,69.6906 4.5,70.5C 8.0814,68.4127 11.9147,67.0794 16,66.5C 18.0937,66.5356 20.0937,66.8689 22,67.5C 23.7297,65.5981 25.563,63.9314 27.5,62.5 Z"/></g>
<g><path style="opacity:1" fill="#94988e" d="M 31.5,59.5 C 33.3691,60.1646 35.3691,60.8313 37.5,61.5C 31.8819,64.6453 32.3819,66.312 39,66.5C 46.5577,65.7011 54.0577,64.5345 61.5,63C 64.1855,62.4964 66.5188,61.3297 68.5,59.5C 69.7362,60.2458 71.0695,60.5792 72.5,60.5C 73.2341,61.7079 73.5674,63.0413 73.5,64.5C 64.9142,65.5406 56.5808,67.5406 48.5,70.5C 47.209,70.2627 46.209,70.596 45.5,71.5C 42.6146,71.1936 39.9479,71.5269 37.5,72.5C 34.8733,73.1049 32.2066,73.6049 29.5,74C 27.6498,74.6897 26.3164,75.8564 25.5,77.5C 25.7852,75.712 25.4519,74.0453 24.5,72.5C 23.9478,74.0026 23.9478,75.6693 24.5,77.5C 21.4816,77.6646 18.4816,77.498 15.5,77C 14.5887,74.5852 12.922,73.0852 10.5,72.5C 16.866,70.8771 23.5327,69.3771 30.5,68C 25.3793,67.4232 25.3793,66.4232 30.5,65C 29.5289,63.959 28.5289,63.1257 27.5,62.5C 26.8333,62.1667 26.1667,61.8333 25.5,61.5C 27.3024,60.5418 29.3024,59.8751 31.5,59.5 Z"/></g>
<g><path style="opacity:1" fill="#abb2a5" d="M 95.5,61.5 C 97.8333,61.5 100.167,61.5 102.5,61.5C 101.766,62.7079 101.433,64.0413 101.5,65.5C 97.4238,65.1207 93.7571,66.1207 90.5,68.5C 89.1667,71.1667 87.8333,73.8333 86.5,76.5C 87.2624,76.9106 88.2624,77.0773 89.5,77C 88.4078,79.5942 86.7411,81.7609 84.5,83.5C 83.1667,80.8333 81.8333,80.8333 80.5,83.5C 79.4164,82.3349 78.5831,81.0016 78,79.5C 77.6667,79.8333 77.3333,80.1667 77,80.5C 75.9326,79.8095 74.7659,79.3095 73.5,79C 73.8333,78.6667 74.1667,78.3333 74.5,78C 73.8913,75.4896 72.558,73.4896 70.5,72C 66.193,71.701 62.0263,71.5343 58,71.5C 55.8587,74.3208 53.0254,75.6541 49.5,75.5C 48.6993,73.9582 48.366,72.2915 48.5,70.5C 56.5808,67.5406 64.9142,65.5406 73.5,64.5C 73.8333,64.5 74.1667,64.5 74.5,64.5C 75.8333,64.5 77.1667,64.5 78.5,64.5C 81.5613,62.6412 84.8946,61.3079 88.5,60.5C 90.6804,62.3479 93.0137,62.6812 95.5,61.5 Z"/></g>
<g><path style="opacity:1" fill="#c1c6b6" d="M 149.5,65.5 C 153.833,65.5 158.167,65.5 162.5,65.5C 162.389,66.1174 162.056,66.6174 161.5,67C 162.737,67.2321 163.737,67.7321 164.5,68.5C 163.127,68.3433 161.793,68.51 160.5,69C 161.167,72.3333 161.833,75.6667 162.5,79C 169.553,80.8258 175.553,79.1591 180.5,74C 179.619,73.2917 178.953,72.4584 178.5,71.5C 178.833,71.5 179.167,71.5 179.5,71.5C 182.833,71.5 186.167,71.5 189.5,71.5C 189.5,74.1667 189.5,76.8333 189.5,79.5C 192.141,78.7369 194.808,78.5702 197.5,79C 194.437,81.9057 190.937,84.0724 187,85.5C 178.088,79.8218 168.921,79.3218 159.5,84C 159.958,86.3977 161.292,88.0644 163.5,89C 159.086,91.5392 154.419,93.5392 149.5,95C 148.587,96.4139 148.587,97.9139 149.5,99.5C 148.25,99.4226 147.417,98.756 147,97.5C 145.991,99.0249 145.491,100.692 145.5,102.5C 144.566,103.568 144.232,104.901 144.5,106.5C 141.626,104.984 138.959,102.984 136.5,100.5C 137.167,99.8333 137.833,99.1667 138.5,98.5C 137.233,96.6293 137.233,94.7959 138.5,93C 137.975,92.3076 137.308,91.8076 136.5,91.5C 134.929,92.3094 133.262,92.6427 131.5,92.5C 131.351,93.552 131.517,94.552 132,95.5C 132.889,94.1118 133.389,94.2785 133.5,96C 133.241,97.2613 132.574,98.2613 131.5,99C 128.854,99.4974 126.187,99.6641 123.5,99.5C 122.402,98.603 122.402,97.7697 123.5,97C 121.942,96.79 120.609,96.29 119.5,95.5C 121.591,95.6816 123.591,95.3482 125.5,94.5C 128.278,89.3842 132.278,85.7176 137.5,83.5C 136.289,82.2798 136.289,81.1131 137.5,80C 140.014,78.7475 142.68,78.2475 145.5,78.5C 145.839,73.7497 147.173,69.4164 149.5,65.5 Z"/></g>
<g><path style="opacity:1" fill="#b2b6a6" d="M 164.5,68.5 C 168.202,68.421 171.868,68.7543 175.5,69.5C 177.03,69.6399 178.03,70.3065 178.5,71.5C 178.953,72.4584 179.619,73.2917 180.5,74C 175.553,79.1591 169.553,80.8258 162.5,79C 161.833,75.6667 161.167,72.3333 160.5,69C 161.793,68.51 163.127,68.3433 164.5,68.5 Z"/></g>
<g><path style="opacity:1" fill="#a6a59f" d="M 227.5,73.5 C 230.713,73.19 233.713,73.5233 236.5,74.5C 233.335,73.9635 230.669,74.7969 228.5,77C 225.169,77.0794 222.169,77.9127 219.5,79.5C 216.396,78.9711 214.063,79.9711 212.5,82.5C 208.893,83.4892 205.226,83.8226 201.5,83.5C 205.715,80.7688 210.381,78.9355 215.5,78C 217.037,76.8904 217.703,75.3904 217.5,73.5C 219.89,73.8551 222.223,74.5217 224.5,75.5C 226.03,75.3601 227.03,74.6935 227.5,73.5 Z"/></g>
<g><path style="opacity:1" fill="#8a7e81" d="M 236.5,74.5 C 237.167,74.5 237.5,74.8333 237.5,75.5C 234.335,74.9635 231.669,75.7969 229.5,78C 225.324,78.026 222.324,79.8593 220.5,83.5C 219.833,83.5 219.167,83.5 218.5,83.5C 219.234,82.2921 219.567,80.9587 219.5,79.5C 222.169,77.9127 225.169,77.0794 228.5,77C 230.669,74.7969 233.335,73.9635 236.5,74.5 Z"/></g>
<g><path style="opacity:1" fill="#888779" d="M 10.5,72.5 C 12.922,73.0852 14.5887,74.5852 15.5,77C 18.4816,77.498 21.4816,77.6646 24.5,77.5C 23.9478,75.6693 23.9478,74.0026 24.5,72.5C 25.4519,74.0453 25.7852,75.712 25.5,77.5C 25.5,78.5 25.5,79.5 25.5,80.5C 25.988,83.7107 25.3213,86.544 23.5,89C 17.9801,91.0577 12.3134,91.7243 6.5,91C 8.15536,89.5557 8.82202,87.7224 8.5,85.5C 5.5,85.5 2.5,85.5 -0.5,85.5C -0.5,81.8333 -0.5,78.1667 -0.5,74.5C 3.12697,73.7536 6.79364,73.0869 10.5,72.5 Z"/></g>
<g><path style="opacity:1" fill="#c9d1c0" d="M 128.5,64.5 C 135.557,64.24 142.557,64.5733 149.5,65.5C 147.173,69.4164 145.839,73.7497 145.5,78.5C 142.68,78.2475 140.014,78.7475 137.5,80C 136.289,81.1131 136.289,82.2798 137.5,83.5C 132.278,85.7176 128.278,89.3842 125.5,94.5C 123.591,95.3482 121.591,95.6816 119.5,95.5C 113.599,96.2572 108.266,94.9239 103.5,91.5C 102.417,90.635 102.251,89.635 103,88.5C 104.085,86.627 105.418,84.9603 107,83.5C 107.781,82.0563 107.614,80.723 106.5,79.5C 104.167,82.8333 101.833,86.1667 99.5,89.5C 98.9984,90.521 98.3317,90.6877 97.5,90C 98.7393,86.6358 99.4059,83.1358 99.5,79.5C 99.238,78.0222 99.5713,76.6888 100.5,75.5C 102.134,75.032 103.3,74.032 104,72.5C 104.44,70.1341 104.94,67.8008 105.5,65.5C 108.654,66.0946 111.654,66.0946 114.5,65.5C 114.756,67.7925 114.423,69.9592 113.5,72C 118.729,73.1638 123.562,72.3305 128,69.5C 130.881,71.8357 132.048,70.8357 131.5,66.5C 129.821,66.7148 128.821,66.0481 128.5,64.5 Z"/></g>
<g><path style="opacity:1" fill="#6b585f" d="M 237.5,75.5 C 238.5,75.8333 239.167,76.5 239.5,77.5C 237.473,77.3379 235.473,77.5045 233.5,78C 229.275,80.0508 224.941,81.8841 220.5,83.5C 222.324,79.8593 225.324,78.026 229.5,78C 231.669,75.7969 234.335,74.9635 237.5,75.5 Z"/></g>
<g><path style="opacity:1" fill="#b7b9ae" d="M 205.5,71.5 C 212.833,71.5 220.167,71.5 227.5,71.5C 227.5,72.1667 227.5,72.8333 227.5,73.5C 227.03,74.6935 226.03,75.3601 224.5,75.5C 222.223,74.5217 219.89,73.8551 217.5,73.5C 217.703,75.3904 217.037,76.8904 215.5,78C 210.381,78.9355 205.715,80.7688 201.5,83.5C 201.167,83.5 200.833,83.5 200.5,83.5C 200.663,78.8158 202.33,74.8158 205.5,71.5 Z"/></g>
<g><path style="opacity:1" fill="#b7baaf" d="M 37.5,72.5 C 39.8568,72.3367 42.1902,72.5034 44.5,73C 38.7957,73.6649 34.7957,76.4982 32.5,81.5C 34.1899,85.4658 35.1899,89.6325 35.5,94C 35.1667,96.1667 34.8333,98.3333 34.5,100.5C 33.3076,98.2585 32.3076,95.9252 31.5,93.5C 30.3112,92.5713 28.9778,92.238 27.5,92.5C 27.1667,92.5 26.8333,92.5 26.5,92.5C 26.8168,88.2984 26.4834,84.2984 25.5,80.5C 25.5,79.5 25.5,78.5 25.5,77.5C 26.3164,75.8564 27.6498,74.6897 29.5,74C 32.2066,73.6049 34.8733,73.1049 37.5,72.5 Z"/></g>
<g><path style="opacity:1" fill="#9e9498" d="M 219.5,79.5 C 219.567,80.9587 219.234,82.2921 218.5,83.5C 218.167,83.5 217.833,83.5 217.5,83.5C 211.229,84.7115 204.896,85.3782 198.5,85.5C 199.5,84.8333 200.5,84.1667 201.5,83.5C 205.226,83.8226 208.893,83.4892 212.5,82.5C 214.063,79.9711 216.396,78.9711 219.5,79.5 Z"/></g>
<g><path style="opacity:1" fill="#9c9e8f" d="M 48.5,70.5 C 48.366,72.2915 48.6993,73.9582 49.5,75.5C 50.287,77.1042 51.6203,77.7709 53.5,77.5C 53.3573,79.2624 53.6906,80.9291 54.5,82.5C 53.5345,83.914 52.5345,84.7474 51.5,85C 52.1667,85.6667 52.8333,86.3333 53.5,87C 52.1892,91.5434 52.1892,96.0434 53.5,100.5C 52.0002,99.4125 50.6669,98.0792 49.5,96.5C 48.4822,97.1925 47.4822,97.8592 46.5,98.5C 47.0468,94.71 45.3801,92.71 41.5,92.5C 40.2054,89.9881 39.5387,87.3214 39.5,84.5C 39.7031,82.9557 40.3698,81.6223 41.5,80.5C 43.9661,79.8765 46.2994,79.0432 48.5,78C 47.086,76.0065 46.086,73.8398 45.5,71.5C 46.209,70.596 47.209,70.2627 48.5,70.5 Z"/></g>
<g><path style="opacity:1" fill="#a5b0ad" d="M 293.5,38.5 C 293.5,61.1667 293.5,83.8333 293.5,106.5C 289.129,106.125 284.796,105.459 280.5,104.5C 278.851,103.012 276.851,102.012 274.5,101.5C 274.099,99.5658 273.099,98.0658 271.5,97C 268.514,97.1276 265.514,97.1276 262.5,97C 259.956,95.908 257.289,95.2414 254.5,95C 253.667,94.1667 252.833,93.3333 252,92.5C 248.764,94.4117 245.264,95.4117 241.5,95.5C 241.238,94.0222 241.571,92.6888 242.5,91.5C 246.168,90.5129 246.501,88.1795 243.5,84.5C 248.847,83.5199 254.013,82.8533 259,82.5C 259.519,83.5156 260.353,84.1822 261.5,84.5C 262.955,83.6102 264.289,83.6102 265.5,84.5C 267.949,84.02 270.115,83.02 272,81.5C 272.483,82.448 272.649,83.448 272.5,84.5C 277.508,83.9986 282.508,83.332 287.5,82.5C 290.433,80.2619 290.099,79.2619 286.5,79.5C 286.5,78.1667 286.5,76.8333 286.5,75.5C 288.167,75.5 289.833,75.5 291.5,75.5C 291.643,73.7376 291.309,72.0709 290.5,70.5C 287.381,69.3064 287.048,67.8064 289.5,66C 287.543,64.2544 286.543,62.0878 286.5,59.5C 279.431,59.2567 279.097,58.4234 285.5,57C 279.866,56.3659 279.532,55.8659 284.5,55.5C 284.5,54.5 284.5,53.5 284.5,52.5C 288.5,52.1667 288.5,51.8333 284.5,51.5C 284.573,48.119 283.573,45.119 281.5,42.5C 282.325,41.6143 283.325,41.281 284.5,41.5C 284.5,40.5 284.5,39.5 284.5,38.5C 287.5,38.5 290.5,38.5 293.5,38.5 Z"/></g>
<g><path style="opacity:1" fill="#583c49" d="M 239.5,77.5 C 238.167,78.5 236.833,79.5 235.5,80.5C 231.592,81.6973 228.092,83.6973 225,86.5C 223.186,85.2404 221.353,85.2404 219.5,86.5C 218.509,88.3231 217.176,89.8231 215.5,91C 209.36,91.536 203.36,92.7026 197.5,94.5C 200.53,92.2421 203.863,90.4087 207.5,89C 212.776,89.1849 217.109,87.3516 220.5,83.5C 224.941,81.8841 229.275,80.0508 233.5,78C 235.473,77.5045 237.473,77.3379 239.5,77.5 Z"/></g>
<g><path style="opacity:1" fill="#a2a696" d="M 105.5,65.5 C 104.94,67.8008 104.44,70.1341 104,72.5C 103.3,74.032 102.134,75.032 100.5,75.5C 99.5713,76.6888 99.238,78.0222 99.5,79.5C 98.8333,80.1667 98.1667,80.8333 97.5,81.5C 94.763,82.031 92.0964,82.8644 89.5,84C 88.8875,86.1474 88.2208,88.314 87.5,90.5C 85.8211,92.1045 83.8211,92.7711 81.5,92.5C 81.5,93.5 81.5,94.5 81.5,95.5C 85.0328,96.943 88.6994,98.1097 92.5,99C 93.8146,100.395 93.4812,101.395 91.5,102C 89.1902,102.497 86.8568,102.663 84.5,102.5C 84.1667,102.5 83.8333,102.5 83.5,102.5C 79.1667,101.833 74.8333,101.167 70.5,100.5C 72.3841,100.288 73.7174,99.2882 74.5,97.5C 77.496,98.8329 79.1626,97.8329 79.5,94.5C 75.4584,96.4029 71.9584,95.7362 69,92.5C 69.1975,97.1139 67.0308,99.1139 62.5,98.5C 62.3367,96.1432 62.5034,93.8098 63,91.5C 64.6095,90.8534 66.1095,90.02 67.5,89C 66.9103,87.4905 66.2436,85.9905 65.5,84.5C 63.2581,86.5388 60.7581,88.2054 58,89.5C 56.5118,93.4789 55.3452,97.4789 54.5,101.5C 54.5,100.833 54.1667,100.5 53.5,100.5C 52.1892,96.0434 52.1892,91.5434 53.5,87C 52.8333,86.3333 52.1667,85.6667 51.5,85C 52.5345,84.7474 53.5345,83.914 54.5,82.5C 53.6906,80.9291 53.3573,79.2624 53.5,77.5C 51.6203,77.7709 50.287,77.1042 49.5,75.5C 53.0254,75.6541 55.8587,74.3208 58,71.5C 62.0263,71.5343 66.193,71.701 70.5,72C 72.558,73.4896 73.8913,75.4896 74.5,78C 74.1667,78.3333 73.8333,78.6667 73.5,79C 74.7659,79.3095 75.9326,79.8095 77,80.5C 77.3333,80.1667 77.6667,79.8333 78,79.5C 78.5831,81.0016 79.4164,82.3349 80.5,83.5C 81.8333,80.8333 83.1667,80.8333 84.5,83.5C 86.7411,81.7609 88.4078,79.5942 89.5,77C 88.2624,77.0773 87.2624,76.9106 86.5,76.5C 87.8333,73.8333 89.1667,71.1667 90.5,68.5C 93.7571,66.1207 97.4238,65.1207 101.5,65.5C 102.907,68.0392 104.073,67.7058 105,64.5C 105.399,64.7284 105.565,65.0618 105.5,65.5 Z"/></g>
<g><path style="opacity:1" fill="#aeb4a2" d="M 99.5,79.5 C 99.4059,83.1358 98.7393,86.6358 97.5,90C 98.3317,90.6877 98.9984,90.521 99.5,89.5C 101.833,86.1667 104.167,82.8333 106.5,79.5C 107.614,80.723 107.781,82.0563 107,83.5C 105.418,84.9603 104.085,86.627 103,88.5C 102.251,89.635 102.417,90.635 103.5,91.5C 108.266,94.9239 113.599,96.2572 119.5,95.5C 120.609,96.29 121.942,96.79 123.5,97C 122.402,97.7697 122.402,98.603 123.5,99.5C 116.255,97.798 109.255,98.4646 102.5,101.5C 100.248,100.667 98.0811,100.667 96,101.5C 95.6393,98.4748 95.1393,95.4748 94.5,92.5C 95.7103,88.8723 96.7103,85.2056 97.5,81.5C 98.1667,80.8333 98.8333,80.1667 99.5,79.5 Z"/></g>
<g><path style="opacity:1" fill="#c6cabc" d="M 205.5,71.5 C 202.33,74.8158 200.663,78.8158 200.5,83.5C 193.065,84.2061 186.398,86.7061 180.5,91C 176.558,91.9929 172.558,92.6596 168.5,93C 163.346,96.0002 158.346,99.1668 153.5,102.5C 151.739,101.965 150.406,100.965 149.5,99.5C 148.587,97.9139 148.587,96.4139 149.5,95C 154.419,93.5392 159.086,91.5392 163.5,89C 161.292,88.0644 159.958,86.3977 159.5,84C 168.921,79.3218 178.088,79.8218 187,85.5C 190.937,84.0724 194.437,81.9057 197.5,79C 194.808,78.5702 192.141,78.7369 189.5,79.5C 189.5,76.8333 189.5,74.1667 189.5,71.5C 186.167,71.5 182.833,71.5 179.5,71.5C 181.29,70.0027 183.456,69.336 186,69.5C 192.755,70.3084 199.255,70.9751 205.5,71.5 Z"/></g>
<g><path style="opacity:1" fill="#725e66" d="M 217.5,83.5 C 216.235,84.4793 214.901,85.4793 213.5,86.5C 209.541,87.3265 205.541,87.8265 201.5,88C 196.544,92.9109 190.544,95.4109 183.5,95.5C 188.101,93.3378 192.768,91.1711 197.5,89C 198.337,87.9887 198.67,86.8221 198.5,85.5C 204.896,85.3782 211.229,84.7115 217.5,83.5 Z"/></g>
<g><path style="opacity:1" fill="#989586" d="M 25.5,80.5 C 26.4834,84.2984 26.8168,88.2984 26.5,92.5C 23.8127,92.3359 21.146,92.5026 18.5,93C 15.4864,94.7761 12.4864,96.4427 9.5,98C 6.18323,98.4983 2.8499,98.665 -0.5,98.5C -0.5,94.1667 -0.5,89.8333 -0.5,85.5C 2.5,85.5 5.5,85.5 8.5,85.5C 8.82202,87.7224 8.15536,89.5557 6.5,91C 12.3134,91.7243 17.9801,91.0577 23.5,89C 25.3213,86.544 25.988,83.7107 25.5,80.5 Z"/></g>
<g><path style="opacity:1" fill="#4c333f" d="M 235.5,80.5 C 235.5,82.8333 235.5,85.1667 235.5,87.5C 233.403,88.3531 231.403,88.3531 229.5,87.5C 228.328,87.9186 227.328,88.5853 226.5,89.5C 225.158,87.9951 223.492,87.3285 221.5,87.5C 220.833,92.1667 218.167,94.8333 213.5,95.5C 213.649,96.552 213.483,97.552 213,98.5C 212.768,97.2625 212.268,96.2625 211.5,95.5C 210.504,94.3349 209.171,93.6682 207.5,93.5C 201.988,96.031 196.321,98.031 190.5,99.5C 190.414,98.5041 190.748,97.6708 191.5,97C 193.217,95.4412 195.217,94.6079 197.5,94.5C 203.36,92.7026 209.36,91.536 215.5,91C 217.176,89.8231 218.509,88.3231 219.5,86.5C 221.353,85.2404 223.186,85.2404 225,86.5C 228.092,83.6973 231.592,81.6973 235.5,80.5 Z"/></g>
<g><path style="opacity:1" fill="#9ea8a4" d="M 241.5,81.5 C 241.285,83.1788 241.952,84.1788 243.5,84.5C 246.501,88.1795 246.168,90.5129 242.5,91.5C 241.571,92.6888 241.238,94.0222 241.5,95.5C 245.264,95.4117 248.764,94.4117 252,92.5C 252.833,93.3333 253.667,94.1667 254.5,95C 257.289,95.2414 259.956,95.908 262.5,97C 265.514,97.1276 268.514,97.1276 271.5,97C 273.099,98.0658 274.099,99.5658 274.5,101.5C 276.851,102.012 278.851,103.012 280.5,104.5C 284.796,105.459 289.129,106.125 293.5,106.5C 293.5,107.833 293.5,109.167 293.5,110.5C 287.158,110.666 280.825,110.5 274.5,110C 268.46,102.501 261.127,100.667 252.5,104.5C 251.662,104.842 251.328,105.508 251.5,106.5C 250.5,106.5 249.5,106.5 248.5,106.5C 248.703,104.61 248.037,103.11 246.5,102C 243.688,100.451 240.688,99.6178 237.5,99.5C 237.5,98.1667 237.5,96.8333 237.5,95.5C 238.259,90.5695 239.592,85.9029 241.5,81.5 Z"/></g>
<g><path style="opacity:1" fill="#656156" d="M 27.5,94.5 C 27.5,94.8333 27.5,95.1667 27.5,95.5C 23.0394,96.0322 18.7061,97.0322 14.5,98.5C 17.6309,93.7034 21.9642,92.3701 27.5,94.5 Z"/></g>
<g><path style="opacity:1" fill="#624553" d="M 217.5,83.5 C 217.833,83.5 218.167,83.5 218.5,83.5C 219.167,83.5 219.833,83.5 220.5,83.5C 217.109,87.3516 212.776,89.1849 207.5,89C 203.863,90.4087 200.53,92.2421 197.5,94.5C 195.217,94.6079 193.217,95.4412 191.5,97C 190.748,97.6708 190.414,98.5041 190.5,99.5C 189.5,99.5 188.5,99.5 187.5,99.5C 182.636,100.9 177.636,101.567 172.5,101.5C 176.011,100.336 179.677,99.3359 183.5,98.5C 183.5,97.5 183.5,96.5 183.5,95.5C 190.544,95.4109 196.544,92.9109 201.5,88C 205.541,87.8265 209.541,87.3265 213.5,86.5C 214.901,85.4793 216.235,84.4793 217.5,83.5 Z"/></g>
<g><path style="opacity:1" fill="#422f37" d="M 235.5,87.5 C 235.927,90.7877 235.26,93.7877 233.5,96.5C 234.854,100.09 233.521,101.756 229.5,101.5C 229.5,102.5 229.5,103.5 229.5,104.5C 228.167,104.5 226.833,104.5 225.5,104.5C 225.473,106.199 224.806,107.533 223.5,108.5C 220.38,108.874 219.046,110.707 219.5,114C 219.713,117.926 221.38,121.092 224.5,123.5C 225.48,126.086 225.813,128.753 225.5,131.5C 224.073,129.852 223.24,127.852 223,125.5C 221.613,123.699 220.113,123.032 218.5,123.5C 219.167,122.833 219.833,122.167 220.5,121.5C 218.896,119.821 218.229,117.821 218.5,115.5C 216.5,115.833 214.5,116.167 212.5,116.5C 212.5,114.833 212.5,113.167 212.5,111.5C 210.088,111.244 208.421,112.244 207.5,114.5C 206.158,113.098 205.324,113.431 205,115.5C 200.55,115.546 196.05,115.212 191.5,114.5C 192.64,111.975 193.307,109.308 193.5,106.5C 195.527,106.662 197.527,106.495 199.5,106C 197.162,104.838 195.828,103.004 195.5,100.5C 196.822,100.33 197.989,100.663 199,101.5C 199.427,98.0584 201.26,96.5584 204.5,97C 202.729,97.5354 202.396,98.3687 203.5,99.5C 204.72,98.2889 205.887,98.2889 207,99.5C 208.113,98.2396 208.28,97.073 207.5,96C 208.742,95.6886 209.742,96.1886 210.5,97.5C 211.298,97.0431 211.631,96.3764 211.5,95.5C 212.268,96.2625 212.768,97.2625 213,98.5C 213.483,97.552 213.649,96.552 213.5,95.5C 218.167,94.8333 220.833,92.1667 221.5,87.5C 223.492,87.3285 225.158,87.9951 226.5,89.5C 227.328,88.5853 228.328,87.9186 229.5,87.5C 231.403,88.3531 233.403,88.3531 235.5,87.5 Z"/></g>
<g><path style="opacity:1" fill="#989a89" d="M 97.5,81.5 C 96.7103,85.2056 95.7103,88.8723 94.5,92.5C 95.1393,95.4748 95.6393,98.4748 96,101.5C 98.0811,100.667 100.248,100.667 102.5,101.5C 102.167,102.167 101.833,102.833 101.5,103.5C 100.393,104.992 98.8926,105.992 97,106.5C 93.4601,106.037 89.9601,105.37 86.5,104.5C 85.7573,103.818 85.0906,103.151 84.5,102.5C 86.8568,102.663 89.1902,102.497 91.5,102C 93.4812,101.395 93.8146,100.395 92.5,99C 88.6994,98.1097 85.0328,96.943 81.5,95.5C 81.5,94.5 81.5,93.5 81.5,92.5C 83.8211,92.7711 85.8211,92.1045 87.5,90.5C 88.2208,88.314 88.8875,86.1474 89.5,84C 92.0964,82.8644 94.763,82.031 97.5,81.5 Z"/></g>
<g><path style="opacity:1" fill="#7c796d" d="M 26.5,92.5 C 26.8333,92.5 27.1667,92.5 27.5,92.5C 27.5,93.1667 27.5,93.8333 27.5,94.5C 21.9642,92.3701 17.6309,93.7034 14.5,98.5C 9.47713,99.3927 4.47713,100.393 -0.5,101.5C -0.5,100.5 -0.5,99.5 -0.5,98.5C 2.8499,98.665 6.18323,98.4983 9.5,98C 12.4864,96.4427 15.4864,94.7761 18.5,93C 21.146,92.5026 23.8127,92.3359 26.5,92.5 Z"/></g>
<g><path style="opacity:1" fill="#2b2720" d="M 27.5,95.5 C 27.5,97.1667 27.5,98.8333 27.5,100.5C 22.3249,100.272 17.3249,101.105 12.5,103C 11.7476,103.671 11.4142,104.504 11.5,105.5C 7.56622,106.36 3.56622,106.693 -0.5,106.5C -0.5,104.833 -0.5,103.167 -0.5,101.5C 4.47713,100.393 9.47713,99.3927 14.5,98.5C 18.7061,97.0322 23.0394,96.0322 27.5,95.5 Z"/></g>
<g><path style="opacity:1" fill="#adafa4" d="M 37.5,72.5 C 39.9479,71.5269 42.6146,71.1936 45.5,71.5C 46.086,73.8398 47.086,76.0065 48.5,78C 46.2994,79.0432 43.9661,79.8765 41.5,80.5C 40.3698,81.6223 39.7031,82.9557 39.5,84.5C 37.2776,84.5587 36.2776,85.7253 36.5,88C 38.4666,94.0935 38.7999,100.26 37.5,106.5C 36.086,107.624 34.586,108.624 33,109.5C 32.5831,108.244 31.7498,107.577 30.5,107.5C 30.6716,106.508 30.3382,105.842 29.5,105.5C 29.5,105.167 29.5,104.833 29.5,104.5C 29.4431,103.391 29.1098,102.391 28.5,101.5C 28.7947,99.2646 28.4614,97.2646 27.5,95.5C 27.5,95.1667 27.5,94.8333 27.5,94.5C 27.5,93.8333 27.5,93.1667 27.5,92.5C 28.9778,92.238 30.3112,92.5713 31.5,93.5C 32.3076,95.9252 33.3076,98.2585 34.5,100.5C 34.8333,98.3333 35.1667,96.1667 35.5,94C 35.1899,89.6325 34.1899,85.4658 32.5,81.5C 34.7957,76.4982 38.7957,73.6649 44.5,73C 42.1902,72.5034 39.8568,72.3367 37.5,72.5 Z"/></g>
<g><path style="opacity:1" fill="#6d5661" d="M 183.5,95.5 C 183.5,96.5 183.5,97.5 183.5,98.5C 179.677,99.3359 176.011,100.336 172.5,101.5C 171.766,102.708 171.433,104.041 171.5,105.5C 170.041,105.433 168.708,105.766 167.5,106.5C 167.448,104.097 167.781,101.764 168.5,99.5C 173.431,98.1945 178.431,96.8612 183.5,95.5 Z"/></g>
<g><path style="opacity:1" fill="#878879" d="M 53.5,100.5 C 54.1667,100.5 54.5,100.833 54.5,101.5C 54.9003,103.377 55.9003,104.877 57.5,106C 54.6475,109.988 51.8141,110.154 49,106.5C 48.3333,107.167 47.6667,107.833 47,108.5C 45.2502,106.266 43.7502,103.932 42.5,101.5C 43.4475,100.022 44.7809,99.0221 46.5,98.5C 47.4822,97.8592 48.4822,97.1925 49.5,96.5C 50.6669,98.0792 52.0002,99.4125 53.5,100.5 Z"/></g>
<g><path style="opacity:1" fill="#8c8382" d="M 198.5,85.5 C 198.67,86.8221 198.337,87.9887 197.5,89C 192.768,91.1711 188.101,93.3378 183.5,95.5C 178.431,96.8612 173.431,98.1945 168.5,99.5C 167.85,99.8039 167.183,100.137 166.5,100.5C 163.573,106.651 161.573,112.985 160.5,119.5C 160.353,114.786 160.686,110.119 161.5,105.5C 163.308,104.082 163.975,102.082 163.5,99.5C 165.5,99.1667 167.5,98.8333 169.5,98.5C 169.33,97.1779 169.663,96.0113 170.5,95C 174.749,93.8744 179.082,93.2077 183.5,93C 188.546,90.4772 193.546,87.9772 198.5,85.5 Z"/></g>
<g><path style="opacity:1" fill="#3f3b32" d="M 27.5,95.5 C 28.4614,97.2646 28.7947,99.2646 28.5,101.5C 23.0754,103.703 17.4088,105.036 11.5,105.5C 11.4142,104.504 11.7476,103.671 12.5,103C 17.3249,101.105 22.3249,100.272 27.5,100.5C 27.5,98.8333 27.5,97.1667 27.5,95.5 Z"/></g>
<g><path style="opacity:1" fill="#858677" d="M 70.5,100.5 C 74.8333,101.167 79.1667,101.833 83.5,102.5C 77.1667,102.5 70.8333,102.5 64.5,102.5C 64.5,103.5 64.5,104.5 64.5,105.5C 64.5,106.167 64.1667,106.5 63.5,106.5C 63.8268,102.114 66.1601,99.1142 70.5,97.5C 71.5624,98.4246 71.5624,99.4246 70.5,100.5 Z"/></g>
<g><path style="opacity:1" fill="#533744" d="M 187.5,99.5 C 187.64,101.124 186.973,102.29 185.5,103C 180.916,104.363 176.249,105.197 171.5,105.5C 171.433,104.041 171.766,102.708 172.5,101.5C 177.636,101.567 182.636,100.9 187.5,99.5 Z"/></g>
<g><path style="opacity:1" fill="#6c6e6e" d="M 237.5,95.5 C 237.5,96.8333 237.5,98.1667 237.5,99.5C 240.688,99.6178 243.688,100.451 246.5,102C 248.037,103.11 248.703,104.61 248.5,106.5C 249.5,106.5 250.5,106.5 251.5,106.5C 256.383,109.26 261.716,111.093 267.5,112C 265.875,112.853 265.542,113.853 266.5,115C 264.893,116.049 264.227,117.549 264.5,119.5C 257.794,119.552 251.128,119.052 244.5,118C 243.833,117.333 243.167,116.667 242.5,116C 239.776,115.73 237.109,115.23 234.5,114.5C 233.571,113.311 233.238,111.978 233.5,110.5C 234.387,105.278 235.721,100.278 237.5,95.5 Z"/></g>
<g><path style="opacity:1" fill="#6a6b60" d="M 118.5,111.5 C 110.943,112.022 103.61,111.022 96.5,108.5C 90.569,109.527 84.9023,111.194 79.5,113.5C 79.665,110.15 79.4983,106.817 79,103.5C 76.845,105.167 74.345,106.167 71.5,106.5C 70.3348,105.509 69.1681,104.509 68,103.5C 66.6974,103.978 65.5307,104.645 64.5,105.5C 64.5,104.5 64.5,103.5 64.5,102.5C 70.8333,102.5 77.1667,102.5 83.5,102.5C 83.8333,102.5 84.1667,102.5 84.5,102.5C 85.0906,103.151 85.7573,103.818 86.5,104.5C 89.9601,105.37 93.4601,106.037 97,106.5C 98.8926,105.992 100.393,104.992 101.5,103.5C 103.044,103.297 104.378,102.63 105.5,101.5C 107.508,105.108 110.008,105.442 113,102.5C 114.11,104.243 115.61,105.576 117.5,106.5C 116.288,108.428 116.621,110.095 118.5,111.5 Z"/></g>
<g><path style="opacity:1" fill="#422c35" d="M 211.5,95.5 C 211.631,96.3764 211.298,97.0431 210.5,97.5C 209.742,96.1886 208.742,95.6886 207.5,96C 208.28,97.073 208.113,98.2396 207,99.5C 205.887,98.2889 204.72,98.2889 203.5,99.5C 202.396,98.3687 202.729,97.5354 204.5,97C 201.26,96.5584 199.427,98.0584 199,101.5C 197.989,100.663 196.822,100.33 195.5,100.5C 195.828,103.004 197.162,104.838 199.5,106C 197.527,106.495 195.527,106.662 193.5,106.5C 193.307,109.308 192.64,111.975 191.5,114.5C 191.665,117.518 191.498,120.518 191,123.5C 190.29,124.973 189.124,125.64 187.5,125.5C 187.808,127.924 187.474,130.257 186.5,132.5C 185.614,131.675 185.281,130.675 185.5,129.5C 181.36,129.689 177.36,130.356 173.5,131.5C 173.337,133.857 173.503,136.19 174,138.5C 174.333,137.833 174.667,137.167 175,136.5C 175.383,142.339 175.549,148.006 175.5,153.5C 175.192,154.308 174.692,154.975 174,155.5C 173.818,152.774 173.318,150.107 172.5,147.5C 171.138,149.012 170.804,150.512 171.5,152C 170.743,153.512 169.743,154.846 168.5,156C 169.624,156.249 170.624,156.749 171.5,157.5C 170.934,158.291 170.101,158.291 169,157.5C 167.923,158.429 166.756,159.096 165.5,159.5C 166.842,141.411 168.842,123.411 171.5,105.5C 176.249,105.197 180.916,104.363 185.5,103C 186.973,102.29 187.64,101.124 187.5,99.5C 188.5,99.5 189.5,99.5 190.5,99.5C 196.321,98.031 201.988,96.031 207.5,93.5C 209.171,93.6682 210.504,94.3349 211.5,95.5 Z"/></g>
<g><path style="opacity:1" fill="#b0b4a4" d="M 145.5,102.5 C 145.5,105.167 145.5,107.833 145.5,110.5C 139.785,110.173 139.119,111.673 143.5,115C 141.559,115.304 139.893,116.137 138.5,117.5C 137.167,114.833 135.833,114.833 134.5,117.5C 133.831,115.369 133.165,113.369 132.5,111.5C 131.232,108.394 129.732,105.394 128,102.5C 126.591,101.219 125.091,100.219 123.5,99.5C 126.187,99.6641 128.854,99.4974 131.5,99C 132.574,98.2613 133.241,97.2613 133.5,96C 133.389,94.2785 132.889,94.1118 132,95.5C 131.517,94.552 131.351,93.552 131.5,92.5C 133.262,92.6427 134.929,92.3094 136.5,91.5C 137.308,91.8076 137.975,92.3076 138.5,93C 137.233,94.7959 137.233,96.6293 138.5,98.5C 137.833,99.1667 137.167,99.8333 136.5,100.5C 138.959,102.984 141.626,104.984 144.5,106.5C 144.232,104.901 144.566,103.568 145.5,102.5 Z"/></g>
<g><path style="opacity:1" fill="#655f4f" d="M 28.5,101.5 C 29.1098,102.391 29.4431,103.391 29.5,104.5C 26.1606,104.89 22.8273,105.39 19.5,106C 17.9705,108.251 15.9705,109.751 13.5,110.5C 9.85806,111.08 6.19139,111.58 2.5,112C 1.5842,112.278 0.917533,112.778 0.5,113.5C 0.166667,113.5 -0.166667,113.5 -0.5,113.5C -0.5,111.167 -0.5,108.833 -0.5,106.5C 3.56622,106.693 7.56622,106.36 11.5,105.5C 17.4088,105.036 23.0754,103.703 28.5,101.5 Z"/></g>
<g><path style="opacity:1" fill="#a6a799" d="M 39.5,84.5 C 39.5387,87.3214 40.2054,89.9881 41.5,92.5C 45.3801,92.71 47.0468,94.71 46.5,98.5C 44.7809,99.0221 43.4475,100.022 42.5,101.5C 41.6217,103.019 40.6217,103.853 39.5,104C 40.6301,105.76 41.6301,107.593 42.5,109.5C 43.9038,108.001 44.5704,108.334 44.5,110.5C 44.1822,111.647 43.5156,112.481 42.5,113C 47.6621,113.133 48.6621,115.133 45.5,119C 45.9891,120.138 46.3225,121.305 46.5,122.5C 45.2003,125.432 43.2003,127.766 40.5,129.5C 39.1266,129.657 37.7932,129.49 36.5,129C 35.8906,127.052 35.224,125.218 34.5,123.5C 34.7406,121.102 34.0739,119.102 32.5,117.5C 32.7845,115.585 32.4511,113.919 31.5,112.5C 31.3713,110.784 31.038,109.117 30.5,107.5C 31.7498,107.577 32.5831,108.244 33,109.5C 34.586,108.624 36.086,107.624 37.5,106.5C 38.7999,100.26 38.4666,94.0935 36.5,88C 36.2776,85.7253 37.2776,84.5587 39.5,84.5 Z"/></g>
<g><path style="opacity:1" fill="#707366" d="M 123.5,99.5 C 125.091,100.219 126.591,101.219 128,102.5C 129.732,105.394 131.232,108.394 132.5,111.5C 132.5,114.167 132.5,116.833 132.5,119.5C 135.713,119.19 138.713,119.523 141.5,120.5C 140.508,120.328 139.842,120.662 139.5,121.5C 136.904,120.735 134.237,120.401 131.5,120.5C 131.306,118.088 129.973,117.088 127.5,117.5C 124.149,116.816 122.149,114.816 121.5,111.5C 120.5,111.5 119.5,111.5 118.5,111.5C 116.621,110.095 116.288,108.428 117.5,106.5C 115.61,105.576 114.11,104.243 113,102.5C 110.008,105.442 107.508,105.108 105.5,101.5C 104.378,102.63 103.044,103.297 101.5,103.5C 101.833,102.833 102.167,102.167 102.5,101.5C 109.255,98.4646 116.255,97.798 123.5,99.5 Z"/></g>
<g><path style="opacity:1" fill="#828987" d="M 293.5,110.5 C 293.5,110.833 293.5,111.167 293.5,111.5C 286.167,111.5 278.833,111.5 271.5,111.5C 271.374,108.405 269.707,106.572 266.5,106C 261.934,104.691 257.267,104.191 252.5,104.5C 261.127,100.667 268.46,102.501 274.5,110C 280.825,110.5 287.158,110.666 293.5,110.5 Z"/></g>
<g><path style="opacity:1" fill="#a5a798" d="M 200.5,83.5 C 200.833,83.5 201.167,83.5 201.5,83.5C 200.5,84.1667 199.5,84.8333 198.5,85.5C 193.546,87.9772 188.546,90.4772 183.5,93C 179.082,93.2077 174.749,93.8744 170.5,95C 169.663,96.0113 169.33,97.1779 169.5,98.5C 167.5,98.8333 165.5,99.1667 163.5,99.5C 163.975,102.082 163.308,104.082 161.5,105.5C 161.44,104.957 161.107,104.624 160.5,104.5C 159.476,105.853 158.143,106.52 156.5,106.5C 156.38,110.042 156.714,113.542 157.5,117C 155.53,121.21 153.863,125.543 152.5,130C 152.559,131.436 152.892,132.769 153.5,134C 151.845,135.444 151.178,137.278 151.5,139.5C 150.5,139.5 149.5,139.5 148.5,139.5C 148.503,134.473 148.836,129.473 149.5,124.5C 147.469,122.245 144.802,120.912 141.5,120.5C 138.713,119.523 135.713,119.19 132.5,119.5C 132.5,116.833 132.5,114.167 132.5,111.5C 133.165,113.369 133.831,115.369 134.5,117.5C 135.833,114.833 137.167,114.833 138.5,117.5C 139.893,116.137 141.559,115.304 143.5,115C 139.119,111.673 139.785,110.173 145.5,110.5C 145.5,107.833 145.5,105.167 145.5,102.5C 145.491,100.692 145.991,99.0249 147,97.5C 147.417,98.756 148.25,99.4226 149.5,99.5C 150.406,100.965 151.739,101.965 153.5,102.5C 158.346,99.1668 163.346,96.0002 168.5,93C 172.558,92.6596 176.558,91.9929 180.5,91C 186.398,86.7061 193.065,84.2061 200.5,83.5 Z"/></g>
<g><path style="opacity:1" fill="#3d3436" d="M 239.5,77.5 C 241.104,78.287 241.771,79.6203 241.5,81.5C 239.592,85.9029 238.259,90.5695 237.5,95.5C 235.721,100.278 234.387,105.278 233.5,110.5C 231.747,113.146 230.747,116.146 230.5,119.5C 230.672,120.492 230.338,121.158 229.5,121.5C 227.5,120.833 225.5,120.167 223.5,119.5C 222.325,115.817 222.325,112.15 223.5,108.5C 224.806,107.533 225.473,106.199 225.5,104.5C 226.833,104.5 228.167,104.5 229.5,104.5C 229.5,103.5 229.5,102.5 229.5,101.5C 233.521,101.756 234.854,100.09 233.5,96.5C 235.26,93.7877 235.927,90.7877 235.5,87.5C 235.5,85.1667 235.5,82.8333 235.5,80.5C 236.833,79.5 238.167,78.5 239.5,77.5 Z"/></g>
<g><path style="opacity:1" fill="#272622" d="M 29.5,104.5 C 29.5,104.833 29.5,105.167 29.5,105.5C 29.3184,107.591 29.6518,109.591 30.5,111.5C 25.3786,111.933 20.5453,113.267 16,115.5C 14.414,114.624 12.914,113.624 11.5,112.5C 12.2427,111.818 12.9094,111.151 13.5,110.5C 15.9705,109.751 17.9705,108.251 19.5,106C 22.8273,105.39 26.1606,104.89 29.5,104.5 Z"/></g>
<g><path style="opacity:1" fill="#9c9d90" d="M 70.5,100.5 C 71.5624,99.4246 71.5624,98.4246 70.5,97.5C 66.1601,99.1142 63.8268,102.114 63.5,106.5C 57.1975,111.135 51.5308,116.469 46.5,122.5C 46.3225,121.305 45.9891,120.138 45.5,119C 48.6621,115.133 47.6621,113.133 42.5,113C 43.5156,112.481 44.1822,111.647 44.5,110.5C 44.5704,108.334 43.9038,108.001 42.5,109.5C 41.6301,107.593 40.6301,105.76 39.5,104C 40.6217,103.853 41.6217,103.019 42.5,101.5C 43.7502,103.932 45.2502,106.266 47,108.5C 47.6667,107.833 48.3333,107.167 49,106.5C 51.8141,110.154 54.6475,109.988 57.5,106C 55.9003,104.877 54.9003,103.377 54.5,101.5C 55.3452,97.4789 56.5118,93.4789 58,89.5C 60.7581,88.2054 63.2581,86.5388 65.5,84.5C 66.2436,85.9905 66.9103,87.4905 67.5,89C 66.1095,90.02 64.6095,90.8534 63,91.5C 62.5034,93.8098 62.3367,96.1432 62.5,98.5C 67.0308,99.1139 69.1975,97.1139 69,92.5C 71.9584,95.7362 75.4584,96.4029 79.5,94.5C 79.1626,97.8329 77.496,98.8329 74.5,97.5C 73.7174,99.2882 72.3841,100.288 70.5,100.5 Z"/></g>
<g><path style="opacity:1" fill="#58564d" d="M 118.5,111.5 C 119.5,111.5 120.5,111.5 121.5,111.5C 122.149,114.816 124.149,116.816 127.5,117.5C 126.817,119.176 125.483,119.843 123.5,119.5C 122.551,121.737 121.884,124.071 121.5,126.5C 116.874,128.647 113.207,127.647 110.5,123.5C 106.631,121.575 104.298,122.742 103.5,127C 104.67,128.587 105.67,130.253 106.5,132C 105.209,133.292 105.209,134.458 106.5,135.5C 107.038,137.117 107.371,138.784 107.5,140.5C 107.657,141.873 107.49,143.207 107,144.5C 100.527,141.348 93.6936,139.515 86.5,139C 83.6293,137.065 80.6293,135.399 77.5,134C 69.4963,131.89 61.4963,129.557 53.5,127C 58.3961,123.432 63.7294,120.765 69.5,119C 72.5881,116.542 75.9214,114.709 79.5,113.5C 84.9023,111.194 90.569,109.527 96.5,108.5C 103.61,111.022 110.943,112.022 118.5,111.5 Z"/></g>
<g><path style="opacity:1" fill="#756a68" d="M 168.5,99.5 C 167.781,101.764 167.448,104.097 167.5,106.5C 166.069,106.881 165.236,107.881 165,109.5C 164.216,117.563 162.383,125.229 159.5,132.5C 160.2,128.202 160.533,123.869 160.5,119.5C 161.573,112.985 163.573,106.651 166.5,100.5C 167.183,100.137 167.85,99.8039 168.5,99.5 Z"/></g>
<g><path style="opacity:1" fill="#747273" d="M 252.5,104.5 C 257.267,104.191 261.934,104.691 266.5,106C 269.707,106.572 271.374,108.405 271.5,111.5C 278.833,111.5 286.167,111.5 293.5,111.5C 293.5,116.167 293.5,120.833 293.5,125.5C 283.861,123.513 274.194,121.513 264.5,119.5C 264.227,117.549 264.893,116.049 266.5,115C 265.542,113.853 265.875,112.853 267.5,112C 261.716,111.093 256.383,109.26 251.5,106.5C 251.328,105.508 251.662,104.842 252.5,104.5 Z"/></g>
<g><path style="opacity:1" fill="#3a292f" d="M 225.5,131.5 C 225.5,132.833 225.5,134.167 225.5,135.5C 225.5,136.167 225.5,136.833 225.5,137.5C 224.566,138.568 224.232,139.901 224.5,141.5C 223.655,142.671 222.989,144.005 222.5,145.5C 221.504,145.586 220.671,145.252 220,144.5C 218.121,146.195 215.954,147.528 213.5,148.5C 209.031,146.549 204.365,145.549 199.5,145.5C 199.662,143.473 199.495,141.473 199,139.5C 197.812,140.563 197.312,141.897 197.5,143.5C 195.533,143.739 193.699,143.406 192,142.5C 191.833,142.833 191.667,143.167 191.5,143.5C 192.376,144.251 193.376,144.751 194.5,145C 192.5,145.667 190.5,146.333 188.5,147C 188.957,147.414 189.291,147.914 189.5,148.5C 188.478,149.354 187.645,150.354 187,151.5C 186.667,150.833 186.333,150.167 186,149.5C 186.57,152.75 187.07,156.084 187.5,159.5C 185.508,159.672 183.842,159.005 182.5,157.5C 181.289,158.274 181.289,159.107 182.5,160C 175.995,160.011 173.995,163.011 176.5,169C 175.898,171.036 174.898,172.87 173.5,174.5C 173.977,175.478 174.643,176.311 175.5,177C 174.253,178.458 174.253,179.958 175.5,181.5C 174.479,182.901 173.479,184.235 172.5,185.5C 172.949,182.71 172.949,180.044 172.5,177.5C 172.123,179.479 170.789,181.312 168.5,183C 167.128,183.402 165.795,183.902 164.5,184.5C 163.614,183.675 163.281,182.675 163.5,181.5C 163.5,179.5 163.5,177.5 163.5,175.5C 164.496,175.586 165.329,175.252 166,174.5C 166.579,172.351 167.079,170.185 167.5,168C 167.475,166.124 166.809,164.624 165.5,163.5C 165.5,162.833 165.5,162.167 165.5,161.5C 165.5,160.833 165.5,160.167 165.5,159.5C 166.756,159.096 167.923,158.429 169,157.5C 170.101,158.291 170.934,158.291 171.5,157.5C 170.624,156.749 169.624,156.249 168.5,156C 169.743,154.846 170.743,153.512 171.5,152C 170.804,150.512 171.138,149.012 172.5,147.5C 173.318,150.107 173.818,152.774 174,155.5C 174.692,154.975 175.192,154.308 175.5,153.5C 175.549,148.006 175.383,142.339 175,136.5C 174.667,137.167 174.333,137.833 174,138.5C 173.503,136.19 173.337,133.857 173.5,131.5C 177.36,130.356 181.36,129.689 185.5,129.5C 185.281,130.675 185.614,131.675 186.5,132.5C 187.474,130.257 187.808,127.924 187.5,125.5C 189.124,125.64 190.29,124.973 191,123.5C 191.498,120.518 191.665,117.518 191.5,114.5C 196.05,115.212 200.55,115.546 205,115.5C 205.324,113.431 206.158,113.098 207.5,114.5C 208.421,112.244 210.088,111.244 212.5,111.5C 212.5,113.167 212.5,114.833 212.5,116.5C 214.5,116.167 216.5,115.833 218.5,115.5C 218.229,117.821 218.896,119.821 220.5,121.5C 219.833,122.167 219.167,122.833 218.5,123.5C 220.113,123.032 221.613,123.699 223,125.5C 223.24,127.852 224.073,129.852 225.5,131.5 Z"/></g>
<g><path style="opacity:1" fill="#9d9d9c" d="M -0.5,113.5 C -0.166667,113.5 0.166667,113.5 0.5,113.5C 1.30071,115.042 1.63404,116.708 1.5,118.5C 1.16667,119.5 0.5,120.167 -0.5,120.5C -0.5,118.167 -0.5,115.833 -0.5,113.5 Z"/></g>
<g><path style="opacity:1" fill="#353431" d="M 29.5,105.5 C 30.3382,105.842 30.6716,106.508 30.5,107.5C 31.038,109.117 31.3713,110.784 31.5,112.5C 31.5,113.5 31.5,114.5 31.5,115.5C 24.4077,117.44 17.4077,119.606 10.5,122C 7.80776,122.43 5.14109,122.263 2.5,121.5C 2.73731,120.209 2.40397,119.209 1.5,118.5C 1.63404,116.708 1.30071,115.042 0.5,113.5C 0.917533,112.778 1.5842,112.278 2.5,112C 6.19139,111.58 9.85806,111.08 13.5,110.5C 12.9094,111.151 12.2427,111.818 11.5,112.5C 12.914,113.624 14.414,114.624 16,115.5C 20.5453,113.267 25.3786,111.933 30.5,111.5C 29.6518,109.591 29.3184,107.591 29.5,105.5 Z"/></g>
<g><path style="opacity:1" fill="#4f3842" d="M 171.5,105.5 C 168.842,123.411 166.842,141.411 165.5,159.5C 165.5,160.167 165.5,160.833 165.5,161.5C 164.167,161.167 162.833,160.833 161.5,160.5C 161.334,154.824 161.501,149.157 162,143.5C 163.644,130.822 165.477,118.489 167.5,106.5C 168.708,105.766 170.041,105.433 171.5,105.5 Z"/></g>
<g><path style="opacity:1" fill="#5e5854" d="M 31.5,112.5 C 32.4511,113.919 32.7845,115.585 32.5,117.5C 23.5064,122.158 13.8398,124.825 3.5,125.5C 3.5,127.167 3.5,128.833 3.5,130.5C 2.16667,130.5 0.833333,130.5 -0.5,130.5C -0.5,127.167 -0.5,123.833 -0.5,120.5C 0.5,120.167 1.16667,119.5 1.5,118.5C 2.40397,119.209 2.73731,120.209 2.5,121.5C 5.14109,122.263 7.80776,122.43 10.5,122C 17.4077,119.606 24.4077,117.44 31.5,115.5C 31.5,114.5 31.5,113.5 31.5,112.5 Z"/></g>
<g><path style="opacity:1" fill="#5c5b5b" d="M 233.5,110.5 C 233.238,111.978 233.571,113.311 234.5,114.5C 237.109,115.23 239.776,115.73 242.5,116C 243.167,116.667 243.833,117.333 244.5,118C 251.128,119.052 257.794,119.552 264.5,119.5C 274.194,121.513 283.861,123.513 293.5,125.5C 293.5,132.5 293.5,139.5 293.5,146.5C 291.326,146.25 289.659,145.25 288.5,143.5C 289.434,142.432 289.768,141.099 289.5,139.5C 288.5,139.5 287.5,139.5 286.5,139.5C 286.286,137.856 286.62,136.356 287.5,135C 286.833,134.833 286.167,134.667 285.5,134.5C 275.511,135.785 265.511,135.785 255.5,134.5C 254.115,133.449 253.115,132.116 252.5,130.5C 253.101,128.275 253.434,126.109 253.5,124C 252.264,122.612 250.931,121.446 249.5,120.5C 245.846,120.058 242.179,119.724 238.5,119.5C 236.996,116.303 235.33,115.97 233.5,118.5C 232.791,119.404 231.791,119.737 230.5,119.5C 230.747,116.146 231.747,113.146 233.5,110.5 Z"/></g>
<g><path style="opacity:1" fill="#595a4a" d="M 139.5,121.5 C 139.842,120.662 140.508,120.328 141.5,120.5C 144.802,120.912 147.469,122.245 149.5,124.5C 146.15,123.497 142.817,122.497 139.5,121.5 Z"/></g>
<g><path style="opacity:1" fill="#7b7269" d="M 238.5,119.5 C 238.461,120.756 238.961,121.756 240,122.5C 246.815,120.095 249.315,122.261 247.5,129C 243.961,129.282 240.461,129.782 237,130.5C 235.286,129.924 234.119,128.757 233.5,127C 232.552,126.517 231.552,126.351 230.5,126.5C 230.259,122.446 231.926,121.113 235.5,122.5C 236.941,120.167 236.275,118.834 233.5,118.5C 235.33,115.97 236.996,116.303 238.5,119.5 Z"/></g>
<g><path style="opacity:1" fill="#4f413f" d="M 223.5,108.5 C 222.325,112.15 222.325,115.817 223.5,119.5C 225.5,120.167 227.5,120.833 229.5,121.5C 229.784,123.415 229.451,125.081 228.5,126.5C 227.816,129.592 226.816,132.592 225.5,135.5C 225.5,134.167 225.5,132.833 225.5,131.5C 225.813,128.753 225.48,126.086 224.5,123.5C 221.38,121.092 219.713,117.926 219.5,114C 219.046,110.707 220.38,108.874 223.5,108.5 Z"/></g>
<g><path style="opacity:1" fill="#6b6760" d="M 79.5,113.5 C 75.9214,114.709 72.5881,116.542 69.5,119C 63.7294,120.765 58.3961,123.432 53.5,127C 61.4963,129.557 69.4963,131.89 77.5,134C 80.6293,135.399 83.6293,137.065 86.5,139C 93.6936,139.515 100.527,141.348 107,144.5C 107.49,143.207 107.657,141.873 107.5,140.5C 110.682,143.33 113.015,146.664 114.5,150.5C 115.167,151.833 115.833,153.167 116.5,154.5C 119.517,158.199 122.184,162.199 124.5,166.5C 121.366,165.721 118.699,164.055 116.5,161.5C 115.914,161.709 115.414,162.043 115,162.5C 112.187,159.044 108.687,156.544 104.5,155C 103.438,151.851 102.105,149.018 100.5,146.5C 99.5386,148.265 99.2053,150.265 99.5,152.5C 97.4727,152.662 95.4727,152.495 93.5,152C 92.8095,150.933 92.3095,149.766 92,148.5C 91.0862,149.654 90.2529,149.487 89.5,148C 89.8333,147.667 90.1667,147.333 90.5,147C 85.2638,145.113 80.2638,142.779 75.5,140C 72.5,139.333 69.5,139.333 66.5,140C 70.6037,143.042 70.1037,145.208 65,146.5C 63.5557,144.845 61.7224,144.178 59.5,144.5C 59.7307,141.215 58.3974,138.715 55.5,137C 53.2839,137.544 51.1172,137.377 49,136.5C 47.276,136.955 45.776,137.788 44.5,139C 47.9973,140.863 50.6639,143.363 52.5,146.5C 48.0107,145.978 43.6774,144.978 39.5,143.5C 39.8128,139.958 39.4794,136.625 38.5,133.5C 39.6005,132.395 40.2671,131.062 40.5,129.5C 43.2003,127.766 45.2003,125.432 46.5,122.5C 51.5308,116.469 57.1975,111.135 63.5,106.5C 64.1667,106.5 64.5,106.167 64.5,105.5C 65.5307,104.645 66.6974,103.978 68,103.5C 69.1681,104.509 70.3348,105.509 71.5,106.5C 74.345,106.167 76.845,105.167 79,103.5C 79.4983,106.817 79.665,110.15 79.5,113.5 Z"/></g>
<g><path style="opacity:1" fill="#79705e" d="M 32.5,117.5 C 34.0739,119.102 34.7406,121.102 34.5,123.5C 34.6495,124.552 34.4828,125.552 34,126.5C 32.984,125.366 32.3173,125.699 32,127.5C 26.0475,125.393 20.5475,125.893 15.5,129C 16.1667,129.333 16.8333,129.667 17.5,130C 14.0602,130.649 10.7268,131.482 7.5,132.5C 5.66723,132.415 4.3339,131.748 3.5,130.5C 3.5,128.833 3.5,127.167 3.5,125.5C 13.8398,124.825 23.5064,122.158 32.5,117.5 Z"/></g>
<g><path style="opacity:1" fill="#706862" d="M 233.5,118.5 C 236.275,118.834 236.941,120.167 235.5,122.5C 231.926,121.113 230.259,122.446 230.5,126.5C 231.552,126.351 232.552,126.517 233.5,127C 234.119,128.757 235.286,129.924 237,130.5C 240.461,129.782 243.961,129.282 247.5,129C 249.315,122.261 246.815,120.095 240,122.5C 238.961,121.756 238.461,120.756 238.5,119.5C 242.179,119.724 245.846,120.058 249.5,120.5C 249.666,124.514 249.499,128.514 249,132.5C 246.25,131.999 243.417,131.999 240.5,132.5C 236.705,131.383 232.705,130.717 228.5,130.5C 228.5,129.167 228.5,127.833 228.5,126.5C 229.451,125.081 229.784,123.415 229.5,121.5C 230.338,121.158 230.672,120.492 230.5,119.5C 231.791,119.737 232.791,119.404 233.5,118.5 Z"/></g>
<g><path style="opacity:1" fill="#6d6a5b" d="M 127.5,117.5 C 129.973,117.088 131.306,118.088 131.5,120.5C 129.562,122.802 127.895,125.302 126.5,128C 122.174,128.322 118.841,130.322 116.5,134C 113.24,134.784 110.073,134.617 107,133.5C 106.536,134.094 106.369,134.761 106.5,135.5C 105.209,134.458 105.209,133.292 106.5,132C 105.67,130.253 104.67,128.587 103.5,127C 104.298,122.742 106.631,121.575 110.5,123.5C 113.207,127.647 116.874,128.647 121.5,126.5C 121.884,124.071 122.551,121.737 123.5,119.5C 125.483,119.843 126.817,119.176 127.5,117.5 Z"/></g>
<g><path style="opacity:1" fill="#615055" d="M 167.5,106.5 C 165.477,118.489 163.644,130.822 162,143.5C 161.501,149.157 161.334,154.824 161.5,160.5C 160.833,160.5 160.167,160.5 159.5,160.5C 159.025,153.079 159.025,145.745 159.5,138.5C 159.5,136.5 159.5,134.5 159.5,132.5C 162.383,125.229 164.216,117.563 165,109.5C 165.236,107.881 166.069,106.881 167.5,106.5 Z"/></g>
<g><path style="opacity:1" fill="#65584f" d="M 228.5,126.5 C 228.5,127.833 228.5,129.167 228.5,130.5C 232.705,130.717 236.705,131.383 240.5,132.5C 239.602,133.158 238.602,133.824 237.5,134.5C 239.005,135.842 239.672,137.508 239.5,139.5C 239.483,141.565 239.15,143.565 238.5,145.5C 234.671,145.927 231.004,145.927 227.5,145.5C 226.833,142.833 226.167,140.167 225.5,137.5C 225.5,136.833 225.5,136.167 225.5,135.5C 226.816,132.592 227.816,129.592 228.5,126.5 Z"/></g>
<g><path style="opacity:1" fill="#5b5854" d="M 249.5,120.5 C 250.931,121.446 252.264,122.612 253.5,124C 253.434,126.109 253.101,128.275 252.5,130.5C 253.115,132.116 254.115,133.449 255.5,134.5C 265.511,135.785 275.511,135.785 285.5,134.5C 286.167,134.667 286.833,134.833 287.5,135C 286.62,136.356 286.286,137.856 286.5,139.5C 287.5,139.5 288.5,139.5 289.5,139.5C 289.768,141.099 289.434,142.432 288.5,143.5C 282.096,146.434 281.43,145.767 286.5,141.5C 286.333,141.167 286.167,140.833 286,140.5C 284.103,142.016 281.936,142.683 279.5,142.5C 277.058,142.881 276.391,142.214 277.5,140.5C 276.667,140.167 275.833,139.833 275,139.5C 266.068,138.192 257.235,136.859 248.5,135.5C 244.535,134.665 241.868,135.999 240.5,139.5C 240.167,139.5 239.833,139.5 239.5,139.5C 239.672,137.508 239.005,135.842 237.5,134.5C 238.602,133.824 239.602,133.158 240.5,132.5C 243.417,131.999 246.25,131.999 249,132.5C 249.499,128.514 249.666,124.514 249.5,120.5 Z"/></g>
<g><path style="opacity:1" fill="#8a816b" d="M 34.5,123.5 C 35.224,125.218 35.8906,127.052 36.5,129C 37.7932,129.49 39.1266,129.657 40.5,129.5C 40.2671,131.062 39.6005,132.395 38.5,133.5C 32.583,141.205 27.583,149.539 23.5,158.5C 23.5,158.833 23.5,159.167 23.5,159.5C 15.1967,159.719 7.86336,162.386 1.5,167.5C 0.833333,167.5 0.166667,167.5 -0.5,167.5C -0.5,155.167 -0.5,142.833 -0.5,130.5C 0.833333,130.5 2.16667,130.5 3.5,130.5C 4.3339,131.748 5.66723,132.415 7.5,132.5C 10.7268,131.482 14.0602,130.649 17.5,130C 16.8333,129.667 16.1667,129.333 15.5,129C 20.5475,125.893 26.0475,125.393 32,127.5C 32.3173,125.699 32.984,125.366 34,126.5C 34.4828,125.552 34.6495,124.552 34.5,123.5 Z"/></g>
<g><path style="opacity:1" fill="#34252a" d="M 222.5,145.5 C 221.034,150.692 220.367,156.025 220.5,161.5C 215.486,165.009 210.152,168.009 204.5,170.5C 200.705,170.054 197.038,169.054 193.5,167.5C 188.44,167.387 186.606,169.721 188,174.5C 188.743,177.192 189.91,179.525 191.5,181.5C 192.167,182.833 192.833,184.167 193.5,185.5C 188.203,189.382 182.203,191.715 175.5,192.5C 175.5,193.5 175.5,194.5 175.5,195.5C 169.752,196.943 164.085,197.61 158.5,197.5C 158.167,197.167 157.833,196.833 157.5,196.5C 158.243,195.818 158.909,195.151 159.5,194.5C 160.492,194.672 161.158,194.338 161.5,193.5C 165.148,190.858 168.815,188.191 172.5,185.5C 173.479,184.235 174.479,182.901 175.5,181.5C 174.253,179.958 174.253,178.458 175.5,177C 174.643,176.311 173.977,175.478 173.5,174.5C 174.898,172.87 175.898,171.036 176.5,169C 173.995,163.011 175.995,160.011 182.5,160C 181.289,159.107 181.289,158.274 182.5,157.5C 183.842,159.005 185.508,159.672 187.5,159.5C 187.07,156.084 186.57,152.75 186,149.5C 186.333,150.167 186.667,150.833 187,151.5C 187.645,150.354 188.478,149.354 189.5,148.5C 189.291,147.914 188.957,147.414 188.5,147C 190.5,146.333 192.5,145.667 194.5,145C 193.376,144.751 192.376,144.251 191.5,143.5C 191.667,143.167 191.833,142.833 192,142.5C 193.699,143.406 195.533,143.739 197.5,143.5C 197.312,141.897 197.812,140.563 199,139.5C 199.495,141.473 199.662,143.473 199.5,145.5C 204.365,145.549 209.031,146.549 213.5,148.5C 215.954,147.528 218.121,146.195 220,144.5C 220.671,145.252 221.504,145.586 222.5,145.5 Z"/></g>
<g><path style="opacity:1" fill="#65615b" d="M 100.5,146.5 C 100.768,149.119 100.435,151.619 99.5,154C 95.1794,154.499 90.8461,154.666 86.5,154.5C 86.5,153.5 86.5,152.5 86.5,151.5C 82.2883,150.123 77.955,149.123 73.5,148.5C 72.5,148.833 71.5,149.167 70.5,149.5C 71.4286,151.322 70.7619,152.655 68.5,153.5C 66.2573,154.474 63.924,154.808 61.5,154.5C 56.1612,153.253 51.1612,151.253 46.5,148.5C 43.8974,147.256 41.564,145.589 39.5,143.5C 43.6774,144.978 48.0107,145.978 52.5,146.5C 50.6639,143.363 47.9973,140.863 44.5,139C 45.776,137.788 47.276,136.955 49,136.5C 51.1172,137.377 53.2839,137.544 55.5,137C 58.3974,138.715 59.7307,141.215 59.5,144.5C 61.7224,144.178 63.5557,144.845 65,146.5C 70.1037,145.208 70.6037,143.042 66.5,140C 69.5,139.333 72.5,139.333 75.5,140C 80.2638,142.779 85.2638,145.113 90.5,147C 90.1667,147.333 89.8333,147.667 89.5,148C 90.2529,149.487 91.0862,149.654 92,148.5C 92.3095,149.766 92.8095,150.933 93.5,152C 95.4727,152.495 97.4727,152.662 99.5,152.5C 99.2053,150.265 99.5386,148.265 100.5,146.5 Z"/></g>
<g><path style="opacity:1" fill="#8e8e7c" d="M 131.5,120.5 C 134.237,120.401 136.904,120.735 139.5,121.5C 142.817,122.497 146.15,123.497 149.5,124.5C 148.836,129.473 148.503,134.473 148.5,139.5C 149.5,139.5 150.5,139.5 151.5,139.5C 151.5,142.167 151.5,144.833 151.5,147.5C 150.167,147.5 148.833,147.5 147.5,147.5C 145.956,147.297 144.622,146.63 143.5,145.5C 141.509,146.427 139.509,146.594 137.5,146C 138.451,146.718 138.617,147.551 138,148.5C 136.915,147.707 135.748,147.04 134.5,146.5C 130.235,147.439 125.902,147.772 121.5,147.5C 119.167,147.5 116.833,147.5 114.5,147.5C 114.5,148.5 114.5,149.5 114.5,150.5C 113.015,146.664 110.682,143.33 107.5,140.5C 107.371,138.784 107.038,137.117 106.5,135.5C 106.369,134.761 106.536,134.094 107,133.5C 110.073,134.617 113.24,134.784 116.5,134C 118.841,130.322 122.174,128.322 126.5,128C 127.895,125.302 129.562,122.802 131.5,120.5 Z"/></g>
<g><path style="opacity:1" fill="#554d46" d="M 279.5,142.5 C 279.5,143.833 279.5,145.167 279.5,146.5C 277.011,146.241 275.344,147.241 274.5,149.5C 273.427,150.658 272.261,150.658 271,149.5C 269.829,150.34 268.662,151.173 267.5,152C 269.417,157.218 267.417,158.718 261.5,156.5C 258.416,156.861 255.916,158.194 254,160.5C 253.83,154.804 253.33,149.138 252.5,143.5C 251.15,142.05 249.484,141.383 247.5,141.5C 247.297,139.61 247.963,138.11 249.5,137C 247.833,136.333 246.167,136.333 244.5,137C 243.264,138.085 241.931,138.918 240.5,139.5C 241.868,135.999 244.535,134.665 248.5,135.5C 257.235,136.859 266.068,138.192 275,139.5C 275.833,139.833 276.667,140.167 277.5,140.5C 276.391,142.214 277.058,142.881 279.5,142.5 Z"/></g>
<g><path style="opacity:1" fill="#4e4f4f" d="M 288.5,143.5 C 289.659,145.25 291.326,146.25 293.5,146.5C 293.5,154.5 293.5,162.5 293.5,170.5C 288.412,168.281 283.079,166.948 277.5,166.5C 275.362,165.192 273.362,165.525 271.5,167.5C 271.262,164.592 272.262,162.258 274.5,160.5C 276.045,159.548 277.712,159.215 279.5,159.5C 279.5,155.167 279.5,150.833 279.5,146.5C 279.5,145.167 279.5,143.833 279.5,142.5C 281.936,142.683 284.103,142.016 286,140.5C 286.167,140.833 286.333,141.167 286.5,141.5C 281.43,145.767 282.096,146.434 288.5,143.5 Z"/></g>
<g><path style="opacity:1" fill="#868377" d="M 147.5,147.5 C 147.196,150.522 146.696,153.522 146,156.5C 142.919,155.185 139.753,154.185 136.5,153.5C 131.105,152.262 126.105,150.262 121.5,147.5C 125.902,147.772 130.235,147.439 134.5,146.5C 135.748,147.04 136.915,147.707 138,148.5C 138.617,147.551 138.451,146.718 137.5,146C 139.509,146.594 141.509,146.427 143.5,145.5C 144.622,146.63 145.956,147.297 147.5,147.5 Z"/></g>
<g><path style="opacity:1" fill="#64564c" d="M 38.5,133.5 C 39.4794,136.625 39.8128,139.958 39.5,143.5C 41.564,145.589 43.8974,147.256 46.5,148.5C 45.448,148.351 44.448,148.517 43.5,149C 44.4581,150.147 44.1247,151.147 42.5,152C 35.9188,153.693 29.5854,155.86 23.5,158.5C 27.583,149.539 32.583,141.205 38.5,133.5 Z"/></g>
<g><path style="opacity:1" fill="#6f6866" d="M 159.5,138.5 C 159.025,145.745 159.025,153.079 159.5,160.5C 158.883,160.389 158.383,160.056 158,159.5C 157.833,156.5 157.667,153.5 157.5,150.5C 157.278,146.203 157.945,142.203 159.5,138.5 Z"/></g>
<g><path style="opacity:1" fill="#939086" d="M 161.5,105.5 C 160.686,110.119 160.353,114.786 160.5,119.5C 158.071,127.103 156.738,135.103 156.5,143.5C 155.5,143.5 154.5,143.5 153.5,143.5C 153.286,145.144 153.62,146.644 154.5,148C 152.956,150.999 151.789,154.166 151,157.5C 150.111,156.112 149.611,156.278 149.5,158C 151.389,161.524 150.389,163.357 146.5,163.5C 146.66,161.801 146.494,160.134 146,158.5C 144.244,157.015 143.077,157.348 142.5,159.5C 141.52,163.214 139.52,166.381 136.5,169C 136.833,169.333 137.167,169.667 137.5,170C 133.921,169.663 130.254,169.496 126.5,169.5C 126.715,167.821 126.048,166.821 124.5,166.5C 122.184,162.199 119.517,158.199 116.5,154.5C 119.553,154.911 122.553,155.577 125.5,156.5C 129.172,155.098 132.839,154.098 136.5,153.5C 139.753,154.185 142.919,155.185 146,156.5C 146.696,153.522 147.196,150.522 147.5,147.5C 148.833,147.5 150.167,147.5 151.5,147.5C 151.5,144.833 151.5,142.167 151.5,139.5C 151.178,137.278 151.845,135.444 153.5,134C 152.892,132.769 152.559,131.436 152.5,130C 153.863,125.543 155.53,121.21 157.5,117C 156.714,113.542 156.38,110.042 156.5,106.5C 158.143,106.52 159.476,105.853 160.5,104.5C 161.107,104.624 161.44,104.957 161.5,105.5 Z"/></g>
<g><path style="opacity:1" fill="#abaca1" d="M 121.5,147.5 C 126.105,150.262 131.105,152.262 136.5,153.5C 132.839,154.098 129.172,155.098 125.5,156.5C 122.553,155.577 119.553,154.911 116.5,154.5C 115.833,153.167 115.167,151.833 114.5,150.5C 114.5,149.5 114.5,148.5 114.5,147.5C 116.833,147.5 119.167,147.5 121.5,147.5 Z"/></g>
<g><path style="opacity:1" fill="#514141" d="M 224.5,141.5 C 224.419,146.252 226.752,148.419 231.5,148C 232.167,148.667 232.833,149.333 233.5,150C 230.213,152.293 227.88,155.293 226.5,159C 223.099,158.734 221.433,160.234 221.5,163.5C 219.302,163.591 218.969,162.925 220.5,161.5C 220.367,156.025 221.034,150.692 222.5,145.5C 222.989,144.005 223.655,142.671 224.5,141.5 Z"/></g>
<g><path style="opacity:1" fill="#615c56" d="M 100.5,146.5 C 102.105,149.018 103.438,151.851 104.5,155C 108.687,156.544 112.187,159.044 115,162.5C 115.414,162.043 115.914,161.709 116.5,161.5C 118.699,164.055 121.366,165.721 124.5,166.5C 126.048,166.821 126.715,167.821 126.5,169.5C 126.179,171.048 125.179,171.715 123.5,171.5C 121.795,173.192 119.795,174.525 117.5,175.5C 114.242,177.041 110.909,178.375 107.5,179.5C 106.115,178.698 106.282,178.031 108,177.5C 110.135,176.873 112.302,176.373 114.5,176C 108.348,174.287 102.682,171.62 97.5,168C 87.2486,165.107 77.2486,161.607 67.5,157.5C 65.7512,156.015 63.7512,155.015 61.5,154.5C 63.924,154.808 66.2573,154.474 68.5,153.5C 70.7619,152.655 71.4286,151.322 70.5,149.5C 71.5,149.167 72.5,148.833 73.5,148.5C 77.955,149.123 82.2883,150.123 86.5,151.5C 86.5,152.5 86.5,153.5 86.5,154.5C 90.8461,154.666 95.1794,154.499 99.5,154C 100.435,151.619 100.768,149.119 100.5,146.5 Z"/></g>
<g><path style="opacity:1" fill="#504642" d="M 274.5,149.5 C 274.617,151.484 273.95,153.15 272.5,154.5C 269.365,157.133 266.365,159.967 263.5,163C 260.312,164.316 256.978,164.816 253.5,164.5C 252.841,161.545 252.508,158.545 252.5,155.5C 251.5,155.5 250.5,155.5 249.5,155.5C 249.5,153.5 249.5,151.5 249.5,149.5C 246.781,149.603 244.115,149.269 241.5,148.5C 239.825,148.132 238.825,147.132 238.5,145.5C 239.15,143.565 239.483,141.565 239.5,139.5C 239.833,139.5 240.167,139.5 240.5,139.5C 241.931,138.918 243.264,138.085 244.5,137C 246.167,136.333 247.833,136.333 249.5,137C 247.963,138.11 247.297,139.61 247.5,141.5C 249.484,141.383 251.15,142.05 252.5,143.5C 253.33,149.138 253.83,154.804 254,160.5C 255.916,158.194 258.416,156.861 261.5,156.5C 267.417,158.718 269.417,157.218 267.5,152C 268.662,151.173 269.829,150.34 271,149.5C 272.261,150.658 273.427,150.658 274.5,149.5 Z"/></g>
<g><path style="opacity:1" fill="#605445" d="M 23.5,159.5 C 24.3132,160.653 25.3132,160.653 26.5,159.5C 27.8893,163.824 27.556,167.991 25.5,172C 26.8213,173.545 26.4879,174.711 24.5,175.5C 23.3954,173.389 21.7288,172.055 19.5,171.5C 20.1667,168.167 20.8333,164.833 21.5,161.5C 15.86,163.832 10.1933,165.832 4.5,167.5C 3.5,167.5 2.5,167.5 1.5,167.5C 7.86336,162.386 15.1967,159.719 23.5,159.5 Z"/></g>
<g><path style="opacity:1" fill="#88837c" d="M 160.5,119.5 C 160.533,123.869 160.2,128.202 159.5,132.5C 159.5,134.5 159.5,136.5 159.5,138.5C 157.945,142.203 157.278,146.203 157.5,150.5C 157.667,153.5 157.833,156.5 158,159.5C 158.383,160.056 158.883,160.389 159.5,160.5C 160.167,160.5 160.833,160.5 161.5,160.5C 161.5,160.833 161.5,161.167 161.5,161.5C 159.5,161.5 157.5,161.5 155.5,161.5C 154.551,163.737 153.884,166.071 153.5,168.5C 150.876,167.041 148.542,165.375 146.5,163.5C 150.389,163.357 151.389,161.524 149.5,158C 149.611,156.278 150.111,156.112 151,157.5C 151.789,154.166 152.956,150.999 154.5,148C 153.62,146.644 153.286,145.144 153.5,143.5C 154.5,143.5 155.5,143.5 156.5,143.5C 156.738,135.103 158.071,127.103 160.5,119.5 Z"/></g>
<g><path style="opacity:1" fill="#5f4f48" d="M 225.5,137.5 C 226.167,140.167 226.833,142.833 227.5,145.5C 231.004,145.927 234.671,145.927 238.5,145.5C 238.825,147.132 239.825,148.132 241.5,148.5C 244.115,149.269 246.781,149.603 249.5,149.5C 249.5,151.5 249.5,153.5 249.5,155.5C 247.896,154.713 247.229,153.38 247.5,151.5C 244.833,151.5 242.167,151.5 239.5,151.5C 239.662,153.527 239.495,155.527 239,157.5C 238.781,156.062 238.281,154.729 237.5,153.5C 237.167,153.667 236.833,153.833 236.5,154C 237.406,155.699 237.739,157.533 237.5,159.5C 236.448,159.351 235.448,159.517 234.5,160C 236.167,160.333 237.833,160.667 239.5,161C 239.764,162.742 241.097,163.909 243.5,164.5C 242.833,164.5 242.5,164.833 242.5,165.5C 241.5,165.5 240.5,165.5 239.5,165.5C 239.265,164.903 238.765,164.57 238,164.5C 236.51,165.317 235.01,166.15 233.5,167C 234.424,167.85 234.424,168.85 233.5,170C 230.919,172.115 228.919,174.115 227.5,176C 228.138,177.707 228.138,179.54 227.5,181.5C 226.833,181.5 226.167,181.5 225.5,181.5C 224.167,181.5 222.833,181.5 221.5,181.5C 224.566,177.643 226.899,173.31 228.5,168.5C 233.1,168.655 233.433,167.988 229.5,166.5C 226.143,166.765 223.143,167.765 220.5,169.5C 220.833,167.5 221.167,165.5 221.5,163.5C 221.433,160.234 223.099,158.734 226.5,159C 227.88,155.293 230.213,152.293 233.5,150C 232.833,149.333 232.167,148.667 231.5,148C 226.752,148.419 224.419,146.252 224.5,141.5C 224.232,139.901 224.566,138.568 225.5,137.5 Z"/></g>
<g><path style="opacity:1" fill="#675c52" d="M 249.5,155.5 C 250.5,155.5 251.5,155.5 252.5,155.5C 252.508,158.545 252.841,161.545 253.5,164.5C 250.167,164.5 246.833,164.5 243.5,164.5C 241.097,163.909 239.764,162.742 239.5,161C 237.833,160.667 236.167,160.333 234.5,160C 235.448,159.517 236.448,159.351 237.5,159.5C 237.739,157.533 237.406,155.699 236.5,154C 236.833,153.833 237.167,153.667 237.5,153.5C 238.281,154.729 238.781,156.062 239,157.5C 239.495,155.527 239.662,153.527 239.5,151.5C 242.167,151.5 244.833,151.5 247.5,151.5C 247.229,153.38 247.896,154.713 249.5,155.5 Z"/></g>
<g><path style="opacity:1" fill="#9a938b" d="M 161.5,161.5 C 161.5,164.5 161.5,167.5 161.5,170.5C 160.839,171.718 160.172,173.051 159.5,174.5C 157.146,172.812 155.146,170.812 153.5,168.5C 153.884,166.071 154.551,163.737 155.5,161.5C 157.5,161.5 159.5,161.5 161.5,161.5 Z"/></g>
<g><path style="opacity:1" fill="#3d3432" d="M 255.5,169.5 C 251.734,166.801 247.4,165.467 242.5,165.5C 242.5,164.833 242.833,164.5 243.5,164.5C 246.833,164.5 250.167,164.5 253.5,164.5C 256.978,164.816 260.312,164.316 263.5,163C 266.365,159.967 269.365,157.133 272.5,154.5C 273.95,153.15 274.617,151.484 274.5,149.5C 275.822,149.67 276.989,149.337 278,148.5C 278.687,150.568 278.52,152.568 277.5,154.5C 274.362,155.805 272.029,157.971 270.5,161C 269.552,161.483 268.552,161.649 267.5,161.5C 266.379,168.082 262.379,170.749 255.5,169.5 Z"/></g>
<g><path style="opacity:1" fill="#7f7766" d="M 19.5,171.5 C 19.631,172.239 19.4643,172.906 19,173.5C 16.3201,170.438 13.1535,169.772 9.5,171.5C 9.5,170.5 9.5,169.5 9.5,168.5C 7.7839,168.371 6.11723,168.038 4.5,167.5C 10.1933,165.832 15.86,163.832 21.5,161.5C 20.8333,164.833 20.1667,168.167 19.5,171.5 Z"/></g>
<g><path style="opacity:1" fill="#675f51" d="M 239.5,165.5 C 240.5,165.5 241.5,165.5 242.5,165.5C 247.4,165.467 251.734,166.801 255.5,169.5C 259.367,170.726 263.367,170.726 267.5,169.5C 266.969,171.544 265.802,173.211 264,174.5C 263.667,174.167 263.333,173.833 263,173.5C 260.846,174.23 258.679,174.897 256.5,175.5C 253.301,177.547 250.301,179.88 247.5,182.5C 242.981,180.331 238.314,179.998 233.5,181.5C 233.338,179.473 233.505,177.473 234,175.5C 235.404,173.606 236.57,171.606 237.5,169.5C 235.874,167.11 236.541,165.777 239.5,165.5 Z"/></g>
<g><path style="opacity:1" fill="#48423e" d="M 279.5,146.5 C 279.5,150.833 279.5,155.167 279.5,159.5C 277.712,159.215 276.045,159.548 274.5,160.5C 272.262,162.258 271.262,164.592 271.5,167.5C 269.847,167.66 268.514,168.326 267.5,169.5C 263.367,170.726 259.367,170.726 255.5,169.5C 262.379,170.749 266.379,168.082 267.5,161.5C 268.552,161.649 269.552,161.483 270.5,161C 272.029,157.971 274.362,155.805 277.5,154.5C 278.52,152.568 278.687,150.568 278,148.5C 276.989,149.337 275.822,149.67 274.5,149.5C 275.344,147.241 277.011,146.241 279.5,146.5 Z"/></g>
<g><path style="opacity:1" fill="#4c3e37" d="M 220.5,161.5 C 218.969,162.925 219.302,163.591 221.5,163.5C 221.167,165.5 220.833,167.5 220.5,169.5C 220.452,170.507 221.452,170.84 223.5,170.5C 223.719,171.675 223.386,172.675 222.5,173.5C 218.009,176.69 213.675,180.024 209.5,183.5C 207.818,182.173 206.485,180.506 205.5,178.5C 204.908,175.873 204.575,173.206 204.5,170.5C 210.152,168.009 215.486,165.009 220.5,161.5 Z"/></g>
<g><path style="opacity:1" fill="#564b43" d="M 46.5,148.5 C 51.1612,151.253 56.1612,153.253 61.5,154.5C 63.7512,155.015 65.7512,156.015 67.5,157.5C 65.6214,157.393 65.2881,157.893 66.5,159C 69.2019,160.34 71.8685,161.673 74.5,163C 70.6496,165.609 66.3163,166.776 61.5,166.5C 61.5737,171.82 58.9071,173.82 53.5,172.5C 53.3367,174.857 53.5034,177.19 54,179.5C 54.85,180.424 55.85,180.424 57,179.5C 58.3102,180.13 59.1435,181.13 59.5,182.5C 50.9631,189.116 42.6297,188.616 34.5,181C 29.753,180.623 25.4197,179.123 21.5,176.5C 20.8933,176.624 20.56,176.957 20.5,177.5C 20.1667,177.5 19.8333,177.5 19.5,177.5C 19.6309,176.624 19.2975,175.957 18.5,175.5C 15.8908,174.77 13.2241,174.27 10.5,174C 7.75047,170.293 4.08381,168.793 -0.5,169.5C -0.5,168.833 -0.5,168.167 -0.5,167.5C 0.166667,167.5 0.833333,167.5 1.5,167.5C 2.5,167.5 3.5,167.5 4.5,167.5C 6.11723,168.038 7.7839,168.371 9.5,168.5C 9.5,169.5 9.5,170.5 9.5,171.5C 13.1535,169.772 16.3201,170.438 19,173.5C 19.4643,172.906 19.631,172.239 19.5,171.5C 21.7288,172.055 23.3954,173.389 24.5,175.5C 26.4879,174.711 26.8213,173.545 25.5,172C 27.556,167.991 27.8893,163.824 26.5,159.5C 25.3132,160.653 24.3132,160.653 23.5,159.5C 23.5,159.167 23.5,158.833 23.5,158.5C 29.5854,155.86 35.9188,153.693 42.5,152C 44.1247,151.147 44.4581,150.147 43.5,149C 44.448,148.517 45.448,148.351 46.5,148.5 Z"/></g>
<g><path style="opacity:1" fill="#5f4e51" d="M 165.5,163.5 C 166.809,164.624 167.475,166.124 167.5,168C 167.079,170.185 166.579,172.351 166,174.5C 165.329,175.252 164.496,175.586 163.5,175.5C 164.259,171.523 164.925,167.523 165.5,163.5 Z"/></g>
<g><path style="opacity:1" fill="#544e45" d="M 107.5,179.5 C 108.167,179.833 108.833,180.167 109.5,180.5C 109.577,181.75 110.244,182.583 111.5,183C 110.892,183.87 110.059,184.37 109,184.5C 106.036,184.117 103.37,183.117 101,181.5C 100.667,181.833 100.333,182.167 100,182.5C 99.5172,181.552 99.3505,180.552 99.5,179.5C 95.4001,178.452 91.2334,177.452 87,176.5C 84.4516,178.685 81.6182,180.518 78.5,182C 77.2161,182.684 76.0495,182.517 75,181.5C 73.806,183.525 72.306,183.859 70.5,182.5C 65.108,185.217 62.7747,189.55 63.5,195.5C 62.5,195.5 61.5,195.5 60.5,195.5C 61.0021,191.307 62.0021,187.307 63.5,183.5C 66.7487,181.972 70.082,180.639 73.5,179.5C 76.2882,179.923 78.2882,178.923 79.5,176.5C 84.3202,175.172 88.8202,173.172 93,170.5C 96.3617,172.599 99.8617,174.266 103.5,175.5C 103.185,177.226 103.019,178.893 103,180.5C 105.045,182.043 106.545,181.71 107.5,179.5 Z"/></g>
<g><path style="opacity:1" fill="#797c7f" d="M -0.5,169.5 C 4.08381,168.793 7.75047,170.293 10.5,174C 13.2241,174.27 15.8908,174.77 18.5,175.5C 19.2975,175.957 19.6309,176.624 19.5,177.5C 20.6441,180.447 22.3107,183.113 24.5,185.5C 17.832,186.953 11.1653,188.453 4.5,190C 3.18162,193.269 3.18162,196.435 4.5,199.5C 5.16667,199.5 5.5,199.833 5.5,200.5C 5.5,200.833 5.5,201.167 5.5,201.5C 3.5,201.5 1.5,201.5 -0.5,201.5C -0.5,190.833 -0.5,180.167 -0.5,169.5 Z"/></g>
<g><path style="opacity:1" fill="#656867" d="M 277.5,166.5 C 283.079,166.948 288.412,168.281 293.5,170.5C 293.5,180.833 293.5,191.167 293.5,201.5C 288.833,201.5 284.167,201.5 279.5,201.5C 277.369,200.686 275.036,200.186 272.5,200C 271.748,199.329 271.414,198.496 271.5,197.5C 271.212,191.771 271.546,186.104 272.5,180.5C 271.631,177.237 270.297,176.904 268.5,179.5C 267.324,175.987 268.657,173.987 272.5,173.5C 271.533,169.149 273.2,166.815 277.5,166.5 Z"/></g>
<g><path style="opacity:1" fill="#7d756a" d="M 146.5,163.5 C 148.542,165.375 150.876,167.041 153.5,168.5C 155.146,170.812 157.146,172.812 159.5,174.5C 160.172,173.051 160.839,171.718 161.5,170.5C 161.001,175.492 160.501,180.492 160,185.5C 156.566,187.877 152.399,188.877 147.5,188.5C 144.41,187.647 141.41,186.647 138.5,185.5C 133.671,183.599 128.671,181.933 123.5,180.5C 121.059,179.291 119.059,177.624 117.5,175.5C 119.795,174.525 121.795,173.192 123.5,171.5C 123.579,172.93 123.246,174.264 122.5,175.5C 125.119,175.976 127.119,177.309 128.5,179.5C 129.167,178.167 129.833,176.833 130.5,175.5C 134.884,176.751 138.384,178.417 141,180.5C 142.825,179.897 144.659,179.23 146.5,178.5C 146.291,177.914 145.957,177.414 145.5,177C 139.811,175.774 134.144,174.441 128.5,173C 127.098,171.658 127.431,170.824 129.5,170.5C 135.638,172.16 141.804,173.494 148,174.5C 149.489,170.603 147.989,167.936 143.5,166.5C 142.526,164.257 142.192,161.924 142.5,159.5C 143.077,157.348 144.244,157.015 146,158.5C 146.494,160.134 146.66,161.801 146.5,163.5 Z"/></g>
<g><path style="opacity:1" fill="#54453e" d="M 225.5,181.5 C 222.152,183.326 219.152,185.826 216.5,189C 212.717,189.554 210.05,191.554 208.5,195C 206.559,196.903 204.226,197.736 201.5,197.5C 201.833,196.833 202.167,196.167 202.5,195.5C 204.564,194.942 206.23,193.775 207.5,192C 207.164,190.97 206.497,190.47 205.5,190.5C 205.5,189.833 205.833,189.5 206.5,189.5C 207.971,187.784 208.971,185.784 209.5,183.5C 213.675,180.024 218.009,176.69 222.5,173.5C 223.386,172.675 223.719,171.675 223.5,170.5C 221.452,170.84 220.452,170.507 220.5,169.5C 223.143,167.765 226.143,166.765 229.5,166.5C 233.433,167.988 233.1,168.655 228.5,168.5C 226.899,173.31 224.566,177.643 221.5,181.5C 222.833,181.5 224.167,181.5 225.5,181.5 Z"/></g>
<g><path style="opacity:1" fill="#4f473e" d="M 67.5,157.5 C 77.2486,161.607 87.2486,165.107 97.5,168C 102.682,171.62 108.348,174.287 114.5,176C 112.302,176.373 110.135,176.873 108,177.5C 106.282,178.031 106.115,178.698 107.5,179.5C 106.545,181.71 105.045,182.043 103,180.5C 103.019,178.893 103.185,177.226 103.5,175.5C 99.8617,174.266 96.3617,172.599 93,170.5C 88.8202,173.172 84.3202,175.172 79.5,176.5C 78.2882,178.923 76.2882,179.923 73.5,179.5C 74.9361,178.571 76.2695,177.405 77.5,176C 77.1667,175.833 76.8333,175.667 76.5,175.5C 71.2354,178.81 65.5687,181.144 59.5,182.5C 59.1435,181.13 58.3102,180.13 57,179.5C 55.85,180.424 54.85,180.424 54,179.5C 53.5034,177.19 53.3367,174.857 53.5,172.5C 58.9071,173.82 61.5737,171.82 61.5,166.5C 66.3163,166.776 70.6496,165.609 74.5,163C 71.8685,161.673 69.2019,160.34 66.5,159C 65.2881,157.893 65.6214,157.393 67.5,157.5 Z"/></g>
<g><path style="opacity:1" fill="#888274" d="M 142.5,159.5 C 142.192,161.924 142.526,164.257 143.5,166.5C 147.989,167.936 149.489,170.603 148,174.5C 141.804,173.494 135.638,172.16 129.5,170.5C 127.431,170.824 127.098,171.658 128.5,173C 134.144,174.441 139.811,175.774 145.5,177C 145.957,177.414 146.291,177.914 146.5,178.5C 144.659,179.23 142.825,179.897 141,180.5C 138.384,178.417 134.884,176.751 130.5,175.5C 129.833,176.833 129.167,178.167 128.5,179.5C 127.119,177.309 125.119,175.976 122.5,175.5C 123.246,174.264 123.579,172.93 123.5,171.5C 125.179,171.715 126.179,171.048 126.5,169.5C 130.254,169.496 133.921,169.663 137.5,170C 137.167,169.667 136.833,169.333 136.5,169C 139.52,166.381 141.52,163.214 142.5,159.5 Z"/></g>
<g><path style="opacity:1" fill="#594e52" d="M 204.5,170.5 C 204.575,173.206 204.908,175.873 205.5,178.5C 205.44,179.043 205.107,179.376 204.5,179.5C 200.979,177.384 197.646,177.384 194.5,179.5C 193.29,179.932 192.29,180.599 191.5,181.5C 189.91,179.525 188.743,177.192 188,174.5C 186.606,169.721 188.44,167.387 193.5,167.5C 197.038,169.054 200.705,170.054 204.5,170.5 Z"/></g>
<g><path style="opacity:1" fill="#5a554b" d="M 109.5,180.5 C 111.384,180.712 112.717,181.712 113.5,183.5C 109.997,187.844 106.497,192.177 103,196.5C 102.392,198.154 101.892,199.821 101.5,201.5C 88.8333,201.5 76.1667,201.5 63.5,201.5C 63.5,201.167 63.5,200.833 63.5,200.5C 65.5273,200.662 67.5273,200.495 69.5,200C 67.5805,198.227 65.5805,196.727 63.5,195.5C 62.7747,189.55 65.108,185.217 70.5,182.5C 72.306,183.859 73.806,183.525 75,181.5C 76.0495,182.517 77.2161,182.684 78.5,182C 81.6182,180.518 84.4516,178.685 87,176.5C 91.2334,177.452 95.4001,178.452 99.5,179.5C 99.3505,180.552 99.5172,181.552 100,182.5C 100.333,182.167 100.667,181.833 101,181.5C 103.37,183.117 106.036,184.117 109,184.5C 110.059,184.37 110.892,183.87 111.5,183C 110.244,182.583 109.577,181.75 109.5,180.5 Z"/></g>
<g><path style="opacity:1" fill="#726656" d="M 117.5,175.5 C 119.059,177.624 121.059,179.291 123.5,180.5C 123.188,184.159 121.522,185.825 118.5,185.5C 118.755,187.343 118.922,189.343 119,191.5C 120.577,193.076 121.744,194.909 122.5,197C 122.241,198.261 121.574,199.261 120.5,200C 128.159,200.5 135.826,200.666 143.5,200.5C 143.5,200.833 143.5,201.167 143.5,201.5C 129.5,201.5 115.5,201.5 101.5,201.5C 101.892,199.821 102.392,198.154 103,196.5C 106.497,192.177 109.997,187.844 113.5,183.5C 112.717,181.712 111.384,180.712 109.5,180.5C 108.833,180.167 108.167,179.833 107.5,179.5C 110.909,178.375 114.242,177.041 117.5,175.5 Z"/></g>
<g><path style="opacity:1" fill="#453338" d="M 205.5,178.5 C 206.485,180.506 207.818,182.173 209.5,183.5C 208.971,185.784 207.971,187.784 206.5,189.5C 205.473,185.623 203.473,182.29 200.5,179.5C 198.363,182.115 196.363,182.115 194.5,179.5C 197.646,177.384 200.979,177.384 204.5,179.5C 205.107,179.376 205.44,179.043 205.5,178.5 Z"/></g>
<g><path style="opacity:1" fill="#6b6c6a" d="M 271.5,197.5 C 271.414,198.496 271.748,199.329 272.5,200C 275.036,200.186 277.369,200.686 279.5,201.5C 263.833,201.5 248.167,201.5 232.5,201.5C 236.773,195.558 241.773,190.224 247.5,185.5C 248.873,185.657 250.207,185.49 251.5,185C 252.982,183.017 254.649,181.184 256.5,179.5C 259.988,181.798 260.322,184.465 257.5,187.5C 260.516,190.876 262.016,194.876 262,199.5C 262.807,195.551 263.307,195.551 263.5,199.5C 266.533,199.868 269.2,199.202 271.5,197.5 Z"/></g>
<g><path style="opacity:1" fill="#563d48" d="M 194.5,179.5 C 196.363,182.115 198.363,182.115 200.5,179.5C 203.473,182.29 205.473,185.623 206.5,189.5C 205.833,189.5 205.5,189.833 205.5,190.5C 204.738,192.262 203.404,193.262 201.5,193.5C 201.179,191.952 200.179,191.285 198.5,191.5C 198.768,189.901 198.434,188.568 197.5,187.5C 196.486,186.326 195.153,185.66 193.5,185.5C 192.833,184.167 192.167,182.833 191.5,181.5C 192.29,180.599 193.29,179.932 194.5,179.5 Z"/></g>
<g><path style="opacity:1" fill="#4e4c4f" d="M 26.5,181.5 C 31.8421,182.761 36.8421,184.761 41.5,187.5C 41.369,188.239 41.5357,188.906 42,189.5C 44.1313,190.615 45.9646,191.948 47.5,193.5C 42.456,193.173 37.456,193.506 32.5,194.5C 30.8795,196.739 31.2129,198.573 33.5,200C 24.1726,200.5 14.8393,200.666 5.5,200.5C 5.5,199.833 5.16667,199.5 4.5,199.5C 3.82926,192.703 6.99593,189.37 14,189.5C 16.141,190.112 18.141,190.112 20,189.5C 20.2602,191.618 21.2602,193.284 23,194.5C 23.3333,194.167 23.6667,193.833 24,193.5C 24.1922,195.577 24.6922,197.577 25.5,199.5C 26.2141,194.482 26.8808,189.482 27.5,184.5C 26.8728,183.583 26.5394,182.583 26.5,181.5 Z"/></g>
<g><path style="opacity:1" fill="#3e3530" d="M 73.5,179.5 C 70.082,180.639 66.7487,181.972 63.5,183.5C 60.8877,184.371 58.221,185.037 55.5,185.5C 55.5,186.5 55.5,187.5 55.5,188.5C 53.2532,188.915 51.0865,189.582 49,190.5C 46.1726,190.156 43.6726,189.156 41.5,187.5C 36.8421,184.761 31.8421,182.761 26.5,181.5C 24.4531,180.168 22.4531,178.835 20.5,177.5C 20.56,176.957 20.8933,176.624 21.5,176.5C 25.4197,179.123 29.753,180.623 34.5,181C 42.6297,188.616 50.9631,189.116 59.5,182.5C 65.5687,181.144 71.2354,178.81 76.5,175.5C 76.8333,175.667 77.1667,175.833 77.5,176C 76.2695,177.405 74.9361,178.571 73.5,179.5 Z"/></g>
<g><path style="opacity:1" fill="#766a69" d="M 161.5,160.5 C 162.833,160.833 164.167,161.167 165.5,161.5C 165.5,162.167 165.5,162.833 165.5,163.5C 164.925,167.523 164.259,171.523 163.5,175.5C 163.5,177.5 163.5,179.5 163.5,181.5C 162.011,185.236 161.344,189.236 161.5,193.5C 156.525,192.463 151.858,190.796 147.5,188.5C 152.399,188.877 156.566,187.877 160,185.5C 160.501,180.492 161.001,175.492 161.5,170.5C 161.5,167.5 161.5,164.5 161.5,161.5C 161.5,161.167 161.5,160.833 161.5,160.5 Z"/></g>
<g><path style="opacity:1" fill="#69655f" d="M 277.5,166.5 C 273.2,166.815 271.533,169.149 272.5,173.5C 268.657,173.987 267.324,175.987 268.5,179.5C 270.297,176.904 271.631,177.237 272.5,180.5C 271.546,186.104 271.212,191.771 271.5,197.5C 269.2,199.202 266.533,199.868 263.5,199.5C 263.307,195.551 262.807,195.551 262,199.5C 262.016,194.876 260.516,190.876 257.5,187.5C 260.322,184.465 259.988,181.798 256.5,179.5C 254.649,181.184 252.982,183.017 251.5,185C 250.207,185.49 248.873,185.657 247.5,185.5C 251.183,182.815 254.183,179.482 256.5,175.5C 258.679,174.897 260.846,174.23 263,173.5C 263.333,173.833 263.667,174.167 264,174.5C 265.802,173.211 266.969,171.544 267.5,169.5C 268.514,168.326 269.847,167.66 271.5,167.5C 273.362,165.525 275.362,165.192 277.5,166.5 Z"/></g>
<g><path style="opacity:1" fill="#47393c" d="M 172.5,185.5 C 168.815,188.191 165.148,190.858 161.5,193.5C 161.344,189.236 162.011,185.236 163.5,181.5C 163.281,182.675 163.614,183.675 164.5,184.5C 165.795,183.902 167.128,183.402 168.5,183C 170.789,181.312 172.123,179.479 172.5,177.5C 172.949,180.044 172.949,182.71 172.5,185.5 Z"/></g>
<g><path style="opacity:1" fill="#565659" d="M 19.5,177.5 C 19.8333,177.5 20.1667,177.5 20.5,177.5C 22.4531,178.835 24.4531,180.168 26.5,181.5C 26.5394,182.583 26.8728,183.583 27.5,184.5C 26.8808,189.482 26.2141,194.482 25.5,199.5C 24.6922,197.577 24.1922,195.577 24,193.5C 23.6667,193.833 23.3333,194.167 23,194.5C 21.2602,193.284 20.2602,191.618 20,189.5C 18.141,190.112 16.141,190.112 14,189.5C 6.99593,189.37 3.82926,192.703 4.5,199.5C 3.18162,196.435 3.18162,193.269 4.5,190C 11.1653,188.453 17.832,186.953 24.5,185.5C 22.3107,183.113 20.6441,180.447 19.5,177.5 Z"/></g>
<g><path style="opacity:1" fill="#6a574d" d="M 123.5,180.5 C 128.671,181.933 133.671,183.599 138.5,185.5C 140.031,186.925 139.698,187.591 137.5,187.5C 136.107,186.74 134.607,186.074 133,185.5C 130.75,186.62 128.917,188.286 127.5,190.5C 130.434,194.47 134.434,196.636 139.5,197C 141.027,198.032 142.36,199.199 143.5,200.5C 135.826,200.666 128.159,200.5 120.5,200C 121.574,199.261 122.241,198.261 122.5,197C 121.744,194.909 120.577,193.076 119,191.5C 118.922,189.343 118.755,187.343 118.5,185.5C 121.522,185.825 123.188,184.159 123.5,180.5 Z"/></g>
<g><path style="opacity:1" fill="#564741" d="M 138.5,185.5 C 141.41,186.647 144.41,187.647 147.5,188.5C 151.858,190.796 156.525,192.463 161.5,193.5C 161.158,194.338 160.492,194.672 159.5,194.5C 156.161,194.11 152.827,193.61 149.5,193C 147.065,191.285 144.398,190.118 141.5,189.5C 140.167,188.833 138.833,188.167 137.5,187.5C 139.698,187.591 140.031,186.925 138.5,185.5 Z"/></g>
<g><path style="opacity:1" fill="#47433d" d="M 63.5,183.5 C 62.0021,187.307 61.0021,191.307 60.5,195.5C 61.5,195.5 62.5,195.5 63.5,195.5C 65.5805,196.727 67.5805,198.227 69.5,200C 67.5273,200.495 65.5273,200.662 63.5,200.5C 62.3785,197.895 60.0452,195.728 56.5,194C 53.3348,194.367 50.3348,194.201 47.5,193.5C 45.9646,191.948 44.1313,190.615 42,189.5C 41.5357,188.906 41.369,188.239 41.5,187.5C 43.6726,189.156 46.1726,190.156 49,190.5C 51.0865,189.582 53.2532,188.915 55.5,188.5C 55.5,187.5 55.5,186.5 55.5,185.5C 58.221,185.037 60.8877,184.371 63.5,183.5 Z"/></g>
<g><path style="opacity:1" fill="#5d5444" d="M 225.5,181.5 C 226.167,181.5 226.833,181.5 227.5,181.5C 228.263,182.268 229.263,182.768 230.5,183C 228.698,184.827 226.532,185.994 224,186.5C 223.223,189.429 223.39,192.263 224.5,195C 223.014,198.398 220.681,199.565 217.5,198.5C 211.553,199.66 205.553,200.327 199.5,200.5C 197.241,198.796 197.907,197.796 201.5,197.5C 204.226,197.736 206.559,196.903 208.5,195C 210.05,191.554 212.717,189.554 216.5,189C 219.152,185.826 222.152,183.326 225.5,181.5 Z"/></g>
<g><path style="opacity:1" fill="#61584c" d="M 239.5,165.5 C 236.541,165.777 235.874,167.11 237.5,169.5C 236.57,171.606 235.404,173.606 234,175.5C 233.505,177.473 233.338,179.473 233.5,181.5C 238.314,179.998 242.981,180.331 247.5,182.5C 241.666,185.316 236.333,188.983 231.5,193.5C 227.637,194.694 224.637,197.027 222.5,200.5C 214.193,201.498 205.86,201.831 197.5,201.5C 197.842,200.662 198.508,200.328 199.5,200.5C 205.553,200.327 211.553,199.66 217.5,198.5C 220.681,199.565 223.014,198.398 224.5,195C 223.39,192.263 223.223,189.429 224,186.5C 226.532,185.994 228.698,184.827 230.5,183C 229.263,182.768 228.263,182.268 227.5,181.5C 228.138,179.54 228.138,177.707 227.5,176C 228.919,174.115 230.919,172.115 233.5,170C 234.424,168.85 234.424,167.85 233.5,167C 235.01,166.15 236.51,165.317 238,164.5C 238.765,164.57 239.265,164.903 239.5,165.5 Z"/></g>
<g><path style="opacity:1" fill="#766564" d="M 205.5,190.5 C 206.497,190.47 207.164,190.97 207.5,192C 206.23,193.775 204.564,194.942 202.5,195.5C 201.508,195.672 200.842,195.338 200.5,194.5C 200.5,193.833 200.833,193.5 201.5,193.5C 203.404,193.262 204.738,192.262 205.5,190.5 Z"/></g>
<g><path style="opacity:1" fill="#5a5b5c" d="M 47.5,193.5 C 50.3348,194.201 53.3348,194.367 56.5,194C 60.0452,195.728 62.3785,197.895 63.5,200.5C 63.5,200.833 63.5,201.167 63.5,201.5C 44.1667,201.5 24.8333,201.5 5.5,201.5C 5.5,201.167 5.5,200.833 5.5,200.5C 14.8393,200.666 24.1726,200.5 33.5,200C 31.2129,198.573 30.8795,196.739 32.5,194.5C 37.456,193.506 42.456,193.173 47.5,193.5 Z"/></g>
<g><path style="opacity:1" fill="#493231" d="M 193.5,185.5 C 195.153,185.66 196.486,186.326 197.5,187.5C 196.775,189.785 195.442,191.618 193.5,193C 183.191,195.328 172.857,197.494 162.5,199.5C 154.045,198.951 146.045,196.618 138.5,192.5C 137.614,191.675 137.281,190.675 137.5,189.5C 138.833,189.5 140.167,189.5 141.5,189.5C 144.398,190.118 147.065,191.285 149.5,193C 152.827,193.61 156.161,194.11 159.5,194.5C 158.909,195.151 158.243,195.818 157.5,196.5C 157.833,196.833 158.167,197.167 158.5,197.5C 164.085,197.61 169.752,196.943 175.5,195.5C 175.5,194.5 175.5,193.5 175.5,192.5C 182.203,191.715 188.203,189.382 193.5,185.5 Z"/></g>
<g><path style="opacity:1" fill="#56403d" d="M 137.5,187.5 C 138.833,188.167 140.167,188.833 141.5,189.5C 140.167,189.5 138.833,189.5 137.5,189.5C 137.281,190.675 137.614,191.675 138.5,192.5C 146.045,196.618 154.045,198.951 162.5,199.5C 172.857,197.494 183.191,195.328 193.5,193C 195.442,191.618 196.775,189.785 197.5,187.5C 198.434,188.568 198.768,189.901 198.5,191.5C 200.179,191.285 201.179,191.952 201.5,193.5C 200.833,193.5 200.5,193.833 200.5,194.5C 199.417,194.461 198.417,194.127 197.5,193.5C 194.527,194.986 191.527,196.486 188.5,198C 188.833,198.333 189.167,198.667 189.5,199C 180.643,199.415 171.976,200.248 163.5,201.5C 156.833,201.5 150.167,201.5 143.5,201.5C 143.5,201.167 143.5,200.833 143.5,200.5C 142.36,199.199 141.027,198.032 139.5,197C 134.434,196.636 130.434,194.47 127.5,190.5C 128.917,188.286 130.75,186.62 133,185.5C 134.607,186.074 136.107,186.74 137.5,187.5 Z"/></g>
<g><path style="opacity:1" fill="#4a483d" d="M 256.5,175.5 C 254.183,179.482 251.183,182.815 247.5,185.5C 241.773,190.224 236.773,195.558 232.5,201.5C 230.396,201.799 228.396,201.466 226.5,200.5C 228.986,198.557 231.319,196.391 233.5,194C 232.906,193.536 232.239,193.369 231.5,193.5C 236.333,188.983 241.666,185.316 247.5,182.5C 250.301,179.88 253.301,177.547 256.5,175.5 Z"/></g>
<g><path style="opacity:1" fill="#5c5046" d="M 200.5,194.5 C 200.842,195.338 201.508,195.672 202.5,195.5C 202.167,196.167 201.833,196.833 201.5,197.5C 197.907,197.796 197.241,198.796 199.5,200.5C 198.508,200.328 197.842,200.662 197.5,201.5C 186.167,201.5 174.833,201.5 163.5,201.5C 171.976,200.248 180.643,199.415 189.5,199C 189.167,198.667 188.833,198.333 188.5,198C 191.527,196.486 194.527,194.986 197.5,193.5C 198.417,194.127 199.417,194.461 200.5,194.5 Z"/></g>
<g><path style="opacity:1" fill="#302b27" d="M 231.5,193.5 C 232.239,193.369 232.906,193.536 233.5,194C 231.319,196.391 228.986,198.557 226.5,200.5C 228.396,201.466 230.396,201.799 232.5,201.5C 248.167,201.5 263.833,201.5 279.5,201.5C 284.167,201.5 288.833,201.5 293.5,201.5C 293.5,201.833 293.5,202.167 293.5,202.5C 195.5,202.5 97.5,202.5 -0.5,202.5C -0.5,202.167 -0.5,201.833 -0.5,201.5C 1.5,201.5 3.5,201.5 5.5,201.5C 24.8333,201.5 44.1667,201.5 63.5,201.5C 76.1667,201.5 88.8333,201.5 101.5,201.5C 115.5,201.5 129.5,201.5 143.5,201.5C 150.167,201.5 156.833,201.5 163.5,201.5C 174.833,201.5 186.167,201.5 197.5,201.5C 205.86,201.831 214.193,201.498 222.5,200.5C 224.637,197.027 227.637,194.694 231.5,193.5 Z"/></g>
<g><path style="opacity:1" fill="#000000" d="M -0.5,202.5 C 97.5,202.5 195.5,202.5 293.5,202.5C 293.5,214.833 293.5,227.167 293.5,239.5C 195.5,239.5 97.5,239.5 -0.5,239.5C -0.5,227.167 -0.5,214.833 -0.5,202.5 Z"/></g>
</svg>
