<?xml version="1.0" encoding="UTF-8"?>
<!DOCTYPE svg PUBLIC "-//W3C//DTD SVG 1.1//EN" "http://www.w3.org/Graphics/SVG/1.1/DTD/svg11.dtd">
<svg xmlns="http://www.w3.org/2000/svg" version="1.1" width="294px" height="240px" style="shape-rendering:geometricPrecision; text-rendering:geometricPrecision; image-rendering:optimizeQuality; fill-rule:evenodd; clip-rule:evenodd" xmlns:xlink="http://www.w3.org/1999/xlink">
<g><path style="opacity:1" fill="#000000" d="M -0.5,-0.5 C 97.5,-0.5 195.5,-0.5 293.5,-0.5C 293.5,11.8333 293.5,24.1667 293.5,36.5C 195.5,36.5 97.5,36.5 -0.5,36.5C -0.5,24.1667 -0.5,11.8333 -0.5,-0.5 Z"/></g>
<g><path style="opacity:1" fill="#b697a6" d="M 177.5,37.5 C 192.833,37.5 208.167,37.5 223.5,37.5C 217.964,38.207 212.298,38.8737 206.5,39.5C 205.167,40.1667 205.167,40.8333 206.5,41.5C 208.333,42.0521 210,42.8855 211.5,44C 210.584,44.2784 209.918,44.7784 209.5,45.5C 208.833,45.5 208.167,45.5 207.5,45.5C 206.652,43.9069 205.319,42.7403 203.5,42C 194.736,41.5897 186.069,40.7563 177.5,39.5C 177.5,38.8333 177.5,38.1667 177.5,37.5 Z"/></g>
<g><path style="opacity:1" fill="#dde3e3" d="M 235.5,37.5 C 245.833,37.5 256.167,37.5 266.5,37.5C 268.635,39.369 271.302,40.0356 274.5,39.5C 274.799,41.604 274.466,43.604 273.5,45.5C 271.556,44.8108 269.556,44.3108 267.5,44C 268.833,43.6667 270.167,43.3333 271.5,43C 265.602,41.312 259.602,40.1454 253.5,39.5C 251.36,39.5561 249.694,40.2227 248.5,41.5C 248.611,42.1174 248.944,42.6174 249.5,43C 247.645,43.4221 245.811,43.9221 244,44.5C 243.333,43.8333 242.667,43.1667 242,42.5C 240.56,43.1476 239.06,43.4809 237.5,43.5C 237.741,41.1137 237.075,39.1137 235.5,37.5 Z"/></g>
<g><path style="opacity:1" fill="#94948d" d="M -0.5,38.5 C -0.5,38.1667 -0.5,37.8333 -0.5,37.5C 7.1739,37.3336 14.8406,37.5003 22.5,38C 21.4711,39.6984 19.9711,40.5317 18,40.5C 16,39.8333 14,39.1667 12,38.5C 7.84975,39.5065 3.68308,39.5065 -0.5,38.5 Z"/></g>
<g><path style="opacity:1" fill="#a8adad" d="M 63.5,37.5 C 68.3165,38.3261 73.3165,38.8261 78.5,39C 75.1667,39.3333 71.8333,39.6667 68.5,40C 68.8333,40.3333 69.1667,40.6667 69.5,41C 54.1206,40.6296 38.9539,42.1296 24,45.5C 20.0759,43.4058 15.9092,42.0725 11.5,41.5C 18.9934,42.3815 25.9934,41.2148 32.5,38C 42.828,37.5002 53.1613,37.3335 63.5,37.5 Z"/></g>
<g><path style="opacity:1" fill="#969998" d="M 101.5,37.5 C 112.5,37.5 123.5,37.5 134.5,37.5C 134.817,41.7016 134.483,45.7016 133.5,49.5C 133.665,46.1501 133.498,42.8168 133,39.5C 131.421,48.9707 131.255,58.3041 132.5,67.5C 132.5,68.8333 132.5,70.1667 132.5,71.5C 132.5,71.8333 132.5,72.1667 132.5,72.5C 131.178,72.67 130.011,72.3366 129,71.5C 127.188,72.9771 125.355,74.3104 123.5,75.5C 121.5,76.1667 119.5,76.8333 117.5,77.5C 114.833,77.5 112.167,77.5 109.5,77.5C 109.136,72.1083 107.136,67.4416 103.5,63.5C 102.538,54.8522 101.872,46.1856 101.5,37.5 Z"/></g>
<g><path style="opacity:1" fill="#666564" d="M -0.5,37.5 C -0.5,37.1667 -0.5,36.8333 -0.5,36.5C 97.5,36.5 195.5,36.5 293.5,36.5C 293.5,36.8333 293.5,37.1667 293.5,37.5C 290.833,37.5 288.167,37.5 285.5,37.5C 284.833,37.5 284.167,37.5 283.5,37.5C 282.833,37.5 282.167,37.5 281.5,37.5C 280.833,37.5 280.167,37.5 279.5,37.5C 279.167,37.5 278.833,37.5 278.5,37.5C 278.167,37.5 277.833,37.5 277.5,37.5C 273.833,37.5 270.167,37.5 266.5,37.5C 256.167,37.5 245.833,37.5 235.5,37.5C 233.5,37.5 231.5,37.5 229.5,37.5C 227.5,37.5 225.5,37.5 223.5,37.5C 208.167,37.5 192.833,37.5 177.5,37.5C 168.833,37.5 160.167,37.5 151.5,37.5C 149.833,37.5 148.167,37.5 146.5,37.5C 142.5,37.5 138.5,37.5 134.5,37.5C 123.5,37.5 112.5,37.5 101.5,37.5C 95.8333,37.5 90.1667,37.5 84.5,37.5C 77.5,37.5 70.5,37.5 63.5,37.5C 53.1613,37.3335 42.828,37.5002 32.5,38C 25.9934,41.2148 18.9934,42.3815 11.5,41.5C 7.5,41.1667 3.5,40.8333 -0.5,40.5C -0.5,39.8333 -0.5,39.1667 -0.5,38.5C 3.68308,39.5065 7.84975,39.5065 12,38.5C 14,39.1667 16,39.8333 18,40.5C 19.9711,40.5317 21.4711,39.6984 22.5,38C 14.8406,37.5003 7.1739,37.3336 -0.5,37.5 Z"/></g>
<g><path style="opacity:1" fill="#dcdad0" d="M 151.5,37.5 C 160.167,37.5 168.833,37.5 177.5,37.5C 177.5,38.1667 177.5,38.8333 177.5,39.5C 180.402,40.6057 183.402,41.7724 186.5,43C 190.951,43.1298 195.284,43.7964 199.5,45C 197.227,46.6754 194.727,47.842 192,48.5C 191.667,48.1667 191.333,47.8333 191,47.5C 189.812,48.5634 189.312,49.8967 189.5,51.5C 181.73,54.871 173.73,57.871 165.5,60.5C 164.883,60.3893 164.383,60.056 164,59.5C 163.934,55.7486 163.101,52.2486 161.5,49C 158.314,44.9844 154.98,41.1511 151.5,37.5 Z"/></g>
<g><path style="opacity:1" fill="#9c808f" d="M 223.5,37.5 C 225.5,37.5 227.5,37.5 229.5,37.5C 230.5,38.1667 231.5,38.8333 232.5,39.5C 231.29,39.9321 230.29,40.5987 229.5,41.5C 222.719,42.7233 216.052,44.3899 209.5,46.5C 209.5,46.1667 209.5,45.8333 209.5,45.5C 209.918,44.7784 210.584,44.2784 211.5,44C 210,42.8855 208.333,42.0521 206.5,41.5C 205.167,40.8333 205.167,40.1667 206.5,39.5C 212.298,38.8737 217.964,38.207 223.5,37.5 Z"/></g>
<g><path style="opacity:1" fill="#8f776b" d="M 279.5,37.5 C 280.167,37.5 280.833,37.5 281.5,37.5C 280.945,41.0122 281.612,44.0122 283.5,46.5C 284.833,46.1667 286.167,45.8333 287.5,45.5C 289.59,44.2092 290.924,44.8758 291.5,47.5C 289.965,46.6457 288.632,46.6457 287.5,47.5C 285.632,48.2632 283.965,49.2632 282.5,50.5C 281.042,54.2734 280.542,58.2734 281,62.5C 281.995,61.9341 282.828,61.2674 283.5,60.5C 285.23,59.9744 286.564,58.9744 287.5,57.5C 288.5,57.5 289.5,57.5 290.5,57.5C 290.66,59.1992 290.494,60.8659 290,62.5C 289.329,61.7476 288.496,61.4142 287.5,61.5C 285.072,63.0435 282.406,64.0435 279.5,64.5C 279.5,55.5 279.5,46.5 279.5,37.5 Z"/></g>
<g><path style="opacity:1" fill="#b2b1c1" d="M 283.5,37.5 C 284.167,37.5 284.833,37.5 285.5,37.5C 286.445,38.9928 287.445,40.4928 288.5,42C 288.011,43.1385 287.678,44.3052 287.5,45.5C 286.167,45.8333 284.833,46.1667 283.5,46.5C 283.5,43.5 283.5,40.5 283.5,37.5 Z"/></g>
<g><path style="opacity:1" fill="#7f7878" d="M 133.5,49.5 C 132.835,55.477 132.502,61.477 132.5,67.5C 131.255,58.3041 131.421,48.9707 133,39.5C 133.498,42.8168 133.665,46.1501 133.5,49.5 Z"/></g>
<g><path style="opacity:1" fill="#d2c4c3" d="M 177.5,39.5 C 186.069,40.7563 194.736,41.5897 203.5,42C 205.319,42.7403 206.652,43.9069 207.5,45.5C 201.514,47.7175 195.514,49.7175 189.5,51.5C 189.312,49.8967 189.812,48.5634 191,47.5C 191.333,47.8333 191.667,48.1667 192,48.5C 194.727,47.842 197.227,46.6754 199.5,45C 195.284,43.7964 190.951,43.1298 186.5,43C 183.402,41.7724 180.402,40.6057 177.5,39.5 Z"/></g>
<g><path style="opacity:1" fill="#e4d8cb" d="M 281.5,37.5 C 282.167,37.5 282.833,37.5 283.5,37.5C 283.5,40.5 283.5,43.5 283.5,46.5C 281.612,44.0122 280.945,41.0122 281.5,37.5 Z"/></g>
<g><path style="opacity:1" fill="#adaba3" d="M 285.5,37.5 C 288.167,37.5 290.833,37.5 293.5,37.5C 293.5,40.8333 293.5,44.1667 293.5,47.5C 292.833,47.5 292.167,47.5 291.5,47.5C 290.924,44.8758 289.59,44.2092 287.5,45.5C 287.678,44.3052 288.011,43.1385 288.5,42C 287.445,40.4928 286.445,38.9928 285.5,37.5 Z"/></g>
<g><path style="opacity:1" fill="#b5bcbb" d="M 63.5,37.5 C 70.5,37.5 77.5,37.5 84.5,37.5C 84.5,38.1667 84.5,38.8333 84.5,39.5C 81.4471,41.2406 78.4471,43.0739 75.5,45C 71.7894,45.8443 68.1228,46.8443 64.5,48C 63.8742,48.7504 63.3742,49.5838 63,50.5C 58.9069,50.0226 54.5736,49.3559 50,48.5C 49.0546,48.9054 48.3879,49.572 48,50.5C 45.6667,49.8333 43.3333,49.1667 41,48.5C 36.1235,49.7376 31.2901,50.7376 26.5,51.5C 22.9179,50.2536 20.2512,47.9203 18.5,44.5C 12.2816,46.1019 5.94828,46.7686 -0.5,46.5C -0.5,44.5 -0.5,42.5 -0.5,40.5C 3.5,40.8333 7.5,41.1667 11.5,41.5C 15.9092,42.0725 20.0759,43.4058 24,45.5C 38.9539,42.1296 54.1206,40.6296 69.5,41C 69.1667,40.6667 68.8333,40.3333 68.5,40C 71.8333,39.6667 75.1667,39.3333 78.5,39C 73.3165,38.8261 68.3165,38.3261 63.5,37.5 Z"/></g>
<g><path style="opacity:1" fill="#b4b0a4" d="M 146.5,37.5 C 148.167,37.5 149.833,37.5 151.5,37.5C 154.98,41.1511 158.314,44.9844 161.5,49C 163.101,52.2486 163.934,55.7486 164,59.5C 164.383,60.056 164.883,60.3893 165.5,60.5C 164.167,61.5 162.833,62.5 161.5,63.5C 155.263,63.8022 149.263,65.1355 143.5,67.5C 142.862,60.7035 142.695,53.7035 143,46.5C 146.041,45.8137 148.375,44.147 150,41.5C 152.178,44.4685 153.344,44.1351 153.5,40.5C 151.801,40.6602 150.134,40.4935 148.5,40C 147.244,39.5831 146.577,38.7498 146.5,37.5 Z"/></g>
<g><path style="opacity:1" fill="#aba59c" d="M 134.5,37.5 C 138.5,37.5 142.5,37.5 146.5,37.5C 146.577,38.7498 147.244,39.5831 148.5,40C 150.134,40.4935 151.801,40.6602 153.5,40.5C 153.344,44.1351 152.178,44.4685 150,41.5C 148.375,44.147 146.041,45.8137 143,46.5C 142.695,53.7035 142.862,60.7035 143.5,67.5C 140.4,70.2095 136.733,71.5429 132.5,71.5C 132.5,70.1667 132.5,68.8333 132.5,67.5C 132.502,61.477 132.835,55.477 133.5,49.5C 134.483,45.7016 134.817,41.7016 134.5,37.5 Z"/></g>
<g><path style="opacity:1" fill="#c1c9c9" d="M 266.5,37.5 C 270.167,37.5 273.833,37.5 277.5,37.5C 277.082,38.2216 276.416,38.7216 275.5,39C 275.582,47.683 275.582,56.5163 275.5,65.5C 273.883,66.5893 273.05,68.256 273,70.5C 271.954,68.9095 270.787,67.4095 269.5,66C 269.957,65.586 270.291,65.086 270.5,64.5C 269.635,63.4173 268.635,63.2506 267.5,64C 266.123,66.3078 264.123,67.8078 261.5,68.5C 260.534,70.396 260.201,72.396 260.5,74.5C 257.345,74.9769 254.345,75.9769 251.5,77.5C 248.876,75.5557 246.209,73.5557 243.5,71.5C 242.833,71.6667 242.167,71.8333 241.5,72C 243.004,73.3369 244.004,75.0036 244.5,77C 241.833,77.1667 239.167,77.3333 236.5,77.5C 233.41,77.4783 230.743,76.8117 228.5,75.5C 229.265,72.9039 229.599,70.2372 229.5,67.5C 231.625,61.54 233.625,55.54 235.5,49.5C 235.303,53.8179 235.303,57.9845 235.5,62C 239.418,61.9176 243.418,61.9176 247.5,62C 245.779,60.4728 243.779,59.4728 241.5,59C 244.507,58.6987 247.507,58.8654 250.5,59.5C 250.66,57.8008 250.494,56.1341 250,54.5C 249.346,55.6956 248.846,55.6956 248.5,54.5C 249.751,53.3689 250.751,52.0356 251.5,50.5C 251.392,49.5581 251.059,48.7247 250.5,48C 252.167,47.6667 253.833,47.3333 255.5,47C 253.423,46.8078 251.423,46.3078 249.5,45.5C 254.798,44.9916 260.131,44.8249 265.5,45C 262.284,44.3727 259.117,43.5393 256,42.5C 254.439,42.6032 252.939,42.9366 251.5,43.5C 250.735,42.3881 249.735,41.7214 248.5,41.5C 249.694,40.2227 251.36,39.5561 253.5,39.5C 259.602,40.1454 265.602,41.312 271.5,43C 270.167,43.3333 268.833,43.6667 267.5,44C 269.556,44.3108 271.556,44.8108 273.5,45.5C 274.466,43.604 274.799,41.604 274.5,39.5C 271.302,40.0356 268.635,39.369 266.5,37.5 Z"/></g>
<g><path style="opacity:1" fill="#adb1ac" d="M 84.5,37.5 C 90.1667,37.5 95.8333,37.5 101.5,37.5C 101.872,46.1856 102.538,54.8522 103.5,63.5C 107.136,67.4416 109.136,72.1083 109.5,77.5C 112.167,77.5 114.833,77.5 117.5,77.5C 109.594,81.5766 101.261,84.9099 92.5,87.5C 91.8806,81.8297 91.2139,76.1631 90.5,70.5C 82.1932,69.5021 73.8599,69.1688 65.5,69.5C 72.9818,68.508 80.6484,68.1746 88.5,68.5C 88.6663,61.825 88.4996,55.1583 88,48.5C 87.3434,45.092 86.1767,42.092 84.5,39.5C 84.5,38.8333 84.5,38.1667 84.5,37.5 Z"/></g>
<g><path style="opacity:1" fill="#6d5e64" d="M 232.5,39.5 C 236.582,41.8171 237.582,45.1505 235.5,49.5C 233.625,55.54 231.625,61.54 229.5,67.5C 229.762,66.0222 229.429,64.6888 228.5,63.5C 216.217,64.4801 203.884,64.8134 191.5,64.5C 193.607,63.5318 195.941,63.1984 198.5,63.5C 198.78,60.6118 197.447,59.1118 194.5,59C 197.345,57.6371 199.678,55.8037 201.5,53.5C 208.762,51.2476 216.095,49.0809 223.5,47C 226.043,45.6181 228.043,43.7848 229.5,41.5C 230.29,40.5987 231.29,39.9321 232.5,39.5 Z"/></g>
<g><path style="opacity:1" fill="#cad2d2" d="M 229.5,37.5 C 231.5,37.5 233.5,37.5 235.5,37.5C 237.075,39.1137 237.741,41.1137 237.5,43.5C 239.06,43.4809 240.56,43.1476 242,42.5C 242.667,43.1667 243.333,43.8333 244,44.5C 245.811,43.9221 247.645,43.4221 249.5,43C 248.944,42.6174 248.611,42.1174 248.5,41.5C 249.735,41.7214 250.735,42.3881 251.5,43.5C 252.939,42.9366 254.439,42.6032 256,42.5C 259.117,43.5393 262.284,44.3727 265.5,45C 260.131,44.8249 254.798,44.9916 249.5,45.5C 251.423,46.3078 253.423,46.8078 255.5,47C 253.833,47.3333 252.167,47.6667 250.5,48C 251.059,48.7247 251.392,49.5581 251.5,50.5C 250.751,52.0356 249.751,53.3689 248.5,54.5C 248.846,55.6956 249.346,55.6956 250,54.5C 250.494,56.1341 250.66,57.8008 250.5,59.5C 247.507,58.8654 244.507,58.6987 241.5,59C 243.779,59.4728 245.779,60.4728 247.5,62C 243.418,61.9176 239.418,61.9176 235.5,62C 235.303,57.9845 235.303,53.8179 235.5,49.5C 237.582,45.1505 236.582,41.8171 232.5,39.5C 231.5,38.8333 230.5,38.1667 229.5,37.5 Z"/></g>
<g><path style="opacity:1" fill="#8d727d" d="M 229.5,41.5 C 228.043,43.7848 226.043,45.6181 223.5,47C 216.095,49.0809 208.762,51.2476 201.5,53.5C 199.284,53.2746 197.617,54.1079 196.5,56C 192.886,56.9358 189.22,57.4358 185.5,57.5C 193.058,52.8563 201.058,49.1896 209.5,46.5C 216.052,44.3899 222.719,42.7233 229.5,41.5 Z"/></g>
<g><path style="opacity:1" fill="#9b9ea4" d="M 287.5,47.5 C 288.632,46.6457 289.965,46.6457 291.5,47.5C 292.167,47.5 292.833,47.5 293.5,47.5C 293.5,48.1667 293.5,48.8333 293.5,49.5C 291.558,54.0557 290.892,59.0557 291.5,64.5C 290.5,64.5 289.5,64.5 288.5,64.5C 288.443,63.391 288.11,62.391 287.5,61.5C 288.496,61.4142 289.329,61.7476 290,62.5C 290.494,60.8659 290.66,59.1992 290.5,57.5C 289.5,57.5 288.5,57.5 287.5,57.5C 287.657,56.1266 287.49,54.7932 287,53.5C 285.869,54.6039 285.035,54.2705 284.5,52.5C 286.328,51.2048 288.328,50.2048 290.5,49.5C 289.643,48.5748 288.643,47.9081 287.5,47.5 Z"/></g>
<g><path style="opacity:1" fill="#bec8c6" d="M 84.5,39.5 C 86.1767,42.092 87.3434,45.092 88,48.5C 88.4996,55.1583 88.6663,61.825 88.5,68.5C 80.6484,68.1746 72.9818,68.508 65.5,69.5C 61.1667,69.5 56.8333,69.5 52.5,69.5C 54.9686,68.6829 57.6353,68.1829 60.5,68C 59.552,67.5172 58.552,67.3505 57.5,67.5C 56.8333,62.1667 56.1667,62.1667 55.5,67.5C 52.1667,67.8333 48.8333,68.1667 45.5,68.5C 45.5,69.5 45.5,70.5 45.5,71.5C 43.5,71.5 41.5,71.5 39.5,71.5C 39.5,69.5 39.5,67.5 39.5,65.5C 41.9294,65.1156 44.2627,64.449 46.5,63.5C 46.5086,61.6916 46.0086,60.0249 45,58.5C 40.845,58.19 36.6784,58.19 32.5,58.5C 32.719,57.325 32.3857,56.325 31.5,55.5C 28.3673,56.5198 25.534,56.5198 23,55.5C 22.4111,49.5377 19.7445,48.2044 15,51.5C 13.1509,50.4392 11.1509,49.7725 9,49.5C 5.87524,50.256 2.70858,50.5893 -0.5,50.5C -0.5,49.1667 -0.5,47.8333 -0.5,46.5C 5.94828,46.7686 12.2816,46.1019 18.5,44.5C 20.2512,47.9203 22.9179,50.2536 26.5,51.5C 31.2901,50.7376 36.1235,49.7376 41,48.5C 43.3333,49.1667 45.6667,49.8333 48,50.5C 48.3879,49.572 49.0546,48.9054 50,48.5C 54.5736,49.3559 58.9069,50.0226 63,50.5C 63.3742,49.5838 63.8742,48.7504 64.5,48C 68.1228,46.8443 71.7894,45.8443 75.5,45C 78.4471,43.0739 81.4471,41.2406 84.5,39.5 Z"/></g>
<g><path style="opacity:1" fill="#c9bcc5" d="M 277.5,37.5 C 277.833,37.5 278.167,37.5 278.5,37.5C 278.5,39.8333 278.5,42.1667 278.5,44.5C 277.884,53.5383 276.884,62.5383 275.5,71.5C 275.5,69.5 275.5,67.5 275.5,65.5C 275.582,56.5163 275.582,47.683 275.5,39C 276.416,38.7216 277.082,38.2216 277.5,37.5 Z"/></g>
<g><path style="opacity:1" fill="#b9bcc5" d="M 287.5,47.5 C 288.643,47.9081 289.643,48.5748 290.5,49.5C 288.328,50.2048 286.328,51.2048 284.5,52.5C 285.035,54.2705 285.869,54.6039 287,53.5C 287.49,54.7932 287.657,56.1266 287.5,57.5C 286.564,58.9744 285.23,59.9744 283.5,60.5C 283.813,56.9581 283.479,53.6248 282.5,50.5C 283.965,49.2632 285.632,48.2632 287.5,47.5 Z"/></g>
<g><path style="opacity:1" fill="#a78e96" d="M 207.5,45.5 C 208.167,45.5 208.833,45.5 209.5,45.5C 209.5,45.8333 209.5,46.1667 209.5,46.5C 201.058,49.1896 193.058,52.8563 185.5,57.5C 182.006,58.9307 178.339,59.764 174.5,60C 171.589,61.2218 169.256,63.0552 167.5,65.5C 166.833,65.5 166.167,65.5 165.5,65.5C 164.713,63.8958 163.38,63.2291 161.5,63.5C 162.833,62.5 164.167,61.5 165.5,60.5C 173.73,57.871 181.73,54.871 189.5,51.5C 195.514,49.7175 201.514,47.7175 207.5,45.5 Z"/></g>
<g><path style="opacity:1" fill="#c9cbc4" d="M 282.5,50.5 C 283.479,53.6248 283.813,56.9581 283.5,60.5C 282.828,61.2674 281.995,61.9341 281,62.5C 280.542,58.2734 281.042,54.2734 282.5,50.5 Z"/></g>
<g><path style="opacity:1" fill="#c4cccc" d="M 52.5,69.5 C 51.1266,69.3433 49.7932,69.51 48.5,70C 46.1667,72.5 43.8333,75 41.5,77.5C 37.2844,80.1597 33.2844,82.8264 29.5,85.5C 28.5,85.5 27.5,85.5 26.5,85.5C 26.5,87.5 26.5,89.5 26.5,91.5C 25.5,91.5 24.5,91.5 23.5,91.5C 25.0808,89.8583 25.7475,87.8583 25.5,85.5C 18.8109,84.7879 12.4776,82.9546 6.5,80C 4.19018,79.5034 1.85684,79.3367 -0.5,79.5C -0.5,69.8333 -0.5,60.1667 -0.5,50.5C 2.70858,50.5893 5.87524,50.256 9,49.5C 11.1509,49.7725 13.1509,50.4392 15,51.5C 19.7445,48.2044 22.4111,49.5377 23,55.5C 25.534,56.5198 28.3673,56.5198 31.5,55.5C 32.3857,56.325 32.719,57.325 32.5,58.5C 36.6784,58.19 40.845,58.19 45,58.5C 46.0086,60.0249 46.5086,61.6916 46.5,63.5C 44.2627,64.449 41.9294,65.1156 39.5,65.5C 39.5,67.5 39.5,69.5 39.5,71.5C 41.5,71.5 43.5,71.5 45.5,71.5C 45.5,70.5 45.5,69.5 45.5,68.5C 48.8333,68.1667 52.1667,67.8333 55.5,67.5C 56.1667,62.1667 56.8333,62.1667 57.5,67.5C 58.552,67.3505 59.552,67.5172 60.5,68C 57.6353,68.1829 54.9686,68.6829 52.5,69.5 Z"/></g>
<g><path style="opacity:1" fill="#b48990" d="M 278.5,44.5 C 278.664,56.2209 277.997,67.8876 276.5,79.5C 276.167,79.5 275.833,79.5 275.5,79.5C 275.5,76.8333 275.5,74.1667 275.5,71.5C 276.884,62.5383 277.884,53.5383 278.5,44.5 Z"/></g>
<g><path style="opacity:1" fill="#917281" d="M 185.5,57.5 C 185.719,58.675 185.386,59.675 184.5,60.5C 179.403,62.1992 174.403,63.8658 169.5,65.5C 169.167,65.5 168.833,65.5 168.5,65.5C 168.167,65.5 167.833,65.5 167.5,65.5C 169.256,63.0552 171.589,61.2218 174.5,60C 178.339,59.764 182.006,58.9307 185.5,57.5 Z"/></g>
<g><path style="opacity:1" fill="#765f6b" d="M 201.5,53.5 C 199.678,55.8037 197.345,57.6371 194.5,59C 197.447,59.1118 198.78,60.6118 198.5,63.5C 195.941,63.1984 193.607,63.5318 191.5,64.5C 184.151,64.5488 176.817,64.8822 169.5,65.5C 174.403,63.8658 179.403,62.1992 184.5,60.5C 185.386,59.675 185.719,58.675 185.5,57.5C 189.22,57.4358 192.886,56.9358 196.5,56C 197.617,54.1079 199.284,53.2746 201.5,53.5 Z"/></g>
<g><path style="opacity:1" fill="#5e4b50" d="M 229.5,67.5 C 229.599,70.2372 229.265,72.9039 228.5,75.5C 227.662,75.8417 227.328,76.5084 227.5,77.5C 225.714,76.446 223.381,76.446 220.5,77.5C 220.167,77.5 219.833,77.5 219.5,77.5C 219.082,76.7784 218.416,76.2784 217.5,76C 219.506,73.1787 220.839,70.0121 221.5,66.5C 204.812,66.9319 188.146,67.5985 171.5,68.5C 169.825,68.1316 168.825,67.1316 168.5,65.5C 168.833,65.5 169.167,65.5 169.5,65.5C 176.817,64.8822 184.151,64.5488 191.5,64.5C 203.884,64.8134 216.217,64.4801 228.5,63.5C 229.429,64.6888 229.762,66.0222 229.5,67.5 Z"/></g>
<g><path style="opacity:1" fill="#b8bdac" d="M 293.5,49.5 C 293.5,54.8333 293.5,60.1667 293.5,65.5C 292.508,65.6716 291.842,65.3382 291.5,64.5C 290.892,59.0557 291.558,54.0557 293.5,49.5 Z"/></g>
<g><path style="opacity:1" fill="#9a878a" d="M 165.5,65.5 C 165.389,66.1174 165.056,66.6174 164.5,67C 162.134,67.4396 159.801,67.9396 157.5,68.5C 157.5,67.5 157.5,66.5 157.5,65.5C 160.167,65.5 162.833,65.5 165.5,65.5 Z"/></g>
<g><path style="opacity:1" fill="#695759" d="M 167.5,65.5 C 167.833,65.5 168.167,65.5 168.5,65.5C 168.825,67.1316 169.825,68.1316 171.5,68.5C 188.146,67.5985 204.812,66.9319 221.5,66.5C 220.839,70.0121 219.506,73.1787 217.5,76C 218.416,76.2784 219.082,76.7784 219.5,77.5C 215.466,77.4955 211.466,77.1621 207.5,76.5C 207.703,74.6096 207.037,73.1096 205.5,72C 200.288,72.7617 195.288,72.595 190.5,71.5C 187.034,73.0668 183.701,74.9002 180.5,77C 177.182,77.1747 173.849,77.0081 170.5,76.5C 167.308,76.4488 164.308,77.1155 161.5,78.5C 162.162,76.5295 162.828,74.5295 163.5,72.5C 162.311,71.5713 160.978,71.238 159.5,71.5C 160.315,69.0924 161.981,68.2591 164.5,69C 163.353,70.2811 163.687,70.6144 165.5,70C 166.167,69.3333 166.833,68.6667 167.5,68C 166.402,67.2303 166.402,66.397 167.5,65.5 Z"/></g>
<g><path style="opacity:1" fill="#c6bcba" d="M 161.5,63.5 C 163.38,63.2291 164.713,63.8958 165.5,65.5C 162.833,65.5 160.167,65.5 157.5,65.5C 157.5,66.5 157.5,67.5 157.5,68.5C 155.801,68.3398 154.134,68.5065 152.5,69C 149.113,71.1846 145.446,72.6846 141.5,73.5C 138.951,73.3874 136.618,74.0541 134.5,75.5C 133.575,74.6431 132.908,73.6431 132.5,72.5C 132.5,72.1667 132.5,71.8333 132.5,71.5C 136.733,71.5429 140.4,70.2095 143.5,67.5C 149.263,65.1355 155.263,63.8022 161.5,63.5 Z"/></g>
<g><path style="opacity:1" fill="#b9c2bf" d="M 275.5,65.5 C 275.5,67.5 275.5,69.5 275.5,71.5C 275.5,74.1667 275.5,76.8333 275.5,79.5C 268.159,79.6663 260.826,79.4997 253.5,79C 252.584,78.7216 251.918,78.2216 251.5,77.5C 254.345,75.9769 257.345,74.9769 260.5,74.5C 260.201,72.396 260.534,70.396 261.5,68.5C 264.123,67.8078 266.123,66.3078 267.5,64C 268.635,63.2506 269.635,63.4173 270.5,64.5C 270.291,65.086 269.957,65.586 269.5,66C 270.787,67.4095 271.954,68.9095 273,70.5C 273.05,68.256 273.883,66.5893 275.5,65.5 Z"/></g>
<g><path style="opacity:1" fill="#926867" d="M 278.5,37.5 C 278.833,37.5 279.167,37.5 279.5,37.5C 279.5,46.5 279.5,55.5 279.5,64.5C 279.5,67.8333 279.5,71.1667 279.5,74.5C 279.5,76.1667 279.5,77.8333 279.5,79.5C 278.5,79.5 277.5,79.5 276.5,79.5C 277.997,67.8876 278.664,56.2209 278.5,44.5C 278.5,42.1667 278.5,39.8333 278.5,37.5 Z"/></g>
<g><path style="opacity:1" fill="#aca78f" d="M 287.5,61.5 C 288.11,62.391 288.443,63.391 288.5,64.5C 289.366,66.144 289.866,67.8107 290,69.5C 286.579,71.3918 283.079,73.0584 279.5,74.5C 279.5,71.1667 279.5,67.8333 279.5,64.5C 282.406,64.0435 285.072,63.0435 287.5,61.5 Z"/></g>
<g><path style="opacity:1" fill="#b0a6a4" d="M 132.5,72.5 C 132.908,73.6431 133.575,74.6431 134.5,75.5C 136.618,74.0541 138.951,73.3874 141.5,73.5C 140.665,74.9432 139.332,75.9432 137.5,76.5C 133.191,77.1533 129.191,78.6533 125.5,81C 121.535,82.0656 117.535,82.8989 113.5,83.5C 117.393,81.3357 121.393,79.169 125.5,77C 125.833,76.6667 126.167,76.3333 126.5,76C 125.552,75.5172 124.552,75.3505 123.5,75.5C 125.355,74.3104 127.188,72.9771 129,71.5C 130.011,72.3366 131.178,72.67 132.5,72.5 Z"/></g>
<g><path style="opacity:1" fill="#928d78" d="M 288.5,64.5 C 289.5,64.5 290.5,64.5 291.5,64.5C 291.842,65.3382 292.508,65.6716 293.5,65.5C 293.5,70.1667 293.5,74.8333 293.5,79.5C 291.167,79.5 288.833,79.5 286.5,79.5C 284.167,79.5 281.833,79.5 279.5,79.5C 279.5,77.8333 279.5,76.1667 279.5,74.5C 283.079,73.0584 286.579,71.3918 290,69.5C 289.866,67.8107 289.366,66.144 288.5,64.5 Z"/></g>
<g><path style="opacity:1" fill="#4c3941" d="M 159.5,71.5 C 160.978,71.238 162.311,71.5713 163.5,72.5C 162.828,74.5295 162.162,76.5295 161.5,78.5C 161.167,78.5 160.833,78.5 160.5,78.5C 157.539,78.4642 155.206,79.4642 153.5,81.5C 148.176,81.0565 142.843,81.7231 137.5,83.5C 137.5,84.8333 137.5,86.1667 137.5,87.5C 139.604,87.2011 141.604,87.5344 143.5,88.5C 134.167,89.1667 124.833,89.8333 115.5,90.5C 113.626,92.8164 111.96,95.1497 110.5,97.5C 110.167,97.5 109.833,97.5 109.5,97.5C 108.167,97.5 107.5,96.8333 107.5,95.5C 107.67,94.1779 107.337,93.0113 106.5,92C 111.16,92.5555 114.327,90.7221 116,86.5C 116.414,86.9574 116.914,87.2907 117.5,87.5C 123.372,84.5532 129.372,82.2198 135.5,80.5C 141.042,78.6747 146.375,76.0081 151.5,72.5C 154.086,71.52 156.753,71.1866 159.5,71.5 Z"/></g>
<g><path style="opacity:1" fill="#a5a6a7" d="M 52.5,69.5 C 56.8333,69.5 61.1667,69.5 65.5,69.5C 73.8599,69.1688 82.1932,69.5021 90.5,70.5C 91.2139,76.1631 91.8806,81.8297 92.5,87.5C 91.8288,88.8471 91.8288,90.0138 92.5,91C 94.8098,91.4966 97.1432,91.6633 99.5,91.5C 99.5,91.8333 99.5,92.1667 99.5,92.5C 93.14,95.7871 86.4734,97.9538 79.5,99C 77.9297,100.397 76.5964,101.897 75.5,103.5C 76.1667,101.167 76.8333,98.8333 77.5,96.5C 80.2706,96.5793 82.9373,96.0793 85.5,95C 84.8333,94.3333 84.1667,93.6667 83.5,93C 77.9816,91.7131 72.9816,92.7131 68.5,96C 62.7252,97.1024 57.3918,96.1024 52.5,93C 45.7142,92.2215 39.0475,90.8882 32.5,89C 30.5743,88.5776 29.5743,87.4109 29.5,85.5C 33.2844,82.8264 37.2844,80.1597 41.5,77.5C 43.8333,75 46.1667,72.5 48.5,70C 49.7932,69.51 51.1266,69.3433 52.5,69.5 Z"/></g>
<g><path style="opacity:1" fill="#776b69" d="M 219.5,77.5 C 219.833,77.5 220.167,77.5 220.5,77.5C 220.34,79.153 219.674,80.4863 218.5,81.5C 218.586,80.5041 218.252,79.6708 217.5,79C 213.623,78.2713 209.789,78.438 206,79.5C 203.273,76.6242 201.106,76.9576 199.5,80.5C 197.604,81.4656 195.604,81.7989 193.5,81.5C 192.828,80.7326 191.995,80.0659 191,79.5C 186.636,81.2733 182.136,82.6067 177.5,83.5C 175.952,83.1788 175.285,82.1788 175.5,80.5C 170.797,80.4372 166.13,80.7705 161.5,81.5C 161.5,80.5 161.5,79.5 161.5,78.5C 164.308,77.1155 167.308,76.4488 170.5,76.5C 173.849,77.0081 177.182,77.1747 180.5,77C 183.701,74.9002 187.034,73.0668 190.5,71.5C 195.288,72.595 200.288,72.7617 205.5,72C 207.037,73.1096 207.703,74.6096 207.5,76.5C 211.466,77.1621 215.466,77.4955 219.5,77.5 Z"/></g>
<g><path style="opacity:1" fill="#b8b4b7" d="M 251.5,77.5 C 251.918,78.2216 252.584,78.7216 253.5,79C 260.826,79.4997 268.159,79.6663 275.5,79.5C 275.833,79.5 276.167,79.5 276.5,79.5C 277.492,81.0265 278.992,81.6932 281,81.5C 283.221,81.6068 285.054,80.9402 286.5,79.5C 288.833,79.5 291.167,79.5 293.5,79.5C 293.5,80.1667 293.5,80.8333 293.5,81.5C 291.205,82.1355 289.539,83.4689 288.5,85.5C 274.315,84.4992 260.315,82.3325 246.5,79C 240.175,78.5005 233.842,78.3338 227.5,78.5C 227.5,78.1667 227.5,77.8333 227.5,77.5C 227.328,76.5084 227.662,75.8417 228.5,75.5C 230.743,76.8117 233.41,77.4783 236.5,77.5C 239.167,77.3333 241.833,77.1667 244.5,77C 244.004,75.0036 243.004,73.3369 241.5,72C 242.167,71.8333 242.833,71.6667 243.5,71.5C 246.209,73.5557 248.876,75.5557 251.5,77.5 Z"/></g>
<g><path style="opacity:1" fill="#6e6568" d="M 276.5,79.5 C 277.5,79.5 278.5,79.5 279.5,79.5C 281.833,79.5 284.167,79.5 286.5,79.5C 285.054,80.9402 283.221,81.6068 281,81.5C 278.992,81.6932 277.492,81.0265 276.5,79.5 Z"/></g>
<g><path style="opacity:1" fill="#7a656c" d="M 165.5,65.5 C 166.167,65.5 166.833,65.5 167.5,65.5C 166.402,66.397 166.402,67.2303 167.5,68C 166.833,68.6667 166.167,69.3333 165.5,70C 163.687,70.6144 163.353,70.2811 164.5,69C 161.981,68.2591 160.315,69.0924 159.5,71.5C 156.753,71.1866 154.086,71.52 151.5,72.5C 146.375,76.0081 141.042,78.6747 135.5,80.5C 129.217,81.8194 122.883,82.9861 116.5,84C 114.41,84.6695 112.743,85.8361 111.5,87.5C 111.5,86.8333 111.5,86.1667 111.5,85.5C 112.167,84.8333 112.833,84.1667 113.5,83.5C 117.535,82.8989 121.535,82.0656 125.5,81C 129.191,78.6533 133.191,77.1533 137.5,76.5C 139.332,75.9432 140.665,74.9432 141.5,73.5C 145.446,72.6846 149.113,71.1846 152.5,69C 154.134,68.5065 155.801,68.3398 157.5,68.5C 159.801,67.9396 162.134,67.4396 164.5,67C 165.056,66.6174 165.389,66.1174 165.5,65.5 Z"/></g>
<g><path style="opacity:1" fill="#4d4749" d="M 160.5,78.5 C 160.897,82.3213 159.564,85.3213 156.5,87.5C 154.707,91.5667 153.041,95.5667 151.5,99.5C 150.972,95.7895 151.972,92.6228 154.5,90C 153.99,88.1739 153.156,88.0072 152,89.5C 151.13,88.8921 150.63,88.0588 150.5,87C 152.112,85.518 153.112,83.6847 153.5,81.5C 155.206,79.4642 157.539,78.4642 160.5,78.5 Z"/></g>
<g><path style="opacity:1" fill="#7d676f" d="M 227.5,78.5 C 233.842,78.3338 240.175,78.5005 246.5,79C 260.315,82.3325 274.315,84.4992 288.5,85.5C 288.389,86.1174 288.056,86.6174 287.5,87C 281.95,87.1265 277.283,87.9598 273.5,89.5C 267.075,86.9693 260.408,84.9693 253.5,83.5C 244.508,83.2449 235.842,81.5782 227.5,78.5 Z"/></g>
<g><path style="opacity:1" fill="#dbdcdc" d="M -0.5,79.5 C 1.85684,79.3367 4.19018,79.5034 6.5,80C 12.4776,82.9546 18.8109,84.7879 25.5,85.5C 25.7475,87.8583 25.0808,89.8583 23.5,91.5C 20.7531,91.8134 18.0865,91.48 15.5,90.5C 14.0606,88.4469 12.0606,87.4469 9.5,87.5C 9.5,86.5 9.5,85.5 9.5,84.5C 6.16667,84.5 2.83333,84.5 -0.5,84.5C -0.5,82.8333 -0.5,81.1667 -0.5,79.5 Z"/></g>
<g><path style="opacity:1" fill="#674e55" d="M 135.5,80.5 C 129.372,82.2198 123.372,84.5532 117.5,87.5C 116.914,87.2907 116.414,86.9574 116,86.5C 114.327,90.7221 111.16,92.5555 106.5,92C 107.337,93.0113 107.67,94.1779 107.5,95.5C 105.876,95.6399 104.71,94.9733 104,93.5C 102.951,95.1066 101.451,95.7733 99.5,95.5C 99.5,94.5 99.5,93.5 99.5,92.5C 99.5,92.1667 99.5,91.8333 99.5,91.5C 103.159,89.2956 107.159,87.9623 111.5,87.5C 112.743,85.8361 114.41,84.6695 116.5,84C 122.883,82.9861 129.217,81.8194 135.5,80.5 Z"/></g>
<g><path style="opacity:1" fill="#7c6369" d="M 218.5,81.5 C 218.389,82.1174 218.056,82.6174 217.5,83C 210.754,83.1213 204.087,83.788 197.5,85C 201.466,87.3819 201.466,89.7152 197.5,92C 191.523,92.8309 185.523,93.3309 179.5,93.5C 179.16,90.8559 179.827,88.5225 181.5,86.5C 185.962,85.7574 189.962,84.0907 193.5,81.5C 195.604,81.7989 197.604,81.4656 199.5,80.5C 201.106,76.9576 203.273,76.6242 206,79.5C 209.789,78.438 213.623,78.2713 217.5,79C 218.252,79.6708 218.586,80.5041 218.5,81.5 Z"/></g>
<g><path style="opacity:1" fill="#c7bebd" d="M 123.5,75.5 C 124.552,75.3505 125.552,75.5172 126.5,76C 126.167,76.3333 125.833,76.6667 125.5,77C 121.393,79.169 117.393,81.3357 113.5,83.5C 112.833,84.1667 112.167,84.8333 111.5,85.5C 107.887,86.4861 104.221,87.3195 100.5,88C 99.6634,89.0113 99.33,90.1779 99.5,91.5C 97.1432,91.6633 94.8098,91.4966 92.5,91C 91.8288,90.0138 91.8288,88.8471 92.5,87.5C 101.261,84.9099 109.594,81.5766 117.5,77.5C 119.5,76.8333 121.5,76.1667 123.5,75.5 Z"/></g>
<g><path style="opacity:1" fill="#988287" d="M 111.5,85.5 C 111.5,86.1667 111.5,86.8333 111.5,87.5C 107.159,87.9623 103.159,89.2956 99.5,91.5C 99.33,90.1779 99.6634,89.0113 100.5,88C 104.221,87.3195 107.887,86.4861 111.5,85.5 Z"/></g>
<g><path style="opacity:1" fill="#635053" d="M 253.5,83.5 C 253.5,84.1667 253.5,84.8333 253.5,85.5C 248.167,85.5 242.833,85.5 237.5,85.5C 237.5,86.5 237.5,87.5 237.5,88.5C 235.18,89.7242 232.847,91.0575 230.5,92.5C 226.957,91.031 223.291,90.031 219.5,89.5C 217.868,96.1358 213.702,99.8024 207,100.5C 206.126,98.2235 204.459,96.8902 202,96.5C 198.338,98.0221 194.505,98.8555 190.5,99C 189.91,100.509 189.244,102.009 188.5,103.5C 186.059,102.221 184.392,102.887 183.5,105.5C 182.833,105.5 182.167,105.5 181.5,105.5C 177.552,105.601 174.385,107.268 172,110.5C 170.678,113.637 169.512,116.804 168.5,120C 169.167,121.333 169.833,122.667 170.5,124C 167.833,124.667 165.167,124.667 162.5,124C 160.162,122.838 158.828,121.004 158.5,118.5C 159.583,118.539 160.583,118.873 161.5,119.5C 162.474,117.257 162.808,114.924 162.5,112.5C 163.234,111.292 163.567,109.959 163.5,108.5C 164.404,107.791 164.737,106.791 164.5,105.5C 170.416,104.392 176.416,103.558 182.5,103C 185.272,101.14 187.605,98.8065 189.5,96C 194.22,95.7787 198.887,95.2787 203.5,94.5C 205.263,95.9538 206.597,95.6204 207.5,93.5C 210.848,92.7125 214.182,91.8792 217.5,91C 218.991,88.3788 219.658,85.5455 219.5,82.5C 224.953,82.0952 230.453,82.7619 236,84.5C 241.804,83.6687 247.638,83.3354 253.5,83.5 Z"/></g>
<g><path style="opacity:1" fill="#715b64" d="M 293.5,81.5 C 293.5,84.8333 293.5,88.1667 293.5,91.5C 283.478,91.1681 273.478,91.5015 263.5,92.5C 263.121,94.2131 262.121,95.2131 260.5,95.5C 260.567,94.0413 260.234,92.7079 259.5,91.5C 257.785,89.1182 255.785,87.1182 253.5,85.5C 253.5,84.8333 253.5,84.1667 253.5,83.5C 260.408,84.9693 267.075,86.9693 273.5,89.5C 277.283,87.9598 281.95,87.1265 287.5,87C 288.056,86.6174 288.389,86.1174 288.5,85.5C 289.539,83.4689 291.205,82.1355 293.5,81.5 Z"/></g>
<g><path style="opacity:1" fill="#b59da9" d="M -0.5,86.5 C 2.2165,86.6785 4.88317,87.1785 7.5,88C 8.82277,88.8159 9.48944,89.9826 9.5,91.5C 6.16667,91.5 2.83333,91.5 -0.5,91.5C -0.5,89.8333 -0.5,88.1667 -0.5,86.5 Z"/></g>
<g><path style="opacity:1" fill="#43373b" d="M 153.5,81.5 C 153.112,83.6847 152.112,85.518 150.5,87C 150.63,88.0588 151.13,88.8921 152,89.5C 153.156,88.0072 153.99,88.1739 154.5,90C 151.972,92.6228 150.972,95.7895 151.5,99.5C 150.892,100.8 150.225,102.133 149.5,103.5C 150.467,105.762 151.134,108.095 151.5,110.5C 151.244,114.269 151.577,117.936 152.5,121.5C 152.643,123.262 152.309,124.929 151.5,126.5C 154.107,127.318 156.774,127.818 159.5,128C 157.655,129.128 155.655,129.628 153.5,129.5C 154.795,132.665 155.795,135.999 156.5,139.5C 156.278,141.055 155.611,142.389 154.5,143.5C 156.333,145.05 158.499,146.05 161,146.5C 161.495,148.473 161.662,150.473 161.5,152.5C 165.226,152.177 168.893,152.511 172.5,153.5C 171.37,154.622 170.703,155.956 170.5,157.5C 167.499,160.499 163.832,162.165 159.5,162.5C 156.696,161.362 153.696,161.195 150.5,162C 149.748,162.671 149.414,163.504 149.5,164.5C 148.903,164.735 148.57,165.235 148.5,166C 148.818,169.107 149.818,171.941 151.5,174.5C 151.145,175.522 150.478,176.189 149.5,176.5C 148.262,171.612 147.429,166.612 147,161.5C 146.667,162.167 146.333,162.833 146,163.5C 145.682,161.939 144.849,160.772 143.5,160C 144.304,155.557 144.137,151.057 143,146.5C 141.989,145.663 140.822,145.33 139.5,145.5C 139.649,146.552 139.483,147.552 139,148.5C 137.67,144.993 135.17,143.327 131.5,143.5C 131.506,146.518 132.506,149.184 134.5,151.5C 132.353,154.022 130.353,154.022 128.5,151.5C 128.617,149.516 127.95,147.85 126.5,146.5C 127.562,143.897 127.728,141.23 127,138.5C 123.542,127.712 121.042,116.712 119.5,105.5C 117.234,105.859 115.401,105.192 114,103.5C 110.863,107.881 110.696,112.381 113.5,117C 112.961,120.031 112.294,123.031 111.5,126C 112.022,126.95 112.689,127.784 113.5,128.5C 111.234,129.314 108.9,129.814 106.5,130C 108.246,130.471 109.913,131.138 111.5,132C 110.167,134.667 110.167,137.333 111.5,140C 109.807,140.847 108.14,141.68 106.5,142.5C 106.75,141.078 107.583,140.078 109,139.5C 109.667,137.167 109.667,134.833 109,132.5C 105.963,131.291 102.796,130.457 99.5,130C 103.285,129.627 106.785,128.461 110,126.5C 110.629,123.689 111.129,120.856 111.5,118C 110.639,111.194 110.306,104.361 110.5,97.5C 111.96,95.1497 113.626,92.8164 115.5,90.5C 124.833,89.8333 134.167,89.1667 143.5,88.5C 141.604,87.5344 139.604,87.2011 137.5,87.5C 137.5,86.1667 137.5,84.8333 137.5,83.5C 142.843,81.7231 148.176,81.0565 153.5,81.5 Z"/></g>
<g><path style="opacity:1" fill="#5a4a4e" d="M 253.5,85.5 C 255.785,87.1182 257.785,89.1182 259.5,91.5C 255.651,90.0908 251.651,88.9241 247.5,88C 244.5,87.3333 241.5,87.3333 238.5,88C 238.833,88.3333 239.167,88.6667 239.5,89C 237.667,90.1667 235.833,91.3333 234,92.5C 231.529,98.085 229.362,103.752 227.5,109.5C 224.737,109.204 222.237,108.204 220,106.5C 217.936,107.591 215.769,107.758 213.5,107C 210.487,105.335 207.32,104.168 204,103.5C 197.417,107.407 190.583,108.074 183.5,105.5C 184.392,102.887 186.059,102.221 188.5,103.5C 189.244,102.009 189.91,100.509 190.5,99C 194.505,98.8555 198.338,98.0221 202,96.5C 204.459,96.8902 206.126,98.2235 207,100.5C 213.702,99.8024 217.868,96.1358 219.5,89.5C 223.291,90.031 226.957,91.031 230.5,92.5C 232.847,91.0575 235.18,89.7242 237.5,88.5C 237.5,87.5 237.5,86.5 237.5,85.5C 242.833,85.5 248.167,85.5 253.5,85.5 Z"/></g>
<g><path style="opacity:1" fill="#533c44" d="M 259.5,91.5 C 260.234,92.7079 260.567,94.0413 260.5,95.5C 260.167,98.8333 259.833,102.167 259.5,105.5C 258.833,105.5 258.167,105.5 257.5,105.5C 257.662,103.473 257.495,101.473 257,99.5C 256.29,100.973 255.124,101.64 253.5,101.5C 253.719,100.325 253.386,99.325 252.5,98.5C 250.929,99.3094 249.262,99.6427 247.5,99.5C 247.822,97.2776 247.155,95.4443 245.5,94C 242.166,93.2192 238.833,92.8859 235.5,93C 233.43,96.6683 232.93,100.502 234,104.5C 231.183,106.799 229.017,109.465 227.5,112.5C 227.5,111.5 227.5,110.5 227.5,109.5C 229.362,103.752 231.529,98.085 234,92.5C 235.833,91.3333 237.667,90.1667 239.5,89C 239.167,88.6667 238.833,88.3333 238.5,88C 241.5,87.3333 244.5,87.3333 247.5,88C 251.651,88.9241 255.651,90.0908 259.5,91.5 Z"/></g>
<g><path style="opacity:1" fill="#5e4d54" d="M 293.5,91.5 C 293.5,93.1667 293.5,94.8333 293.5,96.5C 285.16,96.9767 276.994,98.31 269,100.5C 268.586,100.043 268.086,99.7093 267.5,99.5C 266.17,101.093 264.836,102.76 263.5,104.5C 262.311,105.429 260.978,105.762 259.5,105.5C 259.833,102.167 260.167,98.8333 260.5,95.5C 262.121,95.2131 263.121,94.2131 263.5,92.5C 273.478,91.5015 283.478,91.1681 293.5,91.5 Z"/></g>
<g><path style="opacity:1" fill="#ae95a2" d="M 9.5,91.5 C 12.2282,91.1706 14.5615,91.8372 16.5,93.5C 27.4133,95.9295 38.4133,98.7628 49.5,102C 50.8228,102.816 51.4894,103.983 51.5,105.5C 46.64,104.279 41.9733,102.446 37.5,100C 32.816,99.565 28.1493,99.065 23.5,98.5C 18.5156,96.6745 13.8489,94.3411 9.5,91.5 Z"/></g>
<g><path style="opacity:1" fill="#b8acae" d="M 73.5,102.5 C 68.4569,102.608 64.4569,104.775 61.5,109C 59.236,109.236 57.0693,109.736 55,110.5C 54.6174,109.944 54.1174,109.611 53.5,109.5C 52.8333,108.167 52.1667,106.833 51.5,105.5C 51.4894,103.983 50.8228,102.816 49.5,102C 38.4133,98.7628 27.4133,95.9295 16.5,93.5C 21.5193,93.4982 26.5193,93.1648 31.5,92.5C 33.1667,92.8333 34.8333,93.1667 36.5,93.5C 39.1551,96.113 42.1551,98.2796 45.5,100C 54.832,100.945 64.1653,101.778 73.5,102.5 Z"/></g>
<g><path style="opacity:1" fill="#6f5a5f" d="M 227.5,77.5 C 227.5,77.8333 227.5,78.1667 227.5,78.5C 235.842,81.5782 244.508,83.2449 253.5,83.5C 247.638,83.3354 241.804,83.6687 236,84.5C 230.453,82.7619 224.953,82.0952 219.5,82.5C 219.658,85.5455 218.991,88.3788 217.5,91C 214.182,91.8792 210.848,92.7125 207.5,93.5C 206.597,95.6204 205.263,95.9538 203.5,94.5C 198.887,95.2787 194.22,95.7787 189.5,96C 187.605,98.8065 185.272,101.14 182.5,103C 176.416,103.558 170.416,104.392 164.5,105.5C 164.737,106.791 164.404,107.791 163.5,108.5C 163.552,106.097 163.219,103.764 162.5,101.5C 167.476,101.191 170.143,98.5241 170.5,93.5C 175.49,91.5847 177.824,88.2514 177.5,83.5C 182.136,82.6067 186.636,81.2733 191,79.5C 191.995,80.0659 192.828,80.7326 193.5,81.5C 189.962,84.0907 185.962,85.7574 181.5,86.5C 179.827,88.5225 179.16,90.8559 179.5,93.5C 185.523,93.3309 191.523,92.8309 197.5,92C 201.466,89.7152 201.466,87.3819 197.5,85C 204.087,83.788 210.754,83.1213 217.5,83C 218.056,82.6174 218.389,82.1174 218.5,81.5C 219.674,80.4863 220.34,79.153 220.5,77.5C 223.381,76.446 225.714,76.446 227.5,77.5 Z"/></g>
<g><path style="opacity:1" fill="#5d5855" d="M 160.5,78.5 C 160.833,78.5 161.167,78.5 161.5,78.5C 161.5,79.5 161.5,80.5 161.5,81.5C 166.13,80.7705 170.797,80.4372 175.5,80.5C 175.285,82.1788 175.952,83.1788 177.5,83.5C 177.824,88.2514 175.49,91.5847 170.5,93.5C 170.143,98.5241 167.476,101.191 162.5,101.5C 160.883,100.962 159.216,100.629 157.5,100.5C 155.723,103.776 154.056,107.109 152.5,110.5C 152.167,110.5 151.833,110.5 151.5,110.5C 151.134,108.095 150.467,105.762 149.5,103.5C 150.225,102.133 150.892,100.8 151.5,99.5C 153.041,95.5667 154.707,91.5667 156.5,87.5C 159.564,85.3213 160.897,82.3213 160.5,78.5 Z"/></g>
<g><path style="opacity:1" fill="#c6c2c1" d="M -0.5,84.5 C 2.83333,84.5 6.16667,84.5 9.5,84.5C 9.5,85.5 9.5,86.5 9.5,87.5C 12.0606,87.4469 14.0606,88.4469 15.5,90.5C 18.0865,91.48 20.7531,91.8134 23.5,91.5C 24.5,91.5 25.5,91.5 26.5,91.5C 26.5,89.5 26.5,87.5 26.5,85.5C 27.5,85.5 28.5,85.5 29.5,85.5C 29.5743,87.4109 30.5743,88.5776 32.5,89C 39.0475,90.8882 45.7142,92.2215 52.5,93C 57.3918,96.1024 62.7252,97.1024 68.5,96C 72.9816,92.7131 77.9816,91.7131 83.5,93C 84.1667,93.6667 84.8333,94.3333 85.5,95C 82.9373,96.0793 80.2706,96.5793 77.5,96.5C 76.8333,98.8333 76.1667,101.167 75.5,103.5C 74.8333,103.167 74.1667,102.833 73.5,102.5C 64.1653,101.778 54.832,100.945 45.5,100C 42.1551,98.2796 39.1551,96.113 36.5,93.5C 34.8333,93.1667 33.1667,92.8333 31.5,92.5C 26.5193,93.1648 21.5193,93.4982 16.5,93.5C 14.5615,91.8372 12.2282,91.1706 9.5,91.5C 9.48944,89.9826 8.82277,88.8159 7.5,88C 4.88317,87.1785 2.2165,86.6785 -0.5,86.5C -0.5,85.8333 -0.5,85.1667 -0.5,84.5 Z"/></g>
<g><path style="opacity:1" fill="#4b353d" d="M 257.5,105.5 C 255.805,107.793 255.138,110.127 255.5,112.5C 252.931,114.47 250.264,116.47 247.5,118.5C 243.9,118.274 241.234,116.608 239.5,113.5C 236.634,112.792 233.8,112.125 231,111.5C 229.681,113.287 228.848,115.287 228.5,117.5C 227.662,117.158 227.328,116.492 227.5,115.5C 227.5,114.5 227.5,113.5 227.5,112.5C 229.017,109.465 231.183,106.799 234,104.5C 232.93,100.502 233.43,96.6683 235.5,93C 238.833,92.8859 242.166,93.2192 245.5,94C 247.155,95.4443 247.822,97.2776 247.5,99.5C 249.262,99.6427 250.929,99.3094 252.5,98.5C 253.386,99.325 253.719,100.325 253.5,101.5C 255.124,101.64 256.29,100.973 257,99.5C 257.495,101.473 257.662,103.473 257.5,105.5 Z"/></g>
<g><path style="opacity:1" fill="#886779" d="M -0.5,91.5 C 2.83333,91.5 6.16667,91.5 9.5,91.5C 13.8489,94.3411 18.5156,96.6745 23.5,98.5C 23.5,98.8333 23.5,99.1667 23.5,99.5C 19.031,99.2603 14.6977,99.927 10.5,101.5C 7.82142,101.064 5.15475,100.564 2.5,100C 2.72052,98.2015 3.05385,96.3682 3.5,94.5C 2.31116,93.5713 0.977822,93.238 -0.5,93.5C -0.5,92.8333 -0.5,92.1667 -0.5,91.5 Z"/></g>
<g><path style="opacity:1" fill="#705261" d="M -0.5,93.5 C 0.977822,93.238 2.31116,93.5713 3.5,94.5C 3.05385,96.3682 2.72052,98.2015 2.5,100C 5.15475,100.564 7.82142,101.064 10.5,101.5C 14.6977,99.927 19.031,99.2603 23.5,99.5C 23.5,100.833 23.5,102.167 23.5,103.5C 26.5219,103.804 29.5219,104.304 32.5,105C 31.6634,106.011 31.33,107.178 31.5,108.5C 35.1667,108.5 38.8333,108.5 42.5,108.5C 42.2852,110.179 42.9519,111.179 44.5,111.5C 43.9517,114.084 42.285,115.084 39.5,114.5C 39.2895,117.97 38.1229,117.97 36,114.5C 34.4309,115.714 33.5976,117.381 33.5,119.5C 35.2904,125.029 35.7904,130.696 35,136.5C 34.6667,134.5 34.3333,132.5 34,130.5C 31.4276,127.597 29.261,124.431 27.5,121C 28.7192,118.616 28.7192,116.283 27.5,114C 24.7626,111.864 21.7626,110.864 18.5,111C 18.8333,111.333 19.1667,111.667 19.5,112C 18.1365,115.232 16.8032,118.399 15.5,121.5C 14.1365,119.627 12.4699,117.961 10.5,116.5C 12.6603,114.907 12.827,113.24 11,111.5C 7.88859,115.561 5.22193,115.228 3,110.5C 2.50649,108.866 2.33982,107.199 2.5,105.5C 1.5,105.5 0.5,105.5 -0.5,105.5C -0.5,101.5 -0.5,97.5 -0.5,93.5 Z"/></g>
<g><path style="opacity:1" fill="#9a7d8c" d="M 23.5,99.5 C 23.5,99.1667 23.5,98.8333 23.5,98.5C 28.1493,99.065 32.816,99.565 37.5,100C 41.9733,102.446 46.64,104.279 51.5,105.5C 52.1667,106.833 52.8333,108.167 53.5,109.5C 43.8927,105.032 33.8927,101.698 23.5,99.5 Z"/></g>
<g><path style="opacity:1" fill="#5d4f52" d="M 99.5,96.5 C 99.4921,99.5448 99.1587,102.545 98.5,105.5C 97.1667,105.5 95.8333,105.5 94.5,105.5C 94.5,106.5 94.5,107.5 94.5,108.5C 89.9579,108.556 85.6245,108.056 81.5,107C 80.9186,107.893 80.5852,108.893 80.5,110C 83.7885,115.014 82.7885,118.848 77.5,121.5C 77.2937,117.605 76.6271,113.771 75.5,110C 75.8333,108.5 76.1667,107 76.5,105.5C 84.2125,102.653 91.8792,99.6535 99.5,96.5 Z"/></g>
<g><path style="opacity:1" fill="#3a2e33" d="M 128.5,151.5 C 127.566,152.568 127.232,153.901 127.5,155.5C 124.036,157.089 121.036,156.589 118.5,154C 113.156,153.529 107.822,153.029 102.5,152.5C 95.0819,152.274 93.7486,149.441 98.5,144C 101.365,143.817 104.031,143.317 106.5,142.5C 108.14,141.68 109.807,140.847 111.5,140C 110.167,137.333 110.167,134.667 111.5,132C 109.913,131.138 108.246,130.471 106.5,130C 108.9,129.814 111.234,129.314 113.5,128.5C 112.689,127.784 112.022,126.95 111.5,126C 112.294,123.031 112.961,120.031 113.5,117C 110.696,112.381 110.863,107.881 114,103.5C 115.401,105.192 117.234,105.859 119.5,105.5C 121.042,116.712 123.542,127.712 127,138.5C 127.728,141.23 127.562,143.897 126.5,146.5C 127.95,147.85 128.617,149.516 128.5,151.5 Z"/></g>
<g><path style="opacity:1" fill="#594b4d" d="M 181.5,105.5 C 181.338,107.527 181.505,109.527 182,111.5C 185.949,113.472 189.616,115.805 193,118.5C 195.462,121.904 194.962,124.57 191.5,126.5C 179.114,126.894 166.78,126.394 154.5,125C 153.915,123.698 153.249,122.531 152.5,121.5C 151.577,117.936 151.244,114.269 151.5,110.5C 151.833,110.5 152.167,110.5 152.5,110.5C 155.937,112.023 157.937,114.689 158.5,118.5C 158.828,121.004 160.162,122.838 162.5,124C 165.167,124.667 167.833,124.667 170.5,124C 169.833,122.667 169.167,121.333 168.5,120C 169.512,116.804 170.678,113.637 172,110.5C 174.385,107.268 177.552,105.601 181.5,105.5 Z"/></g>
<g><path style="opacity:1" fill="#4e4344" d="M 227.5,109.5 C 227.5,110.5 227.5,111.5 227.5,112.5C 227.5,113.5 227.5,114.5 227.5,115.5C 225.066,122.238 223.4,129.238 222.5,136.5C 221.5,136.5 220.5,136.5 219.5,136.5C 219.74,133.421 219.407,130.421 218.5,127.5C 214.167,126.833 209.833,126.167 205.5,125.5C 202.796,122.608 202.129,122.942 203.5,126.5C 201.874,126.062 200.207,125.728 198.5,125.5C 196.645,125.34 195.312,126.007 194.5,127.5C 193.833,127.5 193.167,127.5 192.5,127.5C 192.5,126.833 192.167,126.5 191.5,126.5C 194.962,124.57 195.462,121.904 193,118.5C 189.616,115.805 185.949,113.472 182,111.5C 181.505,109.527 181.338,107.527 181.5,105.5C 182.167,105.5 182.833,105.5 183.5,105.5C 190.583,108.074 197.417,107.407 204,103.5C 207.32,104.168 210.487,105.335 213.5,107C 215.769,107.758 217.936,107.591 220,106.5C 222.237,108.204 224.737,109.204 227.5,109.5 Z"/></g>
<g><path style="opacity:1" fill="#4c4547" d="M 293.5,96.5 C 293.5,106.167 293.5,115.833 293.5,125.5C 290.092,125.563 287.759,127.23 286.5,130.5C 281.525,132.986 276.525,135.319 271.5,137.5C 269.433,131.466 267.433,125.466 265.5,119.5C 262.167,119.5 258.833,119.5 255.5,119.5C 255.5,117.167 255.5,114.833 255.5,112.5C 255.138,110.127 255.805,107.793 257.5,105.5C 258.167,105.5 258.833,105.5 259.5,105.5C 260.978,105.762 262.311,105.429 263.5,104.5C 264.836,102.76 266.17,101.093 267.5,99.5C 268.086,99.7093 268.586,100.043 269,100.5C 276.994,98.31 285.16,96.9767 293.5,96.5 Z"/></g>
<g><path style="opacity:1" fill="#826372" d="M 23.5,99.5 C 33.8927,101.698 43.8927,105.032 53.5,109.5C 53.6596,111.153 54.3263,112.486 55.5,113.5C 55.1583,114.338 54.4916,114.672 53.5,114.5C 51.4559,113.969 49.7893,112.802 48.5,111C 47.0715,110.421 45.7382,110.588 44.5,111.5C 42.9519,111.179 42.2852,110.179 42.5,108.5C 38.8333,108.5 35.1667,108.5 31.5,108.5C 31.33,107.178 31.6634,106.011 32.5,105C 29.5219,104.304 26.5219,103.804 23.5,103.5C 23.5,102.167 23.5,100.833 23.5,99.5 Z"/></g>
<g><path style="opacity:1" fill="#514548" d="M 107.5,95.5 C 107.5,96.8333 108.167,97.5 109.5,97.5C 109.243,104.206 109.576,110.872 110.5,117.5C 109.892,120.145 109.392,122.812 109,125.5C 108.25,126.126 107.416,126.626 106.5,127C 97.1489,127.168 87.8155,127.668 78.5,128.5C 79.5748,131.438 79.7415,134.438 79,137.5C 77.5962,139.394 76.4295,141.394 75.5,143.5C 76.5299,147.465 76.6965,151.465 76,155.5C 74.6507,152.93 73.484,152.93 72.5,155.5C 71.7109,149.949 72.8776,144.615 76,139.5C 76.2524,133.452 76.7524,127.452 77.5,121.5C 82.7885,118.848 83.7885,115.014 80.5,110C 80.5852,108.893 80.9186,107.893 81.5,107C 85.6245,108.056 89.9579,108.556 94.5,108.5C 94.5,107.5 94.5,106.5 94.5,105.5C 95.8333,105.5 97.1667,105.5 98.5,105.5C 99.1587,102.545 99.4921,99.5448 99.5,96.5C 99.5,96.1667 99.5,95.8333 99.5,95.5C 101.451,95.7733 102.951,95.1066 104,93.5C 104.71,94.9733 105.876,95.6399 107.5,95.5 Z"/></g>
<g><path style="opacity:1" fill="#94827b" d="M 157.5,100.5 C 159.216,100.629 160.883,100.962 162.5,101.5C 163.219,103.764 163.552,106.097 163.5,108.5C 163.567,109.959 163.234,111.292 162.5,112.5C 161.292,111.766 159.959,111.433 158.5,111.5C 158.215,109.712 158.548,108.045 159.5,106.5C 160.167,107.167 160.833,107.833 161.5,108.5C 161.833,108 162.167,107.5 162.5,107C 160.639,104.974 158.972,102.807 157.5,100.5 Z"/></g>
<g><path style="opacity:1" fill="#85827a" d="M 73.5,102.5 C 74.1667,102.833 74.8333,103.167 75.5,103.5C 74.0074,106.523 72.6741,109.69 71.5,113C 67.3281,114.262 63.3281,115.762 59.5,117.5C 59.9492,115.023 59.2825,113.023 57.5,111.5C 56.8182,112.243 56.1515,112.909 55.5,113.5C 54.3263,112.486 53.6596,111.153 53.5,109.5C 54.1174,109.611 54.6174,109.944 55,110.5C 57.0693,109.736 59.236,109.236 61.5,109C 64.4569,104.775 68.4569,102.608 73.5,102.5 Z"/></g>
<g><path style="opacity:1" fill="#3f2e34" d="M 255.5,112.5 C 255.5,114.833 255.5,117.167 255.5,119.5C 255.167,119.5 254.833,119.5 254.5,119.5C 253.5,119.5 252.5,119.5 251.5,119.5C 250.82,123.858 248.82,127.525 245.5,130.5C 238.572,131.696 231.905,133.696 225.5,136.5C 224.443,139.189 223.11,141.689 221.5,144C 219.893,143.981 218.226,143.815 216.5,143.5C 216.5,144.5 216.5,145.5 216.5,146.5C 216.167,146.5 215.833,146.5 215.5,146.5C 215.5,145.833 215.5,145.167 215.5,144.5C 215.52,142.857 214.853,141.524 213.5,140.5C 215.956,137.92 218.456,137.92 221,140.5C 222,139.167 223,137.833 224,136.5C 224.904,129.97 226.404,123.636 228.5,117.5C 228.848,115.287 229.681,113.287 231,111.5C 233.8,112.125 236.634,112.792 239.5,113.5C 241.234,116.608 243.9,118.274 247.5,118.5C 250.264,116.47 252.931,114.47 255.5,112.5 Z"/></g>
<g><path style="opacity:1" fill="#7d6b66" d="M 157.5,100.5 C 158.972,102.807 160.639,104.974 162.5,107C 162.167,107.5 161.833,108 161.5,108.5C 160.833,107.833 160.167,107.167 159.5,106.5C 158.548,108.045 158.215,109.712 158.5,111.5C 159.959,111.433 161.292,111.766 162.5,112.5C 162.808,114.924 162.474,117.257 161.5,119.5C 160.583,118.873 159.583,118.539 158.5,118.5C 157.937,114.689 155.937,112.023 152.5,110.5C 154.056,107.109 155.723,103.776 157.5,100.5 Z"/></g>
<g><path style="opacity:1" fill="#706864" d="M 99.5,92.5 C 99.5,93.5 99.5,94.5 99.5,95.5C 99.5,95.8333 99.5,96.1667 99.5,96.5C 91.8792,99.6535 84.2125,102.653 76.5,105.5C 76.1667,107 75.8333,108.5 75.5,110C 76.6271,113.771 77.2937,117.605 77.5,121.5C 76.7524,127.452 76.2524,133.452 76,139.5C 72.8776,144.615 71.7109,149.949 72.5,155.5C 72.5,158.5 72.5,161.5 72.5,164.5C 71.6963,166.189 70.6963,167.855 69.5,169.5C 67.7826,168.332 67.1159,166.665 67.5,164.5C 66.8125,159.613 67.9791,155.279 71,151.5C 71.677,145.847 70.677,140.514 68,135.5C 67.6667,136.167 67.3333,136.833 67,137.5C 66.7368,132.983 65.7368,128.649 64,124.5C 62.6439,125.38 61.1439,125.714 59.5,125.5C 59.5,127.833 59.5,130.167 59.5,132.5C 56.4498,126.99 54.4498,120.99 53.5,114.5C 54.4916,114.672 55.1583,114.338 55.5,113.5C 56.1515,112.909 56.8182,112.243 57.5,111.5C 59.2825,113.023 59.9492,115.023 59.5,117.5C 63.3281,115.762 67.3281,114.262 71.5,113C 72.6741,109.69 74.0074,106.523 75.5,103.5C 76.5964,101.897 77.9297,100.397 79.5,99C 86.4734,97.9538 93.14,95.7871 99.5,92.5 Z"/></g>
<g><path style="opacity:1" fill="#423a3a" d="M 254.5,119.5 C 254.833,119.5 255.167,119.5 255.5,119.5C 258.833,119.5 262.167,119.5 265.5,119.5C 267.433,125.466 269.433,131.466 271.5,137.5C 266.601,137.096 261.934,137.763 257.5,139.5C 254.833,139.5 252.167,139.5 249.5,139.5C 255.037,136.889 256.37,132.889 253.5,127.5C 253.837,124.824 254.17,122.157 254.5,119.5 Z"/></g>
<g><path style="opacity:1" fill="#34292d" d="M 254.5,119.5 C 254.17,122.157 253.837,124.824 253.5,127.5C 256.37,132.889 255.037,136.889 249.5,139.5C 241.686,140.027 234.686,142.527 228.5,147C 226.266,148.638 224.933,150.805 224.5,153.5C 223.542,153.953 222.708,154.619 222,155.5C 221.777,153.119 220.61,151.453 218.5,150.5C 217.833,149.167 217.167,147.833 216.5,146.5C 216.5,145.5 216.5,144.5 216.5,143.5C 218.226,143.815 219.893,143.981 221.5,144C 223.11,141.689 224.443,139.189 225.5,136.5C 231.905,133.696 238.572,131.696 245.5,130.5C 248.82,127.525 250.82,123.858 251.5,119.5C 252.5,119.5 253.5,119.5 254.5,119.5 Z"/></g>
<g><path style="opacity:1" fill="#68525d" d="M -0.5,105.5 C 0.5,105.5 1.5,105.5 2.5,105.5C 2.33982,107.199 2.50649,108.866 3,110.5C 5.22193,115.228 7.88859,115.561 11,111.5C 12.827,113.24 12.6603,114.907 10.5,116.5C 12.4699,117.961 14.1365,119.627 15.5,121.5C 16.5361,123.391 16.5361,125.224 15.5,127C 16.7932,127.49 18.1266,127.657 19.5,127.5C 19.6941,130.33 20.3608,132.996 21.5,135.5C 20.5255,134.365 19.3588,133.365 18,132.5C 11.9242,133.476 5.75757,133.81 -0.5,133.5C -0.5,124.167 -0.5,114.833 -0.5,105.5 Z"/></g>
<g><path style="opacity:1" fill="#7b7570" d="M 67.5,164.5 C 66.8333,163.5 66.1667,162.5 65.5,161.5C 63.4191,151.857 61.4191,142.191 59.5,132.5C 59.5,130.167 59.5,127.833 59.5,125.5C 61.1439,125.714 62.6439,125.38 64,124.5C 65.7368,128.649 66.7368,132.983 67,137.5C 67.3333,136.833 67.6667,136.167 68,135.5C 70.677,140.514 71.677,145.847 71,151.5C 67.9791,155.279 66.8125,159.613 67.5,164.5 Z"/></g>
<g><path style="opacity:1" fill="#433738" d="M 227.5,115.5 C 227.328,116.492 227.662,117.158 228.5,117.5C 226.404,123.636 224.904,129.97 224,136.5C 223,137.833 222,139.167 221,140.5C 218.456,137.92 215.956,137.92 213.5,140.5C 214.853,141.524 215.52,142.857 215.5,144.5C 213.859,143.853 212.526,142.853 211.5,141.5C 208.929,136.512 206.262,131.512 203.5,126.5C 202.129,122.942 202.796,122.608 205.5,125.5C 209.833,126.167 214.167,126.833 218.5,127.5C 219.407,130.421 219.74,133.421 219.5,136.5C 220.5,136.5 221.5,136.5 222.5,136.5C 223.4,129.238 225.066,122.238 227.5,115.5 Z"/></g>
<g><path style="opacity:1" fill="#544545" d="M 152.5,121.5 C 153.249,122.531 153.915,123.698 154.5,125C 166.78,126.394 179.114,126.894 191.5,126.5C 192.167,126.5 192.5,126.833 192.5,127.5C 190.833,129.5 189.167,131.5 187.5,133.5C 186.094,133.973 185.427,134.973 185.5,136.5C 184.883,136.611 184.383,136.944 184,137.5C 183.824,141.688 183.324,145.688 182.5,149.5C 182.585,148.005 181.919,147.005 180.5,146.5C 177.202,146.81 175.202,148.476 174.5,151.5C 174.023,154.025 172.69,156.025 170.5,157.5C 170.703,155.956 171.37,154.622 172.5,153.5C 168.893,152.511 165.226,152.177 161.5,152.5C 161.662,150.473 161.495,148.473 161,146.5C 158.499,146.05 156.333,145.05 154.5,143.5C 155.611,142.389 156.278,141.055 156.5,139.5C 155.795,135.999 154.795,132.665 153.5,129.5C 155.655,129.628 157.655,129.128 159.5,128C 156.774,127.818 154.107,127.318 151.5,126.5C 152.309,124.929 152.643,123.262 152.5,121.5 Z"/></g>
<g><path style="opacity:1" fill="#555555" d="M 293.5,125.5 C 293.5,136.833 293.5,148.167 293.5,159.5C 290.833,159.5 288.167,159.5 285.5,159.5C 283.5,159.5 281.5,159.5 279.5,159.5C 279.824,155.445 279.491,151.445 278.5,147.5C 274.363,146.777 271.363,144.611 269.5,141C 266.3,140.899 263.3,140.232 260.5,139C 264.356,138.823 268.023,138.323 271.5,137.5C 276.525,135.319 281.525,132.986 286.5,130.5C 287.759,127.23 290.092,125.563 293.5,125.5 Z"/></g>
<g><path style="opacity:1" fill="#6e5557" d="M 21.5,135.5 C 23.1765,136.183 23.8432,137.517 23.5,139.5C 23.3184,141.591 23.6518,143.591 24.5,145.5C 19.4823,146.214 14.4823,146.881 9.5,147.5C 8.15753,146.098 7.3242,146.431 7,148.5C 5.34787,139.166 4.34787,139.166 4,148.5C 5.64543,150.662 7.81209,151.995 10.5,152.5C 11.4981,154.49 12.4981,156.49 13.5,158.5C 11.5159,159.706 9.51588,159.706 7.5,158.5C 6.74917,159.376 6.24917,160.376 6,161.5C 4.31114,158.867 2.81114,158.867 1.5,161.5C 0.833333,160.833 0.166667,160.167 -0.5,159.5C -0.5,150.833 -0.5,142.167 -0.5,133.5C 5.75757,133.81 11.9242,133.476 18,132.5C 19.3588,133.365 20.5255,134.365 21.5,135.5 Z"/></g>
<g><path style="opacity:1" fill="#706159" d="M 203.5,126.5 C 206.262,131.512 208.929,136.512 211.5,141.5C 209.018,138.571 206.518,135.571 204,132.5C 202.991,130.975 202.491,129.308 202.5,127.5C 199.938,128.371 197.272,128.371 194.5,127.5C 195.312,126.007 196.645,125.34 198.5,125.5C 200.207,125.728 201.874,126.062 203.5,126.5 Z"/></g>
<g><path style="opacity:1" fill="#4b3d3f" d="M 109.5,97.5 C 109.833,97.5 110.167,97.5 110.5,97.5C 110.306,104.361 110.639,111.194 111.5,118C 111.129,120.856 110.629,123.689 110,126.5C 106.785,128.461 103.285,129.627 99.5,130C 102.796,130.457 105.963,131.291 109,132.5C 109.667,134.833 109.667,137.167 109,139.5C 107.583,140.078 106.75,141.078 106.5,142.5C 104.031,143.317 101.365,143.817 98.5,144C 93.7486,149.441 95.0819,152.274 102.5,152.5C 105.868,154.059 109.535,154.892 113.5,155C 113.167,155.333 112.833,155.667 112.5,156C 101.22,157.022 89.8862,157.356 78.5,157C 77.6921,158.706 76.3588,159.539 74.5,159.5C 74.3354,162.518 74.502,165.518 75,168.5C 76.0437,167.377 76.7104,166.044 77,164.5C 77.3333,164.833 77.6667,165.167 78,165.5C 78.3459,171.857 78.8459,178.19 79.5,184.5C 79.5,186.167 79.5,187.833 79.5,189.5C 78.7784,189.082 78.2784,188.416 78,187.5C 77.1786,190.554 77.3452,193.554 78.5,196.5C 79.2508,195.624 79.7508,194.624 80,193.5C 80.2868,195.891 80.7868,198.224 81.5,200.5C 80.3112,201.429 78.9778,201.762 77.5,201.5C 75.372,189.216 73.7054,176.882 72.5,164.5C 72.5,161.5 72.5,158.5 72.5,155.5C 73.484,152.93 74.6507,152.93 76,155.5C 76.6965,151.465 76.5299,147.465 75.5,143.5C 76.4295,141.394 77.5962,139.394 79,137.5C 79.7415,134.438 79.5748,131.438 78.5,128.5C 87.8155,127.668 97.1489,127.168 106.5,127C 107.416,126.626 108.25,126.126 109,125.5C 109.392,122.812 109.892,120.145 110.5,117.5C 109.576,110.872 109.243,104.206 109.5,97.5 Z"/></g>
<g><path style="opacity:1" fill="#544d4f" d="M 249.5,139.5 C 252.167,139.5 254.833,139.5 257.5,139.5C 258.351,141.704 257.351,143.037 254.5,143.5C 253.348,146.106 253.182,148.773 254,151.5C 255.594,149.703 257.594,148.703 260,148.5C 262.763,150.425 265.93,151.592 269.5,152C 267.75,153.754 267.083,155.921 267.5,158.5C 265.143,158.337 262.81,158.503 260.5,159C 261.793,159.49 263.127,159.657 264.5,159.5C 264.495,163.534 264.162,167.534 263.5,171.5C 262.167,171.5 260.833,171.5 259.5,171.5C 259.5,170.167 259.5,168.833 259.5,167.5C 254.08,168.332 251.413,165.999 251.5,160.5C 250.167,160.5 248.833,160.5 247.5,160.5C 247.5,161.5 247.5,162.5 247.5,163.5C 243.747,165.139 239.747,165.806 235.5,165.5C 235.803,168.588 234.47,170.254 231.5,170.5C 231.5,171.5 231.5,172.5 231.5,173.5C 228.833,172.833 226.167,172.167 223.5,171.5C 222.881,166.644 222.881,161.644 223.5,156.5C 224.11,155.609 224.443,154.609 224.5,153.5C 224.933,150.805 226.266,148.638 228.5,147C 234.686,142.527 241.686,140.027 249.5,139.5 Z"/></g>
<g><path style="opacity:1" fill="#998575" d="M 192.5,127.5 C 193.167,127.5 193.833,127.5 194.5,127.5C 197.272,128.371 199.938,128.371 202.5,127.5C 202.491,129.308 202.991,130.975 204,132.5C 206.518,135.571 209.018,138.571 211.5,141.5C 211.833,144.167 212.167,146.833 212.5,149.5C 210.87,147.974 210.037,145.974 210,143.5C 209.51,144.793 209.343,146.127 209.5,147.5C 205.742,148.075 202.242,149.409 199,151.5C 195.21,150.02 191.376,148.687 187.5,147.5C 186.833,146.5 186.167,145.5 185.5,144.5C 186.248,140.843 186.915,137.177 187.5,133.5C 189.167,131.5 190.833,129.5 192.5,127.5 Z"/></g>
<g><path style="opacity:1" fill="#593d49" d="M 52.5,180.5 C 52.6495,181.552 52.4828,182.552 52,183.5C 49.6255,181.622 47.7922,179.288 46.5,176.5C 45.3112,175.571 43.9778,175.238 42.5,175.5C 40.742,175.123 39.0754,174.456 37.5,173.5C 36.6667,174.5 35.8333,175.5 35,176.5C 33.7085,174.751 32.5418,172.918 31.5,171C 32.6174,169.108 34.2841,168.275 36.5,168.5C 36.8795,162.573 35.8795,156.906 33.5,151.5C 33.8242,149.431 34.6575,149.098 36,150.5C 36.6667,149.5 36.6667,148.5 36,147.5C 34.2134,148.343 32.3801,148.51 30.5,148C 29.9781,148.561 29.6448,149.228 29.5,150C 30.1667,151.333 30.8333,152.667 31.5,154C 30.8235,155.683 29.8235,155.85 28.5,154.5C 27.5,154.167 26.8333,153.5 26.5,152.5C 26.8199,146.838 26.1532,141.338 24.5,136C 24.8333,135.833 25.1667,135.667 25.5,135.5C 28.8178,138.317 31.9845,141.317 35,144.5C 35.9057,142.388 37.4057,141.555 39.5,142C 38.5,143 37.5,144 36.5,145C 38.8035,146.885 39.9701,149.385 40,152.5C 41.0113,151.663 42.1779,151.33 43.5,151.5C 43.0198,148.995 42.0198,146.662 40.5,144.5C 41.3554,143.707 42.1887,144.04 43,145.5C 43.1922,143.423 43.6922,141.423 44.5,139.5C 47.0639,143.604 49.8973,147.604 53,151.5C 53.4974,154.146 53.6641,156.813 53.5,159.5C 51.712,159.215 50.0453,159.548 48.5,160.5C 50.087,162.446 49.7536,163.946 47.5,165C 50.5046,167.293 51.1713,169.793 49.5,172.5C 51.0761,174.979 52.0761,177.646 52.5,180.5 Z"/></g>
<g><path style="opacity:1" fill="#3e2d33" d="M 149.5,176.5 C 148.833,176.833 148.167,177.167 147.5,177.5C 147.5,176.833 147.5,176.167 147.5,175.5C 147.423,174.25 146.756,173.417 145.5,173C 143.5,172.667 141.5,172.333 139.5,172C 142.435,171.899 143.769,170.399 143.5,167.5C 143.586,161.757 140.919,158.924 135.5,159C 133.232,160.558 132.066,162.724 132,165.5C 127.942,165.098 123.775,165.098 119.5,165.5C 119.5,168.5 119.5,171.5 119.5,174.5C 114.025,174.976 111.358,177.976 111.5,183.5C 100.752,183.191 90.085,183.524 79.5,184.5C 78.8459,178.19 78.3459,171.857 78,165.5C 77.6667,165.167 77.3333,164.833 77,164.5C 76.7104,166.044 76.0437,167.377 75,168.5C 74.502,165.518 74.3354,162.518 74.5,159.5C 76.3588,159.539 77.6921,158.706 78.5,157C 89.8862,157.356 101.22,157.022 112.5,156C 112.833,155.667 113.167,155.333 113.5,155C 109.535,154.892 105.868,154.059 102.5,152.5C 107.822,153.029 113.156,153.529 118.5,154C 121.036,156.589 124.036,157.089 127.5,155.5C 127.232,153.901 127.566,152.568 128.5,151.5C 130.353,154.022 132.353,154.022 134.5,151.5C 132.506,149.184 131.506,146.518 131.5,143.5C 135.17,143.327 137.67,144.993 139,148.5C 139.483,147.552 139.649,146.552 139.5,145.5C 140.822,145.33 141.989,145.663 143,146.5C 144.137,151.057 144.304,155.557 143.5,160C 144.849,160.772 145.682,161.939 146,163.5C 146.333,162.833 146.667,162.167 147,161.5C 147.429,166.612 148.262,171.612 149.5,176.5 Z"/></g>
<g><path style="opacity:1" fill="#5f434f" d="M 44.5,111.5 C 45.7382,110.588 47.0715,110.421 48.5,111C 49.7893,112.802 51.4559,113.969 53.5,114.5C 54.4498,120.99 56.4498,126.99 59.5,132.5C 61.4191,142.191 63.4191,151.857 65.5,161.5C 65.2417,165.367 65.9084,169.034 67.5,172.5C 64.6074,169.345 62.4407,165.678 61,161.5C 60.3623,162.609 59.8623,163.775 59.5,165C 60.8111,168.431 61.8111,171.931 62.5,175.5C 60.2341,175.859 58.4007,175.192 57,173.5C 55.3409,176.43 55.0076,179.43 56,182.5C 55.586,182.957 55.086,183.291 54.5,183.5C 53.8243,182.398 53.1577,181.398 52.5,180.5C 52.0761,177.646 51.0761,174.979 49.5,172.5C 51.1713,169.793 50.5046,167.293 47.5,165C 49.7536,163.946 50.087,162.446 48.5,160.5C 50.0453,159.548 51.712,159.215 53.5,159.5C 53.6641,156.813 53.4974,154.146 53,151.5C 49.8973,147.604 47.0639,143.604 44.5,139.5C 43.6922,141.423 43.1922,143.423 43,145.5C 42.1887,144.04 41.3554,143.707 40.5,144.5C 42.0198,146.662 43.0198,148.995 43.5,151.5C 42.1779,151.33 41.0113,151.663 40,152.5C 39.9701,149.385 38.8035,146.885 36.5,145C 37.5,144 38.5,143 39.5,142C 37.4057,141.555 35.9057,142.388 35,144.5C 31.9845,141.317 28.8178,138.317 25.5,135.5C 25.1667,135.667 24.8333,135.833 24.5,136C 26.1532,141.338 26.8199,146.838 26.5,152.5C 25.8611,148.093 24.8611,143.759 23.5,139.5C 23.8432,137.517 23.1765,136.183 21.5,135.5C 20.3608,132.996 19.6941,130.33 19.5,127.5C 18.1266,127.657 16.7932,127.49 15.5,127C 16.5361,125.224 16.5361,123.391 15.5,121.5C 16.8032,118.399 18.1365,115.232 19.5,112C 19.1667,111.667 18.8333,111.333 18.5,111C 21.7626,110.864 24.7626,111.864 27.5,114C 28.7192,116.283 28.7192,118.616 27.5,121C 29.261,124.431 31.4276,127.597 34,130.5C 34.3333,132.5 34.6667,134.5 35,136.5C 35.7904,130.696 35.2904,125.029 33.5,119.5C 33.5976,117.381 34.4309,115.714 36,114.5C 38.1229,117.97 39.2895,117.97 39.5,114.5C 42.285,115.084 43.9517,114.084 44.5,111.5 Z"/></g>
<g><path style="opacity:1" fill="#886d61" d="M 187.5,133.5 C 186.915,137.177 186.248,140.843 185.5,144.5C 186.167,145.5 186.833,146.5 187.5,147.5C 191.376,148.687 195.21,150.02 199,151.5C 202.242,149.409 205.742,148.075 209.5,147.5C 209.343,146.127 209.51,144.793 210,143.5C 210.037,145.974 210.87,147.974 212.5,149.5C 213.485,153.359 213.485,157.026 212.5,160.5C 208.636,163.231 204.969,163.064 201.5,160C 203.878,159.026 203.544,158.359 200.5,158C 198.134,157.438 195.801,157.604 193.5,158.5C 192.062,158.281 190.729,157.781 189.5,157C 188.512,154.833 187.179,153 185.5,151.5C 184.231,146.486 184.231,141.486 185.5,136.5C 185.427,134.973 186.094,133.973 187.5,133.5 Z"/></g>
<g><path style="opacity:1" fill="#684e52" d="M 23.5,139.5 C 24.8611,143.759 25.8611,148.093 26.5,152.5C 26.8333,153.5 27.5,154.167 28.5,154.5C 27.9717,155.721 27.305,156.887 26.5,158C 28.7915,160.822 30.4582,163.988 31.5,167.5C 28.8333,167.5 26.1667,167.5 23.5,167.5C 23.6495,166.448 23.4828,165.448 23,164.5C 20.8333,163.667 19.3333,162.167 18.5,160C 17.0563,159.219 15.723,159.386 14.5,160.5C 17.0481,164.476 18.3814,168.81 18.5,173.5C 17.1667,173.5 15.8333,173.5 14.5,173.5C 12.1475,172.66 10.1475,171.326 8.5,169.5C 7.24934,167.78 5.74934,167.447 4,168.5C 4.13494,170.425 4.3016,172.425 4.5,174.5C 3.59603,173.791 3.26269,172.791 3.5,171.5C 2.32496,171.719 1.32496,171.386 0.5,170.5C 4.05887,167.834 4.3922,164.834 1.5,161.5C 2.81114,158.867 4.31114,158.867 6,161.5C 6.24917,160.376 6.74917,159.376 7.5,158.5C 9.51588,159.706 11.5159,159.706 13.5,158.5C 12.4981,156.49 11.4981,154.49 10.5,152.5C 7.81209,151.995 5.64543,150.662 4,148.5C 4.34787,139.166 5.34787,139.166 7,148.5C 7.3242,146.431 8.15753,146.098 9.5,147.5C 14.4823,146.881 19.4823,146.214 24.5,145.5C 23.6518,143.591 23.3184,141.591 23.5,139.5 Z"/></g>
<g><path style="opacity:1" fill="#746158" d="M 182.5,149.5 C 182.84,151.679 183.84,153.512 185.5,155C 183.293,156.792 181.959,159.126 181.5,162C 179.222,162.986 176.889,163.82 174.5,164.5C 173.009,163.652 172.342,162.319 172.5,160.5C 173.923,157.725 174.589,154.725 174.5,151.5C 175.202,148.476 177.202,146.81 180.5,146.5C 181.919,147.005 182.585,148.005 182.5,149.5 Z"/></g>
<g><path style="opacity:1" fill="#524e49" d="M 271.5,137.5 C 268.023,138.323 264.356,138.823 260.5,139C 263.3,140.232 266.3,140.899 269.5,141C 271.363,144.611 274.363,146.777 278.5,147.5C 279.491,151.445 279.824,155.445 279.5,159.5C 281.5,159.5 283.5,159.5 285.5,159.5C 285.22,162.272 285.887,164.772 287.5,167C 286.333,167.5 285.5,168.333 285,169.5C 284.667,168.833 284.333,168.167 284,167.5C 283.333,170.167 283.333,172.833 284,175.5C 284.741,176.641 285.575,176.641 286.5,175.5C 288.218,180.298 287.218,184.465 283.5,188C 287.032,190.263 290.365,192.763 293.5,195.5C 293.5,197.5 293.5,199.5 293.5,201.5C 282.833,201.5 272.167,201.5 261.5,201.5C 261.721,200.265 262.388,199.265 263.5,198.5C 261.016,197.106 261.016,195.606 263.5,194C 262.518,192.946 261.351,192.446 260,192.5C 258.667,193.167 257.333,193.833 256,194.5C 255.536,193.906 255.369,193.239 255.5,192.5C 256.919,191.549 258.585,191.216 260.5,191.5C 260.5,185.167 260.5,178.833 260.5,172.5C 262.527,172.662 264.527,172.495 266.5,172C 265.552,171.517 264.552,171.351 263.5,171.5C 264.162,167.534 264.495,163.534 264.5,159.5C 263.127,159.657 261.793,159.49 260.5,159C 262.81,158.503 265.143,158.337 267.5,158.5C 267.083,155.921 267.75,153.754 269.5,152C 265.93,151.592 262.763,150.425 260,148.5C 257.594,148.703 255.594,149.703 254,151.5C 253.182,148.773 253.348,146.106 254.5,143.5C 257.351,143.037 258.351,141.704 257.5,139.5C 261.934,137.763 266.601,137.096 271.5,137.5 Z"/></g>
<g><path style="opacity:1" fill="#755b54" d="M 211.5,141.5 C 212.526,142.853 213.859,143.853 215.5,144.5C 215.5,145.167 215.5,145.833 215.5,146.5C 215.524,151.227 215.69,155.893 216,160.5C 211.321,165.503 205.988,166.503 200,163.5C 197.783,164.218 195.616,164.718 193.5,165C 189.677,161.187 187.01,156.687 185.5,151.5C 187.179,153 188.512,154.833 189.5,157C 190.729,157.781 192.062,158.281 193.5,158.5C 195.801,157.604 198.134,157.438 200.5,158C 203.544,158.359 203.878,159.026 201.5,160C 204.969,163.064 208.636,163.231 212.5,160.5C 213.485,157.026 213.485,153.359 212.5,149.5C 212.167,146.833 211.833,144.167 211.5,141.5 Z"/></g>
<g><path style="opacity:1" fill="#4e4648" d="M 223.5,156.5 C 222.881,161.644 222.881,166.644 223.5,171.5C 226.167,172.167 228.833,172.833 231.5,173.5C 231.5,172.5 231.5,171.5 231.5,170.5C 234.47,170.254 235.803,168.588 235.5,165.5C 239.747,165.806 243.747,165.139 247.5,163.5C 247.5,162.5 247.5,161.5 247.5,160.5C 248.833,160.5 250.167,160.5 251.5,160.5C 251.413,165.999 254.08,168.332 259.5,167.5C 259.5,168.833 259.5,170.167 259.5,171.5C 260.833,171.5 262.167,171.5 263.5,171.5C 264.552,171.351 265.552,171.517 266.5,172C 264.527,172.495 262.527,172.662 260.5,172.5C 260.5,178.833 260.5,185.167 260.5,191.5C 258.585,191.216 256.919,191.549 255.5,192.5C 246.155,192.498 236.822,193.165 227.5,194.5C 220.515,194.942 213.848,193.942 207.5,191.5C 204.757,191.923 203.424,190.756 203.5,188C 205.838,184.841 207.838,181.341 209.5,177.5C 209.188,174.497 207.855,173.83 205.5,175.5C 205.267,173.938 204.6,172.605 203.5,171.5C 205.139,171.926 206.472,171.926 207.5,171.5C 210.858,170.715 214.191,169.715 217.5,168.5C 220.393,164.862 222.393,160.862 223.5,156.5 Z"/></g>
<g><path style="opacity:1" fill="#706767" d="M 159.5,162.5 C 159.336,165.187 159.503,167.854 160,170.5C 161.011,171.337 162.178,171.67 163.5,171.5C 163.567,172.959 163.234,174.292 162.5,175.5C 159.794,175.312 157.461,174.312 155.5,172.5C 154.065,171.904 152.398,171.904 150.5,172.5C 150.599,169.763 150.265,167.096 149.5,164.5C 149.414,163.504 149.748,162.671 150.5,162C 153.696,161.195 156.696,161.362 159.5,162.5 Z"/></g>
<g><path style="opacity:1" fill="#57564e" d="M 285.5,159.5 C 288.167,159.5 290.833,159.5 293.5,159.5C 293.5,164.167 293.5,168.833 293.5,173.5C 291.365,173.147 290.032,173.98 289.5,176C 290.001,179.048 291.334,181.548 293.5,183.5C 293.5,187.5 293.5,191.5 293.5,195.5C 290.365,192.763 287.032,190.263 283.5,188C 287.218,184.465 288.218,180.298 286.5,175.5C 285.575,176.641 284.741,176.641 284,175.5C 283.333,172.833 283.333,170.167 284,167.5C 284.333,168.167 284.667,168.833 285,169.5C 285.5,168.333 286.333,167.5 287.5,167C 285.887,164.772 285.22,162.272 285.5,159.5 Z"/></g>
<g><path style="opacity:1" fill="#463737" d="M 218.5,150.5 C 220.61,151.453 221.777,153.119 222,155.5C 222.708,154.619 223.542,153.953 224.5,153.5C 224.443,154.609 224.11,155.609 223.5,156.5C 222.393,160.862 220.393,164.862 217.5,168.5C 214.191,169.715 210.858,170.715 207.5,171.5C 212.055,168.619 216.055,164.952 219.5,160.5C 220.906,156.95 220.573,153.616 218.5,150.5 Z"/></g>
<g><path style="opacity:1" fill="#624f48" d="M 185.5,136.5 C 184.231,141.486 184.231,146.486 185.5,151.5C 187.01,156.687 189.677,161.187 193.5,165C 195.616,164.718 197.783,164.218 200,163.5C 205.988,166.503 211.321,165.503 216,160.5C 215.69,155.893 215.524,151.227 215.5,146.5C 215.833,146.5 216.167,146.5 216.5,146.5C 217.167,147.833 217.833,149.167 218.5,150.5C 220.573,153.616 220.906,156.95 219.5,160.5C 216.055,164.952 212.055,168.619 207.5,171.5C 206.472,171.926 205.139,171.926 203.5,171.5C 200.713,171.22 198.547,169.887 197,167.5C 195.745,168.211 194.579,169.044 193.5,170C 195.926,171.145 198.259,172.478 200.5,174C 199.552,174.483 198.552,174.649 197.5,174.5C 195.364,173.347 193.364,172.014 191.5,170.5C 190.235,169.521 188.901,168.521 187.5,167.5C 188.025,166.808 188.692,166.308 189.5,166C 186.833,165.333 184.167,165.333 181.5,166C 178.289,167.153 174.956,167.82 171.5,168C 168.692,169.793 167.026,172.293 166.5,175.5C 165.167,175.5 163.833,175.5 162.5,175.5C 163.234,174.292 163.567,172.959 163.5,171.5C 162.178,171.67 161.011,171.337 160,170.5C 159.503,167.854 159.336,165.187 159.5,162.5C 163.832,162.165 167.499,160.499 170.5,157.5C 172.69,156.025 174.023,154.025 174.5,151.5C 174.589,154.725 173.923,157.725 172.5,160.5C 172.342,162.319 173.009,163.652 174.5,164.5C 176.889,163.82 179.222,162.986 181.5,162C 181.959,159.126 183.293,156.792 185.5,155C 183.84,153.512 182.84,151.679 182.5,149.5C 183.324,145.688 183.824,141.688 184,137.5C 184.383,136.944 184.883,136.611 185.5,136.5 Z"/></g>
<g><path style="opacity:1" fill="#6d5d58" d="M 203.5,171.5 C 204.6,172.605 205.267,173.938 205.5,175.5C 203.915,176.474 202.915,177.974 202.5,180C 203.205,181.557 202.539,182.723 200.5,183.5C 199.205,187.38 199.205,191.214 200.5,195C 200.167,195.167 199.833,195.333 199.5,195.5C 198.828,194.051 198.161,192.718 197.5,191.5C 197.167,190.5 196.5,189.833 195.5,189.5C 195.082,188.778 194.416,188.278 193.5,188C 194.167,187.667 194.833,187.333 195.5,187C 194.522,185.025 193.189,183.358 191.5,182C 191.14,180.348 190.807,178.682 190.5,177C 191.047,176.075 191.713,175.242 192.5,174.5C 194.316,175.735 195.983,175.735 197.5,174.5C 198.552,174.649 199.552,174.483 200.5,174C 198.259,172.478 195.926,171.145 193.5,170C 194.579,169.044 195.745,168.211 197,167.5C 198.547,169.887 200.713,171.22 203.5,171.5 Z"/></g>
<g><path style="opacity:1" fill="#919087" d="M 293.5,173.5 C 293.5,176.833 293.5,180.167 293.5,183.5C 291.334,181.548 290.001,179.048 289.5,176C 290.032,173.98 291.365,173.147 293.5,173.5 Z"/></g>
<g><path style="opacity:1" fill="#473f41" d="M 243.5,175.5 C 246.167,175.833 248.833,176.167 251.5,176.5C 251.5,178.833 251.5,181.167 251.5,183.5C 252.675,183.281 253.675,183.614 254.5,184.5C 252.257,185.474 249.924,185.808 247.5,185.5C 247.773,187.451 247.107,188.951 245.5,190C 236.295,192.291 226.962,192.958 217.5,192C 216.023,190.116 214.69,188.116 213.5,186C 222.077,179.596 232.077,176.096 243.5,175.5 Z"/></g>
<g><path style="opacity:1" fill="#4c3b42" d="M 155.5,172.5 C 157.461,174.312 159.794,175.312 162.5,175.5C 162.031,180.992 161.031,185.659 159.5,189.5C 156.659,188.312 155.992,186.312 157.5,183.5C 155.746,179.761 155.08,176.094 155.5,172.5 Z"/></g>
<g><path style="opacity:1" fill="#53423e" d="M 191.5,170.5 C 186.734,168.588 182.401,169.254 178.5,172.5C 176.437,176.599 175.103,180.932 174.5,185.5C 173.833,186.167 173.167,186.833 172.5,187.5C 171.304,187.154 171.304,186.654 172.5,186C 170.19,185.503 167.857,185.337 165.5,185.5C 165.843,187.483 165.176,188.817 163.5,189.5C 162.167,189.5 160.833,189.5 159.5,189.5C 161.031,185.659 162.031,180.992 162.5,175.5C 163.833,175.5 165.167,175.5 166.5,175.5C 167.026,172.293 168.692,169.793 171.5,168C 174.956,167.82 178.289,167.153 181.5,166C 184.167,165.333 186.833,165.333 189.5,166C 188.692,166.308 188.025,166.808 187.5,167.5C 188.901,168.521 190.235,169.521 191.5,170.5 Z"/></g>
<g><path style="opacity:1" fill="#816968" d="M -0.5,159.5 C 0.166667,160.167 0.833333,160.833 1.5,161.5C 4.3922,164.834 4.05887,167.834 0.5,170.5C 1.32496,171.386 2.32496,171.719 3.5,171.5C 3.26269,172.791 3.59603,173.791 4.5,174.5C 4.66037,177.884 4.32704,181.217 3.5,184.5C 7.11128,188.532 9.11128,193.032 9.5,198C 13.1091,198.701 16.4425,199.868 19.5,201.5C 17.1667,201.5 14.8333,201.5 12.5,201.5C 10.3021,200.835 7.96877,200.168 5.5,199.5C 4.7695,196.891 4.2695,194.224 4,191.5C 2.47441,187.997 0.974413,184.664 -0.5,181.5C -0.5,174.167 -0.5,166.833 -0.5,159.5 Z"/></g>
<g><path style="opacity:1" fill="#5d434b" d="M 42.5,175.5 C 43.6843,176.688 43.6843,177.855 42.5,179C 43.9047,180.269 45.5714,180.769 47.5,180.5C 46.5942,183.436 45.9275,186.436 45.5,189.5C 41.6625,189.978 38.3291,188.978 35.5,186.5C 33.5168,185.529 31.5168,184.529 29.5,183.5C 30.4132,181.914 30.4132,180.414 29.5,179C 23.5567,179.851 18.5567,178.018 14.5,173.5C 15.8333,173.5 17.1667,173.5 18.5,173.5C 18.3814,168.81 17.0481,164.476 14.5,160.5C 15.723,159.386 17.0563,159.219 18.5,160C 19.3333,162.167 20.8333,163.667 23,164.5C 23.4828,165.448 23.6495,166.448 23.5,167.5C 26.1667,167.5 28.8333,167.5 31.5,167.5C 30.4582,163.988 28.7915,160.822 26.5,158C 27.305,156.887 27.9717,155.721 28.5,154.5C 29.8235,155.85 30.8235,155.683 31.5,154C 30.8333,152.667 30.1667,151.333 29.5,150C 29.6448,149.228 29.9781,148.561 30.5,148C 32.3801,148.51 34.2134,148.343 36,147.5C 36.6667,148.5 36.6667,149.5 36,150.5C 34.6575,149.098 33.8242,149.431 33.5,151.5C 35.8795,156.906 36.8795,162.573 36.5,168.5C 34.2841,168.275 32.6174,169.108 31.5,171C 32.5418,172.918 33.7085,174.751 35,176.5C 35.8333,175.5 36.6667,174.5 37.5,173.5C 39.0754,174.456 40.742,175.123 42.5,175.5 Z"/></g>
<g><path style="opacity:1" fill="#34272a" d="M 147.5,175.5 C 145.701,180.195 143.534,184.862 141,189.5C 138.944,189.45 137.111,190.45 135.5,192.5C 126.66,194.595 117.993,194.429 109.5,192C 100.965,191.791 92.4648,191.291 84,190.5C 82.2743,191.662 80.7743,191.329 79.5,189.5C 79.5,187.833 79.5,186.167 79.5,184.5C 90.085,183.524 100.752,183.191 111.5,183.5C 111.358,177.976 114.025,174.976 119.5,174.5C 119.5,171.5 119.5,168.5 119.5,165.5C 123.775,165.098 127.942,165.098 132,165.5C 132.066,162.724 133.232,160.558 135.5,159C 140.919,158.924 143.586,161.757 143.5,167.5C 143.769,170.399 142.435,171.899 139.5,172C 141.5,172.333 143.5,172.667 145.5,173C 146.756,173.417 147.423,174.25 147.5,175.5 Z"/></g>
<g><path style="opacity:1" fill="#573e46" d="M 67.5,172.5 C 68.2663,176.163 69.0997,179.829 70,183.5C 71.8871,185.026 72.8871,187.026 73,189.5C 73.2963,192.706 73.7963,195.872 74.5,199C 74.2568,199.902 73.9234,200.735 73.5,201.5C 67.1667,201.5 60.8333,201.5 54.5,201.5C 54.6107,200.883 54.944,200.383 55.5,200C 49.1399,196.29 42.8066,192.624 36.5,189C 35.7476,188.329 35.4142,187.496 35.5,186.5C 38.3291,188.978 41.6625,189.978 45.5,189.5C 45.9275,186.436 46.5942,183.436 47.5,180.5C 45.5714,180.769 43.9047,180.269 42.5,179C 43.6843,177.855 43.6843,176.688 42.5,175.5C 43.9778,175.238 45.3112,175.571 46.5,176.5C 47.7922,179.288 49.6255,181.622 52,183.5C 52.4828,182.552 52.6495,181.552 52.5,180.5C 53.1577,181.398 53.8243,182.398 54.5,183.5C 55.086,183.291 55.586,182.957 56,182.5C 55.0076,179.43 55.3409,176.43 57,173.5C 58.4007,175.192 60.2341,175.859 62.5,175.5C 61.8111,171.931 60.8111,168.431 59.5,165C 59.8623,163.775 60.3623,162.609 61,161.5C 62.4407,165.678 64.6074,169.345 67.5,172.5 Z"/></g>
<g><path style="opacity:1" fill="#6a5b61" d="M 149.5,164.5 C 150.265,167.096 150.599,169.763 150.5,172.5C 152.398,171.904 154.065,171.904 155.5,172.5C 155.08,176.094 155.746,179.761 157.5,183.5C 155.992,186.312 156.659,188.312 159.5,189.5C 160.833,189.5 162.167,189.5 163.5,189.5C 162.167,190.833 160.833,192.167 159.5,193.5C 157.856,193.286 156.356,193.62 155,194.5C 154.517,193.552 154.351,192.552 154.5,191.5C 154.807,188.551 154.807,185.551 154.5,182.5C 151.02,181.943 149.353,179.943 149.5,176.5C 150.478,176.189 151.145,175.522 151.5,174.5C 149.818,171.941 148.818,169.107 148.5,166C 148.57,165.235 148.903,164.735 149.5,164.5 Z"/></g>
<g><path style="opacity:1" fill="#51393e" d="M 8.5,169.5 C 10.1475,171.326 12.1475,172.66 14.5,173.5C 18.5567,178.018 23.5567,179.851 29.5,179C 30.4132,180.414 30.4132,181.914 29.5,183.5C 27.9317,182.527 26.265,182.36 24.5,183C 26.0577,185.054 28.0577,186.554 30.5,187.5C 32.5389,191.736 35.2056,195.569 38.5,199C 43.0472,199.429 47.3805,200.262 51.5,201.5C 48.1667,201.5 44.8333,201.5 41.5,201.5C 37.9892,200.336 34.3225,199.336 30.5,198.5C 30.719,197.325 30.3857,196.325 29.5,195.5C 23.4774,193.967 19.1441,190.467 16.5,185C 16.8333,184.667 17.1667,184.333 17.5,184C 13.0416,182.529 11.0416,179.362 11.5,174.5C 7.6509,174.981 5.6509,173.314 5.5,169.5C 6.5,169.5 7.5,169.5 8.5,169.5 Z"/></g>
<g><path style="opacity:1" fill="#927876" d="M -0.5,181.5 C 0.974413,184.664 2.47441,187.997 4,191.5C 4.2695,194.224 4.7695,196.891 5.5,199.5C 7.96877,200.168 10.3021,200.835 12.5,201.5C 8.16667,201.5 3.83333,201.5 -0.5,201.5C -0.5,194.833 -0.5,188.167 -0.5,181.5 Z"/></g>
<g><path style="opacity:1" fill="#5c4347" d="M 8.5,169.5 C 7.5,169.5 6.5,169.5 5.5,169.5C 5.6509,173.314 7.6509,174.981 11.5,174.5C 11.0416,179.362 13.0416,182.529 17.5,184C 17.1667,184.333 16.8333,184.667 16.5,185C 19.1441,190.467 23.4774,193.967 29.5,195.5C 30.3857,196.325 30.719,197.325 30.5,198.5C 34.3225,199.336 37.9892,200.336 41.5,201.5C 37.8333,201.5 34.1667,201.5 30.5,201.5C 27.6126,199.917 24.6126,198.417 21.5,197C 18.5,194.5 15.5,192 12.5,189.5C 11.0443,186.259 9.71098,182.926 8.5,179.5C 8.9312,178.707 9.26454,177.873 9.5,177C 7.75298,176.918 6.08631,176.085 4.5,174.5C 4.3016,172.425 4.13494,170.425 4,168.5C 5.74934,167.447 7.24934,167.78 8.5,169.5 Z"/></g>
<g><path style="opacity:1" fill="#3c2f2e" d="M 147.5,175.5 C 147.5,176.167 147.5,176.833 147.5,177.5C 147.414,178.496 147.748,179.329 148.5,180C 146.993,183.832 145.659,187.665 144.5,191.5C 145.5,191.5 146.5,191.5 147.5,191.5C 147.5,192.5 147.5,193.5 147.5,194.5C 134.316,195.954 121.149,197.621 108,199.5C 103.723,198.941 103.556,198.274 107.5,197.5C 107.5,196.5 107.5,195.5 107.5,194.5C 99.4931,194.666 91.4931,194.5 83.5,194C 83.8333,193.667 84.1667,193.333 84.5,193C 82.8659,192.506 81.1992,192.34 79.5,192.5C 79.5,191.5 79.5,190.5 79.5,189.5C 80.7743,191.329 82.2743,191.662 84,190.5C 92.4648,191.291 100.965,191.791 109.5,192C 117.993,194.429 126.66,194.595 135.5,192.5C 137.111,190.45 138.944,189.45 141,189.5C 143.534,184.862 145.701,180.195 147.5,175.5 Z"/></g>
<g><path style="opacity:1" fill="#432e34" d="M 29.5,183.5 C 31.5168,184.529 33.5168,185.529 35.5,186.5C 35.4142,187.496 35.7476,188.329 36.5,189C 42.8066,192.624 49.1399,196.29 55.5,200C 54.944,200.383 54.6107,200.883 54.5,201.5C 53.5,201.5 52.5,201.5 51.5,201.5C 47.3805,200.262 43.0472,199.429 38.5,199C 35.2056,195.569 32.5389,191.736 30.5,187.5C 28.0577,186.554 26.0577,185.054 24.5,183C 26.265,182.36 27.9317,182.527 29.5,183.5 Z"/></g>
<g><path style="opacity:1" fill="#615348" d="M 191.5,170.5 C 193.364,172.014 195.364,173.347 197.5,174.5C 195.983,175.735 194.316,175.735 192.5,174.5C 191.713,175.242 191.047,176.075 190.5,177C 190.807,178.682 191.14,180.348 191.5,182C 193.189,183.358 194.522,185.025 195.5,187C 194.833,187.333 194.167,187.667 193.5,188C 194.416,188.278 195.082,188.778 195.5,189.5C 193.858,191.081 191.858,191.747 189.5,191.5C 189.44,190.957 189.107,190.624 188.5,190.5C 182.551,191.292 176.551,191.792 170.5,192C 167.371,193.63 164.371,195.464 161.5,197.5C 161.843,195.517 161.176,194.183 159.5,193.5C 160.833,192.167 162.167,190.833 163.5,189.5C 165.176,188.817 165.843,187.483 165.5,185.5C 167.857,185.337 170.19,185.503 172.5,186C 171.304,186.654 171.304,187.154 172.5,187.5C 173.167,186.833 173.833,186.167 174.5,185.5C 175.103,180.932 176.437,176.599 178.5,172.5C 182.401,169.254 186.734,168.588 191.5,170.5 Z"/></g>
<g><path style="opacity:1" fill="#3b3231" d="M 149.5,176.5 C 149.353,179.943 151.02,181.943 154.5,182.5C 154.807,185.551 154.807,188.551 154.5,191.5C 153.539,193.265 153.205,195.265 153.5,197.5C 144.622,197.757 135.955,198.924 127.5,201C 138.161,201.5 148.828,201.667 159.5,201.5C 161.5,201.5 163.5,201.5 165.5,201.5C 176.167,201.5 186.833,201.5 197.5,201.5C 204.5,201.5 211.5,201.5 218.5,201.5C 232.833,201.5 247.167,201.5 261.5,201.5C 272.167,201.5 282.833,201.5 293.5,201.5C 293.5,201.833 293.5,202.167 293.5,202.5C 195.5,202.5 97.5,202.5 -0.5,202.5C -0.5,202.167 -0.5,201.833 -0.5,201.5C 3.83333,201.5 8.16667,201.5 12.5,201.5C 14.8333,201.5 17.1667,201.5 19.5,201.5C 23.1667,201.5 26.8333,201.5 30.5,201.5C 34.1667,201.5 37.8333,201.5 41.5,201.5C 44.8333,201.5 48.1667,201.5 51.5,201.5C 52.5,201.5 53.5,201.5 54.5,201.5C 60.8333,201.5 67.1667,201.5 73.5,201.5C 74.8333,201.5 76.1667,201.5 77.5,201.5C 78.9778,201.762 80.3112,201.429 81.5,200.5C 80.7868,198.224 80.2868,195.891 80,193.5C 79.7508,194.624 79.2508,195.624 78.5,196.5C 77.3452,193.554 77.1786,190.554 78,187.5C 78.2784,188.416 78.7784,189.082 79.5,189.5C 79.5,190.5 79.5,191.5 79.5,192.5C 81.1992,192.34 82.8659,192.506 84.5,193C 84.1667,193.333 83.8333,193.667 83.5,194C 91.4931,194.5 99.4931,194.666 107.5,194.5C 107.5,195.5 107.5,196.5 107.5,197.5C 103.556,198.274 103.723,198.941 108,199.5C 121.149,197.621 134.316,195.954 147.5,194.5C 147.5,193.5 147.5,192.5 147.5,191.5C 146.5,191.5 145.5,191.5 144.5,191.5C 145.659,187.665 146.993,183.832 148.5,180C 147.748,179.329 147.414,178.496 147.5,177.5C 148.167,177.167 148.833,176.833 149.5,176.5 Z"/></g>
<g><path style="opacity:1" fill="#544e4d" d="M 207.5,191.5 C 213.848,193.942 220.515,194.942 227.5,194.5C 236.822,193.165 246.155,192.498 255.5,192.5C 255.369,193.239 255.536,193.906 256,194.5C 257.333,193.833 258.667,193.167 260,192.5C 261.351,192.446 262.518,192.946 263.5,194C 261.016,195.606 261.016,197.106 263.5,198.5C 262.388,199.265 261.721,200.265 261.5,201.5C 247.167,201.5 232.833,201.5 218.5,201.5C 217.653,200.034 216.32,199.2 214.5,199C 216.256,198.798 217.922,198.298 219.5,197.5C 215.45,196.395 211.45,195.395 207.5,194.5C 207.5,193.5 207.5,192.5 207.5,191.5 Z"/></g>
<g><path style="opacity:1" fill="#5e5555" d="M 207.5,191.5 C 207.5,192.5 207.5,193.5 207.5,194.5C 211.45,195.395 215.45,196.395 219.5,197.5C 217.922,198.298 216.256,198.798 214.5,199C 216.32,199.2 217.653,200.034 218.5,201.5C 211.5,201.5 204.5,201.5 197.5,201.5C 196.788,198.258 196.788,194.925 197.5,191.5C 198.161,192.718 198.828,194.051 199.5,195.5C 199.833,195.333 200.167,195.167 200.5,195C 199.205,191.214 199.205,187.38 200.5,183.5C 202.539,182.723 203.205,181.557 202.5,180C 202.915,177.974 203.915,176.474 205.5,175.5C 207.855,173.83 209.188,174.497 209.5,177.5C 207.838,181.341 205.838,184.841 203.5,188C 203.424,190.756 204.757,191.923 207.5,191.5 Z"/></g>
<g><path style="opacity:1" fill="#6e5355" d="M 4.5,174.5 C 6.08631,176.085 7.75298,176.918 9.5,177C 9.26454,177.873 8.9312,178.707 8.5,179.5C 9.71098,182.926 11.0443,186.259 12.5,189.5C 15.5,192 18.5,194.5 21.5,197C 24.6126,198.417 27.6126,199.917 30.5,201.5C 26.8333,201.5 23.1667,201.5 19.5,201.5C 16.4425,199.868 13.1091,198.701 9.5,198C 9.11128,193.032 7.11128,188.532 3.5,184.5C 4.32704,181.217 4.66037,177.884 4.5,174.5 Z"/></g>
<g><path style="opacity:1" fill="#6d6253" d="M 189.5,191.5 C 188.498,193.011 187.831,194.678 187.5,196.5C 183.781,196.002 180.447,196.836 177.5,199C 173.301,199.528 169.301,200.361 165.5,201.5C 163.5,201.5 161.5,201.5 159.5,201.5C 160.167,200.167 160.833,198.833 161.5,197.5C 164.371,195.464 167.371,193.63 170.5,192C 176.551,191.792 182.551,191.292 188.5,190.5C 189.107,190.624 189.44,190.957 189.5,191.5 Z"/></g>
<g><path style="opacity:1" fill="#69585a" d="M 65.5,161.5 C 66.1667,162.5 66.8333,163.5 67.5,164.5C 67.1159,166.665 67.7826,168.332 69.5,169.5C 70.6963,167.855 71.6963,166.189 72.5,164.5C 73.7054,176.882 75.372,189.216 77.5,201.5C 76.1667,201.5 74.8333,201.5 73.5,201.5C 73.9234,200.735 74.2568,199.902 74.5,199C 73.7963,195.872 73.2963,192.706 73,189.5C 72.8871,187.026 71.8871,185.026 70,183.5C 69.0997,179.829 68.2663,176.163 67.5,172.5C 65.9084,169.034 65.2417,165.367 65.5,161.5 Z"/></g>
<g><path style="opacity:1" fill="#554a47" d="M 154.5,191.5 C 154.351,192.552 154.517,193.552 155,194.5C 156.356,193.62 157.856,193.286 159.5,193.5C 161.176,194.183 161.843,195.517 161.5,197.5C 160.833,198.833 160.167,200.167 159.5,201.5C 148.828,201.667 138.161,201.5 127.5,201C 135.955,198.924 144.622,197.757 153.5,197.5C 153.205,195.265 153.539,193.265 154.5,191.5 Z"/></g>
<g><path style="opacity:1" fill="#7e756c" d="M 195.5,189.5 C 196.5,189.833 197.167,190.5 197.5,191.5C 196.788,194.925 196.788,198.258 197.5,201.5C 186.833,201.5 176.167,201.5 165.5,201.5C 169.301,200.361 173.301,199.528 177.5,199C 180.447,196.836 183.781,196.002 187.5,196.5C 187.831,194.678 188.498,193.011 189.5,191.5C 191.858,191.747 193.858,191.081 195.5,189.5 Z"/></g>
<g><path style="opacity:1" fill="#000000" d="M -0.5,202.5 C 97.5,202.5 195.5,202.5 293.5,202.5C 293.5,214.833 293.5,227.167 293.5,239.5C 195.5,239.5 97.5,239.5 -0.5,239.5C -0.5,227.167 -0.5,214.833 -0.5,202.5 Z"/></g>
</svg>
