<?xml version="1.0" encoding="UTF-8"?>
<!DOCTYPE svg PUBLIC "-//W3C//DTD SVG 1.1//EN" "http://www.w3.org/Graphics/SVG/1.1/DTD/svg11.dtd">
<svg xmlns="http://www.w3.org/2000/svg" version="1.1" width="294px" height="240px" style="shape-rendering:geometricPrecision; text-rendering:geometricPrecision; image-rendering:optimizeQuality; fill-rule:evenodd; clip-rule:evenodd" xmlns:xlink="http://www.w3.org/1999/xlink">
<g><path style="opacity:1" fill="#000000" d="M -0.5,-0.5 C 97.5,-0.5 195.5,-0.5 293.5,-0.5C 293.5,11.8333 293.5,24.1667 293.5,36.5C 195.5,36.5 97.5,36.5 -0.5,36.5C -0.5,24.1667 -0.5,11.8333 -0.5,-0.5 Z"/></g>
<g><path style="opacity:1" fill="#33262c" d="M -0.5,37.5 C -0.5,37.1667 -0.5,36.8333 -0.5,36.5C 97.5,36.5 195.5,36.5 293.5,36.5C 293.5,36.8333 293.5,37.1667 293.5,37.5C 276.833,37.5 260.167,37.5 243.5,37.5C 241.5,37.5 239.5,37.5 237.5,37.5C 229.5,37.5 221.5,37.5 213.5,37.5C 195.5,37.5 177.5,37.5 159.5,37.5C 126.165,37.3333 92.8317,37.5 59.5,38C 58.1667,38.3333 56.8333,38.6667 55.5,39C 57.5,39.1667 59.5,39.3333 61.5,39.5C 76.8778,39.4005 92.2112,39.4005 107.5,39.5C 106.464,41.3911 106.464,43.2245 107.5,45C 112.777,46.8259 118.11,46.9925 123.5,45.5C 129.874,48.7971 136.708,49.1305 144,46.5C 147.651,47.6525 150.151,49.9859 151.5,53.5C 129.855,53.6064 108.355,53.6064 87,53.5C 79.8854,54.5918 72.7187,55.9252 65.5,57.5C 62.0908,56.0236 59.0908,56.6902 56.5,59.5C 59.1678,60.7378 61.8345,60.7378 64.5,59.5C 69.1667,61.5 73.8333,63.5 78.5,65.5C 88.8758,65.7322 99.0425,65.3988 109,64.5C 115.753,65.314 122.586,65.814 129.5,66C 131.392,66.9734 133.392,67.6401 135.5,68C 136.791,69.2917 136.791,70.4583 135.5,71.5C 128.252,71.6322 121.085,70.9655 114,69.5C 111.37,69.464 108.87,69.964 106.5,71C 89.9949,71.1685 73.6615,71.6685 57.5,72.5C 55.4559,71.9688 53.7893,70.8022 52.5,69C 49.9644,68.8138 47.631,68.3138 45.5,67.5C 41.7152,57.5294 39.0486,47.5294 37.5,37.5C 24.8333,37.5 12.1667,37.5 -0.5,37.5 Z"/></g>
<g><path style="opacity:1" fill="#352e31" d="M 159.5,37.5 C 159.5,38.1667 159.5,38.8333 159.5,39.5C 152.257,39.3011 145.09,39.9678 138,41.5C 128.096,40.2339 117.93,39.5672 107.5,39.5C 92.2112,39.4005 76.8778,39.4005 61.5,39.5C 59.5,39.3333 57.5,39.1667 55.5,39C 56.8333,38.6667 58.1667,38.3333 59.5,38C 92.8317,37.5 126.165,37.3333 159.5,37.5 Z"/></g>
<g><path style="opacity:1" fill="#3a2e32" d="M 159.5,37.5 C 177.5,37.5 195.5,37.5 213.5,37.5C 213.062,41.3129 211.729,44.6462 209.5,47.5C 206.723,45.9406 203.89,44.2739 201,42.5C 199.856,42.9111 198.689,43.2444 197.5,43.5C 195.608,42.5266 193.608,41.8599 191.5,41.5C 187.722,42.4705 183.889,43.1372 180,43.5C 177.05,43.4324 174.383,42.7657 172,41.5C 171.692,42.3081 171.192,42.9747 170.5,43.5C 166.608,42.327 162.941,40.9937 159.5,39.5C 159.5,38.8333 159.5,38.1667 159.5,37.5 Z"/></g>
<g><path style="opacity:1" fill="#65594e" d="M -0.5,39.5 C 4.83333,39.5 10.1667,39.5 15.5,39.5C 15.2786,42.2788 15.612,44.9455 16.5,47.5C 15.1169,50.7249 13.1169,53.5582 10.5,56C 11.5,56.8333 12.5,57.6667 13.5,58.5C 13.0431,59.2975 12.3764,59.6309 11.5,59.5C 8.41028,55.9205 4.41028,54.5872 -0.5,55.5C -0.5,50.1667 -0.5,44.8333 -0.5,39.5 Z"/></g>
<g><path style="opacity:1" fill="#39292f" d="M 107.5,39.5 C 117.93,39.5672 128.096,40.2339 138,41.5C 145.09,39.9678 152.257,39.3011 159.5,39.5C 162.941,40.9937 166.608,42.327 170.5,43.5C 171.192,42.9747 171.692,42.3081 172,41.5C 174.383,42.7657 177.05,43.4324 180,43.5C 183.889,43.1372 187.722,42.4705 191.5,41.5C 193.608,41.8599 195.608,42.5266 197.5,43.5C 198.689,43.2444 199.856,42.9111 201,42.5C 203.89,44.2739 206.723,45.9406 209.5,47.5C 206.377,57.5061 201.377,66.3394 194.5,74C 188.843,74.4994 183.176,74.6661 177.5,74.5C 176.194,73.5326 175.527,72.1993 175.5,70.5C 179.146,71.2834 182.812,71.4501 186.5,71C 185.743,69.4878 184.743,68.1545 183.5,67C 186.234,66.7896 188.734,65.9563 191,64.5C 192.297,65.7836 193.464,65.6169 194.5,64C 193.552,63.5172 192.552,63.3505 191.5,63.5C 191.5,61.1667 191.5,58.8333 191.5,56.5C 190.167,56.5 188.833,56.5 187.5,56.5C 188.449,58.7373 189.116,61.0706 189.5,63.5C 186.167,63.5 182.833,63.5 179.5,63.5C 179.076,59.7318 177.076,57.0651 173.5,55.5C 167.528,54.3364 161.528,54.1697 155.5,55C 156.938,55.2189 158.271,55.7189 159.5,56.5C 155.795,58.0452 153.129,57.0452 151.5,53.5C 150.151,49.9859 147.651,47.6525 144,46.5C 136.708,49.1305 129.874,48.7971 123.5,45.5C 118.11,46.9925 112.777,46.8259 107.5,45C 106.464,43.2245 106.464,41.3911 107.5,39.5 Z"/></g>
<g><path style="opacity:1" fill="#584c49" d="M -0.5,37.5 C 12.1667,37.5 24.8333,37.5 37.5,37.5C 38.8775,43.665 37.0442,47.665 32,49.5C 30.9765,54.0984 31.4765,58.4317 33.5,62.5C 34.2739,63.7112 35.1072,63.7112 36,62.5C 37.1451,63.6364 38.3117,64.6364 39.5,65.5C 36.7531,65.8134 34.0865,65.48 31.5,64.5C 30.0499,63.1502 29.3832,61.4835 29.5,59.5C 24.594,57.4184 21.2607,53.7517 19.5,48.5C 18.675,47.6143 17.675,47.281 16.5,47.5C 15.612,44.9455 15.2786,42.2788 15.5,39.5C 10.1667,39.5 4.83333,39.5 -0.5,39.5C -0.5,38.8333 -0.5,38.1667 -0.5,37.5 Z"/></g>
<g><path style="opacity:1" fill="#36282d" d="M 293.5,39.5 C 293.5,45.5 293.5,51.5 293.5,57.5C 282.849,58.2817 272.182,57.9484 261.5,56.5C 251.211,57.5946 241.045,57.5946 231,56.5C 230.493,55.0039 230.993,53.8373 232.5,53C 234.74,52.023 237.073,51.523 239.5,51.5C 240.063,44.7501 243.73,42.0834 250.5,43.5C 250.5,44.8333 250.5,46.1667 250.5,47.5C 258.798,48.5737 267.132,48.7404 275.5,48C 279.123,45.228 283.123,43.0613 287.5,41.5C 286.975,40.8076 286.308,40.3076 285.5,40C 288.146,39.5026 290.813,39.3359 293.5,39.5 Z"/></g>
<g><path style="opacity:1" fill="#4c3f41" d="M 37.5,37.5 C 39.0486,47.5294 41.7152,57.5294 45.5,67.5C 43.2143,67.405 41.2143,66.7384 39.5,65.5C 38.3117,64.6364 37.1451,63.6364 36,62.5C 35.1072,63.7112 34.2739,63.7112 33.5,62.5C 31.4765,58.4317 30.9765,54.0984 32,49.5C 37.0442,47.665 38.8775,43.665 37.5,37.5 Z"/></g>
<g><path style="opacity:1" fill="#5c4b46" d="M 213.5,37.5 C 221.5,37.5 229.5,37.5 237.5,37.5C 237.082,38.2216 236.416,38.7216 235.5,39C 235.957,39.414 236.291,39.914 236.5,40.5C 231.749,41.4177 227.416,43.0844 223.5,45.5C 223.5,46.5 223.5,47.5 223.5,48.5C 222.167,48.5 220.833,48.5 219.5,48.5C 219.256,51.2626 217.923,53.4293 215.5,55C 217.577,55.1922 219.577,55.6922 221.5,56.5C 217.099,61.0705 212.599,65.4038 208,69.5C 207.091,71.6575 206.925,73.6575 207.5,75.5C 207.167,75.5 206.833,75.5 206.5,75.5C 198.16,75.3336 189.827,75.5003 181.5,76C 179.841,77.8415 177.841,79.0081 175.5,79.5C 175.5,78.1667 175.5,76.8333 175.5,75.5C 176.492,75.6716 177.158,75.3382 177.5,74.5C 183.176,74.6661 188.843,74.4994 194.5,74C 201.377,66.3394 206.377,57.5061 209.5,47.5C 211.729,44.6462 213.062,41.3129 213.5,37.5 Z"/></g>
<g><path style="opacity:1" fill="#3c2d32" d="M 243.5,37.5 C 260.167,37.5 276.833,37.5 293.5,37.5C 293.5,38.1667 293.5,38.8333 293.5,39.5C 290.813,39.3359 288.146,39.5026 285.5,40C 286.308,40.3076 286.975,40.8076 287.5,41.5C 283.123,43.0613 279.123,45.228 275.5,48C 267.132,48.7404 258.798,48.5737 250.5,47.5C 250.5,46.1667 250.5,44.8333 250.5,43.5C 243.73,42.0834 240.063,44.7501 239.5,51.5C 237.073,51.523 234.74,52.023 232.5,53C 230.993,53.8373 230.493,55.0039 231,56.5C 241.045,57.5946 251.211,57.5946 261.5,56.5C 272.182,57.9484 282.849,58.2817 293.5,57.5C 293.5,61.8333 293.5,66.1667 293.5,70.5C 291.5,70.5 289.5,70.5 287.5,70.5C 287.5,69.5 287.5,68.5 287.5,67.5C 283.185,67.9538 279.019,68.9538 275,70.5C 273.197,68.5155 272.197,66.5155 272,64.5C 268.116,66.2095 264.616,68.5429 261.5,71.5C 259.116,70.9876 256.783,70.3209 254.5,69.5C 253.667,70.5 252.833,71.5 252,72.5C 249.493,71.933 246.993,71.5997 244.5,71.5C 237.83,72.3678 231.164,73.3678 224.5,74.5C 227.107,75.3184 229.774,75.8184 232.5,76C 233.056,76.3826 233.389,76.8826 233.5,77.5C 227.527,76.7241 221.527,76.0574 215.5,75.5C 218.606,71.6248 220.939,67.2915 222.5,62.5C 226.858,60.6641 229.358,57.3307 230,52.5C 233.367,48.3986 237.034,45.3986 241,43.5C 241.655,41.3716 242.489,39.3716 243.5,37.5 Z"/></g>
<g><path style="opacity:1" fill="#3d2b33" d="M 151.5,53.5 C 153.129,57.0452 155.795,58.0452 159.5,56.5C 158.271,55.7189 156.938,55.2189 155.5,55C 161.528,54.1697 167.528,54.3364 173.5,55.5C 177.076,57.0651 179.076,59.7318 179.5,63.5C 182.833,63.5 186.167,63.5 189.5,63.5C 189.116,61.0706 188.449,58.7373 187.5,56.5C 188.833,56.5 190.167,56.5 191.5,56.5C 191.5,58.8333 191.5,61.1667 191.5,63.5C 192.552,63.3505 193.552,63.5172 194.5,64C 193.464,65.6169 192.297,65.7836 191,64.5C 188.734,65.9563 186.234,66.7896 183.5,67C 184.743,68.1545 185.743,69.4878 186.5,71C 182.812,71.4501 179.146,71.2834 175.5,70.5C 175.527,72.1993 176.194,73.5326 177.5,74.5C 177.158,75.3382 176.492,75.6716 175.5,75.5C 171.833,75.5 168.167,75.5 164.5,75.5C 157.5,75.5 150.5,75.5 143.5,75.5C 143.5,74.5 143.5,73.5 143.5,72.5C 140.615,72.8064 137.948,72.4731 135.5,71.5C 136.791,70.4583 136.791,69.2917 135.5,68C 133.392,67.6401 131.392,66.9734 129.5,66C 122.586,65.814 115.753,65.314 109,64.5C 99.0425,65.3988 88.8758,65.7322 78.5,65.5C 73.8333,63.5 69.1667,61.5 64.5,59.5C 61.8345,60.7378 59.1678,60.7378 56.5,59.5C 59.0908,56.6902 62.0908,56.0236 65.5,57.5C 72.7187,55.9252 79.8854,54.5918 87,53.5C 108.355,53.6064 129.855,53.6064 151.5,53.5 Z"/></g>
<g><path style="opacity:1" fill="#62524e" d="M 16.5,47.5 C 17.675,47.281 18.675,47.6143 19.5,48.5C 21.2607,53.7517 24.594,57.4184 29.5,59.5C 29.3832,61.4835 30.0499,63.1502 31.5,64.5C 34.0865,65.48 36.7531,65.8134 39.5,65.5C 41.2143,66.7384 43.2143,67.405 45.5,67.5C 47.631,68.3138 49.9644,68.8138 52.5,69C 53.7893,70.8022 55.4559,71.9688 57.5,72.5C 58.1667,73.1667 58.8333,73.8333 59.5,74.5C 57.8008,74.3398 56.1341,74.5065 54.5,75C 56.4374,77.0856 58.104,79.2522 59.5,81.5C 59.5,81.8333 59.5,82.1667 59.5,82.5C 58.6236,82.3691 57.9569,82.7025 57.5,83.5C 56.058,87.3761 54.3913,91.0428 52.5,94.5C 49.4839,92.7566 47.1506,90.4233 45.5,87.5C 44.899,81.866 42.2323,80.5326 37.5,83.5C 34.6863,80.6628 32.3529,80.9961 30.5,84.5C 26.9092,85.2521 23.4092,85.5855 20,85.5C 18.2814,83.6836 16.1147,82.6836 13.5,82.5C 9.36329,84.344 6.19662,83.344 4,79.5C 2.64387,80.3802 1.14387,80.7135 -0.5,80.5C -0.5,78.8333 -0.5,77.1667 -0.5,75.5C 1.95138,76.8943 4.61805,77.7276 7.5,78C 8.16667,79.3333 9.16667,80.3333 10.5,81C 15.6836,81.0116 20.6836,81.8449 25.5,83.5C 26.3163,80.4533 28.3163,78.7866 31.5,78.5C 30.675,77.6143 29.675,77.281 28.5,77.5C 28.6715,75.5082 28.0049,73.8415 26.5,72.5C 27.7059,70.4841 27.7059,68.4841 26.5,66.5C 20.7353,65.4469 15.7353,63.1135 11.5,59.5C 12.3764,59.6309 13.0431,59.2975 13.5,58.5C 12.5,57.6667 11.5,56.8333 10.5,56C 13.1169,53.5582 15.1169,50.7249 16.5,47.5 Z"/></g>
<g><path style="opacity:1" fill="#51423e" d="M 237.5,37.5 C 239.5,37.5 241.5,37.5 243.5,37.5C 242.489,39.3716 241.655,41.3716 241,43.5C 237.034,45.3986 233.367,48.3986 230,52.5C 229.358,57.3307 226.858,60.6641 222.5,62.5C 220.939,67.2915 218.606,71.6248 215.5,75.5C 212.833,75.5 210.167,75.5 207.5,75.5C 206.925,73.6575 207.091,71.6575 208,69.5C 212.599,65.4038 217.099,61.0705 221.5,56.5C 219.577,55.6922 217.577,55.1922 215.5,55C 217.923,53.4293 219.256,51.2626 219.5,48.5C 220.833,48.5 222.167,48.5 223.5,48.5C 223.5,47.5 223.5,46.5 223.5,45.5C 227.416,43.0844 231.749,41.4177 236.5,40.5C 236.291,39.914 235.957,39.414 235.5,39C 236.416,38.7216 237.082,38.2216 237.5,37.5 Z"/></g>
<g><path style="opacity:1" fill="#5e4d4a" d="M -0.5,55.5 C 4.41028,54.5872 8.41028,55.9205 11.5,59.5C 15.7353,63.1135 20.7353,65.4469 26.5,66.5C 27.7059,68.4841 27.7059,70.4841 26.5,72.5C 28.0049,73.8415 28.6715,75.5082 28.5,77.5C 29.675,77.281 30.675,77.6143 31.5,78.5C 28.3163,78.7866 26.3163,80.4533 25.5,83.5C 20.6836,81.8449 15.6836,81.0116 10.5,81C 9.16667,80.3333 8.16667,79.3333 7.5,78C 4.61805,77.7276 1.95138,76.8943 -0.5,75.5C -0.5,68.8333 -0.5,62.1667 -0.5,55.5 Z"/></g>
<g><path style="opacity:1" fill="#35282e" d="M 293.5,70.5 C 293.5,71.8333 293.5,73.1667 293.5,74.5C 274.2,74.8526 254.867,74.8526 235.5,74.5C 235.36,76.1238 236.027,77.2904 237.5,78C 241.162,78.2815 244.829,78.1148 248.5,77.5C 251.205,77.3161 253.538,77.9827 255.5,79.5C 248.833,79.5 242.167,79.5 235.5,79.5C 235.167,78.5 234.5,77.8333 233.5,77.5C 233.389,76.8826 233.056,76.3826 232.5,76C 229.774,75.8184 227.107,75.3184 224.5,74.5C 231.164,73.3678 237.83,72.3678 244.5,71.5C 246.993,71.5997 249.493,71.933 252,72.5C 252.833,71.5 253.667,70.5 254.5,69.5C 256.783,70.3209 259.116,70.9876 261.5,71.5C 264.616,68.5429 268.116,66.2095 272,64.5C 272.197,66.5155 273.197,68.5155 275,70.5C 279.019,68.9538 283.185,67.9538 287.5,67.5C 287.5,68.5 287.5,69.5 287.5,70.5C 289.5,70.5 291.5,70.5 293.5,70.5 Z"/></g>
<g><path style="opacity:1" fill="#302529" d="M 135.5,71.5 C 137.948,72.4731 140.615,72.8064 143.5,72.5C 143.5,73.5 143.5,74.5 143.5,75.5C 139.958,75.1872 136.625,75.5206 133.5,76.5C 121.655,76.1717 109.988,76.5051 98.5,77.5C 87.4687,77.2598 76.4687,77.5931 65.5,78.5C 62.7079,78.3775 60.7079,77.0442 59.5,74.5C 58.8333,73.8333 58.1667,73.1667 57.5,72.5C 73.6615,71.6685 89.9949,71.1685 106.5,71C 108.87,69.964 111.37,69.464 114,69.5C 121.085,70.9655 128.252,71.6322 135.5,71.5 Z"/></g>
<g><path style="opacity:1" fill="#2e2227" d="M 293.5,74.5 C 293.5,76.1667 293.5,77.8333 293.5,79.5C 280.833,79.5 268.167,79.5 255.5,79.5C 253.538,77.9827 251.205,77.3161 248.5,77.5C 244.829,78.1148 241.162,78.2815 237.5,78C 236.027,77.2904 235.36,76.1238 235.5,74.5C 254.867,74.8526 274.2,74.8526 293.5,74.5 Z"/></g>
<g><path style="opacity:1" fill="#624955" d="M 164.5,75.5 C 168.167,75.5 171.833,75.5 175.5,75.5C 175.5,76.8333 175.5,78.1667 175.5,79.5C 174.717,81.328 173.384,82.6613 171.5,83.5C 170.167,83.5 168.833,83.5 167.5,83.5C 167.5,82.1667 167.5,80.8333 167.5,79.5C 166.167,79.5 164.833,79.5 163.5,79.5C 163.433,78.0413 163.766,76.7079 164.5,75.5 Z"/></g>
<g><path style="opacity:1" fill="#7c7074" d="M 59.5,74.5 C 60.7079,77.0442 62.7079,78.3775 65.5,78.5C 63.7392,79.3127 62.0725,80.3127 60.5,81.5C 60.1667,81.5 59.8333,81.5 59.5,81.5C 58.104,79.2522 56.4374,77.0856 54.5,75C 56.1341,74.5065 57.8008,74.3398 59.5,74.5 Z"/></g>
<g><path style="opacity:1" fill="#664b54" d="M 206.5,75.5 C 206.833,75.5 207.167,75.5 207.5,75.5C 210.167,75.5 212.833,75.5 215.5,75.5C 213.707,78.9737 212.374,82.6404 211.5,86.5C 204.808,84.2179 200.808,86.5513 199.5,93.5C 199.5,93.8333 199.5,94.1667 199.5,94.5C 199.167,94.5 198.833,94.5 198.5,94.5C 198.5,93.8333 198.5,93.1667 198.5,92.5C 196.527,91.8373 194.361,91.5039 192,91.5C 184.012,91.4179 181.679,95.0846 185,102.5C 187.381,103.435 189.881,103.768 192.5,103.5C 190.7,105.05 188.533,106.05 186,106.5C 185.148,105.429 184.315,104.429 183.5,103.5C 182.116,100.63 179.782,98.9631 176.5,98.5C 175.691,96.9291 175.357,95.2624 175.5,93.5C 179.602,93.2632 182.935,91.5965 185.5,88.5C 190.046,88.0994 194.213,86.7661 198,84.5C 198.333,84.8333 198.667,85.1667 199,85.5C 199.495,83.5273 199.662,81.5273 199.5,79.5C 201.604,79.7989 203.604,79.4656 205.5,78.5C 206.127,77.5832 206.461,76.5832 206.5,75.5 Z"/></g>
<g><path style="opacity:1" fill="#826e78" d="M 143.5,76.5 C 147.514,76.3345 151.514,76.5012 155.5,77C 154.056,80.7531 152.722,84.5864 151.5,88.5C 148.531,90.6675 145.197,92.0008 141.5,92.5C 142.689,93.4287 144.022,93.762 145.5,93.5C 144.841,98.313 142.507,102.146 138.5,105C 139.672,105.419 140.672,106.085 141.5,107C 139.372,107.655 137.372,108.489 135.5,109.5C 134.252,104.926 135.252,100.759 138.5,97C 135.795,94.2076 132.462,92.8743 128.5,93C 132.084,91.9266 135.75,91.2599 139.5,91C 138.027,90.2904 137.36,89.1238 137.5,87.5C 139.429,87.7692 141.095,87.2692 142.5,86C 141.366,84.984 141.699,84.3173 143.5,84C 138.182,81.8976 138.515,80.2309 144.5,79C 143.748,78.3292 143.414,77.4959 143.5,76.5 Z"/></g>
<g><path style="opacity:1" fill="#705959" d="M 206.5,75.5 C 206.461,76.5832 206.127,77.5832 205.5,78.5C 203.604,79.4656 201.604,79.7989 199.5,79.5C 199.662,81.5273 199.495,83.5273 199,85.5C 198.667,85.1667 198.333,84.8333 198,84.5C 194.213,86.7661 190.046,88.0994 185.5,88.5C 182.935,91.5965 179.602,93.2632 175.5,93.5C 174.833,93.5 174.167,93.5 173.5,93.5C 176.734,92.9114 178.067,90.9114 177.5,87.5C 180.127,87.7067 181.793,86.54 182.5,84C 179.619,80.7841 176.619,80.7841 173.5,84C 172.915,85.3024 172.249,86.469 171.5,87.5C 171.5,86.1667 171.5,84.8333 171.5,83.5C 173.384,82.6613 174.717,81.328 175.5,79.5C 177.841,79.0081 179.841,77.8415 181.5,76C 189.827,75.5003 198.16,75.3336 206.5,75.5 Z"/></g>
<g><path style="opacity:1" fill="#412f2e" d="M 235.5,79.5 C 242.167,79.5 248.833,79.5 255.5,79.5C 268.167,79.5 280.833,79.5 293.5,79.5C 293.5,80.1667 293.5,80.8333 293.5,81.5C 273.92,81.2964 254.587,81.2964 235.5,81.5C 235.5,80.8333 235.5,80.1667 235.5,79.5 Z"/></g>
<g><path style="opacity:1" fill="#4b3b35" d="M 293.5,81.5 C 293.5,82.1667 293.5,82.8333 293.5,83.5C 274.813,84.4951 256.147,84.8285 237.5,84.5C 236.833,85.5 236.167,86.5 235.5,87.5C 235.5,85.5 235.5,83.5 235.5,81.5C 254.587,81.2964 273.92,81.2964 293.5,81.5 Z"/></g>
<g><path style="opacity:1" fill="#685c53" d="M 45.5,87.5 C 43.7179,88.7196 41.7179,89.3862 39.5,89.5C 39.5,88.5 39.5,87.5 39.5,86.5C 28.6943,87.2713 17.8609,87.6046 7,87.5C 4.77237,85.8866 2.27237,85.22 -0.5,85.5C -0.5,83.8333 -0.5,82.1667 -0.5,80.5C 1.14387,80.7135 2.64387,80.3802 4,79.5C 6.19662,83.344 9.36329,84.344 13.5,82.5C 16.1147,82.6836 18.2814,83.6836 20,85.5C 23.4092,85.5855 26.9092,85.2521 30.5,84.5C 32.3529,80.9961 34.6863,80.6628 37.5,83.5C 42.2323,80.5326 44.899,81.866 45.5,87.5 Z"/></g>
<g><path style="opacity:1" fill="#919690" d="M 64.5,88.5 C 64.5,87.5 64.5,86.5 64.5,85.5C 63.0695,85.4208 61.7362,85.7542 60.5,86.5C 59.5713,85.3112 59.238,83.9778 59.5,82.5C 59.5,82.1667 59.5,81.8333 59.5,81.5C 59.8333,81.5 60.1667,81.5 60.5,81.5C 60.62,82.5862 61.2867,83.2528 62.5,83.5C 65.4021,80.0544 69.0687,78.8877 73.5,80C 71.5789,80.3603 69.9122,81.1936 68.5,82.5C 67.1667,83.1667 67.1667,83.8333 68.5,84.5C 75.9669,81.0479 83.6335,79.5479 91.5,80C 92.1667,80.3333 92.8333,80.6667 93.5,81C 91.7444,81.2022 90.0777,81.7022 88.5,82.5C 87.5774,85.4466 86.9107,88.4466 86.5,91.5C 82.1539,91.6657 77.8206,91.499 73.5,91C 75.9913,90.3741 75.9913,89.5407 73.5,88.5C 74.376,87.7492 75.376,87.2492 76.5,87C 75.8333,86.8333 75.1667,86.6667 74.5,86.5C 72.3921,86.7424 70.2254,87.0758 68,87.5C 67.5,87.8333 67,88.1667 66.5,88.5C 67.5896,89.6086 67.5896,90.6086 66.5,91.5C 65.8243,90.3984 65.1577,89.3984 64.5,88.5 Z"/></g>
<g><path style="opacity:1" fill="#64574a" d="M 293.5,83.5 C 293.5,83.8333 293.5,84.1667 293.5,84.5C 276.085,85.2338 258.752,85.5672 241.5,85.5C 241.749,89.4578 241.082,93.1244 239.5,96.5C 239.543,92.1074 239.043,91.7741 238,95.5C 237.501,91.8484 237.335,88.1817 237.5,84.5C 256.147,84.8285 274.813,84.4951 293.5,83.5 Z"/></g>
<g><path style="opacity:1" fill="#94848d" d="M 173.5,93.5 C 172.833,94.8333 172.167,94.8333 171.5,93.5C 171.5,91.5 171.5,89.5 171.5,87.5C 172.249,86.469 172.915,85.3024 173.5,84C 176.619,80.7841 179.619,80.7841 182.5,84C 181.793,86.54 180.127,87.7067 177.5,87.5C 178.067,90.9114 176.734,92.9114 173.5,93.5 Z"/></g>
<g><path style="opacity:1" fill="#78735c" d="M 293.5,84.5 C 293.5,87.1667 293.5,89.8333 293.5,92.5C 286.167,92.5 278.833,92.5 271.5,92.5C 271.5,93.5 271.5,94.5 271.5,95.5C 265.86,94.995 260.527,95.995 255.5,98.5C 256.833,99.1667 258.167,99.8333 259.5,100.5C 257.5,101.333 255.5,102.167 253.5,103C 254.973,103.71 255.64,104.876 255.5,106.5C 258.321,106.539 260.988,107.205 263.5,108.5C 262.5,109.167 261.5,109.833 260.5,110.5C 265.371,110.519 267.704,112.852 267.5,117.5C 274.737,118.987 282.07,119.654 289.5,119.5C 289.187,122.247 289.52,124.914 290.5,127.5C 291.417,126.873 292.417,126.539 293.5,126.5C 293.5,132.833 293.5,139.167 293.5,145.5C 290.102,145.82 286.768,145.487 283.5,144.5C 281.609,143.689 280.276,142.356 279.5,140.5C 275.555,139.509 271.555,139.176 267.5,139.5C 267.5,137.167 267.5,134.833 267.5,132.5C 272.416,134.178 274.416,132.178 273.5,126.5C 268.703,126.879 264.036,126.379 259.5,125C 257.392,122.105 255.059,119.439 252.5,117C 253.138,115.293 253.138,113.46 252.5,111.5C 249.396,112.029 247.063,111.029 245.5,108.5C 243.245,107.806 241.245,106.806 239.5,105.5C 239.5,103.5 239.5,101.5 239.5,99.5C 239.5,98.5 239.5,97.5 239.5,96.5C 241.082,93.1244 241.749,89.4578 241.5,85.5C 258.752,85.5672 276.085,85.2338 293.5,84.5 Z"/></g>
<g><path style="opacity:1" fill="#614154" d="M 215.5,75.5 C 221.527,76.0574 227.527,76.7241 233.5,77.5C 234.5,77.8333 235.167,78.5 235.5,79.5C 235.5,80.1667 235.5,80.8333 235.5,81.5C 235.5,83.5 235.5,85.5 235.5,87.5C 233.772,92.9487 233.105,99.282 233.5,106.5C 232.833,106.167 232.167,105.833 231.5,105.5C 230.152,104.399 228.652,103.399 227,102.5C 226.647,101.328 226.813,100.162 227.5,99C 226.556,97.5232 225.223,96.5232 223.5,96C 221.172,95.1699 218.838,94.3366 216.5,93.5C 210.927,93.7934 205.26,93.7934 199.5,93.5C 200.808,86.5513 204.808,84.2179 211.5,86.5C 212.374,82.6404 213.707,78.9737 215.5,75.5 Z"/></g>
<g><path style="opacity:1" fill="#8c8187" d="M 105.5,77.5 C 112.863,77.1694 120.197,77.5027 127.5,78.5C 124.914,79.48 122.247,79.8134 119.5,79.5C 119.5,81.8333 119.5,84.1667 119.5,86.5C 113.887,86.9317 113.387,89.265 118,93.5C 118.333,95.5 118.667,97.5 119,99.5C 119.49,98.2068 119.657,96.8734 119.5,95.5C 121.492,95.3285 123.158,95.9951 124.5,97.5C 127.402,95.1971 128.236,96.1971 127,100.5C 126.5,101 126,101.5 125.5,102C 119.047,102.988 112.714,103.821 106.5,104.5C 103.713,105.477 100.713,105.81 97.5,105.5C 97.5,105.167 97.5,104.833 97.5,104.5C 101.199,97.8918 105.199,91.0585 109.5,84C 106.894,83.2082 104.894,81.7082 103.5,79.5C 104.833,79.5 105.5,78.8333 105.5,77.5 Z"/></g>
<g><path style="opacity:1" fill="#8a8a84" d="M 59.5,82.5 C 59.238,83.9778 59.5713,85.3112 60.5,86.5C 61.7362,85.7542 63.0695,85.4208 64.5,85.5C 64.5,86.5 64.5,87.5 64.5,88.5C 62.5212,89.8121 60.8545,91.4788 59.5,93.5C 61.0026,94.0522 62.6693,94.0522 64.5,93.5C 64.5,94.5 64.5,95.5 64.5,96.5C 60.9464,97.7693 57.9464,99.7693 55.5,102.5C 54.7611,102.631 54.0944,102.464 53.5,102C 54.6379,100.266 55.1379,98.4324 55,96.5C 54.0922,98.4386 52.5922,99.4386 50.5,99.5C 51.4408,97.9505 52.1075,96.2838 52.5,94.5C 54.3913,91.0428 56.058,87.3761 57.5,83.5C 57.9569,82.7025 58.6236,82.3691 59.5,82.5 Z"/></g>
<g><path style="opacity:1" fill="#765f6a" d="M 133.5,76.5 C 136.625,75.5206 139.958,75.1872 143.5,75.5C 150.5,75.5 157.5,75.5 164.5,75.5C 163.766,76.7079 163.433,78.0413 163.5,79.5C 161.983,79.5106 160.816,80.1772 160,81.5C 161.549,88.7024 158.715,92.0357 151.5,91.5C 152.401,95.2407 151.068,97.2407 147.5,97.5C 147.662,99.5273 147.495,101.527 147,103.5C 146.333,102.167 145.667,102.167 145,103.5C 144.153,105.193 143.32,106.86 142.5,108.5C 140.61,108.297 139.11,108.963 138,110.5C 137.667,112.5 137.333,114.5 137,116.5C 134.61,117.938 133.443,120.105 133.5,123C 133.78,126.952 134.613,130.785 136,134.5C 137.802,135.789 138.969,137.456 139.5,139.5C 137.549,139.773 136.049,139.107 135,137.5C 134.667,137.833 134.333,138.167 134,138.5C 132.057,134.09 128.89,132.423 124.5,133.5C 125.025,132.808 125.692,132.308 126.5,132C 125.483,130.951 125.316,129.784 126,128.5C 126.333,128.833 126.667,129.167 127,129.5C 127.875,128.127 128.375,126.627 128.5,125C 127.278,122.296 126.278,119.462 125.5,116.5C 126.025,115.808 126.692,115.308 127.5,115C 126.324,113.326 124.99,111.826 123.5,110.5C 125.332,109.943 126.665,108.943 127.5,107.5C 128.822,107.67 129.989,107.337 131,106.5C 131.918,108.376 133.418,109.376 135.5,109.5C 137.372,108.489 139.372,107.655 141.5,107C 140.672,106.085 139.672,105.419 138.5,105C 142.507,102.146 144.841,98.313 145.5,93.5C 144.022,93.762 142.689,93.4287 141.5,92.5C 145.197,92.0008 148.531,90.6675 151.5,88.5C 152.722,84.5864 154.056,80.7531 155.5,77C 151.514,76.5012 147.514,76.3345 143.5,76.5C 140.167,76.5 136.833,76.5 133.5,76.5 Z"/></g>
<g><path style="opacity:1" fill="#665c4d" d="M 45.5,87.5 C 47.1506,90.4233 49.4839,92.7566 52.5,94.5C 52.1075,96.2838 51.4408,97.9505 50.5,99.5C 50.1667,99.5 49.8333,99.5 49.5,99.5C 46.6916,100.929 43.6916,101.595 40.5,101.5C 39.6586,99.6208 39.3253,97.6208 39.5,95.5C 39.5,93.5 39.5,91.5 39.5,89.5C 41.7179,89.3862 43.7179,88.7196 45.5,87.5 Z"/></g>
<g><path style="opacity:1" fill="#87777f" d="M 98.5,77.5 C 109.988,76.5051 121.655,76.1717 133.5,76.5C 136.833,76.5 140.167,76.5 143.5,76.5C 143.414,77.4959 143.748,78.3292 144.5,79C 138.515,80.2309 138.182,81.8976 143.5,84C 141.699,84.3173 141.366,84.984 142.5,86C 141.095,87.2692 139.429,87.7692 137.5,87.5C 137.36,89.1238 138.027,90.2904 139.5,91C 135.75,91.2599 132.084,91.9266 128.5,93C 132.462,92.8743 135.795,94.2076 138.5,97C 135.252,100.759 134.252,104.926 135.5,109.5C 133.418,109.376 131.918,108.376 131,106.5C 129.989,107.337 128.822,107.67 127.5,107.5C 122.17,107.437 120.837,109.437 123.5,113.5C 121.006,116.253 121.006,118.92 123.5,121.5C 122.985,123.225 122.318,124.892 121.5,126.5C 120.351,124.075 119.684,124.075 119.5,126.5C 118.178,126.33 117.011,126.663 116,127.5C 112.523,121.512 113.023,116.512 117.5,112.5C 114.278,110.86 112.944,108.193 113.5,104.5C 111.167,104.5 108.833,104.5 106.5,104.5C 112.714,103.821 119.047,102.988 125.5,102C 126,101.5 126.5,101 127,100.5C 128.236,96.1971 127.402,95.1971 124.5,97.5C 123.158,95.9951 121.492,95.3285 119.5,95.5C 119.657,96.8734 119.49,98.2068 119,99.5C 118.667,97.5 118.333,95.5 118,93.5C 113.387,89.265 113.887,86.9317 119.5,86.5C 119.5,84.1667 119.5,81.8333 119.5,79.5C 122.247,79.8134 124.914,79.48 127.5,78.5C 120.197,77.5027 112.863,77.1694 105.5,77.5C 103.167,77.5 100.833,77.5 98.5,77.5 Z"/></g>
<g><path style="opacity:1" fill="#70685c" d="M -0.5,85.5 C 2.27237,85.22 4.77237,85.8866 7,87.5C 17.8609,87.6046 28.6943,87.2713 39.5,86.5C 39.5,87.5 39.5,88.5 39.5,89.5C 39.5,91.5 39.5,93.5 39.5,95.5C 36.2613,95.5871 33.2613,94.9205 30.5,93.5C 29.7375,92.7321 28.7375,92.2321 27.5,92C 22.8333,91.3333 18.1667,91.3333 13.5,92C 11.6234,94.1058 9.29002,95.4391 6.5,96C 6.03973,100.217 3.7064,102.051 -0.5,101.5C -0.5,96.1667 -0.5,90.8333 -0.5,85.5 Z"/></g>
<g><path style="opacity:1" fill="#5f404d" d="M 171.5,93.5 C 172.167,94.8333 172.833,94.8333 173.5,93.5C 174.167,93.5 174.833,93.5 175.5,93.5C 175.357,95.2624 175.691,96.9291 176.5,98.5C 179.782,98.9631 182.116,100.63 183.5,103.5C 182.833,105.5 181.5,106.833 179.5,107.5C 176.306,107.73 173.306,107.064 170.5,105.5C 167.347,106.989 164.514,108.323 162,109.5C 159.921,106.517 159.087,103.183 159.5,99.5C 162.573,97.3364 165.573,95.0031 168.5,92.5C 169.417,93.1272 170.417,93.4606 171.5,93.5 Z"/></g>
<g><path style="opacity:1" fill="#623f57" d="M 199.5,93.5 C 205.26,93.7934 210.927,93.7934 216.5,93.5C 218.838,94.3366 221.172,95.1699 223.5,96C 225.223,96.5232 226.556,97.5232 227.5,99C 226.813,100.162 226.647,101.328 227,102.5C 228.652,103.399 230.152,104.399 231.5,105.5C 229.831,108.758 228.164,112.092 226.5,115.5C 224.606,116.048 222.94,117.048 221.5,118.5C 220.378,117.37 219.044,116.703 217.5,116.5C 217.5,114.833 217.5,113.167 217.5,111.5C 219.308,110.082 219.975,108.082 219.5,105.5C 216.5,105.5 213.5,105.5 210.5,105.5C 210.918,104.778 211.584,104.278 212.5,104C 210.68,102.311 208.68,102.145 206.5,103.5C 207.794,100.577 206.794,98.5766 203.5,97.5C 202.818,98.2427 202.151,98.9094 201.5,99.5C 200.498,97.9891 199.831,96.3224 199.5,94.5C 199.5,94.1667 199.5,93.8333 199.5,93.5 Z"/></g>
<g><path style="opacity:1" fill="#abb1ac" d="M 54.5,109.5 C 53.448,109.649 52.448,109.483 51.5,109C 53.7229,107.389 55.0562,105.222 55.5,102.5C 57.9464,99.7693 60.9464,97.7693 64.5,96.5C 65.4345,95.4324 65.7678,94.099 65.5,92.5C 72.175,92.3337 78.8417,92.5004 85.5,93C 81.6766,94.641 79.6766,97.4743 79.5,101.5C 74.8215,101.334 70.1548,101.501 65.5,102C 65.1667,102.333 64.8333,102.667 64.5,103C 66.7148,104.044 69.0481,104.71 71.5,105C 68.5116,109.004 64.5116,110.67 59.5,110C 60.5,109.167 61.5,108.333 62.5,107.5C 61.6667,107.167 60.8333,106.833 60,106.5C 58.159,107.562 56.3257,108.562 54.5,109.5 Z"/></g>
<g><path style="opacity:1" fill="#938d90" d="M 103.5,79.5 C 104.894,81.7082 106.894,83.2082 109.5,84C 105.199,91.0585 101.199,97.8918 97.5,104.5C 96.1667,104.5 94.8333,104.5 93.5,104.5C 93.6399,102.876 92.9733,101.71 91.5,101C 93.407,96.4816 94.0736,91.6483 93.5,86.5C 96.8333,86.5 100.167,86.5 103.5,86.5C 103.896,83.9556 103.229,81.7889 101.5,80C 102.094,79.5357 102.761,79.369 103.5,79.5 Z"/></g>
<g><path style="opacity:1" fill="#7f7888" d="M 198.5,92.5 C 198.5,93.1667 198.5,93.8333 198.5,94.5C 197.89,96.4341 196.89,98.1007 195.5,99.5C 192.316,99.6055 188.983,99.2722 185.5,98.5C 186.567,96.4414 187.9,94.608 189.5,93C 192.482,92.502 195.482,92.3354 198.5,92.5 Z"/></g>
<g><path style="opacity:1" fill="#77766c" d="M 30.5,93.5 C 33.2613,94.9205 36.2613,95.5871 39.5,95.5C 39.3253,97.6208 39.6586,99.6208 40.5,101.5C 36.2274,104.003 31.5608,105.336 26.5,105.5C 25.8485,104.909 25.1818,104.243 24.5,103.5C 21.7751,105.429 18.7751,105.929 15.5,105C 15.4992,101.699 15.6659,98.1991 16,94.5C 20.7367,93.5308 25.57,93.1975 30.5,93.5 Z"/></g>
<g><path style="opacity:1" fill="#726370" d="M 198.5,92.5 C 195.482,92.3354 192.482,92.502 189.5,93C 187.9,94.608 186.567,96.4414 185.5,98.5C 188.983,99.2722 192.316,99.6055 195.5,99.5C 194.974,101.23 193.974,102.564 192.5,103.5C 189.881,103.768 187.381,103.435 185,102.5C 181.679,95.0846 184.012,91.4179 192,91.5C 194.361,91.5039 196.527,91.8373 198.5,92.5 Z"/></g>
<g><path style="opacity:1" fill="#684758" d="M 163.5,79.5 C 164.833,79.5 166.167,79.5 167.5,79.5C 167.5,80.8333 167.5,82.1667 167.5,83.5C 168.833,83.5 170.167,83.5 171.5,83.5C 171.5,84.8333 171.5,86.1667 171.5,87.5C 171.5,89.5 171.5,91.5 171.5,93.5C 170.417,93.4606 169.417,93.1272 168.5,92.5C 165.573,95.0031 162.573,97.3364 159.5,99.5C 159.631,98.7611 159.464,98.0944 159,97.5C 157.959,100.113 156.459,102.446 154.5,104.5C 155.165,106.101 155.499,107.601 155.5,109C 154.167,110.667 152.833,112.333 151.5,114C 152.91,114.368 153.91,115.201 154.5,116.5C 153.376,117.859 152.042,118.859 150.5,119.5C 149.322,120.999 147.655,121.999 145.5,122.5C 146.609,124.214 145.942,124.881 143.5,124.5C 142.859,123.518 142.193,122.518 141.5,121.5C 143.022,117.318 143.855,112.985 144,108.5C 145.081,106.233 146.581,106.066 148.5,108C 147.213,111.125 147.213,114.291 148.5,117.5C 149.384,113.776 150.384,109.776 151.5,105.5C 150.355,101.438 151.522,98.1048 155,95.5C 159.835,96.6476 162.669,94.6476 163.5,89.5C 163.081,88.3279 162.415,87.3279 161.5,86.5C 163.171,84.4902 163.838,82.1569 163.5,79.5 Z"/></g>
<g><path style="opacity:1" fill="#603d4f" d="M 159.5,99.5 C 159.087,103.183 159.921,106.517 162,109.5C 164.514,108.323 167.347,106.989 170.5,105.5C 173.306,107.064 176.306,107.73 179.5,107.5C 179.092,110.599 180.259,112.933 183,114.5C 183.483,115.448 183.649,116.448 183.5,117.5C 181.508,117.672 179.842,117.005 178.5,115.5C 173.689,117.199 172.355,120.366 174.5,125C 170.696,126.494 171.029,127.328 175.5,127.5C 175.5,129.5 175.5,131.5 175.5,133.5C 170.02,134.051 164.687,134.051 159.5,133.5C 159.502,131.169 158.669,129.169 157,127.5C 155.054,126.253 153.22,124.92 151.5,123.5C 153.045,122.548 154.712,122.215 156.5,122.5C 156.5,121.5 156.5,120.5 156.5,119.5C 154.5,119.5 152.5,119.5 150.5,119.5C 152.042,118.859 153.376,117.859 154.5,116.5C 153.91,115.201 152.91,114.368 151.5,114C 152.833,112.333 154.167,110.667 155.5,109C 155.499,107.601 155.165,106.101 154.5,104.5C 156.459,102.446 157.959,100.113 159,97.5C 159.464,98.0944 159.631,98.7611 159.5,99.5 Z"/></g>
<g><path style="opacity:1" fill="#7b6579" d="M 206.5,103.5 C 204.599,104.931 202.432,105.931 200,106.5C 199.536,105.906 199.369,105.239 199.5,104.5C 200.441,102.95 201.107,101.284 201.5,99.5C 202.151,98.9094 202.818,98.2427 203.5,97.5C 206.794,98.5766 207.794,100.577 206.5,103.5 Z"/></g>
<g><path style="opacity:1" fill="#9d9f9c" d="M 98.5,77.5 C 100.833,77.5 103.167,77.5 105.5,77.5C 105.5,78.8333 104.833,79.5 103.5,79.5C 102.761,79.369 102.094,79.5357 101.5,80C 103.229,81.7889 103.896,83.9556 103.5,86.5C 100.167,86.5 96.8333,86.5 93.5,86.5C 94.0736,91.6483 93.407,96.4816 91.5,101C 92.9733,101.71 93.6399,102.876 93.5,104.5C 90.3915,104.264 87.3915,104.597 84.5,105.5C 82.6921,106.918 82.0254,108.918 82.5,111.5C 81.5,111.5 80.5,111.5 79.5,111.5C 79.5,114.167 79.5,116.833 79.5,119.5C 77.5,119.5 75.5,119.5 73.5,119.5C 72.8333,119.5 72.1667,119.5 71.5,119.5C 71.5614,117.408 72.5614,115.908 74.5,115C 72.0426,113.846 72.0426,112.512 74.5,111C 68.3461,110.215 62.3461,110.882 56.5,113C 55.4321,116.119 53.2654,117.952 50,118.5C 49.8119,120.061 50.6453,120.728 52.5,120.5C 52.7709,122.38 52.1042,123.713 50.5,124.5C 49.8423,123.602 49.1757,122.602 48.5,121.5C 46.5675,122.52 44.5675,122.687 42.5,122C 46.7036,117.964 50.7036,113.798 54.5,109.5C 56.3257,108.562 58.159,107.562 60,106.5C 60.8333,106.833 61.6667,107.167 62.5,107.5C 61.5,108.333 60.5,109.167 59.5,110C 64.5116,110.67 68.5116,109.004 71.5,105C 69.0481,104.71 66.7148,104.044 64.5,103C 64.8333,102.667 65.1667,102.333 65.5,102C 70.1548,101.501 74.8215,101.334 79.5,101.5C 79.6766,97.4743 81.6766,94.641 85.5,93C 78.8417,92.5004 72.175,92.3337 65.5,92.5C 65.7678,94.099 65.4345,95.4324 64.5,96.5C 64.5,95.5 64.5,94.5 64.5,93.5C 62.6693,94.0522 61.0026,94.0522 59.5,93.5C 60.8545,91.4788 62.5212,89.8121 64.5,88.5C 65.1577,89.3984 65.8243,90.3984 66.5,91.5C 67.5896,90.6086 67.5896,89.6086 66.5,88.5C 67,88.1667 67.5,87.8333 68,87.5C 70.2254,87.0758 72.3921,86.7424 74.5,86.5C 75.1667,86.6667 75.8333,86.8333 76.5,87C 75.376,87.2492 74.376,87.7492 73.5,88.5C 75.9913,89.5407 75.9913,90.3741 73.5,91C 77.8206,91.499 82.1539,91.6657 86.5,91.5C 86.9107,88.4466 87.5774,85.4466 88.5,82.5C 90.0777,81.7022 91.7444,81.2022 93.5,81C 92.8333,80.6667 92.1667,80.3333 91.5,80C 83.6335,79.5479 75.9669,81.0479 68.5,84.5C 67.1667,83.8333 67.1667,83.1667 68.5,82.5C 69.9122,81.1936 71.5789,80.3603 73.5,80C 69.0687,78.8877 65.4021,80.0544 62.5,83.5C 61.2867,83.2528 60.62,82.5862 60.5,81.5C 62.0725,80.3127 63.7392,79.3127 65.5,78.5C 76.4687,77.5931 87.4687,77.2598 98.5,77.5 Z"/></g>
<g><path style="opacity:1" fill="#624153" d="M 198.5,94.5 C 198.833,94.5 199.167,94.5 199.5,94.5C 199.831,96.3224 200.498,97.9891 201.5,99.5C 201.107,101.284 200.441,102.95 199.5,104.5C 197.727,105.314 197.227,106.648 198,108.5C 198.333,108.167 198.667,107.833 199,107.5C 199.483,108.448 199.649,109.448 199.5,110.5C 199.5,113.833 199.5,117.167 199.5,120.5C 205.464,119.693 211.464,119.36 217.5,119.5C 217.5,118.5 217.5,117.5 217.5,116.5C 219.044,116.703 220.378,117.37 221.5,118.5C 222.94,117.048 224.606,116.048 226.5,115.5C 223.494,119.059 224.494,120.392 229.5,119.5C 228.71,120.794 227.71,121.961 226.5,123C 227.731,124.183 227.731,125.349 226.5,126.5C 224.585,128.472 222.251,129.472 219.5,129.5C 219.5,131.167 219.5,132.833 219.5,134.5C 217.856,134.286 216.356,134.62 215,135.5C 213.756,133.55 211.923,132.55 209.5,132.5C 197.549,133.654 197.549,134.487 209.5,135C 207.996,136.337 206.996,138.004 206.5,140C 208.256,140.202 209.922,140.702 211.5,141.5C 212.361,143.911 213.694,145.911 215.5,147.5C 210.167,147.5 204.833,147.5 199.5,147.5C 199.649,146.448 199.483,145.448 199,144.5C 193.343,146.733 187.509,148.399 181.5,149.5C 176.987,148.349 172.487,147.349 168,146.5C 166.391,147.15 164.891,146.65 163.5,145C 164.517,143.951 164.684,142.784 164,141.5C 161.645,140.192 159.145,139.192 156.5,138.5C 153.895,132.906 149.562,129.906 143.5,129.5C 143.5,127.833 143.5,126.167 143.5,124.5C 145.942,124.881 146.609,124.214 145.5,122.5C 147.655,121.999 149.322,120.999 150.5,119.5C 152.5,119.5 154.5,119.5 156.5,119.5C 156.5,120.5 156.5,121.5 156.5,122.5C 154.712,122.215 153.045,122.548 151.5,123.5C 153.22,124.92 155.054,126.253 157,127.5C 158.669,129.169 159.502,131.169 159.5,133.5C 164.687,134.051 170.02,134.051 175.5,133.5C 175.5,131.5 175.5,129.5 175.5,127.5C 171.029,127.328 170.696,126.494 174.5,125C 172.355,120.366 173.689,117.199 178.5,115.5C 179.842,117.005 181.508,117.672 183.5,117.5C 183.649,116.448 183.483,115.448 183,114.5C 180.259,112.933 179.092,110.599 179.5,107.5C 181.5,106.833 182.833,105.5 183.5,103.5C 184.315,104.429 185.148,105.429 186,106.5C 188.533,106.05 190.7,105.05 192.5,103.5C 193.974,102.564 194.974,101.23 195.5,99.5C 196.89,98.1007 197.89,96.4341 198.5,94.5 Z"/></g>
<g><path style="opacity:1" fill="#7b775f" d="M 293.5,92.5 C 293.5,103.833 293.5,115.167 293.5,126.5C 292.417,126.539 291.417,126.873 290.5,127.5C 289.52,124.914 289.187,122.247 289.5,119.5C 282.07,119.654 274.737,118.987 267.5,117.5C 267.704,112.852 265.371,110.519 260.5,110.5C 261.5,109.833 262.5,109.167 263.5,108.5C 260.988,107.205 258.321,106.539 255.5,106.5C 255.64,104.876 254.973,103.71 253.5,103C 255.5,102.167 257.5,101.333 259.5,100.5C 258.167,99.8333 256.833,99.1667 255.5,98.5C 260.527,95.995 265.86,94.995 271.5,95.5C 271.5,94.5 271.5,93.5 271.5,92.5C 278.833,92.5 286.167,92.5 293.5,92.5 Z"/></g>
<g><path style="opacity:1" fill="#685663" d="M 210.5,105.5 C 209.833,105.5 209.5,105.833 209.5,106.5C 208.399,107.848 207.399,109.348 206.5,111C 204.153,111.334 201.819,111.167 199.5,110.5C 199.649,109.448 199.483,108.448 199,107.5C 198.667,107.833 198.333,108.167 198,108.5C 197.227,106.648 197.727,105.314 199.5,104.5C 199.369,105.239 199.536,105.906 200,106.5C 202.432,105.931 204.599,104.931 206.5,103.5C 208.68,102.145 210.68,102.311 212.5,104C 211.584,104.278 210.918,104.778 210.5,105.5 Z"/></g>
<g><path style="opacity:1" fill="#7a7664" d="M 49.5,99.5 C 48.0127,103.145 46.5127,106.812 45,110.5C 42.3009,115.256 39.1342,119.589 35.5,123.5C 32.1667,122.167 28.8333,120.833 25.5,119.5C 24.0821,117.692 22.0821,117.025 19.5,117.5C 19.8882,112.676 22.5548,110.676 27.5,111.5C 27.6495,110.448 27.4828,109.448 27,108.5C 26.3457,109.696 25.8457,109.696 25.5,108.5C 27.435,107.787 27.7683,106.787 26.5,105.5C 31.5608,105.336 36.2274,104.003 40.5,101.5C 43.6916,101.595 46.6916,100.929 49.5,99.5 Z"/></g>
<g><path style="opacity:1" fill="#84787d" d="M 106.5,104.5 C 108.833,104.5 111.167,104.5 113.5,104.5C 112.944,108.193 114.278,110.86 117.5,112.5C 113.023,116.512 112.523,121.512 116,127.5C 117.011,126.663 118.178,126.33 119.5,126.5C 119.5,128.5 119.5,130.5 119.5,132.5C 118.178,132.67 117.011,132.337 116,131.5C 115.316,132.784 115.483,133.951 116.5,135C 115.376,135.249 114.376,135.749 113.5,136.5C 114.246,137.736 114.579,139.07 114.5,140.5C 112.063,138.567 109.729,136.4 107.5,134C 98.254,132.755 88.9207,132.588 79.5,133.5C 79.3016,131.425 79.1349,129.425 79,127.5C 81.8407,126.58 84.674,125.58 87.5,124.5C 84.2027,123.858 83.8693,122.691 86.5,121C 89.716,120.997 92.3826,119.831 94.5,117.5C 96.8762,118.817 98.5429,118.15 99.5,115.5C 98.8113,113.647 97.478,112.481 95.5,112C 96.4885,109.77 95.8218,107.936 93.5,106.5C 94.6888,105.571 96.0222,105.238 97.5,105.5C 100.713,105.81 103.713,105.477 106.5,104.5 Z"/></g>
<g><path style="opacity:1" fill="#654e52" d="M 209.5,106.5 C 209.5,105.833 209.833,105.5 210.5,105.5C 213.5,105.5 216.5,105.5 219.5,105.5C 219.975,108.082 219.308,110.082 217.5,111.5C 215.7,112.473 213.866,113.473 212,114.5C 212.053,111.325 211.22,108.658 209.5,106.5 Z"/></g>
<g><path style="opacity:1" fill="#7c786a" d="M 30.5,93.5 C 25.57,93.1975 20.7367,93.5308 16,94.5C 15.6659,98.1991 15.4992,101.699 15.5,105C 18.7751,105.929 21.7751,105.429 24.5,103.5C 25.1818,104.243 25.8485,104.909 26.5,105.5C 27.7683,106.787 27.435,107.787 25.5,108.5C 25.8457,109.696 26.3457,109.696 27,108.5C 27.4828,109.448 27.6495,110.448 27.5,111.5C 22.5548,110.676 19.8882,112.676 19.5,117.5C 22.0821,117.025 24.0821,117.692 25.5,119.5C 23.8333,119.5 22.1667,119.5 20.5,119.5C 13.8848,116.761 6.88483,115.761 -0.5,116.5C -0.5,111.5 -0.5,106.5 -0.5,101.5C 3.7064,102.051 6.03973,100.217 6.5,96C 9.29002,95.4391 11.6234,94.1058 13.5,92C 18.1667,91.3333 22.8333,91.3333 27.5,92C 28.7375,92.2321 29.7375,92.7321 30.5,93.5 Z"/></g>
<g><path style="opacity:1" fill="#7a6779" d="M 231.5,105.5 C 232.167,105.833 232.833,106.167 233.5,106.5C 233.763,111.375 232.43,115.708 229.5,119.5C 224.494,120.392 223.494,119.059 226.5,115.5C 228.164,112.092 229.831,108.758 231.5,105.5 Z"/></g>
<g><path style="opacity:1" fill="#5b3f4b" d="M 209.5,106.5 C 211.22,108.658 212.053,111.325 212,114.5C 213.866,113.473 215.7,112.473 217.5,111.5C 217.5,113.167 217.5,114.833 217.5,116.5C 217.5,117.5 217.5,118.5 217.5,119.5C 211.464,119.36 205.464,119.693 199.5,120.5C 199.5,117.167 199.5,113.833 199.5,110.5C 201.819,111.167 204.153,111.334 206.5,111C 207.399,109.348 208.399,107.848 209.5,106.5 Z"/></g>
<g><path style="opacity:1" fill="#897f82" d="M 93.5,104.5 C 94.8333,104.5 96.1667,104.5 97.5,104.5C 97.5,104.833 97.5,105.167 97.5,105.5C 96.0222,105.238 94.6888,105.571 93.5,106.5C 95.8218,107.936 96.4885,109.77 95.5,112C 97.478,112.481 98.8113,113.647 99.5,115.5C 98.5429,118.15 96.8762,118.817 94.5,117.5C 92.3826,119.831 89.716,120.997 86.5,121C 83.8693,122.691 84.2027,123.858 87.5,124.5C 84.674,125.58 81.8407,126.58 79,127.5C 79.1349,129.425 79.3016,131.425 79.5,133.5C 88.9207,132.588 98.254,132.755 107.5,134C 109.729,136.4 112.063,138.567 114.5,140.5C 115.072,142.119 115.405,143.785 115.5,145.5C 122.122,146.662 128.788,147.496 135.5,148C 136.256,149.38 136.922,149.547 137.5,148.5C 138.873,148.343 140.207,148.51 141.5,149C 143.257,150.75 145.257,151.916 147.5,152.5C 141.974,152.179 136.64,152.512 131.5,153.5C 127.5,153.5 123.5,153.5 119.5,153.5C 119.5,151.5 119.5,149.5 119.5,147.5C 113.103,147.821 107.103,146.488 101.5,143.5C 99.5466,144.156 97.5466,144.489 95.5,144.5C 95.5198,142.857 94.8532,141.524 93.5,140.5C 86.5316,139.503 79.5316,139.17 72.5,139.5C 72.6427,137.738 72.3094,136.071 71.5,134.5C 72.09,133.201 73.09,132.368 74.5,132C 73.2234,129.534 73.2234,127.034 74.5,124.5C 79.333,121.252 84.6663,119.419 90.5,119C 90.9574,118.586 91.2907,118.086 91.5,117.5C 90.8555,116.268 90.6888,114.935 91,113.5C 89.8687,114.604 89.0354,114.271 88.5,112.5C 94.4315,111.316 94.7648,109.649 89.5,107.5C 87.8653,108.046 86.1986,108.38 84.5,108.5C 84.5,107.5 84.5,106.5 84.5,105.5C 87.3915,104.597 90.3915,104.264 93.5,104.5 Z"/></g>
<g><path style="opacity:1" fill="#6f5e59" d="M 239.5,99.5 C 239.5,101.5 239.5,103.5 239.5,105.5C 239.5,108.833 239.5,112.167 239.5,115.5C 239.5,116.833 239.5,118.167 239.5,119.5C 238.5,119.5 237.5,119.5 236.5,119.5C 237.036,114.136 237.703,108.803 238.5,103.5C 238.232,101.901 238.566,100.568 239.5,99.5 Z"/></g>
<g><path style="opacity:1" fill="#867167" d="M 20.5,119.5 C 22.1667,119.5 23.8333,119.5 25.5,119.5C 28.8333,120.833 32.1667,122.167 35.5,123.5C 34.8333,123.5 34.5,123.833 34.5,124.5C 30.9359,125.423 27.2693,125.756 23.5,125.5C 23.5852,124.005 22.9185,123.005 21.5,122.5C 20.5,123.833 19.5,123.833 18.5,122.5C 17.4826,125.028 16.3159,125.028 15,122.5C 14.3123,121.668 14.479,121.002 15.5,120.5C 16.9667,120.723 18.4667,121.056 20,121.5C 20.4643,120.906 20.631,120.239 20.5,119.5 Z"/></g>
<g><path style="opacity:1" fill="#563f45" d="M 237.5,84.5 C 237.335,88.1817 237.501,91.8484 238,95.5C 239.043,91.7741 239.543,92.1074 239.5,96.5C 239.5,97.5 239.5,98.5 239.5,99.5C 238.566,100.568 238.232,101.901 238.5,103.5C 236.836,104.949 236.002,106.949 236,109.5C 235.667,118.167 235.333,126.833 235,135.5C 233.125,138.694 232.625,142.028 233.5,145.5C 234.091,146.151 234.757,146.818 235.5,147.5C 232.453,152.833 230.786,158.5 230.5,164.5C 230.296,161.482 229.963,158.482 229.5,155.5C 227.801,155.473 226.467,154.806 225.5,153.5C 225.229,151.57 224.229,150.236 222.5,149.5C 224.144,149.714 225.644,149.38 227,148.5C 227.1,145.563 227.933,142.896 229.5,140.5C 226.933,137.905 227.266,135.572 230.5,133.5C 231.434,128.182 232.434,123.182 233.5,118.5C 233.167,118.167 232.833,117.833 232.5,117.5C 231.735,118.612 230.735,119.279 229.5,119.5C 232.43,115.708 233.763,111.375 233.5,106.5C 233.105,99.282 233.772,92.9487 235.5,87.5C 236.167,86.5 236.833,85.5 237.5,84.5 Z"/></g>
<g><path style="opacity:1" fill="#a1a69f" d="M 55.5,102.5 C 55.0562,105.222 53.7229,107.389 51.5,109C 52.448,109.483 53.448,109.649 54.5,109.5C 50.7036,113.798 46.7036,117.964 42.5,122C 44.5675,122.687 46.5675,122.52 48.5,121.5C 49.1757,122.602 49.8423,123.602 50.5,124.5C 48.9065,128.316 46.4065,131.316 43,133.5C 40.9757,133.2 40.4757,132.367 41.5,131C 40.3816,129.926 39.3816,128.76 38.5,127.5C 37.0555,130.055 35.8888,132.721 35,135.5C 31.3269,138.128 28.9936,141.462 28,145.5C 29.2975,144.216 30.4642,144.383 31.5,146C 29.792,148.043 27.792,149.71 25.5,151C 28.8168,151.498 32.1501,151.665 35.5,151.5C 33.7354,152.461 31.7354,152.795 29.5,152.5C 26.3915,152.736 23.3915,152.403 20.5,151.5C 20.3398,149.801 20.5065,148.134 21,146.5C 26.9293,139.565 31.4293,132.232 34.5,124.5C 34.5,123.833 34.8333,123.5 35.5,123.5C 39.1342,119.589 42.3009,115.256 45,110.5C 46.5127,106.812 48.0127,103.145 49.5,99.5C 49.8333,99.5 50.1667,99.5 50.5,99.5C 52.5922,99.4386 54.0922,98.4386 55,96.5C 55.1379,98.4324 54.6379,100.266 53.5,102C 54.0944,102.464 54.7611,102.631 55.5,102.5 Z"/></g>
<g><path style="opacity:1" fill="#8f8988" d="M 84.5,105.5 C 84.5,106.5 84.5,107.5 84.5,108.5C 86.1986,108.38 87.8653,108.046 89.5,107.5C 94.7648,109.649 94.4315,111.316 88.5,112.5C 89.0354,114.271 89.8687,114.604 91,113.5C 90.6888,114.935 90.8555,116.268 91.5,117.5C 91.2907,118.086 90.9574,118.586 90.5,119C 84.6663,119.419 79.333,121.252 74.5,124.5C 73.2234,127.034 73.2234,129.534 74.5,132C 73.09,132.368 72.09,133.201 71.5,134.5C 72.3094,136.071 72.6427,137.738 72.5,139.5C 79.5316,139.17 86.5316,139.503 93.5,140.5C 94.8532,141.524 95.5198,142.857 95.5,144.5C 97.5466,144.489 99.5466,144.156 101.5,143.5C 107.103,146.488 113.103,147.821 119.5,147.5C 119.5,149.5 119.5,151.5 119.5,153.5C 123.5,153.5 127.5,153.5 131.5,153.5C 137.5,153.5 143.5,153.5 149.5,153.5C 152.833,153.5 156.167,153.5 159.5,153.5C 160.167,154.167 160.833,154.833 161.5,155.5C 143.165,155.236 124.832,154.902 106.5,154.5C 106.5,153.5 106.5,152.5 106.5,151.5C 97.5,151.5 88.5,151.5 79.5,151.5C 79.5,149.5 79.5,147.5 79.5,145.5C 74.0735,145.782 68.7401,145.449 63.5,144.5C 63.415,142.071 62.415,140.071 60.5,138.5C 63.4863,133.848 67.1529,129.848 71.5,126.5C 72.9438,124.392 73.6104,122.059 73.5,119.5C 75.5,119.5 77.5,119.5 79.5,119.5C 79.5,116.833 79.5,114.167 79.5,111.5C 80.5,111.5 81.5,111.5 82.5,111.5C 82.0254,108.918 82.6921,106.918 84.5,105.5 Z"/></g>
<g><path style="opacity:1" fill="#5a4543" d="M 238.5,103.5 C 237.703,108.803 237.036,114.136 236.5,119.5C 237.5,119.5 238.5,119.5 239.5,119.5C 239.5,120.167 239.5,120.833 239.5,121.5C 239.207,125.437 239.54,129.27 240.5,133C 239.801,136.8 239.135,140.633 238.5,144.5C 239.999,147.809 239.666,150.809 237.5,153.5C 237.5,150.833 237.5,148.167 237.5,145.5C 236.167,145.5 234.833,145.5 233.5,145.5C 232.625,142.028 233.125,138.694 235,135.5C 235.333,126.833 235.667,118.167 236,109.5C 236.002,106.949 236.836,104.949 238.5,103.5 Z"/></g>
<g><path style="opacity:1" fill="#5a544a" d="M -0.5,116.5 C 6.88483,115.761 13.8848,116.761 20.5,119.5C 20.631,120.239 20.4643,120.906 20,121.5C 18.4667,121.056 16.9667,120.723 15.5,120.5C 14.479,121.002 14.3123,121.668 15,122.5C 16.3159,125.028 17.4826,125.028 18.5,122.5C 19.5,123.833 20.5,123.833 21.5,122.5C 22.9185,123.005 23.5852,124.005 23.5,125.5C 22.1931,126.802 22.1931,128.135 23.5,129.5C 23.1345,130.902 22.3012,131.902 21,132.5C 14.0956,135.179 6.92893,136.512 -0.5,136.5C -0.5,129.833 -0.5,123.167 -0.5,116.5 Z"/></g>
<g><path style="opacity:1" fill="#5a3c4b" d="M 222.5,149.5 C 219.921,149.606 217.588,148.939 215.5,147.5C 213.694,145.911 212.361,143.911 211.5,141.5C 209.922,140.702 208.256,140.202 206.5,140C 206.996,138.004 207.996,136.337 209.5,135C 197.549,134.487 197.549,133.654 209.5,132.5C 211.923,132.55 213.756,133.55 215,135.5C 216.356,134.62 217.856,134.286 219.5,134.5C 219.5,132.833 219.5,131.167 219.5,129.5C 222.251,129.472 224.585,128.472 226.5,126.5C 227.731,125.349 227.731,124.183 226.5,123C 227.71,121.961 228.71,120.794 229.5,119.5C 230.735,119.279 231.735,118.612 232.5,117.5C 232.833,117.833 233.167,118.167 233.5,118.5C 232.434,123.182 231.434,128.182 230.5,133.5C 227.266,135.572 226.933,137.905 229.5,140.5C 227.933,142.896 227.1,145.563 227,148.5C 225.644,149.38 224.144,149.714 222.5,149.5 Z"/></g>
<g><path style="opacity:1" fill="#6b4f5c" d="M 163.5,79.5 C 163.838,82.1569 163.171,84.4902 161.5,86.5C 162.415,87.3279 163.081,88.3279 163.5,89.5C 162.669,94.6476 159.835,96.6476 155,95.5C 151.522,98.1048 150.355,101.438 151.5,105.5C 150.384,109.776 149.384,113.776 148.5,117.5C 147.213,114.291 147.213,111.125 148.5,108C 146.581,106.066 145.081,106.233 144,108.5C 143.855,112.985 143.022,117.318 141.5,121.5C 142.193,122.518 142.859,123.518 143.5,124.5C 143.5,126.167 143.5,127.833 143.5,129.5C 149.562,129.906 153.895,132.906 156.5,138.5C 159.145,139.192 161.645,140.192 164,141.5C 164.684,142.784 164.517,143.951 163.5,145C 164.891,146.65 166.391,147.15 168,146.5C 172.487,147.349 176.987,148.349 181.5,149.5C 187.509,148.399 193.343,146.733 199,144.5C 199.483,145.448 199.649,146.448 199.5,147.5C 204.833,147.5 210.167,147.5 215.5,147.5C 217.588,148.939 219.921,149.606 222.5,149.5C 224.229,150.236 225.229,151.57 225.5,153.5C 224.833,153.5 224.167,153.5 223.5,153.5C 223.389,152.883 223.056,152.383 222.5,152C 218.639,150.823 214.806,149.657 211,148.5C 196.898,151.101 182.731,152.101 168.5,151.5C 168.459,149.255 167.625,148.588 166,149.5C 163.772,147.032 160.938,145.865 157.5,146C 155.035,142.686 153.368,139.353 152.5,136C 148.94,134.763 145.273,134.263 141.5,134.5C 141.058,130.846 140.724,127.179 140.5,123.5C 138.833,123.5 137.167,123.5 135.5,123.5C 135.5,122.5 135.5,121.5 135.5,120.5C 136.5,120.5 137.5,120.5 138.5,120.5C 138.244,118.088 139.244,116.421 141.5,115.5C 140.737,114.281 139.737,113.281 138.5,112.5C 139.549,110.784 140.882,109.451 142.5,108.5C 143.32,106.86 144.153,105.193 145,103.5C 145.667,102.167 146.333,102.167 147,103.5C 147.495,101.527 147.662,99.5273 147.5,97.5C 151.068,97.2407 152.401,95.2407 151.5,91.5C 158.715,92.0357 161.549,88.7024 160,81.5C 160.816,80.1772 161.983,79.5106 163.5,79.5 Z"/></g>
<g><path style="opacity:1" fill="#9a9796" d="M 71.5,119.5 C 72.1667,119.5 72.8333,119.5 73.5,119.5C 73.6104,122.059 72.9438,124.392 71.5,126.5C 67.1529,129.848 63.4863,133.848 60.5,138.5C 62.415,140.071 63.415,142.071 63.5,144.5C 63.5,145.167 63.1667,145.5 62.5,145.5C 60.2895,144.417 58.1229,144.417 56,145.5C 53.7154,145.049 52.2154,143.715 51.5,141.5C 52,139.5 52.5,137.5 53,135.5C 57.7719,133.602 62.2719,131.102 66.5,128C 68.3308,125.075 69.9974,122.241 71.5,119.5 Z"/></g>
<g><path style="opacity:1" fill="#816d76" d="M 127.5,107.5 C 126.665,108.943 125.332,109.943 123.5,110.5C 124.99,111.826 126.324,113.326 127.5,115C 126.692,115.308 126.025,115.808 125.5,116.5C 126.278,119.462 127.278,122.296 128.5,125C 128.375,126.627 127.875,128.127 127,129.5C 126.667,129.167 126.333,128.833 126,128.5C 125.316,129.784 125.483,130.951 126.5,132C 125.692,132.308 125.025,132.808 124.5,133.5C 128.89,132.423 132.057,134.09 134,138.5C 134.333,138.167 134.667,137.833 135,137.5C 136.049,139.107 137.549,139.773 139.5,139.5C 140.5,139.5 141.5,139.5 142.5,139.5C 145.096,140.176 147.096,141.676 148.5,144C 148.043,144.414 147.709,144.914 147.5,145.5C 150.859,148.306 150.859,150.639 147.5,152.5C 145.257,151.916 143.257,150.75 141.5,149C 140.207,148.51 138.873,148.343 137.5,148.5C 137.721,147.265 138.388,146.265 139.5,145.5C 138.009,144.756 136.509,144.09 135,143.5C 135.148,142.175 134.982,141.008 134.5,140C 133.048,138.483 131.548,138.316 130,139.5C 127.19,136.061 124.023,135.727 120.5,138.5C 120.241,136.458 119.908,134.458 119.5,132.5C 119.5,130.5 119.5,128.5 119.5,126.5C 119.684,124.075 120.351,124.075 121.5,126.5C 122.318,124.892 122.985,123.225 123.5,121.5C 121.006,118.92 121.006,116.253 123.5,113.5C 120.837,109.437 122.17,107.437 127.5,107.5 Z"/></g>
<g><path style="opacity:1" fill="#725864" d="M 142.5,108.5 C 140.882,109.451 139.549,110.784 138.5,112.5C 139.737,113.281 140.737,114.281 141.5,115.5C 139.244,116.421 138.244,118.088 138.5,120.5C 137.5,120.5 136.5,120.5 135.5,120.5C 135.5,121.5 135.5,122.5 135.5,123.5C 137.167,123.5 138.833,123.5 140.5,123.5C 140.724,127.179 141.058,130.846 141.5,134.5C 145.273,134.263 148.94,134.763 152.5,136C 153.368,139.353 155.035,142.686 157.5,146C 160.938,145.865 163.772,147.032 166,149.5C 167.625,148.588 168.459,149.255 168.5,151.5C 167.5,151.5 166.5,151.5 165.5,151.5C 161.539,149.123 157.206,147.623 152.5,147C 150.54,143.092 147.706,139.925 144,137.5C 143.283,138.044 142.783,138.711 142.5,139.5C 141.5,139.5 140.5,139.5 139.5,139.5C 138.969,137.456 137.802,135.789 136,134.5C 134.613,130.785 133.78,126.952 133.5,123C 133.443,120.105 134.61,117.938 137,116.5C 137.333,114.5 137.667,112.5 138,110.5C 139.11,108.963 140.61,108.297 142.5,108.5 Z"/></g>
<g><path style="opacity:1" fill="#797361" d="M 34.5,124.5 C 31.4293,132.232 26.9293,139.565 21,146.5C 20.5065,148.134 20.3398,149.801 20.5,151.5C 19.7659,152.708 19.4326,154.041 19.5,155.5C 15.2215,160.208 12.2215,165.875 10.5,172.5C 7.66686,172.511 4.66686,172.844 1.5,173.5C 1.93214,176.877 1.26548,179.877 -0.5,182.5C -0.5,167.167 -0.5,151.833 -0.5,136.5C 6.92893,136.512 14.0956,135.179 21,132.5C 22.3012,131.902 23.1345,130.902 23.5,129.5C 22.1931,128.135 22.1931,126.802 23.5,125.5C 27.2693,125.756 30.9359,125.423 34.5,124.5 Z"/></g>
<g><path style="opacity:1" fill="#a9aea8" d="M 71.5,119.5 C 69.9974,122.241 68.3308,125.075 66.5,128C 62.2719,131.102 57.7719,133.602 53,135.5C 52.5,137.5 52,139.5 51.5,141.5C 52.2154,143.715 53.7154,145.049 56,145.5C 58.1229,144.417 60.2895,144.417 62.5,145.5C 62.4257,147.411 61.4257,148.578 59.5,149C 64.143,149.83 68.8097,150.497 73.5,151C 60.8134,150.609 48.1467,150.776 35.5,151.5C 32.1501,151.665 28.8168,151.498 25.5,151C 27.792,149.71 29.792,148.043 31.5,146C 30.4642,144.383 29.2975,144.216 28,145.5C 28.9936,141.462 31.3269,138.128 35,135.5C 35.8888,132.721 37.0555,130.055 38.5,127.5C 39.3816,128.76 40.3816,129.926 41.5,131C 40.4757,132.367 40.9757,133.2 43,133.5C 46.4065,131.316 48.9065,128.316 50.5,124.5C 52.1042,123.713 52.7709,122.38 52.5,120.5C 50.6453,120.728 49.8119,120.061 50,118.5C 53.2654,117.952 55.4321,116.119 56.5,113C 62.3461,110.882 68.3461,110.215 74.5,111C 72.0426,112.512 72.0426,113.846 74.5,115C 72.5614,115.908 71.5614,117.408 71.5,119.5 Z"/></g>
<g><path style="opacity:1" fill="#8a787f" d="M 119.5,132.5 C 119.908,134.458 120.241,136.458 120.5,138.5C 124.023,135.727 127.19,136.061 130,139.5C 131.548,138.316 133.048,138.483 134.5,140C 134.982,141.008 135.148,142.175 135,143.5C 136.509,144.09 138.009,144.756 139.5,145.5C 138.388,146.265 137.721,147.265 137.5,148.5C 136.922,149.547 136.256,149.38 135.5,148C 128.788,147.496 122.122,146.662 115.5,145.5C 115.405,143.785 115.072,142.119 114.5,140.5C 114.579,139.07 114.246,137.736 113.5,136.5C 114.376,135.749 115.376,135.249 116.5,135C 115.483,133.951 115.316,132.784 116,131.5C 117.011,132.337 118.178,132.67 119.5,132.5 Z"/></g>
<g><path style="opacity:1" fill="#736c56" d="M 239.5,105.5 C 241.245,106.806 243.245,107.806 245.5,108.5C 247.063,111.029 249.396,112.029 252.5,111.5C 253.138,113.46 253.138,115.293 252.5,117C 255.059,119.439 257.392,122.105 259.5,125C 264.036,126.379 268.703,126.879 273.5,126.5C 274.416,132.178 272.416,134.178 267.5,132.5C 267.5,134.833 267.5,137.167 267.5,139.5C 271.555,139.176 275.555,139.509 279.5,140.5C 280.276,142.356 281.609,143.689 283.5,144.5C 286.768,145.487 290.102,145.82 293.5,145.5C 293.5,157.5 293.5,169.5 293.5,181.5C 282.965,180.851 274.798,184.851 269,193.5C 268.505,195.473 268.338,197.473 268.5,199.5C 264.167,199.5 259.833,199.5 255.5,199.5C 255.173,194.456 255.506,189.456 256.5,184.5C 258.756,183.579 259.756,181.912 259.5,179.5C 261.833,179.5 264.167,179.5 266.5,179.5C 266.5,172.833 266.5,166.167 266.5,159.5C 268.167,159.5 269.833,159.5 271.5,159.5C 271.5,157.5 271.5,155.5 271.5,153.5C 275.472,152.892 279.472,152.392 283.5,152C 282.207,151.51 280.873,151.343 279.5,151.5C 279.5,150.5 279.5,149.5 279.5,148.5C 276.683,147.003 272.349,146.17 266.5,146C 265.736,143.931 265.236,141.764 265,139.5C 264.667,141.5 264.333,143.5 264,145.5C 263.667,140.5 263.333,135.5 263,130.5C 259.002,128.887 255.168,127.053 251.5,125C 251.833,124.667 252.167,124.333 252.5,124C 250.963,122.89 250.297,121.39 250.5,119.5C 246.833,118.167 243.167,116.833 239.5,115.5C 239.5,112.167 239.5,108.833 239.5,105.5 Z"/></g>
<g><path style="opacity:1" fill="#6e6651" d="M 239.5,115.5 C 243.167,116.833 246.833,118.167 250.5,119.5C 250.297,121.39 250.963,122.89 252.5,124C 252.167,124.333 251.833,124.667 251.5,125C 255.168,127.053 259.002,128.887 263,130.5C 263.333,135.5 263.667,140.5 264,145.5C 264.333,143.5 264.667,141.5 265,139.5C 265.236,141.764 265.736,143.931 266.5,146C 272.349,146.17 276.683,147.003 279.5,148.5C 279.5,149.5 279.5,150.5 279.5,151.5C 280.873,151.343 282.207,151.51 283.5,152C 279.472,152.392 275.472,152.892 271.5,153.5C 271.5,155.5 271.5,157.5 271.5,159.5C 269.833,159.5 268.167,159.5 266.5,159.5C 266.5,166.167 266.5,172.833 266.5,179.5C 264.167,179.5 261.833,179.5 259.5,179.5C 259.756,181.912 258.756,183.579 256.5,184.5C 255.506,189.456 255.173,194.456 255.5,199.5C 259.833,199.5 264.167,199.5 268.5,199.5C 269.71,199.932 270.71,200.599 271.5,201.5C 258.833,201.5 246.167,201.5 233.5,201.5C 236.641,200.679 239.975,200.179 243.5,200C 242.833,199.667 242.167,199.333 241.5,199C 242.755,196.54 244.755,195.373 247.5,195.5C 247.682,192.392 249.016,189.892 251.5,188C 251.167,187.667 250.833,187.333 250.5,187C 251.416,186.626 252.25,186.126 253,185.5C 254.012,176.994 254.179,168.327 253.5,159.5C 255.833,159.5 258.167,159.5 260.5,159.5C 260.731,156.215 259.397,153.715 256.5,152C 257.156,149.67 256.156,148.003 253.5,147C 254,146.5 254.5,146 255,145.5C 255.333,142.833 255.667,140.167 256,137.5C 257.067,136.809 258.234,136.309 259.5,136C 260.451,135.282 260.617,134.449 260,133.5C 256.952,130.782 253.452,128.948 249.5,128C 248.112,122.772 244.779,119.939 239.5,119.5C 239.5,118.167 239.5,116.833 239.5,115.5 Z"/></g>
<g><path style="opacity:1" fill="#79646c" d="M 165.5,151.5 C 160.167,152.167 154.833,152.833 149.5,153.5C 143.5,153.5 137.5,153.5 131.5,153.5C 136.64,152.512 141.974,152.179 147.5,152.5C 150.859,150.639 150.859,148.306 147.5,145.5C 147.709,144.914 148.043,144.414 148.5,144C 147.096,141.676 145.096,140.176 142.5,139.5C 142.783,138.711 143.283,138.044 144,137.5C 147.706,139.925 150.54,143.092 152.5,147C 157.206,147.623 161.539,149.123 165.5,151.5 Z"/></g>
<g><path style="opacity:1" fill="#93958c" d="M 63.5,144.5 C 68.7401,145.449 74.0735,145.782 79.5,145.5C 79.5,147.5 79.5,149.5 79.5,151.5C 88.5,151.5 97.5,151.5 106.5,151.5C 106.5,152.5 106.5,153.5 106.5,154.5C 98.4723,154.169 90.4723,154.502 82.5,155.5C 83.3467,156.845 84.5134,157.845 86,158.5C 86.4966,160.81 86.6633,163.143 86.5,165.5C 85.6981,164.048 85.1981,162.382 85,160.5C 84.5814,161.672 83.9147,162.672 83,163.5C 82.7969,160.198 81.4635,157.531 79,155.5C 78.51,156.793 78.3433,158.127 78.5,159.5C 77.5,159.5 76.5,159.5 75.5,159.5C 75.5,158.5 75.5,157.5 75.5,156.5C 73.139,156.674 70.8056,157.007 68.5,157.5C 68.8807,156.069 69.8807,155.236 71.5,155C 57.6212,152.322 43.6212,151.822 29.5,153.5C 29.5,153.167 29.5,152.833 29.5,152.5C 31.7354,152.795 33.7354,152.461 35.5,151.5C 48.1467,150.776 60.8134,150.609 73.5,151C 68.8097,150.497 64.143,149.83 59.5,149C 61.4257,148.578 62.4257,147.411 62.5,145.5C 63.1667,145.5 63.5,145.167 63.5,144.5 Z"/></g>
<g><path style="opacity:1" fill="#685d4b" d="M 239.5,119.5 C 244.779,119.939 248.112,122.772 249.5,128C 253.452,128.948 256.952,130.782 260,133.5C 260.617,134.449 260.451,135.282 259.5,136C 258.234,136.309 257.067,136.809 256,137.5C 255.667,140.167 255.333,142.833 255,145.5C 254.5,146 254,146.5 253.5,147C 256.156,148.003 257.156,149.67 256.5,152C 259.397,153.715 260.731,156.215 260.5,159.5C 258.167,159.5 255.833,159.5 253.5,159.5C 254.179,168.327 254.012,176.994 253,185.5C 252.25,186.126 251.416,186.626 250.5,187C 250.833,187.333 251.167,187.667 251.5,188C 249.016,189.892 247.682,192.392 247.5,195.5C 244.755,195.373 242.755,196.54 241.5,199C 242.167,199.333 242.833,199.667 243.5,200C 239.975,200.179 236.641,200.679 233.5,201.5C 231.167,201.5 228.833,201.5 226.5,201.5C 226.5,200.833 226.5,200.167 226.5,199.5C 228.75,199.819 230.75,199.319 232.5,198C 230.203,196.84 230.536,195.84 233.5,195C 233.167,194.667 232.833,194.333 232.5,194C 234.081,193.293 235.581,192.46 237,191.5C 238.516,186.221 239.849,180.888 241,175.5C 245.293,172.154 247.126,167.654 246.5,162C 245.356,156.521 244.356,151.021 243.5,145.5C 244.28,144.051 244.946,142.551 245.5,141C 245.245,139.674 244.578,138.674 243.5,138C 245.449,136.165 247.783,134.999 250.5,134.5C 249.286,132.931 247.619,132.098 245.5,132C 249.723,129.756 249.389,128.59 244.5,128.5C 244.359,125.032 242.692,122.699 239.5,121.5C 239.5,120.833 239.5,120.167 239.5,119.5 Z"/></g>
<g><path style="opacity:1" fill="#958a85" d="M 218.5,153.5 C 219.287,155.104 220.62,155.771 222.5,155.5C 222.737,156.791 222.404,157.791 221.5,158.5C 220.089,156.461 218.089,155.461 215.5,155.5C 210.248,153.509 204.915,153.176 199.5,154.5C 198.5,154.5 197.5,154.5 196.5,154.5C 197.5,153.833 198.5,153.167 199.5,152.5C 205.813,151.068 212.146,151.401 218.5,153.5 Z"/></g>
<g><path style="opacity:1" fill="#6b5659" d="M 223.5,153.5 C 221.833,153.5 220.167,153.5 218.5,153.5C 212.146,151.401 205.813,151.068 199.5,152.5C 186.196,153.425 172.863,153.758 159.5,153.5C 156.167,153.5 152.833,153.5 149.5,153.5C 154.833,152.833 160.167,152.167 165.5,151.5C 166.5,151.5 167.5,151.5 168.5,151.5C 182.731,152.101 196.898,151.101 211,148.5C 214.806,149.657 218.639,150.823 222.5,152C 223.056,152.383 223.389,152.883 223.5,153.5 Z"/></g>
<g><path style="opacity:1" fill="#a3a79e" d="M 68.5,157.5 C 67.3263,158.514 66.6596,159.847 66.5,161.5C 64.9655,159.588 62.9655,158.255 60.5,157.5C 58.4668,159.507 56.4668,161.507 54.5,163.5C 52.8561,163.286 51.3561,163.62 50,164.5C 48.951,162.893 47.451,162.227 45.5,162.5C 45.5,163.5 45.5,164.5 45.5,165.5C 40.7198,165.11 36.7198,163.11 33.5,159.5C 30.8333,158.833 28.1667,158.167 25.5,157.5C 25.8627,156.817 26.1961,156.15 26.5,155.5C 27.7095,155.068 28.7095,154.401 29.5,153.5C 43.6212,151.822 57.6212,152.322 71.5,155C 69.8807,155.236 68.8807,156.069 68.5,157.5 Z"/></g>
<g><path style="opacity:1" fill="#7f716d" d="M 199.5,152.5 C 198.5,153.167 197.5,153.833 196.5,154.5C 188.862,155.313 181.196,155.646 173.5,155.5C 169.833,155.5 166.167,155.5 162.5,155.5C 162.167,155.5 161.833,155.5 161.5,155.5C 160.833,154.833 160.167,154.167 159.5,153.5C 172.863,153.758 186.196,153.425 199.5,152.5 Z"/></g>
<g><path style="opacity:1" fill="#605245" d="M 239.5,121.5 C 242.692,122.699 244.359,125.032 244.5,128.5C 249.389,128.59 249.723,129.756 245.5,132C 247.619,132.098 249.286,132.931 250.5,134.5C 247.783,134.999 245.449,136.165 243.5,138C 244.578,138.674 245.245,139.674 245.5,141C 244.946,142.551 244.28,144.051 243.5,145.5C 244.356,151.021 245.356,156.521 246.5,162C 247.126,167.654 245.293,172.154 241,175.5C 239.849,180.888 238.516,186.221 237,191.5C 235.581,192.46 234.081,193.293 232.5,194C 232.833,194.333 233.167,194.667 233.5,195C 230.536,195.84 230.203,196.84 232.5,198C 230.75,199.319 228.75,199.819 226.5,199.5C 226.5,198.167 226.5,196.833 226.5,195.5C 228.115,193.626 230.115,192.292 232.5,191.5C 234.979,181.274 236.646,170.608 237.5,159.5C 237.5,157.5 237.5,155.5 237.5,153.5C 239.666,150.809 239.999,147.809 238.5,144.5C 239.135,140.633 239.801,136.8 240.5,133C 239.54,129.27 239.207,125.437 239.5,121.5 Z"/></g>
<g><path style="opacity:1" fill="#a3a49a" d="M 106.5,154.5 C 124.832,154.902 143.165,155.236 161.5,155.5C 161.833,155.5 162.167,155.5 162.5,155.5C 163.398,156.158 164.398,156.824 165.5,157.5C 162.788,158.228 160.121,159.061 157.5,160C 140.829,159.321 124.163,159.487 107.5,160.5C 107.657,161.873 107.49,163.207 107,164.5C 105.186,163.24 103.353,163.24 101.5,164.5C 102.325,165.386 103.325,165.719 104.5,165.5C 104.5,166.5 104.5,167.5 104.5,168.5C 98.8149,167.622 93.3149,167.622 88,168.5C 87.7679,167.263 87.2679,166.263 86.5,165.5C 86.6633,163.143 86.4966,160.81 86,158.5C 84.5134,157.845 83.3467,156.845 82.5,155.5C 90.4723,154.502 98.4723,154.169 106.5,154.5 Z"/></g>
<g><path style="opacity:1" fill="#aaab9e" d="M 215.5,155.5 C 215.414,156.496 215.748,157.329 216.5,158C 214.194,161.639 211.194,164.639 207.5,167C 203.738,168.835 200.072,168.835 196.5,167C 198.87,164.707 200.203,161.874 200.5,158.5C 198.824,157.272 198.491,155.939 199.5,154.5C 204.915,153.176 210.248,153.509 215.5,155.5 Z"/></g>
<g><path style="opacity:1" fill="#4f3c39" d="M 233.5,145.5 C 234.833,145.5 236.167,145.5 237.5,145.5C 237.5,148.167 237.5,150.833 237.5,153.5C 237.5,155.5 237.5,157.5 237.5,159.5C 236.654,163.859 235.321,168.192 233.5,172.5C 232.369,173.604 231.535,173.271 231,171.5C 230.221,174.097 229.721,174.097 229.5,171.5C 229.448,169.097 229.781,166.764 230.5,164.5C 230.786,158.5 232.453,152.833 235.5,147.5C 234.757,146.818 234.091,146.151 233.5,145.5 Z"/></g>
<g><path style="opacity:1" fill="#726d5b" d="M 19.5,155.5 C 19.5,156.833 19.5,158.167 19.5,159.5C 20.2047,165.125 21.538,170.458 23.5,175.5C 23.5,176.5 23.5,177.5 23.5,178.5C 23.5,180.5 23.5,182.5 23.5,184.5C 23.1034,185.525 22.4368,185.692 21.5,185C 21.6782,182.045 21.6782,178.879 21.5,175.5C 19.5,174.833 17.5,174.167 15.5,173.5C 15.6633,175.857 15.4966,178.19 15,180.5C 11.2179,182.921 7.05126,185.255 2.5,187.5C 2.02335,188.478 1.35668,189.311 0.5,190C 0.854052,191.626 0.854052,193.459 0.5,195.5C 1.67504,195.281 2.67504,195.614 3.5,196.5C 2.31116,197.429 0.977822,197.762 -0.5,197.5C -0.5,192.5 -0.5,187.5 -0.5,182.5C 1.26548,179.877 1.93214,176.877 1.5,173.5C 4.66686,172.844 7.66686,172.511 10.5,172.5C 12.2215,165.875 15.2215,160.208 19.5,155.5 Z"/></g>
<g><path style="opacity:1" fill="#929288" d="M 162.5,155.5 C 166.167,155.5 169.833,155.5 173.5,155.5C 174.694,156.777 176.36,157.444 178.5,157.5C 180.883,157.363 183.217,157.029 185.5,156.5C 181.5,158.167 177.5,159.833 173.5,161.5C 167.858,164.07 161.858,165.07 155.5,164.5C 155.719,165.675 155.386,166.675 154.5,167.5C 152.45,166.923 151.45,165.59 151.5,163.5C 150.178,163.67 149.011,163.337 148,162.5C 146.978,163.354 146.145,164.354 145.5,165.5C 146.485,167.098 146.651,168.765 146,170.5C 145.667,170.167 145.333,169.833 145,169.5C 141.844,172.178 140.011,171.345 139.5,167C 139.788,164.813 140.122,162.646 140.5,160.5C 132.648,160.175 124.982,160.508 117.5,161.5C 116.661,162.641 115.994,163.974 115.5,165.5C 116.833,168.167 116.833,170.833 115.5,173.5C 116.167,174.5 116.833,175.5 117.5,176.5C 116.873,177.417 116.539,178.417 116.5,179.5C 115.651,177.5 114.151,176.167 112,175.5C 105.783,177.258 100.283,176.091 95.5,172C 92.5682,171.047 89.5682,170.547 86.5,170.5C 86.5,168.833 86.5,167.167 86.5,165.5C 87.2679,166.263 87.7679,167.263 88,168.5C 93.3149,167.622 98.8149,167.622 104.5,168.5C 104.5,167.5 104.5,166.5 104.5,165.5C 103.325,165.719 102.325,165.386 101.5,164.5C 103.353,163.24 105.186,163.24 107,164.5C 107.49,163.207 107.657,161.873 107.5,160.5C 124.163,159.487 140.829,159.321 157.5,160C 160.121,159.061 162.788,158.228 165.5,157.5C 164.398,156.824 163.398,156.158 162.5,155.5 Z"/></g>
<g><path style="opacity:1" fill="#645252" d="M 223.5,153.5 C 224.167,153.5 224.833,153.5 225.5,153.5C 226.467,154.806 227.801,155.473 229.5,155.5C 229.963,158.482 230.296,161.482 230.5,164.5C 229.781,166.764 229.448,169.097 229.5,171.5C 229.167,171.5 228.833,171.5 228.5,171.5C 228.662,169.473 228.495,167.473 228,165.5C 227.667,165.833 227.333,166.167 227,166.5C 226.392,161.934 225.225,157.6 223.5,153.5 Z"/></g>
<g><path style="opacity:1" fill="#8d8d81" d="M 117.5,161.5 C 124.982,160.508 132.648,160.175 140.5,160.5C 140.122,162.646 139.788,164.813 139.5,167C 140.011,171.345 141.844,172.178 145,169.5C 145.333,169.833 145.667,170.167 146,170.5C 146.651,168.765 146.485,167.098 145.5,165.5C 146.145,164.354 146.978,163.354 148,162.5C 149.011,163.337 150.178,163.67 151.5,163.5C 151.45,165.59 152.45,166.923 154.5,167.5C 155.386,166.675 155.719,165.675 155.5,164.5C 161.858,165.07 167.858,164.07 173.5,161.5C 174.239,161.369 174.906,161.536 175.5,162C 174.422,162.674 173.755,163.674 173.5,165C 175.616,168.183 176.616,171.683 176.5,175.5C 178.591,175.318 180.591,175.652 182.5,176.5C 184.116,175.885 185.449,174.885 186.5,173.5C 187.107,173.624 187.44,173.957 187.5,174.5C 186.837,176.042 186.17,177.709 185.5,179.5C 178.229,177.064 171.229,177.731 164.5,181.5C 162.289,177.779 159.123,175.446 155,174.5C 154.667,172.5 154.333,170.5 154,168.5C 151.81,170.388 149.977,172.555 148.5,175C 146.382,175.635 144.382,176.469 142.5,177.5C 140.173,176.275 139.006,174.275 139,171.5C 137.312,169.152 135.478,168.985 133.5,171C 135.686,171.604 135.852,172.77 134,174.5C 131.712,174.263 129.212,174.263 126.5,174.5C 126.808,172.076 126.474,169.743 125.5,167.5C 124.5,168.167 123.5,168.833 122.5,169.5C 122.347,167.204 122.013,164.871 121.5,162.5C 120.311,161.571 118.978,161.238 117.5,161.5 Z"/></g>
<g><path style="opacity:1" fill="#9a9d94" d="M 26.5,155.5 C 26.1961,156.15 25.8627,156.817 25.5,157.5C 28.1667,158.167 30.8333,158.833 33.5,159.5C 36.7198,163.11 40.7198,165.11 45.5,165.5C 45.5,164.5 45.5,163.5 45.5,162.5C 47.451,162.227 48.951,162.893 50,164.5C 51.3561,163.62 52.8561,163.286 54.5,163.5C 53.791,164.404 52.791,164.737 51.5,164.5C 51.5,166.167 51.5,167.833 51.5,169.5C 47.8972,170.877 44.2305,172.043 40.5,173C 39.8333,170.667 39.1667,168.333 38.5,166C 32.6402,166.693 27.9736,164.693 24.5,160C 23.552,159.517 22.552,159.351 21.5,159.5C 20.9862,157.488 20.8195,155.488 21,153.5C 22.4443,155.155 24.2776,155.822 26.5,155.5 Z"/></g>
<g><path style="opacity:1" fill="#86867a" d="M 86.5,165.5 C 86.5,167.167 86.5,168.833 86.5,170.5C 89.5682,170.547 92.5682,171.047 95.5,172C 100.283,176.091 105.783,177.258 112,175.5C 114.151,176.167 115.651,177.5 116.5,179.5C 116.719,180.675 116.386,181.675 115.5,182.5C 113.999,181.248 112.332,180.248 110.5,179.5C 106.65,181.977 102.65,182.144 98.5,180C 98.8333,179.667 99.1667,179.333 99.5,179C 97.6494,178.163 95.8161,177.329 94,176.5C 89.4406,176.678 84.9406,177.511 80.5,179C 80.4324,176.981 81.4324,175.147 83.5,173.5C 82.0977,172.158 82.4311,171.324 84.5,171C 83.624,169.414 82.624,167.914 81.5,166.5C 80.914,166.709 80.414,167.043 80,167.5C 79.5014,171.152 79.3347,174.818 79.5,178.5C 77.8561,178.714 76.3561,178.38 75,177.5C 72.6592,180.971 69.9926,181.304 67,178.5C 64.9307,179.264 62.764,179.764 60.5,180C 60.0426,180.414 59.7093,180.914 59.5,181.5C 64.5544,182.283 69.5544,183.283 74.5,184.5C 77.5884,184.648 80.755,184.315 84,183.5C 86.5837,184.269 88.7504,185.602 90.5,187.5C 71.5452,185.642 52.5452,185.142 33.5,186C 38.0195,186.175 42.3528,186.675 46.5,187.5C 41.5,187.5 36.5,187.5 31.5,187.5C 29.064,186.129 26.3973,185.129 23.5,184.5C 23.5,182.5 23.5,180.5 23.5,178.5C 24.4511,179.919 24.7845,181.585 24.5,183.5C 27.8332,184.167 29.8332,182.833 30.5,179.5C 29.7366,178.281 28.7366,177.281 27.5,176.5C 28.5,176.167 29.5,175.833 30.5,175.5C 38.5347,178.34 46.868,179.673 55.5,179.5C 56.3203,175.842 54.9869,173.509 51.5,172.5C 52.3094,170.929 52.6427,169.262 52.5,167.5C 57.1118,166.806 61.7785,166.806 66.5,167.5C 66.5,165.5 66.5,163.5 66.5,161.5C 66.6596,159.847 67.3263,158.514 68.5,157.5C 70.8056,157.007 73.139,156.674 75.5,156.5C 75.5,157.5 75.5,158.5 75.5,159.5C 76.5,159.5 77.5,159.5 78.5,159.5C 78.3433,158.127 78.51,156.793 79,155.5C 81.4635,157.531 82.7969,160.198 83,163.5C 83.9147,162.672 84.5814,161.672 85,160.5C 85.1981,162.382 85.6981,164.048 86.5,165.5 Z"/></g>
<g><path style="opacity:1" fill="#9a968d" d="M 196.5,154.5 C 197.5,154.5 198.5,154.5 199.5,154.5C 198.491,155.939 198.824,157.272 200.5,158.5C 200.203,161.874 198.87,164.707 196.5,167C 200.072,168.835 203.738,168.835 207.5,167C 211.194,164.639 214.194,161.639 216.5,158C 215.748,157.329 215.414,156.496 215.5,155.5C 218.089,155.461 220.089,156.461 221.5,158.5C 218.344,161.383 217.01,165.049 217.5,169.5C 212.562,173.784 207.229,174.451 201.5,171.5C 198.485,172.818 195.485,173.818 192.5,174.5C 191.5,174.5 190.5,174.5 189.5,174.5C 185.677,171.856 183.677,168.189 183.5,163.5C 182.127,163.657 180.793,163.49 179.5,163C 181.25,161.681 183.25,161.181 185.5,161.5C 184.931,167.798 186.764,168.798 191,164.5C 191.483,163.552 191.649,162.552 191.5,161.5C 194.012,161.577 196.012,160.577 197.5,158.5C 193.524,157.614 189.524,156.948 185.5,156.5C 183.217,157.029 180.883,157.363 178.5,157.5C 176.36,157.444 174.694,156.777 173.5,155.5C 181.196,155.646 188.862,155.313 196.5,154.5 Z"/></g>
<g><path style="opacity:1" fill="#848678" d="M 19.5,159.5 C 24.0661,165.815 30.3995,168.482 38.5,167.5C 38.5,169.5 38.5,171.5 38.5,173.5C 33.9084,173.602 29.575,172.602 25.5,170.5C 23.7607,165.267 22.9274,165.267 23,170.5C 25.4493,171.906 26.4493,173.906 26,176.5C 25.1618,175.001 24.3285,174.668 23.5,175.5C 21.538,170.458 20.2047,165.125 19.5,159.5 Z"/></g>
<g><path style="opacity:1" fill="#8c857e" d="M 185.5,156.5 C 189.524,156.948 193.524,157.614 197.5,158.5C 196.012,160.577 194.012,161.577 191.5,161.5C 191.649,162.552 191.483,163.552 191,164.5C 186.764,168.798 184.931,167.798 185.5,161.5C 183.25,161.181 181.25,161.681 179.5,163C 180.793,163.49 182.127,163.657 183.5,163.5C 183.677,168.189 185.677,171.856 189.5,174.5C 188.833,174.5 188.167,174.5 187.5,174.5C 187.44,173.957 187.107,173.624 186.5,173.5C 185.449,174.885 184.116,175.885 182.5,176.5C 180.591,175.652 178.591,175.318 176.5,175.5C 176.616,171.683 175.616,168.183 173.5,165C 173.755,163.674 174.422,162.674 175.5,162C 174.906,161.536 174.239,161.369 173.5,161.5C 177.5,159.833 181.5,158.167 185.5,156.5 Z"/></g>
<g><path style="opacity:1" fill="#7d736e" d="M 218.5,153.5 C 220.167,153.5 221.833,153.5 223.5,153.5C 225.225,157.6 226.392,161.934 227,166.5C 227.333,166.167 227.667,165.833 228,165.5C 228.495,167.473 228.662,169.473 228.5,171.5C 226.328,177.236 224.328,182.903 222.5,188.5C 223.578,182.492 223.578,176.492 222.5,170.5C 220.239,172.173 218.572,171.84 217.5,169.5C 217.01,165.049 218.344,161.383 221.5,158.5C 222.404,157.791 222.737,156.791 222.5,155.5C 220.62,155.771 219.287,155.104 218.5,153.5 Z"/></g>
<g><path style="opacity:1" fill="#909184" d="M 20.5,151.5 C 23.3915,152.403 26.3915,152.736 29.5,152.5C 29.5,152.833 29.5,153.167 29.5,153.5C 28.7095,154.401 27.7095,155.068 26.5,155.5C 24.2776,155.822 22.4443,155.155 21,153.5C 20.8195,155.488 20.9862,157.488 21.5,159.5C 22.552,159.351 23.552,159.517 24.5,160C 27.9736,164.693 32.6402,166.693 38.5,166C 39.1667,168.333 39.8333,170.667 40.5,173C 44.2305,172.043 47.8972,170.877 51.5,169.5C 51.5,167.833 51.5,166.167 51.5,164.5C 52.791,164.737 53.791,164.404 54.5,163.5C 56.4668,161.507 58.4668,159.507 60.5,157.5C 62.9655,158.255 64.9655,159.588 66.5,161.5C 66.5,163.5 66.5,165.5 66.5,167.5C 61.7785,166.806 57.1118,166.806 52.5,167.5C 52.6427,169.262 52.3094,170.929 51.5,172.5C 54.9869,173.509 56.3203,175.842 55.5,179.5C 46.868,179.673 38.5347,178.34 30.5,175.5C 29.5,175.833 28.5,176.167 27.5,176.5C 28.7366,177.281 29.7366,178.281 30.5,179.5C 29.8332,182.833 27.8332,184.167 24.5,183.5C 24.7845,181.585 24.4511,179.919 23.5,178.5C 23.5,177.5 23.5,176.5 23.5,175.5C 24.3285,174.668 25.1618,175.001 26,176.5C 26.4493,173.906 25.4493,171.906 23,170.5C 22.9274,165.267 23.7607,165.267 25.5,170.5C 29.575,172.602 33.9084,173.602 38.5,173.5C 38.5,171.5 38.5,169.5 38.5,167.5C 30.3995,168.482 24.0661,165.815 19.5,159.5C 19.5,158.167 19.5,156.833 19.5,155.5C 19.4326,154.041 19.7659,152.708 20.5,151.5 Z"/></g>
<g><path style="opacity:1" fill="#6e6655" d="M 23.5,184.5 C 26.3973,185.129 29.064,186.129 31.5,187.5C 30.5,187.5 29.5,187.5 28.5,187.5C 27.0267,186.929 25.36,186.929 23.5,187.5C 23.238,188.978 23.5713,190.311 24.5,191.5C 26.3031,192.137 27.6364,193.303 28.5,195C 34.9474,196.411 40.9474,198.578 46.5,201.5C 30.8333,201.5 15.1667,201.5 -0.5,201.5C -0.5,200.167 -0.5,198.833 -0.5,197.5C 0.977822,197.762 2.31116,197.429 3.5,196.5C 2.67504,195.614 1.67504,195.281 0.5,195.5C 0.854052,193.459 0.854052,191.626 0.5,190C 1.35668,189.311 2.02335,188.478 2.5,187.5C 7.05126,185.255 11.2179,182.921 15,180.5C 15.4966,178.19 15.6633,175.857 15.5,173.5C 17.5,174.167 19.5,174.833 21.5,175.5C 21.6782,178.879 21.6782,182.045 21.5,185C 22.4368,185.692 23.1034,185.525 23.5,184.5 Z"/></g>
<g><path style="opacity:1" fill="#4f4139" d="M 237.5,159.5 C 236.646,170.608 234.979,181.274 232.5,191.5C 230.115,192.292 228.115,193.626 226.5,195.5C 221.711,195.635 216.711,195.635 211.5,195.5C 212.5,194.833 213.5,194.167 214.5,193.5C 215.289,193.217 215.956,192.717 216.5,192C 215.263,191.768 214.263,191.268 213.5,190.5C 215.735,190.795 217.735,190.461 219.5,189.5C 219.833,189.5 220.167,189.5 220.5,189.5C 221.492,189.672 222.158,189.338 222.5,188.5C 224.328,182.903 226.328,177.236 228.5,171.5C 228.833,171.5 229.167,171.5 229.5,171.5C 229.721,174.097 230.221,174.097 231,171.5C 231.535,173.271 232.369,173.604 233.5,172.5C 235.321,168.192 236.654,163.859 237.5,159.5 Z"/></g>
<g><path style="opacity:1" fill="#818175" d="M 117.5,161.5 C 118.978,161.238 120.311,161.571 121.5,162.5C 122.013,164.871 122.347,167.204 122.5,169.5C 123.5,168.833 124.5,168.167 125.5,167.5C 126.474,169.743 126.808,172.076 126.5,174.5C 129.212,174.263 131.712,174.263 134,174.5C 135.852,172.77 135.686,171.604 133.5,171C 135.478,168.985 137.312,169.152 139,171.5C 139.006,174.275 140.173,176.275 142.5,177.5C 144.382,176.469 146.382,175.635 148.5,175C 149.977,172.555 151.81,170.388 154,168.5C 154.333,170.5 154.667,172.5 155,174.5C 159.123,175.446 162.289,177.779 164.5,181.5C 171.229,177.731 178.229,177.064 185.5,179.5C 186.17,177.709 186.837,176.042 187.5,174.5C 187.821,176.048 188.821,176.715 190.5,176.5C 190.281,177.675 190.614,178.675 191.5,179.5C 192.5,178.167 193.5,176.833 194.5,175.5C 194.043,174.702 193.376,174.369 192.5,174.5C 195.485,173.818 198.485,172.818 201.5,171.5C 207.229,174.451 212.562,173.784 217.5,169.5C 218.572,171.84 220.239,172.173 222.5,170.5C 223.578,176.492 223.578,182.492 222.5,188.5C 222.158,189.338 221.492,189.672 220.5,189.5C 221.741,183.782 220.741,183.282 217.5,188C 211.175,188.5 204.842,188.666 198.5,188.5C 198.141,186.515 197.308,185.849 196,186.5C 190.506,183.869 184.84,183.203 179,184.5C 177.333,183.5 175.667,182.5 174,181.5C 171.54,182.888 168.873,183.554 166,183.5C 161.14,182.288 156.473,180.621 152,178.5C 146.374,180.528 140.707,180.862 135,179.5C 131.661,182.299 128.661,181.966 126,178.5C 124.225,181.044 122.392,181.044 120.5,178.5C 119.5,178.833 118.833,179.5 118.5,180.5C 119.309,182.071 119.643,183.738 119.5,185.5C 118.325,185.281 117.325,185.614 116.5,186.5C 119.642,187.167 122.642,187.834 125.5,188.5C 113.841,187.945 102.174,187.612 90.5,187.5C 88.7504,185.602 86.5837,184.269 84,183.5C 80.755,184.315 77.5884,184.648 74.5,184.5C 69.5544,183.283 64.5544,182.283 59.5,181.5C 59.7093,180.914 60.0426,180.414 60.5,180C 62.764,179.764 64.9307,179.264 67,178.5C 69.9926,181.304 72.6592,180.971 75,177.5C 76.3561,178.38 77.8561,178.714 79.5,178.5C 79.3347,174.818 79.5014,171.152 80,167.5C 80.414,167.043 80.914,166.709 81.5,166.5C 82.624,167.914 83.624,169.414 84.5,171C 82.4311,171.324 82.0977,172.158 83.5,173.5C 81.4324,175.147 80.4324,176.981 80.5,179C 84.9406,177.511 89.4406,176.678 94,176.5C 95.8161,177.329 97.6494,178.163 99.5,179C 99.1667,179.333 98.8333,179.667 98.5,180C 102.65,182.144 106.65,181.977 110.5,179.5C 112.332,180.248 113.999,181.248 115.5,182.5C 116.386,181.675 116.719,180.675 116.5,179.5C 116.539,178.417 116.873,177.417 117.5,176.5C 116.833,175.5 116.167,174.5 115.5,173.5C 116.833,170.833 116.833,168.167 115.5,165.5C 115.994,163.974 116.661,162.641 117.5,161.5 Z"/></g>
<g><path style="opacity:1" fill="#625f57" d="M 187.5,174.5 C 188.167,174.5 188.833,174.5 189.5,174.5C 190.5,174.5 191.5,174.5 192.5,174.5C 193.376,174.369 194.043,174.702 194.5,175.5C 193.5,176.833 192.5,178.167 191.5,179.5C 190.614,178.675 190.281,177.675 190.5,176.5C 188.821,176.715 187.821,176.048 187.5,174.5 Z"/></g>
<g><path style="opacity:1" fill="#777668" d="M 198.5,175.5 C 201.518,175.335 204.518,175.502 207.5,176C 204.057,176.221 203.724,177.221 206.5,179C 206.167,179.333 205.833,179.667 205.5,180C 207.243,181.11 208.576,182.61 209.5,184.5C 210.425,185.641 211.259,185.641 212,184.5C 212.667,185.167 212.667,185.833 212,186.5C 207.921,187.629 203.755,187.796 199.5,187C 199.434,184.133 199.434,181.3 199.5,178.5C 197.565,177.787 197.232,176.787 198.5,175.5 Z"/></g>
<g><path style="opacity:1" fill="#777569" d="M 198.5,188.5 C 203.444,189.527 210.444,189.86 219.5,189.5C 217.735,190.461 215.735,190.795 213.5,190.5C 198.826,190.587 184.16,190.92 169.5,191.5C 174.651,190.673 179.984,190.173 185.5,190C 184.167,189.667 182.833,189.333 181.5,189C 162.85,189.281 144.183,189.114 125.5,188.5C 122.642,187.834 119.642,187.167 116.5,186.5C 117.325,185.614 118.325,185.281 119.5,185.5C 119.643,183.738 119.309,182.071 118.5,180.5C 118.833,179.5 119.5,178.833 120.5,178.5C 122.392,181.044 124.225,181.044 126,178.5C 128.661,181.966 131.661,182.299 135,179.5C 140.707,180.862 146.374,180.528 152,178.5C 156.473,180.621 161.14,182.288 166,183.5C 168.873,183.554 171.54,182.888 174,181.5C 175.667,182.5 177.333,183.5 179,184.5C 184.84,183.203 190.506,183.869 196,186.5C 197.308,185.849 198.141,186.515 198.5,188.5 Z"/></g>
<g><path style="opacity:1" fill="#929086" d="M 90.5,187.5 C 102.174,187.612 113.841,187.945 125.5,188.5C 144.183,189.114 162.85,189.281 181.5,189C 182.833,189.333 184.167,189.667 185.5,190C 179.984,190.173 174.651,190.673 169.5,191.5C 136.49,190.716 103.49,189.716 70.5,188.5C 62.6841,187.508 54.6841,187.174 46.5,187.5C 42.3528,186.675 38.0195,186.175 33.5,186C 52.5452,185.142 71.5452,185.642 90.5,187.5 Z"/></g>
<g><path style="opacity:1" fill="#5b5748" d="M 293.5,181.5 C 293.5,188.167 293.5,194.833 293.5,201.5C 286.167,201.5 278.833,201.5 271.5,201.5C 270.71,200.599 269.71,199.932 268.5,199.5C 268.338,197.473 268.505,195.473 269,193.5C 274.798,184.851 282.965,180.851 293.5,181.5 Z"/></g>
<g><path style="opacity:1" fill="#979182" d="M 220.5,189.5 C 220.167,189.5 219.833,189.5 219.5,189.5C 210.444,189.86 203.444,189.527 198.5,188.5C 204.842,188.666 211.175,188.5 217.5,188C 220.741,183.282 221.741,183.782 220.5,189.5 Z"/></g>
<g><path style="opacity:1" fill="#373029" d="M 41.5,188.5 C 51.1667,188.5 60.8333,188.5 70.5,188.5C 103.49,189.716 136.49,190.716 169.5,191.5C 184.16,190.92 198.826,190.587 213.5,190.5C 214.263,191.268 215.263,191.768 216.5,192C 215.956,192.717 215.289,193.217 214.5,193.5C 167.505,194.785 120.505,194.618 73.5,193C 62.5671,192.419 51.9004,190.919 41.5,188.5 Z"/></g>
<g><path style="opacity:1" fill="#453a32" d="M 41.5,188.5 C 51.9004,190.919 62.5671,192.419 73.5,193C 120.505,194.618 167.505,194.785 214.5,193.5C 213.5,194.167 212.5,194.833 211.5,195.5C 190.167,195.5 168.833,195.5 147.5,195.5C 124.833,195.5 102.167,195.5 79.5,195.5C 66.4749,195.027 53.4749,194.193 40.5,193C 39.7262,190.56 38.0595,189.227 35.5,189C 37.4727,188.505 39.4727,188.338 41.5,188.5 Z"/></g>
<g><path style="opacity:1" fill="#54483a" d="M 28.5,187.5 C 29.5,187.5 30.5,187.5 31.5,187.5C 36.5,187.5 41.5,187.5 46.5,187.5C 54.6841,187.174 62.6841,187.508 70.5,188.5C 60.8333,188.5 51.1667,188.5 41.5,188.5C 39.4727,188.338 37.4727,188.505 35.5,189C 38.0595,189.227 39.7262,190.56 40.5,193C 53.4749,194.193 66.4749,195.027 79.5,195.5C 80.3339,196.748 81.6672,197.415 83.5,197.5C 85.5288,197.33 87.5288,196.996 89.5,196.5C 96.5537,196.755 103.22,197.755 109.5,199.5C 94.8333,199.5 80.1667,199.5 65.5,199.5C 62.6403,199.072 59.9736,198.072 57.5,196.5C 55.3637,197.015 53.197,197.349 51,197.5C 44.188,196.261 37.3546,195.094 30.5,194C 28.9837,192.103 28.317,189.936 28.5,187.5 Z"/></g>
<g><path style="opacity:1" fill="#463832" d="M 79.5,195.5 C 102.167,195.5 124.833,195.5 147.5,195.5C 147.62,196.586 148.287,197.253 149.5,197.5C 152.853,196.173 156.186,196.173 159.5,197.5C 156.875,198.441 156.875,199.607 159.5,201C 181.831,201.5 204.164,201.667 226.5,201.5C 228.833,201.5 231.167,201.5 233.5,201.5C 246.167,201.5 258.833,201.5 271.5,201.5C 278.833,201.5 286.167,201.5 293.5,201.5C 293.5,201.833 293.5,202.167 293.5,202.5C 195.5,202.5 97.5,202.5 -0.5,202.5C -0.5,202.167 -0.5,201.833 -0.5,201.5C 15.1667,201.5 30.8333,201.5 46.5,201.5C 53.5,201.5 60.5,201.5 67.5,201.5C 87.5028,201.667 107.503,201.5 127.5,201C 121.465,199.685 115.465,199.185 109.5,199.5C 103.22,197.755 96.5537,196.755 89.5,196.5C 87.5288,196.996 85.5288,197.33 83.5,197.5C 81.6672,197.415 80.3339,196.748 79.5,195.5 Z"/></g>
<g><path style="opacity:1" fill="#605646" d="M 28.5,187.5 C 28.317,189.936 28.9837,192.103 30.5,194C 37.3546,195.094 44.188,196.261 51,197.5C 53.197,197.349 55.3637,197.015 57.5,196.5C 59.9736,198.072 62.6403,199.072 65.5,199.5C 66.1667,200.167 66.8333,200.833 67.5,201.5C 60.5,201.5 53.5,201.5 46.5,201.5C 40.9474,198.578 34.9474,196.411 28.5,195C 27.6364,193.303 26.3031,192.137 24.5,191.5C 23.5713,190.311 23.238,188.978 23.5,187.5C 25.36,186.929 27.0267,186.929 28.5,187.5 Z"/></g>
<g><path style="opacity:1" fill="#504436" d="M 147.5,195.5 C 168.833,195.5 190.167,195.5 211.5,195.5C 216.711,195.635 221.711,195.635 226.5,195.5C 226.5,196.833 226.5,198.167 226.5,199.5C 204.192,198.466 181.858,197.799 159.5,197.5C 156.186,196.173 152.853,196.173 149.5,197.5C 148.287,197.253 147.62,196.586 147.5,195.5 Z"/></g>
<g><path style="opacity:1" fill="#554842" d="M 65.5,199.5 C 80.1667,199.5 94.8333,199.5 109.5,199.5C 115.465,199.185 121.465,199.685 127.5,201C 107.503,201.5 87.5028,201.667 67.5,201.5C 66.8333,200.833 66.1667,200.167 65.5,199.5 Z"/></g>
<g><path style="opacity:1" fill="#5d5245" d="M 159.5,197.5 C 181.858,197.799 204.192,198.466 226.5,199.5C 226.5,200.167 226.5,200.833 226.5,201.5C 204.164,201.667 181.831,201.5 159.5,201C 156.875,199.607 156.875,198.441 159.5,197.5 Z"/></g>
<g><path style="opacity:1" fill="#000000" d="M -0.5,202.5 C 97.5,202.5 195.5,202.5 293.5,202.5C 293.5,214.833 293.5,227.167 293.5,239.5C 195.5,239.5 97.5,239.5 -0.5,239.5C -0.5,227.167 -0.5,214.833 -0.5,202.5 Z"/></g>
</svg>
