<?xml version="1.0" encoding="UTF-8"?>
<!DOCTYPE svg PUBLIC "-//W3C//DTD SVG 1.1//EN" "http://www.w3.org/Graphics/SVG/1.1/DTD/svg11.dtd">
<svg xmlns="http://www.w3.org/2000/svg" version="1.1" width="294px" height="240px" style="shape-rendering:geometricPrecision; text-rendering:geometricPrecision; image-rendering:optimizeQuality; fill-rule:evenodd; clip-rule:evenodd" xmlns:xlink="http://www.w3.org/1999/xlink">
<g><path style="opacity:1" fill="#000000" d="M -0.5,-0.5 C 97.5,-0.5 195.5,-0.5 293.5,-0.5C 293.5,11.8333 293.5,24.1667 293.5,36.5C 232.5,36.5 171.5,36.5 110.5,36.5C 91.1667,36.5 71.8333,36.5 52.5,36.5C 39.3226,36.1712 26.3226,36.5045 13.5,37.5C 8.83333,37.5 4.16667,37.5 -0.5,37.5C -0.5,24.8333 -0.5,12.1667 -0.5,-0.5 Z"/></g>
<g><path style="opacity:1" fill="#575a5a" d="M 52.5,36.5 C 52.5,36.8333 52.5,37.1667 52.5,37.5C 52.1667,37.5 51.8333,37.5 51.5,37.5C 39.1487,37.1676 26.8153,37.501 14.5,38.5C 15.985,42.3965 16.985,46.3965 17.5,50.5C 17.7947,52.7354 17.4614,54.7354 16.5,56.5C 16.0391,50.0685 15.0391,43.7351 13.5,37.5C 26.3226,36.5045 39.3226,36.1712 52.5,36.5 Z"/></g>
<g><path style="opacity:1" fill="#41383c" d="M 52.5,37.5 C 52.5,37.1667 52.5,36.8333 52.5,36.5C 71.8333,36.5 91.1667,36.5 110.5,36.5C 110.5,36.8333 110.5,37.1667 110.5,37.5C 103.5,37.5 96.5,37.5 89.5,37.5C 87.8333,37.5 86.1667,37.5 84.5,37.5C 83.8333,37.5 83.1667,37.5 82.5,37.5C 75.1591,37.3337 67.8258,37.5003 60.5,38C 59.944,38.3826 59.6107,38.8826 59.5,39.5C 57.8185,41.0075 55.8185,42.0075 53.5,42.5C 53.7845,40.5853 53.4511,38.9187 52.5,37.5 Z"/></g>
<g><path style="opacity:1" fill="#47323a" d="M 128.5,37.5 C 129.919,38.4511 131.585,38.7845 133.5,38.5C 133.56,43.5041 135.226,47.8374 138.5,51.5C 139.314,53.7662 139.814,56.0995 140,58.5C 144.52,66.2552 148.353,74.2552 151.5,82.5C 153.895,86.2073 156.228,89.874 158.5,93.5C 161.806,103.703 165.473,113.37 169.5,122.5C 172.531,126.524 175.531,130.524 178.5,134.5C 180.045,135.452 181.712,135.785 183.5,135.5C 183.5,136.833 183.5,138.167 183.5,139.5C 184.833,139.5 186.167,139.5 187.5,139.5C 187.5,140.833 187.5,142.167 187.5,143.5C 188.833,143.5 190.167,143.5 191.5,143.5C 191.334,148.511 191.501,153.511 192,158.5C 193.356,159.38 194.856,159.714 196.5,159.5C 196.804,163.215 196.137,166.715 194.5,170C 196.624,172.408 196.457,174.908 194,177.5C 192.167,175.667 190.333,173.833 188.5,172C 190.301,171.683 190.634,171.016 189.5,170C 191.321,167.544 191.988,164.711 191.5,161.5C 186.326,162.786 181.659,162.119 177.5,159.5C 171.332,153.567 165.832,146.9 161,139.5C 155.606,135.003 151.439,129.669 148.5,123.5C 149.793,122.355 150.959,122.689 152,124.5C 152.529,120.852 155.029,118.852 159.5,118.5C 159.34,116.801 159.506,115.134 160,113.5C 160.71,114.973 161.876,115.64 163.5,115.5C 163.241,111.932 161.241,110.599 157.5,111.5C 156.471,106.251 154.804,101.251 152.5,96.5C 151.675,95.6143 150.675,95.281 149.5,95.5C 149.48,93.857 150.147,92.5237 151.5,91.5C 147.76,86.6467 144.76,81.3134 142.5,75.5C 141.24,73.6471 141.24,71.8138 142.5,70C 140.043,66.5786 138.543,62.7453 138,58.5C 135.528,56.7015 133.861,54.3682 133,51.5C 132.333,50.1667 131.667,50.1667 131,51.5C 130.51,50.2068 130.343,48.8734 130.5,47.5C 123.106,49.3904 117.773,47.057 114.5,40.5C 118.784,37.9318 123.451,36.9318 128.5,37.5 Z"/></g>
<g><path style="opacity:1" fill="#adb4b3" d="M 51.5,37.5 C 47.6612,38.293 43.6612,38.9597 39.5,39.5C 36.9316,41.7172 33.9316,42.8839 30.5,43C 30.8333,43.3333 31.1667,43.6667 31.5,44C 28.0672,45.772 24.7339,47.6054 21.5,49.5C 20.3037,51.1446 19.3037,52.8113 18.5,54.5C 18.7678,52.901 18.4345,51.5676 17.5,50.5C 16.985,46.3965 15.985,42.3965 14.5,38.5C 26.8153,37.501 39.1487,37.1676 51.5,37.5 Z"/></g>
<g><path style="opacity:1" fill="#5b3c49" d="M 140.5,37.5 C 147.833,37.5 155.167,37.5 162.5,37.5C 166.902,38.2543 170.902,40.0877 174.5,43C 182.823,46.6252 190.49,45.4585 197.5,39.5C 198.646,40.1449 199.646,40.9783 200.5,42C 197.167,43.6667 193.833,45.3333 190.5,47C 191.953,49.1144 193.953,50.4478 196.5,51C 199.343,51.4461 202.176,51.9461 205,52.5C 214.613,48.9496 219.446,52.2829 219.5,62.5C 218.833,62.5 218.5,62.8333 218.5,63.5C 216.461,62.089 215.461,60.089 215.5,57.5C 210.863,56.7255 206.196,56.5588 201.5,57C 197.547,54.3548 193.214,52.8548 188.5,52.5C 188.83,59.5316 188.497,66.5316 187.5,73.5C 185.729,72.9646 185.396,72.1313 186.5,71C 185.833,67.6667 185.167,64.3333 184.5,61C 183.216,60.3162 182.049,60.4829 181,61.5C 179.445,59.4848 177.611,59.1515 175.5,60.5C 176.833,61.8333 176.833,63.1667 175.5,64.5C 176.325,65.3857 177.325,65.719 178.5,65.5C 178.263,68.2116 178.263,70.7116 178.5,73C 178,73.5 177.5,74 177,74.5C 176.581,73.3279 175.915,72.3279 175,71.5C 173.301,72.4061 171.467,72.7394 169.5,72.5C 169.617,78.177 172.617,80.677 178.5,80C 179.191,81.0674 179.691,82.2341 180,83.5C 181.768,82.8688 182.935,83.7021 183.5,86C 182.806,90.9384 183.472,95.7717 185.5,100.5C 184.29,103.141 184.29,105.807 185.5,108.5C 185.547,110 184.881,111 183.5,111.5C 182.264,110.754 180.93,110.421 179.5,110.5C 177.192,107.01 176.025,103.01 176,98.5C 175.667,98.8333 175.333,99.1667 175,99.5C 172.824,99.0116 170.991,98.0116 169.5,96.5C 171.26,93.7877 171.927,90.7877 171.5,87.5C 170.167,87.5 168.833,87.5 167.5,87.5C 167.643,85.7376 167.309,84.0709 166.5,82.5C 164.242,81.201 161.908,80.201 159.5,79.5C 156.561,75.3824 154.561,70.7157 153.5,65.5C 152.201,60.1249 152.201,55.1249 153.5,50.5C 152.302,50.0604 151.135,49.727 150,49.5C 149.667,50.1667 149.333,50.8333 149,51.5C 147.815,48.068 146.648,44.7347 145.5,41.5C 141.544,40.9473 141.544,40.1139 145.5,39C 143.618,38.8019 141.952,38.3019 140.5,37.5 Z"/></g>
<g><path style="opacity:1" fill="#805667" d="M 82.5,37.5 C 83.038,39.1172 83.3713,40.7839 83.5,42.5C 83.5,43.1667 83.5,43.8333 83.5,44.5C 79.9545,45.3851 77.2878,47.3851 75.5,50.5C 75.2285,53.0453 75.0618,55.7119 75,58.5C 73.0262,55.8817 71.1929,56.0483 69.5,59C 70.5171,60.0495 70.6838,61.2161 70,62.5C 68.6667,61.1667 67.3333,61.1667 66,62.5C 63.7423,66.716 64.2423,70.5494 67.5,74C 67.1667,74.3333 66.8333,74.6667 66.5,75C 70.0033,77.2453 70.6699,79.912 68.5,83C 67.552,83.4828 66.552,83.6495 65.5,83.5C 66.8284,82.4928 67.8284,81.1595 68.5,79.5C 62.401,75.1401 60.0677,69.3068 61.5,62C 61.0946,61.0546 60.428,60.3879 59.5,60C 61.689,59.323 62.0224,58.1563 60.5,56.5C 62.6082,54.6179 63.9415,52.2846 64.5,49.5C 63.0083,47.0276 62.3416,44.3609 62.5,41.5C 64.7505,41.8186 66.7505,41.3186 68.5,40C 65.5184,39.502 62.5184,39.3354 59.5,39.5C 59.6107,38.8826 59.944,38.3826 60.5,38C 67.8258,37.5003 75.1591,37.3337 82.5,37.5 Z"/></g>
<g><path style="opacity:1" fill="#eee2e5" d="M 84.5,37.5 C 86.1667,37.5 87.8333,37.5 89.5,37.5C 90.0883,40.0631 91.0883,42.3964 92.5,44.5C 92.5,44.8333 92.5,45.1667 92.5,45.5C 92.6309,46.3764 92.2975,47.0431 91.5,47.5C 90.8182,46.7573 90.1515,46.0906 89.5,45.5C 86.8564,43.5675 85.1897,40.9008 84.5,37.5 Z"/></g>
<g><path style="opacity:1" fill="#5b424c" d="M 213.5,37.5 C 233.167,37.5 252.833,37.5 272.5,37.5C 272.389,38.1174 272.056,38.6174 271.5,39C 266.914,39.1971 262.414,39.6971 258,40.5C 254.725,38.9089 251.725,39.2423 249,41.5C 247.951,39.8934 246.451,39.2267 244.5,39.5C 245.392,43.5767 244.725,47.5767 242.5,51.5C 242.977,52.4776 243.643,53.3109 244.5,54C 239.521,56.3514 236.521,56.8514 235.5,55.5C 234.477,52.6075 234.477,49.7742 235.5,47C 233.723,44.848 232.223,45.0147 231,47.5C 230.667,47.1667 230.333,46.8333 230,46.5C 228.237,47.9437 226.237,48.9437 224,49.5C 223.182,52.2272 223.348,54.8938 224.5,57.5C 226.432,56.4798 228.432,56.3131 230.5,57C 228.403,58.6104 226.07,59.7771 223.5,60.5C 224.167,60.8333 224.833,61.1667 225.5,61.5C 235.937,60.3177 246.27,58.651 256.5,56.5C 254.402,57.935 252.069,59.1016 249.5,60C 242.392,60.173 235.392,61.0063 228.5,62.5C 226.5,62.5 224.5,62.5 222.5,62.5C 222.771,57.0873 222.271,51.7539 221,46.5C 218.265,43.6075 215.765,40.6075 213.5,37.5 Z"/></g>
<g><path style="opacity:1" fill="#523a45" d="M 272.5,37.5 C 279.5,37.5 286.5,37.5 293.5,37.5C 293.5,40.5 293.5,43.5 293.5,46.5C 285.488,46.9453 277.488,47.612 269.5,48.5C 267.376,49.1494 265.376,49.9827 263.5,51C 273.541,50.4472 283.541,49.2806 293.5,47.5C 293.5,48.1667 293.5,48.8333 293.5,49.5C 285.742,49.8834 278.408,51.5501 271.5,54.5C 266.362,54.4335 261.362,55.1002 256.5,56.5C 246.27,58.651 235.937,60.3177 225.5,61.5C 224.833,61.1667 224.167,60.8333 223.5,60.5C 226.07,59.7771 228.403,58.6104 230.5,57C 228.432,56.3131 226.432,56.4798 224.5,57.5C 223.348,54.8938 223.182,52.2272 224,49.5C 226.237,48.9437 228.237,47.9437 230,46.5C 230.333,46.8333 230.667,47.1667 231,47.5C 232.223,45.0147 233.723,44.848 235.5,47C 234.477,49.7742 234.477,52.6075 235.5,55.5C 236.521,56.8514 239.521,56.3514 244.5,54C 243.643,53.3109 242.977,52.4776 242.5,51.5C 244.725,47.5767 245.392,43.5767 244.5,39.5C 246.451,39.2267 247.951,39.8934 249,41.5C 251.725,39.2423 254.725,38.9089 258,40.5C 262.414,39.6971 266.914,39.1971 271.5,39C 272.056,38.6174 272.389,38.1174 272.5,37.5 Z"/></g>
<g><path style="opacity:1" fill="#a2a9a7" d="M 51.5,37.5 C 51.8333,37.5 52.1667,37.5 52.5,37.5C 52.6633,39.8568 52.4966,42.1902 52,44.5C 51.3292,45.2524 50.4959,45.5858 49.5,45.5C 43.9969,45.5405 38.6636,46.3738 33.5,48C 30.8333,50.3333 28.1667,52.6667 25.5,55C 23.8876,55.7203 22.3876,55.5536 21,54.5C 19.4934,58.2364 18.6601,58.2364 18.5,54.5C 19.3037,52.8113 20.3037,51.1446 21.5,49.5C 24.7339,47.6054 28.0672,45.772 31.5,44C 31.1667,43.6667 30.8333,43.3333 30.5,43C 33.9316,42.8839 36.9316,41.7172 39.5,39.5C 43.6612,38.9597 47.6612,38.293 51.5,37.5 Z"/></g>
<g><path style="opacity:1" fill="#6d4b59" d="M 162.5,37.5 C 179.5,37.5 196.5,37.5 213.5,37.5C 215.765,40.6075 218.265,43.6075 221,46.5C 222.271,51.7539 222.771,57.0873 222.5,62.5C 224.5,62.5 226.5,62.5 228.5,62.5C 228.5,62.8333 228.5,63.1667 228.5,63.5C 226.5,63.5 224.5,63.5 222.5,63.5C 221.209,63.7373 220.209,63.404 219.5,62.5C 219.446,52.2829 214.613,48.9496 205,52.5C 202.176,51.9461 199.343,51.4461 196.5,51C 193.953,50.4478 191.953,49.1144 190.5,47C 193.833,45.3333 197.167,43.6667 200.5,42C 199.646,40.9783 198.646,40.1449 197.5,39.5C 190.49,45.4585 182.823,46.6252 174.5,43C 170.902,40.0877 166.902,38.2543 162.5,37.5 Z"/></g>
<g><path style="opacity:1" fill="#797177" d="M 110.5,37.5 C 112.074,39.1016 112.741,41.1016 112.5,43.5C 111.833,42.8333 111.167,42.1667 110.5,41.5C 110.5,40.1667 110.5,38.8333 110.5,37.5 Z"/></g>
<g><path style="opacity:1" fill="#3e2d33" d="M 110.5,37.5 C 110.5,37.1667 110.5,36.8333 110.5,36.5C 171.5,36.5 232.5,36.5 293.5,36.5C 293.5,36.8333 293.5,37.1667 293.5,37.5C 286.5,37.5 279.5,37.5 272.5,37.5C 252.833,37.5 233.167,37.5 213.5,37.5C 196.5,37.5 179.5,37.5 162.5,37.5C 155.167,37.5 147.833,37.5 140.5,37.5C 138.833,37.5 137.167,37.5 135.5,37.5C 133.167,37.5 130.833,37.5 128.5,37.5C 123.451,36.9318 118.784,37.9318 114.5,40.5C 117.773,47.057 123.106,49.3904 130.5,47.5C 130.343,48.8734 130.51,50.2068 131,51.5C 131.667,50.1667 132.333,50.1667 133,51.5C 133.861,54.3682 135.528,56.7015 138,58.5C 138.543,62.7453 140.043,66.5786 142.5,70C 141.24,71.8138 141.24,73.6471 142.5,75.5C 144.76,81.3134 147.76,86.6467 151.5,91.5C 150.147,92.5237 149.48,93.857 149.5,95.5C 150.675,95.281 151.675,95.6143 152.5,96.5C 154.804,101.251 156.471,106.251 157.5,111.5C 161.241,110.599 163.241,111.932 163.5,115.5C 161.876,115.64 160.71,114.973 160,113.5C 159.506,115.134 159.34,116.801 159.5,118.5C 155.029,118.852 152.529,120.852 152,124.5C 150.959,122.689 149.793,122.355 148.5,123.5C 145.276,118.261 141.609,113.261 137.5,108.5C 139.05,103.903 138.55,99.5696 136,95.5C 134.383,96.5358 134.216,97.7025 135.5,99C 132.538,99.0901 130.204,97.7568 128.5,95C 127.216,94.3162 126.049,94.4829 125,95.5C 124.594,101.133 124.428,106.467 124.5,111.5C 123.67,102.676 123.17,93.676 123,84.5C 122.79,82.9419 122.29,81.6085 121.5,80.5C 120.935,78.0479 120.268,75.7146 119.5,73.5C 119.037,70.6697 118.371,68.003 117.5,65.5C 117.483,61.4661 116.483,57.7994 114.5,54.5C 114.089,50.7785 113.422,47.1119 112.5,43.5C 112.741,41.1016 112.074,39.1016 110.5,37.5 Z"/></g>
<g><path style="opacity:1" fill="#49464a" d="M -0.5,37.5 C 4.16667,37.5 8.83333,37.5 13.5,37.5C 15.0391,43.7351 16.0391,50.0685 16.5,56.5C 16.4889,58.5466 16.1556,60.5466 15.5,62.5C 16.0924,64.4225 17.0924,66.0892 18.5,67.5C 18.702,69.9496 18.3686,72.283 17.5,74.5C 17.1667,74.5 16.8333,74.5 16.5,74.5C 15.1275,70.8532 13.4608,70.6865 11.5,74C 7.97341,74.951 4.64008,76.2843 1.5,78C 2.30806,78.3076 2.97473,78.8076 3.5,79.5C 2.31116,80.4287 0.977822,80.762 -0.5,80.5C -0.5,66.1667 -0.5,51.8333 -0.5,37.5 Z"/></g>
<g><path style="opacity:1" fill="#a9afad" d="M 89.5,37.5 C 96.5,37.5 103.5,37.5 110.5,37.5C 110.5,38.8333 110.5,40.1667 110.5,41.5C 109.838,45.4659 109.505,49.4659 109.5,53.5C 107.5,53.5 105.5,53.5 103.5,53.5C 103.822,57.439 102.489,58.2723 99.5,56C 98.291,51.0403 96.1244,46.5403 93,42.5C 92.5357,43.0944 92.369,43.7611 92.5,44.5C 91.0883,42.3964 90.0883,40.0631 89.5,37.5 Z"/></g>
<g><path style="opacity:1" fill="#6b535c" d="M 293.5,46.5 C 293.5,46.8333 293.5,47.1667 293.5,47.5C 283.541,49.2806 273.541,50.4472 263.5,51C 265.376,49.9827 267.376,49.1494 269.5,48.5C 277.488,47.612 285.488,46.9453 293.5,46.5 Z"/></g>
<g><path style="opacity:1" fill="#6d575c" d="M 293.5,49.5 C 293.5,50.8333 293.5,52.1667 293.5,53.5C 286.16,53.7228 278.827,54.0561 271.5,54.5C 278.408,51.5501 285.742,49.8834 293.5,49.5 Z"/></g>
<g><path style="opacity:1" fill="#969d9c" d="M 49.5,45.5 C 47.6871,48.6472 45.0204,50.6472 41.5,51.5C 39.5531,52.4734 37.5531,53.4734 35.5,54.5C 33.3829,60.1239 29.3829,63.2906 23.5,64C 23.8541,65.6255 23.8541,67.4588 23.5,69.5C 21.4458,69.6347 19.7791,68.968 18.5,67.5C 17.0924,66.0892 16.0924,64.4225 15.5,62.5C 16.1556,60.5466 16.4889,58.5466 16.5,56.5C 17.4614,54.7354 17.7947,52.7354 17.5,50.5C 18.4345,51.5676 18.7678,52.901 18.5,54.5C 18.6601,58.2364 19.4934,58.2364 21,54.5C 22.3876,55.5536 23.8876,55.7203 25.5,55C 28.1667,52.6667 30.8333,50.3333 33.5,48C 38.6636,46.3738 43.9969,45.5405 49.5,45.5 Z"/></g>
<g><path style="opacity:1" fill="#b4a1a0" d="M 91.5,51.5 C 92.5862,51.62 93.2528,52.2867 93.5,53.5C 94.356,59.5659 95.5227,65.5659 97,71.5C 97.8751,74.4011 99.0418,77.0677 100.5,79.5C 100.5,80.8333 100.5,82.1667 100.5,83.5C 98.798,81.4436 97.4646,79.1103 96.5,76.5C 93.7889,68.3692 92.1223,60.0359 91.5,51.5 Z"/></g>
<g><path style="opacity:1" fill="#a6a3a1" d="M 110.5,41.5 C 111.167,42.1667 111.833,42.8333 112.5,43.5C 113.422,47.1119 114.089,50.7785 114.5,54.5C 114.53,55.4972 114.03,56.1639 113,56.5C 109.906,57.5655 106.74,58.2322 103.5,58.5C 102.005,58.4148 101.005,59.0815 100.5,60.5C 101.18,61.8599 101.847,63.1932 102.5,64.5C 101.5,64.5 100.5,64.5 99.5,64.5C 97.7479,57.906 95.4145,51.5726 92.5,45.5C 92.5,45.1667 92.5,44.8333 92.5,44.5C 92.369,43.7611 92.5357,43.0944 93,42.5C 96.1244,46.5403 98.291,51.0403 99.5,56C 102.489,58.2723 103.822,57.439 103.5,53.5C 105.5,53.5 107.5,53.5 109.5,53.5C 109.505,49.4659 109.838,45.4659 110.5,41.5 Z"/></g>
<g><path style="opacity:1" fill="#796f6d" d="M 114.5,54.5 C 116.483,57.7994 117.483,61.4661 117.5,65.5C 116.388,63.4006 115.721,61.0673 115.5,58.5C 111.142,59.229 106.809,59.729 102.5,60C 103.056,59.6174 103.389,59.1174 103.5,58.5C 106.74,58.2322 109.906,57.5655 113,56.5C 114.03,56.1639 114.53,55.4972 114.5,54.5 Z"/></g>
<g><path style="opacity:1" fill="#6f5561" d="M 52.5,37.5 C 53.4511,38.9187 53.7845,40.5853 53.5,42.5C 53.7852,44.288 53.4519,45.9547 52.5,47.5C 49.1466,49.1768 46.1466,51.3434 43.5,54C 43.8333,54.3333 44.1667,54.6667 44.5,55C 40.904,56.4258 38.5706,58.9258 37.5,62.5C 36.8826,62.3893 36.3826,62.056 36,61.5C 34.951,63.1066 33.451,63.7733 31.5,63.5C 33.8123,60.5211 36.4789,57.8544 39.5,55.5C 40.6302,54.3777 41.2969,53.0443 41.5,51.5C 45.0204,50.6472 47.6871,48.6472 49.5,45.5C 50.4959,45.5858 51.3292,45.2524 52,44.5C 52.4966,42.1902 52.6633,39.8568 52.5,37.5 Z"/></g>
<g><path style="opacity:1" fill="#7e5368" d="M 60.5,81.5 C 59.4246,80.4376 58.4246,80.4376 57.5,81.5C 58.0699,86.6097 58.4033,91.943 58.5,97.5C 62.1981,97.4476 65.8648,97.1143 69.5,96.5C 69.3537,94.0576 70.187,93.3909 72,94.5C 72.6152,92.8839 73.6152,91.5505 75,90.5C 75.6058,93.0762 75.1058,95.4096 73.5,97.5C 74.2861,99.5713 75.6194,101.238 77.5,102.5C 75.7421,107.703 74.4087,113.036 73.5,118.5C 72.8027,116.615 71.8027,116.282 70.5,117.5C 71.1064,111.677 69.1064,106.677 64.5,102.5C 63.0627,104.021 62.396,105.855 62.5,108C 63.2048,111.804 63.5381,115.637 63.5,119.5C 59.9051,120.441 56.5718,120.441 53.5,119.5C 53.8212,117.952 54.8212,117.285 56.5,117.5C 56.244,115.088 57.244,113.421 59.5,112.5C 61.1003,107.054 60.267,102.054 57,97.5C 56.6667,97.8333 56.3333,98.1667 56,98.5C 54.1746,97.8971 52.3413,97.2304 50.5,96.5C 48.9748,93.437 46.9748,90.7703 44.5,88.5C 45.3094,86.9291 45.6427,85.2624 45.5,83.5C 43.8762,83.6399 42.7096,82.9733 42,81.5C 40.4933,82.5046 39.3267,83.838 38.5,85.5C 37.7564,84.0095 37.0897,82.5095 36.5,81C 37.3284,76.5716 37.9951,72.0716 38.5,67.5C 39.8709,65.3189 40.8709,62.9856 41.5,60.5C 45.8716,58.4678 49.3716,59.4678 52,63.5C 52.2695,66.2241 52.7695,68.8908 53.5,71.5C 55.9023,72.5754 58.2356,73.7421 60.5,75C 59.6433,75.6891 58.9767,76.5224 58.5,77.5C 59.6302,78.6223 60.2969,79.9557 60.5,81.5 Z"/></g>
<g><path style="opacity:1" fill="#8d6275" d="M 83.5,44.5 C 83.5,47.1667 83.5,49.8333 83.5,52.5C 79.5,52.8333 79.5,53.1667 83.5,53.5C 83.1796,56.8984 83.513,60.2317 84.5,63.5C 85.5904,64.727 86.9238,65.5604 88.5,66C 87.624,67.586 86.624,69.086 85.5,70.5C 86.6651,71.5836 87.9984,72.4169 89.5,73C 88.6919,73.3076 88.0253,73.8076 87.5,74.5C 89.2611,75.9166 90.5944,77.5833 91.5,79.5C 88.9272,78.4448 86.2605,78.2782 83.5,79C 81.8078,80.4007 81.1412,82.2341 81.5,84.5C 76.3879,83.775 73.0546,80.9417 71.5,76C 72.3862,73.8882 72.3862,71.7216 71.5,69.5C 72.8333,69.5 74.1667,69.5 75.5,69.5C 77.6217,63.2613 77.6217,56.9279 75.5,50.5C 77.2878,47.3851 79.9545,45.3851 83.5,44.5 Z"/></g>
<g><path style="opacity:1" fill="#7a6569" d="M 293.5,53.5 C 293.5,54.1667 293.5,54.8333 293.5,55.5C 288.821,55.3342 284.155,55.5008 279.5,56C 262.623,58.9637 245.623,61.4637 228.5,63.5C 228.5,63.1667 228.5,62.8333 228.5,62.5C 235.392,61.0063 242.392,60.173 249.5,60C 252.069,59.1016 254.402,57.935 256.5,56.5C 261.362,55.1002 266.362,54.4335 271.5,54.5C 278.827,54.0561 286.16,53.7228 293.5,53.5 Z"/></g>
<g><path style="opacity:1" fill="#916d79" d="M 83.5,42.5 C 84.1174,42.6107 84.6174,42.944 85,43.5C 85.1048,47.3598 85.9382,51.0265 87.5,54.5C 88.325,55.3857 89.325,55.719 90.5,55.5C 90.335,58.8499 90.5017,62.1832 91,65.5C 91.1294,68.0027 92.1294,70.0027 94,71.5C 95.0429,74.7568 95.5429,78.0901 95.5,81.5C 95.8076,83.924 95.4742,86.2573 94.5,88.5C 92.9291,87.6906 91.2624,87.3573 89.5,87.5C 89.5,88.8333 89.5,90.1667 89.5,91.5C 90.552,91.3505 91.552,91.5172 92.5,92C 95.3297,93.728 97.663,95.8947 99.5,98.5C 100.172,99.2674 101.005,99.9341 102,100.5C 104.3,106.76 106.3,113.093 108,119.5C 108.941,121.727 110.108,123.727 111.5,125.5C 111.995,127.482 112.495,129.482 113,131.5C 113.816,132.823 114.983,133.489 116.5,133.5C 118.194,134.527 119.527,135.861 120.5,137.5C 120.5,137.833 120.5,138.167 120.5,138.5C 117.455,138.658 114.621,137.991 112,136.5C 111.583,137.756 110.75,138.423 109.5,138.5C 109.64,131.586 107.64,125.586 103.5,120.5C 103.512,116.554 101.512,114.887 97.5,115.5C 96.4181,111.544 95.4181,107.544 94.5,103.5C 94.9312,102.707 95.2645,101.873 95.5,101C 93.7547,98.5821 91.7547,96.4154 89.5,94.5C 88.7267,92.187 88.0601,89.8537 87.5,87.5C 89.3316,86.9432 90.6649,85.9432 91.5,84.5C 90.9285,83.0267 90.9285,81.36 91.5,79.5C 90.5944,77.5833 89.2611,75.9166 87.5,74.5C 88.0253,73.8076 88.6919,73.3076 89.5,73C 87.9984,72.4169 86.6651,71.5836 85.5,70.5C 86.624,69.086 87.624,67.586 88.5,66C 86.9238,65.5604 85.5904,64.727 84.5,63.5C 83.513,60.2317 83.1796,56.8984 83.5,53.5C 79.5,53.1667 79.5,52.8333 83.5,52.5C 83.5,49.8333 83.5,47.1667 83.5,44.5C 83.5,43.8333 83.5,43.1667 83.5,42.5 Z"/></g>
<g><path style="opacity:1" fill="#8f7e79" d="M 293.5,55.5 C 293.5,57.1667 293.5,58.8333 293.5,60.5C 279.721,59.762 266.055,60.9287 252.5,64C 246.167,64.3333 239.833,64.6667 233.5,65C 231.382,65.6353 229.382,66.4686 227.5,67.5C 226.151,67.1543 224.817,66.821 223.5,66.5C 224.802,64.9724 226.469,63.9724 228.5,63.5C 245.623,61.4637 262.623,58.9637 279.5,56C 284.155,55.5008 288.821,55.3342 293.5,55.5 Z"/></g>
<g><path style="opacity:1" fill="#9c9184" d="M 293.5,60.5 C 293.5,62.1667 293.5,63.8333 293.5,65.5C 283.161,65.3335 272.828,65.5002 262.5,66C 261.429,66.8518 260.429,67.6851 259.5,68.5C 249.095,67.7565 238.762,68.5898 228.5,71C 227.333,71.5 226.5,72.3333 226,73.5C 225.583,72.244 224.75,71.5774 223.5,71.5C 223.5,69.8333 223.5,68.1667 223.5,66.5C 224.817,66.821 226.151,67.1543 227.5,67.5C 229.382,66.4686 231.382,65.6353 233.5,65C 239.833,64.6667 246.167,64.3333 252.5,64C 266.055,60.9287 279.721,59.762 293.5,60.5 Z"/></g>
<g><path style="opacity:1" fill="#8f888e" d="M 41.5,51.5 C 41.2969,53.0443 40.6302,54.3777 39.5,55.5C 36.4789,57.8544 33.8123,60.5211 31.5,63.5C 26.8688,67.6299 22.3688,71.9633 18,76.5C 17.5357,75.9056 17.369,75.2389 17.5,74.5C 18.3686,72.283 18.702,69.9496 18.5,67.5C 19.7791,68.968 21.4458,69.6347 23.5,69.5C 23.8541,67.4588 23.8541,65.6255 23.5,64C 29.3829,63.2906 33.3829,60.1239 35.5,54.5C 37.5531,53.4734 39.5531,52.4734 41.5,51.5 Z"/></g>
<g><path style="opacity:1" fill="#938a7d" d="M 103.5,58.5 C 103.389,59.1174 103.056,59.6174 102.5,60C 106.809,59.729 111.142,59.229 115.5,58.5C 115.721,61.0673 116.388,63.4006 117.5,65.5C 117.799,67.604 117.466,69.604 116.5,71.5C 113.579,72.4066 110.579,72.7399 107.5,72.5C 107.5,73.8333 107.5,75.1667 107.5,76.5C 107.167,76.5 106.833,76.5 106.5,76.5C 106.672,75.5084 106.338,74.8417 105.5,74.5C 104.833,73.1667 104.167,71.8333 103.5,70.5C 103.795,68.2646 103.461,66.2646 102.5,64.5C 101.847,63.1932 101.18,61.8599 100.5,60.5C 101.005,59.0815 102.005,58.4148 103.5,58.5 Z"/></g>
<g><path style="opacity:1" fill="#a59e8c" d="M 293.5,65.5 C 293.5,71.5 293.5,77.5 293.5,83.5C 291.801,83.3398 290.134,83.5065 288.5,84C 283.393,87.6167 277.727,89.4501 271.5,89.5C 268.421,89.2601 265.421,89.5934 262.5,90.5C 261.304,90.1543 261.304,89.6543 262.5,89C 261.207,88.51 259.873,88.3433 258.5,88.5C 258.657,87.1266 258.49,85.7932 258,84.5C 256.726,91.4359 252.892,93.2692 246.5,90C 247.308,89.6924 247.975,89.1924 248.5,88.5C 248.154,87.3044 247.654,87.3044 247,88.5C 246.667,87.5 246.333,86.5 246,85.5C 243.861,86.7691 241.695,86.7691 239.5,85.5C 237.593,81.7723 234.927,78.9389 231.5,77C 231.954,75.3783 232.954,74.2116 234.5,73.5C 236.098,74.4847 237.765,74.6514 239.5,74C 239.167,73.6667 238.833,73.3333 238.5,73C 239.833,72.3333 240.833,71.3333 241.5,70C 244.706,69.7037 247.872,69.2037 251,68.5C 254.461,69.2181 257.961,69.7181 261.5,70C 258.779,74.0287 259.445,74.5287 263.5,71.5C 262.332,70.0944 262.665,68.9277 264.5,68C 262.893,68.0187 261.226,68.1854 259.5,68.5C 260.429,67.6851 261.429,66.8518 262.5,66C 272.828,65.5002 283.161,65.3335 293.5,65.5 Z"/></g>
<g><path style="opacity:1" fill="#c6bdb6" d="M 89.5,45.5 C 90.1515,46.0906 90.8182,46.7573 91.5,47.5C 92.2975,47.0431 92.6309,46.3764 92.5,45.5C 95.4145,51.5726 97.7479,57.906 99.5,64.5C 100.5,64.5 101.5,64.5 102.5,64.5C 103.461,66.2646 103.795,68.2646 103.5,70.5C 101.88,71.8409 100.88,73.6742 100.5,76C 102.09,77.0458 103.59,78.2125 105,79.5C 105.494,77.8659 105.66,76.1992 105.5,74.5C 106.338,74.8417 106.672,75.5084 106.5,76.5C 106.741,78.8863 106.075,80.8863 104.5,82.5C 102.859,81.853 101.526,80.853 100.5,79.5C 99.0418,77.0677 97.8751,74.4011 97,71.5C 95.5227,65.5659 94.356,59.5659 93.5,53.5C 93.2528,52.2867 92.5862,51.62 91.5,51.5C 90.3702,49.6854 89.7036,47.6854 89.5,45.5 Z"/></g>
<g><path style="opacity:1" fill="#e0dad1" d="M 103.5,70.5 C 104.167,71.8333 104.833,73.1667 105.5,74.5C 105.66,76.1992 105.494,77.8659 105,79.5C 103.59,78.2125 102.09,77.0458 100.5,76C 100.88,73.6742 101.88,71.8409 103.5,70.5 Z"/></g>
<g><path style="opacity:1" fill="#a79c8e" d="M 259.5,68.5 C 261.226,68.1854 262.893,68.0187 264.5,68C 262.665,68.9277 262.332,70.0944 263.5,71.5C 259.445,74.5287 258.779,74.0287 261.5,70C 257.961,69.7181 254.461,69.2181 251,68.5C 247.872,69.2037 244.706,69.7037 241.5,70C 240.833,71.3333 239.833,72.3333 238.5,73C 238.833,73.3333 239.167,73.6667 239.5,74C 237.765,74.6514 236.098,74.4847 234.5,73.5C 232.954,74.2116 231.954,75.3783 231.5,77C 234.927,78.9389 237.593,81.7723 239.5,85.5C 241.695,86.7691 243.861,86.7691 246,85.5C 246.333,86.5 246.667,87.5 247,88.5C 247.654,87.3044 248.154,87.3044 248.5,88.5C 247.975,89.1924 247.308,89.6924 246.5,90C 252.892,93.2692 256.726,91.4359 258,84.5C 258.49,85.7932 258.657,87.1266 258.5,88.5C 259.873,88.3433 261.207,88.51 262.5,89C 261.304,89.6543 261.304,90.1543 262.5,90.5C 265.421,89.5934 268.421,89.2601 271.5,89.5C 269.393,90.4682 267.059,90.8016 264.5,90.5C 264.33,91.8221 264.663,92.9887 265.5,94C 260.669,99.2483 254.169,102.415 246,103.5C 244.019,103.371 242.353,102.704 241,101.5C 240.667,101.833 240.333,102.167 240,102.5C 238.881,101.448 238.381,100.281 238.5,99C 234.457,97.4539 230.79,95.2872 227.5,92.5C 228.609,90.7859 227.942,90.1192 225.5,90.5C 225.771,88.6203 225.104,87.287 223.5,86.5C 223.5,81.5 223.5,76.5 223.5,71.5C 224.75,71.5774 225.583,72.244 226,73.5C 226.5,72.3333 227.333,71.5 228.5,71C 238.762,68.5898 249.095,67.7565 259.5,68.5 Z"/></g>
<g><path style="opacity:1" fill="#746662" d="M 117.5,65.5 C 118.371,68.003 119.037,70.6697 119.5,73.5C 119.505,77.5341 119.838,81.5341 120.5,85.5C 118.165,86.4135 115.999,87.7468 114,89.5C 113.667,89.1667 113.333,88.8333 113,88.5C 112.517,89.448 112.351,90.448 112.5,91.5C 111.883,91.3893 111.383,91.056 111,90.5C 109.534,85.9038 108.368,81.2371 107.5,76.5C 107.5,75.1667 107.5,73.8333 107.5,72.5C 110.579,72.7399 113.579,72.4066 116.5,71.5C 117.466,69.604 117.799,67.604 117.5,65.5 Z"/></g>
<g><path style="opacity:1" fill="#704b5b" d="M 37.5,62.5 C 37.2478,67.5186 36.7478,72.5186 36,77.5C 34.951,79.1066 33.451,79.7733 31.5,79.5C 31.1652,73.0825 28.6652,72.0825 24,76.5C 23.797,80.4213 23.297,84.2546 22.5,88C 22.8333,88.3333 23.1667,88.6667 23.5,89C 19.909,89.0225 17.5756,90.6891 16.5,94C 17.6094,96.0466 18.2761,98.2133 18.5,100.5C 19.5,100.5 20.5,100.5 21.5,100.5C 21.5,101.5 21.5,102.5 21.5,103.5C 20.5,103.5 19.5,103.5 18.5,103.5C 18.8134,106.247 18.48,108.914 17.5,111.5C 16.5,112.833 15.5,112.833 14.5,111.5C 13.2319,113.304 12.5652,115.304 12.5,117.5C 12.7373,118.791 12.404,119.791 11.5,120.5C 11.2182,116.426 10.5515,112.426 9.5,108.5C 9.5,107.5 9.5,106.5 9.5,105.5C 7.90097,105.768 6.56764,105.434 5.5,104.5C 6.5,104.5 7.5,104.5 8.5,104.5C 10.3435,102.721 11.0102,100.388 10.5,97.5C 8.83333,97.5 7.16667,97.5 5.5,97.5C 3.95186,97.1788 3.28519,96.1788 3.5,94.5C 6.65164,95.0414 9.15164,94.0414 11,91.5C 14.2685,86.312 16.1018,80.6454 16.5,74.5C 16.8333,74.5 17.1667,74.5 17.5,74.5C 17.369,75.2389 17.5357,75.9056 18,76.5C 22.3688,71.9633 26.8688,67.6299 31.5,63.5C 33.451,63.7733 34.951,63.1066 36,61.5C 36.3826,62.056 36.8826,62.3893 37.5,62.5 Z"/></g>
<g><path style="opacity:1" fill="#5f5152" d="M 119.5,73.5 C 120.268,75.7146 120.935,78.0479 121.5,80.5C 121.96,92.8659 121.96,105.199 121.5,117.5C 120.47,114.05 119.137,110.717 117.5,107.5C 116.238,102.047 114.571,96.7135 112.5,91.5C 112.351,90.448 112.517,89.448 113,88.5C 113.333,88.8333 113.667,89.1667 114,89.5C 115.999,87.7468 118.165,86.4135 120.5,85.5C 119.838,81.5341 119.505,77.5341 119.5,73.5 Z"/></g>
<g><path style="opacity:1" fill="#403638" d="M 16.5,74.5 C 16.1018,80.6454 14.2685,86.312 11,91.5C 9.15164,94.0414 6.65164,95.0414 3.5,94.5C 3.28519,96.1788 3.95186,97.1788 5.5,97.5C 5.2965,99.3904 5.96317,100.89 7.5,102C 7.16667,102.333 6.83333,102.667 6.5,103C 7.4158,103.278 8.08247,103.778 8.5,104.5C 7.5,104.5 6.5,104.5 5.5,104.5C 4.26515,104.279 3.26515,103.612 2.5,102.5C 1.22434,96.0709 0.224337,89.7375 -0.5,83.5C -0.5,82.5 -0.5,81.5 -0.5,80.5C 0.977822,80.762 2.31116,80.4287 3.5,79.5C 2.97473,78.8076 2.30806,78.3076 1.5,78C 4.64008,76.2843 7.97341,74.951 11.5,74C 13.4608,70.6865 15.1275,70.8532 16.5,74.5 Z"/></g>
<g><path style="opacity:1" fill="#a47c8a" d="M 95.5,81.5 C 97.4119,82.9801 98.5785,84.9801 99,87.5C 99.4986,91.1516 99.6653,94.8183 99.5,98.5C 97.663,95.8947 95.3297,93.728 92.5,92C 91.552,91.5172 90.552,91.3505 89.5,91.5C 89.5,90.1667 89.5,88.8333 89.5,87.5C 91.2624,87.3573 92.9291,87.6906 94.5,88.5C 95.4742,86.2573 95.8076,83.924 95.5,81.5 Z"/></g>
<g><path style="opacity:1" fill="#dfcdd0" d="M 100.5,79.5 C 101.526,80.853 102.859,81.853 104.5,82.5C 107.711,90.5758 111.044,98.5758 114.5,106.5C 115.215,109.76 115.215,113.093 114.5,116.5C 113.808,112.803 112.141,109.47 109.5,106.5C 110.811,105.742 111.311,104.742 111,103.5C 109.743,101.254 107.91,99.9209 105.5,99.5C 105.105,93.8521 103.772,88.5187 101.5,83.5C 101.167,83.5 100.833,83.5 100.5,83.5C 100.5,82.1667 100.5,80.8333 100.5,79.5 Z"/></g>
<g><path style="opacity:1" fill="#8d6275" d="M 91.5,84.5 C 90.6649,85.9432 89.3316,86.9432 87.5,87.5C 88.0601,89.8537 88.7267,92.187 89.5,94.5C 91.7547,96.4154 93.7547,98.5821 95.5,101C 95.2645,101.873 94.9312,102.707 94.5,103.5C 95.4181,107.544 96.4181,111.544 97.5,115.5C 101.512,114.887 103.512,116.554 103.5,120.5C 101.049,119.106 98.3819,118.272 95.5,118C 94.8333,117.333 94.1667,116.667 93.5,116C 94.6978,113.568 93.8644,112.068 91,111.5C 82.1507,113.549 80.1507,118.549 85,126.5C 88.0491,127.61 91.2158,128.277 94.5,128.5C 93.9126,132.071 93.9126,135.737 94.5,139.5C 91.9386,138.29 89.6053,136.624 87.5,134.5C 85.5466,133.844 83.5466,133.511 81.5,133.5C 81.7947,131.265 81.4614,129.265 80.5,127.5C 82.0766,124.926 81.7433,122.593 79.5,120.5C 79.8457,119.304 80.3457,119.304 81,120.5C 81.8676,117.515 82.2009,114.515 82,111.5C 81.2917,112.381 80.4584,113.047 79.5,113.5C 78.4137,106.636 77.9137,99.9693 78,93.5C 78.3333,93.1667 78.6667,92.8333 79,92.5C 86.6219,96.6694 88.4553,94.8361 84.5,87C 86.3211,84.8634 88.6544,84.0301 91.5,84.5 Z"/></g>
<g><path style="opacity:1" fill="#c0a7ad" d="M 101.5,83.5 C 103.772,88.5187 105.105,93.8521 105.5,99.5C 104.504,99.5858 103.671,99.2524 103,98.5C 102.499,93.4918 101.999,88.4918 101.5,83.5 Z"/></g>
<g><path style="opacity:1" fill="#503641" d="M 128.5,37.5 C 130.833,37.5 133.167,37.5 135.5,37.5C 136.263,38.2679 137.263,38.7679 138.5,39C 137.332,40.4056 137.665,41.5723 139.5,42.5C 138.167,43.8333 138.167,45.1667 139.5,46.5C 142.027,47.2136 144.527,47.8803 147,48.5C 147.752,51.8936 147.585,55.227 146.5,58.5C 147.522,59.354 148.355,60.354 149,61.5C 149.333,65.1667 149.667,68.8333 150,72.5C 151.28,76.9471 154.113,79.9471 158.5,81.5C 159.466,83.396 159.799,85.396 159.5,87.5C 160.5,87.5 161.5,87.5 162.5,87.5C 164.601,93.9815 166.267,100.648 167.5,107.5C 169.833,107.5 172.167,107.5 174.5,107.5C 174.5,108.833 174.5,110.167 174.5,111.5C 172.641,111.461 171.308,112.294 170.5,114C 171.448,114.483 172.448,114.649 173.5,114.5C 173.201,116.604 173.534,118.604 174.5,120.5C 175.736,119.754 177.07,119.421 178.5,119.5C 178.5,122.167 178.5,124.833 178.5,127.5C 182.438,128.13 186.105,129.463 189.5,131.5C 189.238,132.978 189.571,134.311 190.5,135.5C 191.291,134.934 191.291,134.101 190.5,133C 190.905,132.055 191.572,131.388 192.5,131C 191.688,124.915 191.188,118.748 191,112.5C 189.701,111.91 188.868,110.91 188.5,109.5C 187.927,107.646 187.593,105.813 187.5,104C 188.744,103.544 189.577,104.044 190,105.5C 190.179,102.447 190.679,99.4465 191.5,96.5C 192.253,99.2732 193.253,101.94 194.5,104.5C 195.251,103.624 195.751,102.624 196,101.5C 197.297,102.784 198.464,102.617 199.5,101C 198.545,97.9006 197.711,94.734 197,91.5C 196.075,90.9535 195.242,90.2868 194.5,89.5C 195.641,88.5745 195.641,87.7412 194.5,87C 195.167,86.3333 195.833,85.6667 196.5,85C 196.5,83.3333 196.5,81.6667 196.5,80C 195.833,79.3333 195.167,78.6667 194.5,78C 198.872,76.8893 203.372,76.3893 208,76.5C 211.188,77.3437 214.354,78.3437 217.5,79.5C 217.366,81.2915 217.699,82.9582 218.5,84.5C 211.581,84.5778 206.581,87.7445 203.5,94C 204.549,98.613 205.882,103.446 207.5,108.5C 206.833,109.5 206.167,110.5 205.5,111.5C 206.751,112.631 207.751,113.964 208.5,115.5C 206.164,118.998 204.497,122.832 203.5,127C 204.788,129.466 204.788,131.966 203.5,134.5C 204.951,135.906 206.284,137.406 207.5,139C 208.449,139.617 209.282,139.451 210,138.5C 211.31,141.473 213.31,143.807 216,145.5C 219.042,140.654 220.708,135.321 221,129.5C 223.665,127.405 226.498,127.072 229.5,128.5C 229.833,131.5 228.5,132.833 225.5,132.5C 224.969,135.237 224.136,137.904 223,140.5C 219.719,144.073 217.219,148.073 215.5,152.5C 220.873,150.823 221.873,152.489 218.5,157.5C 218.957,158.298 219.624,158.631 220.5,158.5C 218.643,159.754 216.643,159.754 214.5,158.5C 212.902,160.973 211.402,160.973 210,158.5C 207.051,160.204 203.885,161.538 200.5,162.5C 199.614,161.675 199.281,160.675 199.5,159.5C 198.5,159.5 197.5,159.5 196.5,159.5C 194.856,159.714 193.356,159.38 192,158.5C 191.501,153.511 191.334,148.511 191.5,143.5C 190.167,143.5 188.833,143.5 187.5,143.5C 187.5,142.167 187.5,140.833 187.5,139.5C 186.167,139.5 184.833,139.5 183.5,139.5C 183.5,138.167 183.5,136.833 183.5,135.5C 181.712,135.785 180.045,135.452 178.5,134.5C 175.531,130.524 172.531,126.524 169.5,122.5C 165.473,113.37 161.806,103.703 158.5,93.5C 156.228,89.874 153.895,86.2073 151.5,82.5C 148.353,74.2552 144.52,66.2552 140,58.5C 139.814,56.0995 139.314,53.7662 138.5,51.5C 135.226,47.8374 133.56,43.5041 133.5,38.5C 131.585,38.7845 129.919,38.4511 128.5,37.5 Z"/></g>
<g><path style="opacity:1" fill="#a29186" d="M 293.5,83.5 C 293.5,86.8333 293.5,90.1667 293.5,93.5C 291.5,93.5 289.5,93.5 287.5,93.5C 282.156,93.334 276.823,93.5006 271.5,94C 272.167,94.3333 272.833,94.6667 273.5,95C 261.97,106.111 248.97,108.778 234.5,103C 233.12,101.075 231.62,99.2415 230,97.5C 228.657,98.2135 227.324,97.8802 226,96.5C 225.505,94.5273 225.338,92.5273 225.5,90.5C 227.942,90.1192 228.609,90.7859 227.5,92.5C 230.79,95.2872 234.457,97.4539 238.5,99C 238.381,100.281 238.881,101.448 240,102.5C 240.333,102.167 240.667,101.833 241,101.5C 242.353,102.704 244.019,103.371 246,103.5C 254.169,102.415 260.669,99.2483 265.5,94C 264.663,92.9887 264.33,91.8221 264.5,90.5C 267.059,90.8016 269.393,90.4682 271.5,89.5C 277.727,89.4501 283.393,87.6167 288.5,84C 290.134,83.5065 291.801,83.3398 293.5,83.5 Z"/></g>
<g><path style="opacity:1" fill="#47303b" d="M 5.5,97.5 C 7.16667,97.5 8.83333,97.5 10.5,97.5C 11.0102,100.388 10.3435,102.721 8.5,104.5C 8.08247,103.778 7.4158,103.278 6.5,103C 6.83333,102.667 7.16667,102.333 7.5,102C 5.96317,100.89 5.2965,99.3904 5.5,97.5 Z"/></g>
<g><path style="opacity:1" fill="#784e61" d="M 59.5,39.5 C 62.5184,39.3354 65.5184,39.502 68.5,40C 66.7505,41.3186 64.7505,41.8186 62.5,41.5C 62.3416,44.3609 63.0083,47.0276 64.5,49.5C 63.9415,52.2846 62.6082,54.6179 60.5,56.5C 62.0224,58.1563 61.689,59.323 59.5,60C 60.428,60.3879 61.0946,61.0546 61.5,62C 60.0677,69.3068 62.401,75.1401 68.5,79.5C 67.8284,81.1595 66.8284,82.4928 65.5,83.5C 63.8333,82.8333 62.1667,82.1667 60.5,81.5C 60.2969,79.9557 59.6302,78.6223 58.5,77.5C 58.9767,76.5224 59.6433,75.6891 60.5,75C 58.2356,73.7421 55.9023,72.5754 53.5,71.5C 52.7695,68.8908 52.2695,66.2241 52,63.5C 49.3716,59.4678 45.8716,58.4678 41.5,60.5C 40.8709,62.9856 39.8709,65.3189 38.5,67.5C 37.9951,72.0716 37.3284,76.5716 36.5,81C 37.0897,82.5095 37.7564,84.0095 38.5,85.5C 39.3267,83.838 40.4933,82.5046 42,81.5C 42.7096,82.9733 43.8762,83.6399 45.5,83.5C 45.6427,85.2624 45.3094,86.9291 44.5,88.5C 46.9748,90.7703 48.9748,93.437 50.5,96.5C 52.3413,97.2304 54.1746,97.8971 56,98.5C 56.3333,98.1667 56.6667,97.8333 57,97.5C 60.267,102.054 61.1003,107.054 59.5,112.5C 57.244,113.421 56.244,115.088 56.5,117.5C 54.8212,117.285 53.8212,117.952 53.5,119.5C 51.0812,123.089 48.0812,126.256 44.5,129C 45.448,129.483 46.448,129.649 47.5,129.5C 47.3921,131.783 46.5588,133.783 45,135.5C 42.8239,135.988 40.9906,136.988 39.5,138.5C 46.6649,143.571 47.1649,148.904 41,154.5C 40.023,156.74 39.523,159.073 39.5,161.5C 35.1457,162.566 30.8124,162.733 26.5,162C 24.0129,163.977 22.3463,166.477 21.5,169.5C 20.1826,167.713 20.516,166.046 22.5,164.5C 21.1092,162.11 19.1092,160.443 16.5,159.5C 15.5344,157.604 15.2011,155.604 15.5,153.5C 17.9418,153.881 18.6085,153.214 17.5,151.5C 18.3052,149.085 19.3052,146.751 20.5,144.5C 19.675,143.614 18.675,143.281 17.5,143.5C 17.9559,139.889 17.2892,136.556 15.5,133.5C 15.8076,132.692 16.3076,132.025 17,131.5C 17.7175,132.451 18.5509,132.617 19.5,132C 21.6499,130.351 23.6499,128.518 25.5,126.5C 24.0758,124.709 22.7424,122.875 21.5,121C 18.5305,120.237 16.0305,118.737 14,116.5C 13.6174,117.056 13.1174,117.389 12.5,117.5C 12.5652,115.304 13.2319,113.304 14.5,111.5C 15.5,112.833 16.5,112.833 17.5,111.5C 18.48,108.914 18.8134,106.247 18.5,103.5C 19.5,103.5 20.5,103.5 21.5,103.5C 21.5,102.5 21.5,101.5 21.5,100.5C 20.5,100.5 19.5,100.5 18.5,100.5C 18.2761,98.2133 17.6094,96.0466 16.5,94C 17.5756,90.6891 19.909,89.0225 23.5,89C 23.1667,88.6667 22.8333,88.3333 22.5,88C 23.297,84.2546 23.797,80.4213 24,76.5C 28.6652,72.0825 31.1652,73.0825 31.5,79.5C 33.451,79.7733 34.951,79.1066 36,77.5C 36.7478,72.5186 37.2478,67.5186 37.5,62.5C 38.5706,58.9258 40.904,56.4258 44.5,55C 44.1667,54.6667 43.8333,54.3333 43.5,54C 46.1466,51.3434 49.1466,49.1768 52.5,47.5C 53.4519,45.9547 53.7852,44.288 53.5,42.5C 55.8185,42.0075 57.8185,41.0075 59.5,39.5 Z"/></g>
<g><path style="opacity:1" fill="#7e6368" d="M 293.5,96.5 C 293.5,97.5 293.5,98.5 293.5,99.5C 288.093,99.6007 283.093,101.101 278.5,104C 273.717,104.85 269.05,106.017 264.5,107.5C 265.833,106.167 267.167,104.833 268.5,103.5C 270.179,103.715 271.179,103.048 271.5,101.5C 277.501,101.346 283.168,99.8464 288.5,97C 290.134,96.5065 291.801,96.3398 293.5,96.5 Z"/></g>
<g><path style="opacity:1" fill="#543844" d="M 135.5,37.5 C 137.167,37.5 138.833,37.5 140.5,37.5C 141.952,38.3019 143.618,38.8019 145.5,39C 141.544,40.1139 141.544,40.9473 145.5,41.5C 146.648,44.7347 147.815,48.068 149,51.5C 149.333,50.8333 149.667,50.1667 150,49.5C 151.135,49.727 152.302,50.0604 153.5,50.5C 152.201,55.1249 152.201,60.1249 153.5,65.5C 154.561,70.7157 156.561,75.3824 159.5,79.5C 161.908,80.201 164.242,81.201 166.5,82.5C 167.309,84.0709 167.643,85.7376 167.5,87.5C 168.833,87.5 170.167,87.5 171.5,87.5C 171.927,90.7877 171.26,93.7877 169.5,96.5C 170.991,98.0116 172.824,99.0116 175,99.5C 175.333,99.1667 175.667,98.8333 176,98.5C 176.025,103.01 177.192,107.01 179.5,110.5C 180.93,110.421 182.264,110.754 183.5,111.5C 184.881,111 185.547,110 185.5,108.5C 184.29,105.807 184.29,103.141 185.5,100.5C 183.472,95.7717 182.806,90.9384 183.5,86C 182.935,83.7021 181.768,82.8688 180,83.5C 179.691,82.2341 179.191,81.0674 178.5,80C 172.617,80.677 169.617,78.177 169.5,72.5C 171.467,72.7394 173.301,72.4061 175,71.5C 175.915,72.3279 176.581,73.3279 177,74.5C 177.5,74 178,73.5 178.5,73C 178.263,70.7116 178.263,68.2116 178.5,65.5C 177.325,65.719 176.325,65.3857 175.5,64.5C 176.833,63.1667 176.833,61.8333 175.5,60.5C 177.611,59.1515 179.445,59.4848 181,61.5C 182.049,60.4829 183.216,60.3162 184.5,61C 185.167,64.3333 185.833,67.6667 186.5,71C 185.396,72.1313 185.729,72.9646 187.5,73.5C 188.497,66.5316 188.83,59.5316 188.5,52.5C 193.214,52.8548 197.547,54.3548 201.5,57C 206.196,56.5588 210.863,56.7255 215.5,57.5C 215.461,60.089 216.461,62.089 218.5,63.5C 217.902,68.813 217.569,74.1463 217.5,79.5C 214.354,78.3437 211.188,77.3437 208,76.5C 203.372,76.3893 198.872,76.8893 194.5,78C 195.167,78.6667 195.833,79.3333 196.5,80C 196.5,81.6667 196.5,83.3333 196.5,85C 195.833,85.6667 195.167,86.3333 194.5,87C 195.641,87.7412 195.641,88.5745 194.5,89.5C 195.242,90.2868 196.075,90.9535 197,91.5C 197.711,94.734 198.545,97.9006 199.5,101C 198.464,102.617 197.297,102.784 196,101.5C 195.751,102.624 195.251,103.624 194.5,104.5C 193.253,101.94 192.253,99.2732 191.5,96.5C 190.679,99.4465 190.179,102.447 190,105.5C 189.577,104.044 188.744,103.544 187.5,104C 187.593,105.813 187.927,107.646 188.5,109.5C 188.868,110.91 189.701,111.91 191,112.5C 191.188,118.748 191.688,124.915 192.5,131C 191.572,131.388 190.905,132.055 190.5,133C 191.291,134.101 191.291,134.934 190.5,135.5C 189.571,134.311 189.238,132.978 189.5,131.5C 186.105,129.463 182.438,128.13 178.5,127.5C 178.5,124.833 178.5,122.167 178.5,119.5C 177.07,119.421 175.736,119.754 174.5,120.5C 173.534,118.604 173.201,116.604 173.5,114.5C 172.448,114.649 171.448,114.483 170.5,114C 171.308,112.294 172.641,111.461 174.5,111.5C 174.5,110.167 174.5,108.833 174.5,107.5C 172.167,107.5 169.833,107.5 167.5,107.5C 166.267,100.648 164.601,93.9815 162.5,87.5C 161.5,87.5 160.5,87.5 159.5,87.5C 159.799,85.396 159.466,83.396 158.5,81.5C 154.113,79.9471 151.28,76.9471 150,72.5C 149.667,68.8333 149.333,65.1667 149,61.5C 148.355,60.354 147.522,59.354 146.5,58.5C 147.585,55.227 147.752,51.8936 147,48.5C 144.527,47.8803 142.027,47.2136 139.5,46.5C 138.167,45.1667 138.167,43.8333 139.5,42.5C 137.665,41.5723 137.332,40.4056 138.5,39C 137.263,38.7679 136.263,38.2679 135.5,37.5 Z"/></g>
<g><path style="opacity:1" fill="#634851" d="M 219.5,62.5 C 220.209,63.404 221.209,63.7373 222.5,63.5C 222.5,80.8333 222.5,98.1667 222.5,115.5C 220.088,115.306 219.088,113.973 219.5,111.5C 217.345,111.372 215.345,111.872 213.5,113C 216.063,113.763 216.063,114.263 213.5,114.5C 212.446,114.32 211.446,113.987 210.5,113.5C 210.142,109.858 209.475,106.025 208.5,102C 210.336,99.2223 210.336,96.7223 208.5,94.5C 209.5,92.5 210.5,90.5 211.5,88.5C 214.212,87.7719 216.879,86.9385 219.5,86C 218.944,85.6174 218.611,85.1174 218.5,84.5C 217.699,82.9582 217.366,81.2915 217.5,79.5C 217.569,74.1463 217.902,68.813 218.5,63.5C 218.5,62.8333 218.833,62.5 219.5,62.5 Z"/></g>
<g><path style="opacity:1" fill="#92787a" d="M 287.5,93.5 C 289.5,93.5 291.5,93.5 293.5,93.5C 293.5,94.5 293.5,95.5 293.5,96.5C 291.801,96.3398 290.134,96.5065 288.5,97C 283.168,99.8464 277.501,101.346 271.5,101.5C 272.502,99.9891 273.169,98.3224 273.5,96.5C 278.167,96.5 282.833,96.5 287.5,96.5C 287.5,95.5 287.5,94.5 287.5,93.5 Z"/></g>
<g><path style="opacity:1" fill="#9f8983" d="M 223.5,86.5 C 225.104,87.287 225.771,88.6203 225.5,90.5C 225.338,92.5273 225.505,94.5273 226,96.5C 227.324,97.8802 228.657,98.2135 230,97.5C 231.62,99.2415 233.12,101.075 234.5,103C 248.97,108.778 261.97,106.111 273.5,95C 272.833,94.6667 272.167,94.3333 271.5,94C 276.823,93.5006 282.156,93.334 287.5,93.5C 287.5,94.5 287.5,95.5 287.5,96.5C 282.833,96.5 278.167,96.5 273.5,96.5C 273.169,98.3224 272.502,99.9891 271.5,101.5C 271.179,103.048 270.179,103.715 268.5,103.5C 263.349,104.829 258.349,106.662 253.5,109C 245.266,110.131 236.933,110.297 228.5,109.5C 228.5,107.5 228.5,105.5 228.5,103.5C 227.5,103.5 226.5,103.5 225.5,103.5C 225.889,100.447 225.223,97.78 223.5,95.5C 223.5,92.5 223.5,89.5 223.5,86.5 Z"/></g>
<g><path style="opacity:1" fill="#b4a4a6" d="M 106.5,76.5 C 106.833,76.5 107.167,76.5 107.5,76.5C 108.368,81.2371 109.534,85.9038 111,90.5C 111.383,91.056 111.883,91.3893 112.5,91.5C 114.571,96.7135 116.238,102.047 117.5,107.5C 116.732,106.737 116.232,105.737 116,104.5C 115.722,105.416 115.222,106.082 114.5,106.5C 111.044,98.5758 107.711,90.5758 104.5,82.5C 106.075,80.8863 106.741,78.8863 106.5,76.5 Z"/></g>
<g><path style="opacity:1" fill="#716161" d="M -0.5,83.5 C 0.224337,89.7375 1.22434,96.0709 2.5,102.5C 3.26515,103.612 4.26515,104.279 5.5,104.5C 6.56764,105.434 7.90097,105.768 9.5,105.5C 9.5,106.5 9.5,107.5 9.5,108.5C 6.16667,108.833 2.83333,109.167 -0.5,109.5C -0.5,100.833 -0.5,92.1667 -0.5,83.5 Z"/></g>
<g><path style="opacity:1" fill="#a3888e" d="M 82.5,37.5 C 83.1667,37.5 83.8333,37.5 84.5,37.5C 85.1897,40.9008 86.8564,43.5675 89.5,45.5C 89.7036,47.6854 90.3702,49.6854 91.5,51.5C 92.1223,60.0359 93.7889,68.3692 96.5,76.5C 97.4646,79.1103 98.798,81.4436 100.5,83.5C 100.833,83.5 101.167,83.5 101.5,83.5C 101.999,88.4918 102.499,93.4918 103,98.5C 103.671,99.2524 104.504,99.5858 105.5,99.5C 108.326,107.916 110.326,116.583 111.5,125.5C 110.108,123.727 108.941,121.727 108,119.5C 106.3,113.093 104.3,106.76 102,100.5C 101.005,99.9341 100.172,99.2674 99.5,98.5C 99.6653,94.8183 99.4986,91.1516 99,87.5C 98.5785,84.9801 97.4119,82.9801 95.5,81.5C 95.5429,78.0901 95.0429,74.7568 94,71.5C 92.1294,70.0027 91.1294,68.0027 91,65.5C 90.5017,62.1832 90.335,58.8499 90.5,55.5C 89.325,55.719 88.325,55.3857 87.5,54.5C 85.9382,51.0265 85.1048,47.3598 85,43.5C 84.6174,42.944 84.1174,42.6107 83.5,42.5C 83.3713,40.7839 83.038,39.1172 82.5,37.5 Z"/></g>
<g><path style="opacity:1" fill="#947b7b" d="M 223.5,95.5 C 225.223,97.78 225.889,100.447 225.5,103.5C 226.5,103.5 227.5,103.5 228.5,103.5C 228.5,105.5 228.5,107.5 228.5,109.5C 236.933,110.297 245.266,110.131 253.5,109C 258.349,106.662 263.349,104.829 268.5,103.5C 267.167,104.833 265.833,106.167 264.5,107.5C 251.206,111.714 237.539,113.047 223.5,111.5C 223.5,106.167 223.5,100.833 223.5,95.5 Z"/></g>
<g><path style="opacity:1" fill="#6b4c59" d="M 293.5,100.5 C 293.5,105.833 293.5,111.167 293.5,116.5C 288.496,116.889 283.496,117.389 278.5,118C 277.584,118.278 276.918,118.778 276.5,119.5C 273.518,120.205 271.851,121.705 271.5,124C 267.709,124.591 264.042,124.091 260.5,122.5C 257.144,124.226 253.977,126.226 251,128.5C 248.146,129.114 245.313,129.781 242.5,130.5C 240.868,129.703 239.368,128.703 238,127.5C 237.228,127.645 236.561,127.978 236,128.5C 235.591,125.642 236.591,123.309 239,121.5C 239.494,119.866 239.66,118.199 239.5,116.5C 250.263,114.829 260.93,112.329 271.5,109C 271.167,108.667 270.833,108.333 270.5,108C 273.553,107.821 276.553,107.321 279.5,106.5C 283.923,103.915 288.589,101.915 293.5,100.5 Z"/></g>
<g><path style="opacity:1" fill="#5d3f46" d="M 9.5,108.5 C 10.5515,112.426 11.2182,116.426 11.5,120.5C 10.8333,121.167 10.1667,121.833 9.5,122.5C 6.19327,123.051 2.85994,123.384 -0.5,123.5C -0.5,118.833 -0.5,114.167 -0.5,109.5C 2.83333,109.167 6.16667,108.833 9.5,108.5 Z"/></g>
<g><path style="opacity:1" fill="#70565c" d="M 222.5,63.5 C 224.5,63.5 226.5,63.5 228.5,63.5C 226.469,63.9724 224.802,64.9724 223.5,66.5C 223.5,68.1667 223.5,69.8333 223.5,71.5C 223.5,76.5 223.5,81.5 223.5,86.5C 223.5,89.5 223.5,92.5 223.5,95.5C 223.5,100.833 223.5,106.167 223.5,111.5C 223.5,112.833 223.5,114.167 223.5,115.5C 234.158,114.225 244.824,113.058 255.5,112C 258.859,110.953 261.859,109.453 264.5,107.5C 269.05,106.017 273.717,104.85 278.5,104C 283.093,101.101 288.093,99.6007 293.5,99.5C 293.5,99.8333 293.5,100.167 293.5,100.5C 288.589,101.915 283.923,103.915 279.5,106.5C 276.553,107.321 273.553,107.821 270.5,108C 270.833,108.333 271.167,108.667 271.5,109C 260.93,112.329 250.263,114.829 239.5,116.5C 233.734,117.804 228.067,117.804 222.5,116.5C 222.5,116.167 222.5,115.833 222.5,115.5C 222.5,98.1667 222.5,80.8333 222.5,63.5 Z"/></g>
<g><path style="opacity:1" fill="#84696e" d="M 264.5,107.5 C 261.859,109.453 258.859,110.953 255.5,112C 244.824,113.058 234.158,114.225 223.5,115.5C 223.5,114.167 223.5,112.833 223.5,111.5C 237.539,113.047 251.206,111.714 264.5,107.5 Z"/></g>
<g><path style="opacity:1" fill="#5f414e" d="M 293.5,116.5 C 293.5,122.167 293.5,127.833 293.5,133.5C 290.509,133.67 288.509,132.337 287.5,129.5C 286,129.167 284.5,128.833 283,128.5C 279.539,129.49 276.039,130.157 272.5,130.5C 273.458,129.038 274.624,127.705 276,126.5C 276.144,123.975 276.31,121.642 276.5,119.5C 276.918,118.778 277.584,118.278 278.5,118C 283.496,117.389 288.496,116.889 293.5,116.5 Z"/></g>
<g><path style="opacity:1" fill="#b7a4a5" d="M 105.5,99.5 C 107.91,99.9209 109.743,101.254 111,103.5C 111.311,104.742 110.811,105.742 109.5,106.5C 112.141,109.47 113.808,112.803 114.5,116.5C 115.538,120.579 115.538,124.245 114.5,127.5C 116.081,129.142 116.747,131.142 116.5,133.5C 114.983,133.489 113.816,132.823 113,131.5C 112.495,129.482 111.995,127.482 111.5,125.5C 110.326,116.583 108.326,107.916 105.5,99.5 Z"/></g>
<g><path style="opacity:1" fill="#885b70" d="M 75.5,50.5 C 77.6217,56.9279 77.6217,63.2613 75.5,69.5C 74.1667,69.5 72.8333,69.5 71.5,69.5C 72.3862,71.7216 72.3862,73.8882 71.5,76C 73.0546,80.9417 76.3879,83.775 81.5,84.5C 81.1412,82.2341 81.8078,80.4007 83.5,79C 86.2605,78.2782 88.9272,78.4448 91.5,79.5C 90.9285,81.36 90.9285,83.0267 91.5,84.5C 88.6544,84.0301 86.3211,84.8634 84.5,87C 88.4553,94.8361 86.6219,96.6694 79,92.5C 78.6667,92.8333 78.3333,93.1667 78,93.5C 77.9137,99.9693 78.4137,106.636 79.5,113.5C 78.2058,114.29 77.0391,115.29 76,116.5C 75.7852,119.856 75.7852,123.189 76,126.5C 74.6246,124.624 73.458,122.624 72.5,120.5C 70.6707,121.282 69.1707,120.616 68,118.5C 63.642,120.374 59.142,121.874 54.5,123C 54.1667,124 53.8333,125 53.5,126C 54.0712,127.205 54.7379,128.372 55.5,129.5C 59.8078,128.768 64.1411,128.102 68.5,127.5C 70.3829,127.876 71.8829,128.876 73,130.5C 74.9552,129.547 76.6218,128.213 78,126.5C 78.6708,127.252 79.5041,127.586 80.5,127.5C 81.4614,129.265 81.7947,131.265 81.5,133.5C 83.5466,133.511 85.5466,133.844 87.5,134.5C 89.6053,136.624 91.9386,138.29 94.5,139.5C 93.9126,135.737 93.9126,132.071 94.5,128.5C 91.2158,128.277 88.0491,127.61 85,126.5C 80.1507,118.549 82.1507,113.549 91,111.5C 93.8644,112.068 94.6978,113.568 93.5,116C 94.1667,116.667 94.8333,117.333 95.5,118C 98.3819,118.272 101.049,119.106 103.5,120.5C 107.64,125.586 109.64,131.586 109.5,138.5C 112.242,140.667 112.076,141.333 109,140.5C 106.804,141.09 104.638,141.757 102.5,142.5C 101.614,141.675 101.281,140.675 101.5,139.5C 99.7376,139.643 98.0709,139.309 96.5,138.5C 95.8333,139.5 95.1667,140.5 94.5,141.5C 91.2412,140.284 88.0746,138.951 85,137.5C 83.8333,137.667 82.6667,137.833 81.5,138C 82.1667,138.333 82.8333,138.667 83.5,139C 80.5184,139.498 77.5184,139.665 74.5,139.5C 72.1043,141.212 69.4376,141.712 66.5,141C 65.6667,139.5 64.5,138.333 63,137.5C 62.7468,134.8 62.7468,132.133 63,129.5C 62.3333,130.167 61.6667,130.833 61,131.5C 58.2595,130.718 55.4262,130.218 52.5,130C 51.9415,129.275 51.6082,128.442 51.5,127.5C 52.3779,124.87 53.0445,122.203 53.5,119.5C 56.5718,120.441 59.9051,120.441 63.5,119.5C 63.5381,115.637 63.2048,111.804 62.5,108C 62.396,105.855 63.0627,104.021 64.5,102.5C 69.1064,106.677 71.1064,111.677 70.5,117.5C 71.8027,116.282 72.8027,116.615 73.5,118.5C 74.4087,113.036 75.7421,107.703 77.5,102.5C 75.6194,101.238 74.2861,99.5713 73.5,97.5C 75.1058,95.4096 75.6058,93.0762 75,90.5C 73.6152,91.5505 72.6152,92.8839 72,94.5C 70.187,93.3909 69.3537,94.0576 69.5,96.5C 65.8648,97.1143 62.1981,97.4476 58.5,97.5C 58.4033,91.943 58.0699,86.6097 57.5,81.5C 58.4246,80.4376 59.4246,80.4376 60.5,81.5C 62.1667,82.1667 63.8333,82.8333 65.5,83.5C 66.552,83.6495 67.552,83.4828 68.5,83C 70.6699,79.912 70.0033,77.2453 66.5,75C 66.8333,74.6667 67.1667,74.3333 67.5,74C 64.2423,70.5494 63.7423,66.716 66,62.5C 67.3333,61.1667 68.6667,61.1667 70,62.5C 70.6838,61.2161 70.5171,60.0495 69.5,59C 71.1929,56.0483 73.0262,55.8817 75,58.5C 75.0618,55.7119 75.2285,53.0453 75.5,50.5 Z"/></g>
<g><path style="opacity:1" fill="#94657d" d="M 80.5,127.5 C 79.5041,127.586 78.6708,127.252 78,126.5C 76.6218,128.213 74.9552,129.547 73,130.5C 71.8829,128.876 70.3829,127.876 68.5,127.5C 64.1411,128.102 59.8078,128.768 55.5,129.5C 54.7379,128.372 54.0712,127.205 53.5,126C 53.8333,125 54.1667,124 54.5,123C 59.142,121.874 63.642,120.374 68,118.5C 69.1707,120.616 70.6707,121.282 72.5,120.5C 73.458,122.624 74.6246,124.624 76,126.5C 75.7852,123.189 75.7852,119.856 76,116.5C 77.0391,115.29 78.2058,114.29 79.5,113.5C 80.4584,113.047 81.2917,112.381 82,111.5C 82.2009,114.515 81.8676,117.515 81,120.5C 80.3457,119.304 79.8457,119.304 79.5,120.5C 81.7433,122.593 82.0766,124.926 80.5,127.5 Z"/></g>
<g><path style="opacity:1" fill="#cbc0bd" d="M 117.5,107.5 C 119.137,110.717 120.47,114.05 121.5,117.5C 122.99,123.126 124.323,128.793 125.5,134.5C 124.417,134.461 123.417,134.127 122.5,133.5C 121.568,131.234 120.234,129.234 118.5,127.5C 117.005,126.295 115.672,126.295 114.5,127.5C 115.538,124.245 115.538,120.579 114.5,116.5C 115.215,113.093 115.215,109.76 114.5,106.5C 115.222,106.082 115.722,105.416 116,104.5C 116.232,105.737 116.732,106.737 117.5,107.5 Z"/></g>
<g><path style="opacity:1" fill="#e4d5d5" d="M 125.5,134.5 C 125.5,135.833 125.5,137.167 125.5,138.5C 123.708,138.634 122.042,138.301 120.5,137.5C 119.527,135.861 118.194,134.527 116.5,133.5C 116.747,131.142 116.081,129.142 114.5,127.5C 115.672,126.295 117.005,126.295 118.5,127.5C 120.234,129.234 121.568,131.234 122.5,133.5C 123.417,134.127 124.417,134.461 125.5,134.5 Z"/></g>
<g><path style="opacity:1" fill="#928772" d="M -0.5,145.5 C -0.5,140.167 -0.5,134.833 -0.5,129.5C 4.89263,128.045 7.5593,130.212 7.5,136C 7.15707,139.308 6.32374,142.474 5,145.5C 3.37449,145.146 1.54116,145.146 -0.5,145.5 Z"/></g>
<g><path style="opacity:1" fill="#433534" d="M 121.5,80.5 C 122.29,81.6085 122.79,82.9419 123,84.5C 123.17,93.676 123.67,102.676 124.5,111.5C 126.781,115.612 129.615,119.279 133,122.5C 133.483,123.448 133.649,124.448 133.5,125.5C 131.473,125.338 129.473,125.505 127.5,126C 128.766,126.309 129.933,126.809 131,127.5C 131.333,127.167 131.667,126.833 132,126.5C 133.107,129.211 134.607,131.711 136.5,134C 134.521,132.699 132.188,131.866 129.5,131.5C 129.975,134.082 129.308,136.082 127.5,137.5C 126.833,136.5 126.167,135.5 125.5,134.5C 124.323,128.793 122.99,123.126 121.5,117.5C 121.96,105.199 121.96,92.8659 121.5,80.5 Z"/></g>
<g><path style="opacity:1" fill="#634852" d="M 222.5,116.5 C 228.067,117.804 233.734,117.804 239.5,116.5C 239.66,118.199 239.494,119.866 239,121.5C 236.591,123.309 235.591,125.642 236,128.5C 236.561,127.978 237.228,127.645 238,127.5C 239.368,128.703 240.868,129.703 242.5,130.5C 245.313,129.781 248.146,129.114 251,128.5C 253.977,126.226 257.144,124.226 260.5,122.5C 264.042,124.091 267.709,124.591 271.5,124C 271.851,121.705 273.518,120.205 276.5,119.5C 276.31,121.642 276.144,123.975 276,126.5C 274.624,127.705 273.458,129.038 272.5,130.5C 270.561,132.338 268.228,132.505 265.5,131C 262.57,124.107 258.903,123.441 254.5,129C 250.491,129.748 246.824,131.248 243.5,133.5C 240.975,132.426 238.975,133.26 237.5,136C 235.191,136.756 233.191,136.256 231.5,134.5C 232.833,133.5 232.833,132.5 231.5,131.5C 232.994,129.058 233.994,126.391 234.5,123.5C 232.922,119.524 230.589,118.857 227.5,121.5C 226.614,120.675 226.281,119.675 226.5,118.5C 225.5,118.5 224.5,118.5 223.5,118.5C 223.751,122.331 222.584,125.664 220,128.5C 219.053,124.017 219.886,120.017 222.5,116.5 Z"/></g>
<g><path style="opacity:1" fill="#7c5f62" d="M 9.5,122.5 C 11.1168,124.3 12.4502,126.467 13.5,129C 13.423,138.332 13.423,147.832 13.5,157.5C 11.6389,146.221 10.3056,134.888 9.5,123.5C 6.30198,124.787 2.96864,125.453 -0.5,125.5C -0.5,124.833 -0.5,124.167 -0.5,123.5C 2.85994,123.384 6.19327,123.051 9.5,122.5 Z"/></g>
<g><path style="opacity:1" fill="#39272a" d="M 148.5,123.5 C 151.439,129.669 155.606,135.003 161,139.5C 165.832,146.9 171.332,153.567 177.5,159.5C 181.09,164.936 184.923,170.27 189,175.5C 189.333,176.833 189.667,178.167 190,179.5C 190.671,180.252 191.504,180.586 192.5,180.5C 192.539,181.583 192.873,182.583 193.5,183.5C 184.551,184.751 178.385,181.084 175,172.5C 169.211,169.555 166.044,164.889 165.5,158.5C 161.459,158.498 160.792,157.165 163.5,154.5C 160.609,153.322 157.609,152.655 154.5,152.5C 154.803,149.412 153.47,147.746 150.5,147.5C 150.66,145.801 150.494,144.134 150,142.5C 149.586,142.957 149.086,143.291 148.5,143.5C 147.21,141.343 146.376,139.01 146,136.5C 142.506,132.635 138.339,128.969 133.5,125.5C 133.649,124.448 133.483,123.448 133,122.5C 129.615,119.279 126.781,115.612 124.5,111.5C 124.428,106.467 124.594,101.133 125,95.5C 126.049,94.4829 127.216,94.3162 128.5,95C 130.204,97.7568 132.538,99.0901 135.5,99C 134.216,97.7025 134.383,96.5358 136,95.5C 138.55,99.5696 139.05,103.903 137.5,108.5C 141.609,113.261 145.276,118.261 148.5,123.5 Z"/></g>
<g><path style="opacity:1" fill="#baa1a6" d="M 125.5,134.5 C 126.167,135.5 126.833,136.5 127.5,137.5C 127.5,138.167 127.5,138.833 127.5,139.5C 126.432,140.434 125.099,140.768 123.5,140.5C 122.29,140.068 121.29,139.401 120.5,138.5C 120.5,138.167 120.5,137.833 120.5,137.5C 122.042,138.301 123.708,138.634 125.5,138.5C 125.5,137.167 125.5,135.833 125.5,134.5 Z"/></g>
<g><path style="opacity:1" fill="#71495a" d="M 125.5,157.5 C 114.134,157.329 102.8,156.662 91.5,155.5C 91.67,156.822 91.3366,157.989 90.5,159C 91.1667,159.333 91.8333,159.667 92.5,160C 88.2905,163.084 83.7905,164.25 79,163.5C 76.7395,163.439 74.7395,164.106 73,165.5C 70.3333,165.5 67.6667,165.5 65,165.5C 64.8621,167.432 65.3621,169.266 66.5,171C 63.4601,171.32 60.4601,171.32 57.5,171C 56.5838,171.374 55.7504,171.874 55,172.5C 54.2389,175.053 53.4056,177.553 52.5,180C 50.4325,180.687 48.4325,180.52 46.5,179.5C 44.269,181.11 42.269,182.943 40.5,185C 39.2068,185.49 37.8734,185.657 36.5,185.5C 36.0472,184.542 35.3805,183.708 34.5,183C 27.7232,181.818 21.3898,179.485 15.5,176C 14.2117,173.534 14.2117,171.034 15.5,168.5C 14.675,167.614 13.675,167.281 12.5,167.5C 13.5679,163.196 15.9012,162.029 19.5,164C 18.2234,166.466 18.2234,168.966 19.5,171.5C 22.2844,173.114 24.1177,175.448 25,178.5C 27.4095,175.474 30.4095,174.474 34,175.5C 34.4828,176.448 34.6495,177.448 34.5,178.5C 39.7563,175.811 45.7563,173.811 52.5,172.5C 51.9862,170.488 51.8195,168.488 52,166.5C 55.197,168.154 58.3637,168.321 61.5,167C 60.5769,164.959 60.2436,162.792 60.5,160.5C 61.552,160.649 62.552,160.483 63.5,160C 61.9474,158.903 60.614,157.57 59.5,156C 60.7839,155.316 61.9505,155.483 63,156.5C 64.353,155.315 65.5197,153.981 66.5,152.5C 66.6691,153.397 67.0024,154.397 67.5,155.5C 70.7236,158.497 74.0569,158.831 77.5,156.5C 74.4449,155.695 72.7782,153.695 72.5,150.5C 74.1376,149.295 74.4709,147.962 73.5,146.5C 73.8457,145.304 74.3457,145.304 75,146.5C 75.3095,145.234 75.8095,144.067 76.5,143C 76.1667,142.667 75.8333,142.333 75.5,142C 77.8907,141.713 80.2241,141.213 82.5,140.5C 84.7954,141.432 87.1287,142.265 89.5,143C 89.1667,143.333 88.8333,143.667 88.5,144C 89.3567,144.689 90.0233,145.522 90.5,146.5C 89.2532,148.042 89.2532,149.542 90.5,151C 92.6982,151.373 94.8649,151.873 97,152.5C 99.0548,151.308 101.055,151.308 103,152.5C 106.223,149.965 109.89,148.298 114,147.5C 117.384,147.976 120.384,149.31 123,151.5C 123.71,150.027 124.876,149.36 126.5,149.5C 126.383,151.484 127.05,153.15 128.5,154.5C 128.121,156.213 127.121,157.213 125.5,157.5 Z"/></g>
<g><path style="opacity:1" fill="#938174" d="M 9.5,123.5 C 9.10636,135.59 9.77302,147.59 11.5,159.5C 9.71199,159.785 8.04533,159.452 6.5,158.5C 3.36301,155.199 1.02968,151.532 -0.5,147.5C -0.5,146.833 -0.5,146.167 -0.5,145.5C 1.54116,145.146 3.37449,145.146 5,145.5C 6.32374,142.474 7.15707,139.308 7.5,136C 7.5593,130.212 4.89263,128.045 -0.5,129.5C -0.5,128.167 -0.5,126.833 -0.5,125.5C 2.96864,125.453 6.30198,124.787 9.5,123.5 Z"/></g>
<g><path style="opacity:1" fill="#80576a" d="M 53.5,119.5 C 53.0445,122.203 52.3779,124.87 51.5,127.5C 51.6082,128.442 51.9415,129.275 52.5,130C 55.4262,130.218 58.2595,130.718 61,131.5C 61.6667,130.833 62.3333,130.167 63,129.5C 62.7468,132.133 62.7468,134.8 63,137.5C 64.5,138.333 65.6667,139.5 66.5,141C 69.4376,141.712 72.1043,141.212 74.5,139.5C 73.9837,142.548 72.4837,144.882 70,146.5C 66.6799,144.986 63.8466,142.986 61.5,140.5C 59.3211,141.757 57.3211,143.257 55.5,145C 57.1667,147.333 58.8333,149.667 60.5,152C 58.332,155.506 57.1653,159.339 57,163.5C 54.7724,165.113 52.2724,165.78 49.5,165.5C 49.5772,168.012 48.5772,170.012 46.5,171.5C 45.914,171.291 45.414,170.957 45,170.5C 43.4843,173.006 41.3176,173.84 38.5,173C 39.4122,170.512 38.4122,168.845 35.5,168C 37.5127,166.209 37.5127,164.875 35.5,164C 33.4213,163.192 31.4213,163.359 29.5,164.5C 30.7946,167.366 30.7946,170.199 29.5,173C 27.8333,173.667 26.1667,173.667 24.5,173C 23.8366,171.482 22.8366,170.315 21.5,169.5C 22.3463,166.477 24.0129,163.977 26.5,162C 30.8124,162.733 35.1457,162.566 39.5,161.5C 39.523,159.073 40.023,156.74 41,154.5C 47.1649,148.904 46.6649,143.571 39.5,138.5C 40.9906,136.988 42.8239,135.988 45,135.5C 46.5588,133.783 47.3921,131.783 47.5,129.5C 46.448,129.649 45.448,129.483 44.5,129C 48.0812,126.256 51.0812,123.089 53.5,119.5 Z"/></g>
<g><path style="opacity:1" fill="#967b7a" d="M 9.5,123.5 C 10.3056,134.888 11.6389,146.221 13.5,157.5C 13.5,158.167 13.5,158.833 13.5,159.5C 12.8333,159.5 12.1667,159.5 11.5,159.5C 9.77302,147.59 9.10636,135.59 9.5,123.5 Z"/></g>
<g><path style="opacity:1" fill="#8a6e75" d="M 127.5,139.5 C 134.591,143.416 136.257,148.75 132.5,155.5C 132.167,155.5 131.833,155.5 131.5,155.5C 129.869,151.422 128.536,147.089 127.5,142.5C 125.62,142.771 124.287,142.104 123.5,140.5C 125.099,140.768 126.432,140.434 127.5,139.5 Z"/></g>
<g><path style="opacity:1" fill="#593e48" d="M 218.5,84.5 C 218.611,85.1174 218.944,85.6174 219.5,86C 216.879,86.9385 214.212,87.7719 211.5,88.5C 210.5,90.5 209.5,92.5 208.5,94.5C 210.336,96.7223 210.336,99.2223 208.5,102C 209.475,106.025 210.142,109.858 210.5,113.5C 211.446,113.987 212.446,114.32 213.5,114.5C 216.063,114.263 216.063,113.763 213.5,113C 215.345,111.872 217.345,111.372 219.5,111.5C 219.088,113.973 220.088,115.306 222.5,115.5C 222.5,115.833 222.5,116.167 222.5,116.5C 219.886,120.017 219.053,124.017 220,128.5C 222.584,125.664 223.751,122.331 223.5,118.5C 224.5,118.5 225.5,118.5 226.5,118.5C 226.281,119.675 226.614,120.675 227.5,121.5C 230.589,118.857 232.922,119.524 234.5,123.5C 233.994,126.391 232.994,129.058 231.5,131.5C 232.833,132.5 232.833,133.5 231.5,134.5C 233.191,136.256 235.191,136.756 237.5,136C 238.975,133.26 240.975,132.426 243.5,133.5C 246.824,131.248 250.491,129.748 254.5,129C 258.903,123.441 262.57,124.107 265.5,131C 268.228,132.505 270.561,132.338 272.5,130.5C 276.039,130.157 279.539,129.49 283,128.5C 284.5,128.833 286,129.167 287.5,129.5C 288.509,132.337 290.509,133.67 293.5,133.5C 293.5,138.167 293.5,142.833 293.5,147.5C 282.772,151.776 271.772,155.609 260.5,159C 250.471,161.786 240.471,164.786 230.5,168C 229.944,168.383 229.611,168.883 229.5,169.5C 226.61,169.278 223.943,169.945 221.5,171.5C 219.829,169.49 219.162,167.157 219.5,164.5C 221.167,164.5 222.833,164.5 224.5,164.5C 224.5,162.833 224.5,161.167 224.5,159.5C 227.61,161.145 230.276,160.645 232.5,158C 237.447,157.696 241.447,155.696 244.5,152C 253.976,149.964 263.309,147.631 272.5,145C 275.938,144.08 278.938,142.413 281.5,140C 276.89,136.489 272.557,136.823 268.5,141C 264.102,142.313 259.769,143.813 255.5,145.5C 252.097,145.152 248.764,144.985 245.5,145C 244.273,146.587 244.606,147.921 246.5,149C 242.144,151.341 237.477,152.675 232.5,153C 228.683,155.438 224.683,157.272 220.5,158.5C 219.624,158.631 218.957,158.298 218.5,157.5C 221.873,152.489 220.873,150.823 215.5,152.5C 217.219,148.073 219.719,144.073 223,140.5C 224.136,137.904 224.969,135.237 225.5,132.5C 228.5,132.833 229.833,131.5 229.5,128.5C 226.498,127.072 223.665,127.405 221,129.5C 220.708,135.321 219.042,140.654 216,145.5C 213.31,143.807 211.31,141.473 210,138.5C 209.282,139.451 208.449,139.617 207.5,139C 206.284,137.406 204.951,135.906 203.5,134.5C 204.788,131.966 204.788,129.466 203.5,127C 204.497,122.832 206.164,118.998 208.5,115.5C 207.751,113.964 206.751,112.631 205.5,111.5C 206.167,110.5 206.833,109.5 207.5,108.5C 205.882,103.446 204.549,98.613 203.5,94C 206.581,87.7445 211.581,84.5778 218.5,84.5 Z"/></g>
<g><path style="opacity:1" fill="#452c31" d="M 133.5,125.5 C 138.339,128.969 142.506,132.635 146,136.5C 146.376,139.01 147.21,141.343 148.5,143.5C 149.086,143.291 149.586,142.957 150,142.5C 150.494,144.134 150.66,145.801 150.5,147.5C 153.47,147.746 154.803,149.412 154.5,152.5C 157.609,152.655 160.609,153.322 163.5,154.5C 160.792,157.165 161.459,158.498 165.5,158.5C 166.044,164.889 169.211,169.555 175,172.5C 178.385,181.084 184.551,184.751 193.5,183.5C 192.873,182.583 192.539,181.583 192.5,180.5C 194.833,180.5 197.167,180.5 199.5,180.5C 198.909,181.151 198.243,181.818 197.5,182.5C 198.76,183.382 199.926,184.382 201,185.5C 202.958,184.048 204.958,183.715 207,184.5C 208.314,183.687 209.481,182.687 210.5,181.5C 211.086,181.709 211.586,182.043 212,182.5C 215.411,181.707 218.911,181.207 222.5,181C 226.955,178.938 231.289,176.605 235.5,174C 237.167,173.333 238.833,173.333 240.5,174C 239.062,174.219 237.729,174.719 236.5,175.5C 236.667,175.833 236.833,176.167 237,176.5C 245.304,172.937 253.804,169.77 262.5,167C 264.71,165.491 266.543,163.658 268,161.5C 268.561,162.022 269.228,162.355 270,162.5C 277.736,160.236 285.569,158.236 293.5,156.5C 293.5,157.5 293.5,158.5 293.5,159.5C 284.78,161.919 276.114,164.586 267.5,167.5C 258.757,171.196 249.757,174.53 240.5,177.5C 237.624,177.243 234.957,178.243 232.5,180.5C 222.433,182.263 212.767,185.097 203.5,189C 199.725,189.218 196.058,189.384 192.5,189.5C 188.243,187.203 183.91,185.203 179.5,183.5C 179.489,181.983 178.823,180.816 177.5,180C 170.925,176.739 164.925,172.739 159.5,168C 160.308,167.692 160.975,167.192 161.5,166.5C 160.478,165.646 159.645,164.646 159,163.5C 157.16,164.833 156.66,164.666 157.5,163C 156.44,161.702 155.274,160.535 154,159.5C 153.055,159.905 152.388,160.572 152,161.5C 150.129,176.219 141.962,183.553 127.5,183.5C 128.382,181.916 129.215,180.249 130,178.5C 130.667,179.833 131.333,179.833 132,178.5C 132.483,177.552 132.649,176.552 132.5,175.5C 133.5,175.5 134.5,175.5 135.5,175.5C 135.5,174.167 135.5,172.833 135.5,171.5C 132.657,171.083 129.99,170.083 127.5,168.5C 130.167,167.833 132.833,167.167 135.5,166.5C 133.604,165.534 131.604,165.201 129.5,165.5C 131.148,164.073 133.148,163.24 135.5,163C 133.1,162.814 130.766,162.314 128.5,161.5C 130.278,159.736 131.611,157.736 132.5,155.5C 136.257,148.75 134.591,143.416 127.5,139.5C 127.5,138.833 127.5,138.167 127.5,137.5C 129.308,136.082 129.975,134.082 129.5,131.5C 132.188,131.866 134.521,132.699 136.5,134C 134.607,131.711 133.107,129.211 132,126.5C 131.667,126.833 131.333,127.167 131,127.5C 129.933,126.809 128.766,126.309 127.5,126C 129.473,125.505 131.473,125.338 133.5,125.5 Z"/></g>
<g><path style="opacity:1" fill="#634c47" d="M -0.5,147.5 C 1.02968,151.532 3.36301,155.199 6.5,158.5C 8.04533,159.452 9.71199,159.785 11.5,159.5C 12.1667,159.5 12.8333,159.5 13.5,159.5C 12.4479,161.256 10.7812,161.923 8.5,161.5C 8.16667,161.5 7.83333,161.5 7.5,161.5C 4.79384,161.575 2.12717,161.908 -0.5,162.5C -0.5,157.5 -0.5,152.5 -0.5,147.5 Z"/></g>
<g><path style="opacity:1" fill="#7a5162" d="M 21.5,169.5 C 22.8366,170.315 23.8366,171.482 24.5,173C 26.1667,173.667 27.8333,173.667 29.5,173C 30.7946,170.199 30.7946,167.366 29.5,164.5C 31.4213,163.359 33.4213,163.192 35.5,164C 37.5127,164.875 37.5127,166.209 35.5,168C 38.4122,168.845 39.4122,170.512 38.5,173C 41.3176,173.84 43.4843,173.006 45,170.5C 45.414,170.957 45.914,171.291 46.5,171.5C 48.5772,170.012 49.5772,168.012 49.5,165.5C 52.2724,165.78 54.7724,165.113 57,163.5C 57.1653,159.339 58.332,155.506 60.5,152C 58.8333,149.667 57.1667,147.333 55.5,145C 57.3211,143.257 59.3211,141.757 61.5,140.5C 63.8466,142.986 66.6799,144.986 70,146.5C 72.4837,144.882 73.9837,142.548 74.5,139.5C 77.5184,139.665 80.5184,139.498 83.5,139C 82.8333,138.667 82.1667,138.333 81.5,138C 82.6667,137.833 83.8333,137.667 85,137.5C 88.0746,138.951 91.2412,140.284 94.5,141.5C 95.1667,140.5 95.8333,139.5 96.5,138.5C 98.0709,139.309 99.7376,139.643 101.5,139.5C 101.281,140.675 101.614,141.675 102.5,142.5C 104.638,141.757 106.804,141.09 109,140.5C 112.076,141.333 112.242,140.667 109.5,138.5C 110.75,138.423 111.583,137.756 112,136.5C 114.621,137.991 117.455,138.658 120.5,138.5C 121.29,139.401 122.29,140.068 123.5,140.5C 124.287,142.104 125.62,142.771 127.5,142.5C 128.536,147.089 129.869,151.422 131.5,155.5C 130.833,156.833 129.833,157.833 128.5,158.5C 127.209,158.737 126.209,158.404 125.5,157.5C 127.121,157.213 128.121,156.213 128.5,154.5C 127.05,153.15 126.383,151.484 126.5,149.5C 124.876,149.36 123.71,150.027 123,151.5C 120.384,149.31 117.384,147.976 114,147.5C 109.89,148.298 106.223,149.965 103,152.5C 101.055,151.308 99.0548,151.308 97,152.5C 94.8649,151.873 92.6982,151.373 90.5,151C 89.2532,149.542 89.2532,148.042 90.5,146.5C 90.0233,145.522 89.3567,144.689 88.5,144C 88.8333,143.667 89.1667,143.333 89.5,143C 87.1287,142.265 84.7954,141.432 82.5,140.5C 80.2241,141.213 77.8907,141.713 75.5,142C 75.8333,142.333 76.1667,142.667 76.5,143C 75.8095,144.067 75.3095,145.234 75,146.5C 74.3457,145.304 73.8457,145.304 73.5,146.5C 74.4709,147.962 74.1376,149.295 72.5,150.5C 72.7782,153.695 74.4449,155.695 77.5,156.5C 74.0569,158.831 70.7236,158.497 67.5,155.5C 67.0024,154.397 66.6691,153.397 66.5,152.5C 65.5197,153.981 64.353,155.315 63,156.5C 61.9505,155.483 60.7839,155.316 59.5,156C 60.614,157.57 61.9474,158.903 63.5,160C 62.552,160.483 61.552,160.649 60.5,160.5C 60.2436,162.792 60.5769,164.959 61.5,167C 58.3637,168.321 55.197,168.154 52,166.5C 51.8195,168.488 51.9862,170.488 52.5,172.5C 45.7563,173.811 39.7563,175.811 34.5,178.5C 34.6495,177.448 34.4828,176.448 34,175.5C 30.4095,174.474 27.4095,175.474 25,178.5C 24.1177,175.448 22.2844,173.114 19.5,171.5C 18.2234,168.966 18.2234,166.466 19.5,164C 15.9012,162.029 13.5679,163.196 12.5,167.5C 9.67521,166.522 8.34187,164.522 8.5,161.5C 10.7812,161.923 12.4479,161.256 13.5,159.5C 13.5,158.833 13.5,158.167 13.5,157.5C 13.423,147.832 13.423,138.332 13.5,129C 12.4502,126.467 11.1168,124.3 9.5,122.5C 10.1667,121.833 10.8333,121.167 11.5,120.5C 12.404,119.791 12.7373,118.791 12.5,117.5C 13.1174,117.389 13.6174,117.056 14,116.5C 16.0305,118.737 18.5305,120.237 21.5,121C 22.7424,122.875 24.0758,124.709 25.5,126.5C 23.6499,128.518 21.6499,130.351 19.5,132C 18.5509,132.617 17.7175,132.451 17,131.5C 16.3076,132.025 15.8076,132.692 15.5,133.5C 17.2892,136.556 17.9559,139.889 17.5,143.5C 18.675,143.281 19.675,143.614 20.5,144.5C 19.3052,146.751 18.3052,149.085 17.5,151.5C 18.6085,153.214 17.9418,153.881 15.5,153.5C 15.2011,155.604 15.5344,157.604 16.5,159.5C 19.1092,160.443 21.1092,162.11 22.5,164.5C 20.516,166.046 20.1826,167.713 21.5,169.5 Z"/></g>
<g><path style="opacity:1" fill="#4f373f" d="M 229.5,169.5 C 222.231,172.406 214.564,174.573 206.5,176C 203.761,177.026 201.428,178.526 199.5,180.5C 197.167,180.5 194.833,180.5 192.5,180.5C 191.504,180.586 190.671,180.252 190,179.5C 189.667,178.167 189.333,176.833 189,175.5C 184.923,170.27 181.09,164.936 177.5,159.5C 181.659,162.119 186.326,162.786 191.5,161.5C 191.988,164.711 191.321,167.544 189.5,170C 190.634,171.016 190.301,171.683 188.5,172C 190.333,173.833 192.167,175.667 194,177.5C 196.457,174.908 196.624,172.408 194.5,170C 196.137,166.715 196.804,163.215 196.5,159.5C 197.5,159.5 198.5,159.5 199.5,159.5C 199.281,160.675 199.614,161.675 200.5,162.5C 203.885,161.538 207.051,160.204 210,158.5C 211.402,160.973 212.902,160.973 214.5,158.5C 216.643,159.754 218.643,159.754 220.5,158.5C 224.683,157.272 228.683,155.438 232.5,153C 237.477,152.675 242.144,151.341 246.5,149C 244.606,147.921 244.273,146.587 245.5,145C 248.764,144.985 252.097,145.152 255.5,145.5C 259.769,143.813 264.102,142.313 268.5,141C 272.557,136.823 276.89,136.489 281.5,140C 278.938,142.413 275.938,144.08 272.5,145C 263.309,147.631 253.976,149.964 244.5,152C 241.447,155.696 237.447,157.696 232.5,158C 230.276,160.645 227.61,161.145 224.5,159.5C 224.5,161.167 224.5,162.833 224.5,164.5C 222.833,164.5 221.167,164.5 219.5,164.5C 219.162,167.157 219.829,169.49 221.5,171.5C 223.943,169.945 226.61,169.278 229.5,169.5 Z"/></g>
<g><path style="opacity:1" fill="#644747" d="M 293.5,159.5 C 293.5,160.5 293.5,161.5 293.5,162.5C 289.596,163.95 285.596,165.116 281.5,166C 272.715,170.548 263.381,173.715 253.5,175.5C 258.469,173.349 263.136,170.682 267.5,167.5C 276.114,164.586 284.78,161.919 293.5,159.5 Z"/></g>
<g><path style="opacity:1" fill="#634049" d="M 7.5,161.5 C 6.68534,165.833 8.35201,168.166 12.5,168.5C 12.888,171.879 13.5547,175.212 14.5,178.5C 16.8241,178.877 17.4908,179.877 16.5,181.5C 18.5589,182.951 19.5589,184.951 19.5,187.5C 17.269,186.376 14.9357,185.876 12.5,186C 12.8333,186.333 13.1667,186.667 13.5,187C 12.6433,187.689 11.9767,188.522 11.5,189.5C 11.8457,190.696 12.3457,190.696 13,189.5C 13.4983,192.817 13.665,196.15 13.5,199.5C 12.8333,199.5 12.1667,199.5 11.5,199.5C 10.3847,192.846 10.3847,186.179 11.5,179.5C 9.5165,179.617 7.84983,178.95 6.5,177.5C 5.03448,173.936 3.86781,170.27 3,166.5C 1.88732,165.695 0.72065,165.028 -0.5,164.5C -0.5,163.833 -0.5,163.167 -0.5,162.5C 2.12717,161.908 4.79384,161.575 7.5,161.5 Z"/></g>
<g><path style="opacity:1" fill="#3d262c" d="M 293.5,147.5 C 293.5,150.5 293.5,153.5 293.5,156.5C 285.569,158.236 277.736,160.236 270,162.5C 269.228,162.355 268.561,162.022 268,161.5C 266.543,163.658 264.71,165.491 262.5,167C 253.804,169.77 245.304,172.937 237,176.5C 236.833,176.167 236.667,175.833 236.5,175.5C 237.729,174.719 239.062,174.219 240.5,174C 238.833,173.333 237.167,173.333 235.5,174C 231.289,176.605 226.955,178.938 222.5,181C 218.911,181.207 215.411,181.707 212,182.5C 211.586,182.043 211.086,181.709 210.5,181.5C 209.481,182.687 208.314,183.687 207,184.5C 204.958,183.715 202.958,184.048 201,185.5C 199.926,184.382 198.76,183.382 197.5,182.5C 198.243,181.818 198.909,181.151 199.5,180.5C 201.428,178.526 203.761,177.026 206.5,176C 214.564,174.573 222.231,172.406 229.5,169.5C 229.611,168.883 229.944,168.383 230.5,168C 240.471,164.786 250.471,161.786 260.5,159C 271.772,155.609 282.772,151.776 293.5,147.5 Z"/></g>
<g><path style="opacity:1" fill="#4c3236" d="M 179.5,183.5 C 173.502,183.336 169.002,180.67 166,175.5C 165.667,175.833 165.333,176.167 165,176.5C 164.517,175.552 164.351,174.552 164.5,173.5C 161.531,172.671 158.531,172.505 155.5,173C 148.183,178.669 140.183,183.169 131.5,186.5C 124.581,186.874 118.248,189.374 112.5,194C 104.655,196.338 96.6548,198.172 88.5,199.5C 86.0108,199.702 83.6775,199.202 81.5,198C 82.6721,197.581 83.6721,196.915 84.5,196C 89.688,195.707 94.688,194.873 99.5,193.5C 99.3433,192.127 99.51,190.793 100,189.5C 102.254,191.143 104.754,192.477 107.5,193.5C 111.432,190.552 115.766,188.552 120.5,187.5C 121.243,186.092 122.077,184.759 123,183.5C 124.49,184.728 125.99,184.728 127.5,183.5C 141.962,183.553 150.129,176.219 152,161.5C 152.388,160.572 153.055,159.905 154,159.5C 155.274,160.535 156.44,161.702 157.5,163C 156.66,164.666 157.16,164.833 159,163.5C 159.645,164.646 160.478,165.646 161.5,166.5C 160.975,167.192 160.308,167.692 159.5,168C 164.925,172.739 170.925,176.739 177.5,180C 178.823,180.816 179.489,181.983 179.5,183.5 Z"/></g>
<g><path style="opacity:1" fill="#573d46" d="M 127.5,159.5 C 124.327,161.062 120.993,162.729 117.5,164.5C 116.926,166.059 116.26,167.559 115.5,169C 111.241,170.934 107.241,173.268 103.5,176C 96.0318,178.252 88.6985,180.085 81.5,181.5C 75.0435,183.447 68.3769,185.114 61.5,186.5C 61.6567,185.127 61.49,183.793 61,182.5C 60.3457,183.696 59.8457,183.696 59.5,182.5C 63.646,177.083 68.646,175.416 74.5,177.5C 81.3738,177.449 88.0405,175.782 94.5,172.5C 95.4892,168.893 95.8226,165.226 95.5,161.5C 99.2302,160.393 103.064,159.727 107,159.5C 113.789,159.553 120.622,159.553 127.5,159.5 Z"/></g>
<g><path style="opacity:1" fill="#876b61" d="M 293.5,167.5 C 293.5,168.833 293.5,170.167 293.5,171.5C 283.518,173.191 274.185,176.858 265.5,182.5C 262.5,183.167 259.5,183.833 256.5,184.5C 255.924,187.124 254.59,187.791 252.5,186.5C 250.937,188.959 249.937,191.626 249.5,194.5C 249.64,196.03 250.307,197.03 251.5,197.5C 252.263,198.268 253.263,198.768 254.5,199C 250.264,199.335 246.264,200.168 242.5,201.5C 240.167,201.5 237.833,201.5 235.5,201.5C 236.37,199.968 236.036,198.468 234.5,197C 237.01,196.624 239.343,195.79 241.5,194.5C 243.473,191.36 245.64,188.36 248,185.5C 251.056,183.164 254.056,180.831 257,178.5C 259.996,180.491 262.829,180.491 265.5,178.5C 266.086,178.709 266.586,179.043 267,179.5C 271.132,175.338 276.299,171.838 282.5,169C 286.114,168.064 289.78,167.564 293.5,167.5 Z"/></g>
<g><path style="opacity:1" fill="#64404f" d="M 125.5,157.5 C 126.209,158.404 127.209,158.737 128.5,158.5C 128.5,159.167 128.167,159.5 127.5,159.5C 120.622,159.553 113.789,159.553 107,159.5C 103.064,159.727 99.2302,160.393 95.5,161.5C 95.8226,165.226 95.4892,168.893 94.5,172.5C 88.0405,175.782 81.3738,177.449 74.5,177.5C 68.646,175.416 63.646,177.083 59.5,182.5C 59.8457,183.696 60.3457,183.696 61,182.5C 61.49,183.793 61.6567,185.127 61.5,186.5C 60.4324,187.434 59.099,187.768 57.5,187.5C 50.3712,188.41 43.3712,187.743 36.5,185.5C 37.8734,185.657 39.2068,185.49 40.5,185C 42.269,182.943 44.269,181.11 46.5,179.5C 48.4325,180.52 50.4325,180.687 52.5,180C 53.4056,177.553 54.2389,175.053 55,172.5C 55.7504,171.874 56.5838,171.374 57.5,171C 60.4601,171.32 63.4601,171.32 66.5,171C 65.3621,169.266 64.8621,167.432 65,165.5C 67.6667,165.5 70.3333,165.5 73,165.5C 74.7395,164.106 76.7395,163.439 79,163.5C 83.7905,164.25 88.2905,163.084 92.5,160C 91.8333,159.667 91.1667,159.333 90.5,159C 91.3366,157.989 91.67,156.822 91.5,155.5C 102.8,156.662 114.134,157.329 125.5,157.5 Z"/></g>
<g><path style="opacity:1" fill="#49343b" d="M 131.5,155.5 C 131.833,155.5 132.167,155.5 132.5,155.5C 131.611,157.736 130.278,159.736 128.5,161.5C 130.766,162.314 133.1,162.814 135.5,163C 133.148,163.24 131.148,164.073 129.5,165.5C 128.116,166.801 126.616,166.801 125,165.5C 119.974,169.022 114.807,172.355 109.5,175.5C 108.003,178.676 108.67,181.342 111.5,183.5C 108.899,186.001 106.399,186.001 104,183.5C 103.51,184.793 103.343,186.127 103.5,187.5C 96.4694,187.481 96.136,186.981 102.5,186C 96.0522,182.241 89.0522,180.741 81.5,181.5C 88.6985,180.085 96.0318,178.252 103.5,176C 107.241,173.268 111.241,170.934 115.5,169C 116.26,167.559 116.926,166.059 117.5,164.5C 120.993,162.729 124.327,161.062 127.5,159.5C 128.167,159.5 128.5,159.167 128.5,158.5C 129.833,157.833 130.833,156.833 131.5,155.5 Z"/></g>
<g><path style="opacity:1" fill="#8c7565" d="M 293.5,171.5 C 293.5,174.167 293.5,176.833 293.5,179.5C 290.236,180.324 286.902,180.658 283.5,180.5C 283.433,181.959 283.766,183.292 284.5,184.5C 283.503,184.47 282.836,184.97 282.5,186C 284.885,188.982 287.718,191.482 291,193.5C 291.464,194.094 291.631,194.761 291.5,195.5C 290.127,195.657 288.793,195.49 287.5,195C 284.317,190.483 280.483,186.65 276,183.5C 270.539,186.533 264.705,188.7 258.5,190C 257.5,190.833 256.5,191.667 255.5,192.5C 256.025,193.192 256.692,193.692 257.5,194C 255.595,195.421 253.595,196.588 251.5,197.5C 250.307,197.03 249.64,196.03 249.5,194.5C 249.937,191.626 250.937,188.959 252.5,186.5C 254.59,187.791 255.924,187.124 256.5,184.5C 259.5,183.833 262.5,183.167 265.5,182.5C 274.185,176.858 283.518,173.191 293.5,171.5 Z"/></g>
<g><path style="opacity:1" fill="#664050" d="M 7.5,161.5 C 7.83333,161.5 8.16667,161.5 8.5,161.5C 8.34187,164.522 9.67521,166.522 12.5,167.5C 13.675,167.281 14.675,167.614 15.5,168.5C 14.2117,171.034 14.2117,173.534 15.5,176C 21.3898,179.485 27.7232,181.818 34.5,183C 35.3805,183.708 36.0472,184.542 36.5,185.5C 34.8828,184.962 33.2161,184.629 31.5,184.5C 30.37,188.557 29.0367,192.557 27.5,196.5C 28.8734,196.343 30.2068,196.51 31.5,197C 25.6348,198.811 19.6348,199.644 13.5,199.5C 13.665,196.15 13.4983,192.817 13,189.5C 12.3457,190.696 11.8457,190.696 11.5,189.5C 11.9767,188.522 12.6433,187.689 13.5,187C 13.1667,186.667 12.8333,186.333 12.5,186C 14.9357,185.876 17.269,186.376 19.5,187.5C 19.5589,184.951 18.5589,182.951 16.5,181.5C 17.4908,179.877 16.8241,178.877 14.5,178.5C 13.5547,175.212 12.888,171.879 12.5,168.5C 8.35201,168.166 6.68534,165.833 7.5,161.5 Z"/></g>
<g><path style="opacity:1" fill="#3d292f" d="M 129.5,165.5 C 131.604,165.201 133.604,165.534 135.5,166.5C 132.833,167.167 130.167,167.833 127.5,168.5C 129.99,170.083 132.657,171.083 135.5,171.5C 135.5,172.833 135.5,174.167 135.5,175.5C 134.5,175.5 133.5,175.5 132.5,175.5C 132.649,176.552 132.483,177.552 132,178.5C 131.333,179.833 130.667,179.833 130,178.5C 129.215,180.249 128.382,181.916 127.5,183.5C 125.99,184.728 124.49,184.728 123,183.5C 122.077,184.759 121.243,186.092 120.5,187.5C 115.766,188.552 111.432,190.552 107.5,193.5C 104.754,192.477 102.254,191.143 100,189.5C 99.51,190.793 99.3433,192.127 99.5,193.5C 94.688,194.873 89.688,195.707 84.5,196C 83.6721,196.915 82.6721,197.581 81.5,198C 83.6775,199.202 86.0108,199.702 88.5,199.5C 88.0825,200.222 87.4158,200.722 86.5,201C 91.8229,201.499 97.1563,201.666 102.5,201.5C 137.5,201.5 172.5,201.5 207.5,201.5C 216.833,201.5 226.167,201.5 235.5,201.5C 237.833,201.5 240.167,201.5 242.5,201.5C 259.5,201.5 276.5,201.5 293.5,201.5C 293.5,201.833 293.5,202.167 293.5,202.5C 195.5,202.5 97.5,202.5 -0.5,202.5C -0.5,202.167 -0.5,201.833 -0.5,201.5C 2.83333,201.5 6.16667,201.5 9.5,201.5C 10.1667,201.5 10.8333,201.5 11.5,201.5C 17.5368,201.829 23.5368,201.496 29.5,200.5C 34.1189,196.51 39.4523,194.177 45.5,193.5C 45.5,192.5 45.5,191.5 45.5,190.5C 50.0319,191.114 54.0319,190.114 57.5,187.5C 59.099,187.768 60.4324,187.434 61.5,186.5C 68.3769,185.114 75.0435,183.447 81.5,181.5C 89.0522,180.741 96.0522,182.241 102.5,186C 96.136,186.981 96.4694,187.481 103.5,187.5C 103.343,186.127 103.51,184.793 104,183.5C 106.399,186.001 108.899,186.001 111.5,183.5C 108.67,181.342 108.003,178.676 109.5,175.5C 114.807,172.355 119.974,169.022 125,165.5C 126.616,166.801 128.116,166.801 129.5,165.5 Z"/></g>
<g><path style="opacity:1" fill="#644146" d="M 253.5,175.5 C 249.546,178.938 245.38,182.271 241,185.5C 240.667,184.833 240.333,184.167 240,183.5C 238.044,183.784 235.877,183.784 233.5,183.5C 233.799,185.604 233.466,187.604 232.5,189.5C 231.583,190.127 230.583,190.461 229.5,190.5C 225.14,190.286 222.807,192.286 222.5,196.5C 215.633,196.716 208.966,197.716 202.5,199.5C 195.563,199.39 188.563,199.223 181.5,199C 182.056,198.617 182.389,198.117 182.5,197.5C 182.506,196.583 181.506,196.083 179.5,196C 179.833,195.667 180.167,195.333 180.5,195C 174.374,194.272 168.374,192.939 162.5,191C 160.041,190.276 159.041,188.943 159.5,187C 158.216,186.316 157.049,186.483 156,187.5C 155.536,186.906 155.369,186.239 155.5,185.5C 155.735,184.903 156.235,184.57 157,184.5C 161.508,187.167 166.341,188.667 171.5,189C 168.815,187.729 166.815,186.563 165.5,185.5C 168.85,185.335 172.183,185.502 175.5,186C 177.783,189.53 180.95,190.697 185,189.5C 190.622,192.178 196.456,194.178 202.5,195.5C 203.833,193.833 205.167,192.167 206.5,190.5C 210.442,191.6 214.442,191.767 218.5,191C 219.337,189.989 219.67,188.822 219.5,187.5C 225.091,187.78 229.758,185.946 233.5,182C 240.057,179.558 246.723,177.392 253.5,175.5 Z"/></g>
<g><path style="opacity:1" fill="#715152" d="M -0.5,164.5 C 0.72065,165.028 1.88732,165.695 3,166.5C 3.86781,170.27 5.03448,173.936 6.5,177.5C 7.84983,178.95 9.5165,179.617 11.5,179.5C 10.3847,186.179 10.3847,192.846 11.5,199.5C 11.5,200.167 11.5,200.833 11.5,201.5C 10.8333,201.5 10.1667,201.5 9.5,201.5C 7.53661,191.605 4.20328,182.272 -0.5,173.5C -0.5,170.5 -0.5,167.5 -0.5,164.5 Z"/></g>
<g><path style="opacity:1" fill="#846660" d="M -0.5,173.5 C 4.20328,182.272 7.53661,191.605 9.5,201.5C 6.16667,201.5 2.83333,201.5 -0.5,201.5C -0.5,192.167 -0.5,182.833 -0.5,173.5 Z"/></g>
<g><path style="opacity:1" fill="#978471" d="M 291.5,195.5 C 292.167,195.5 292.833,195.5 293.5,195.5C 293.5,197.5 293.5,199.5 293.5,201.5C 276.5,201.5 259.5,201.5 242.5,201.5C 246.264,200.168 250.264,199.335 254.5,199C 253.263,198.768 252.263,198.268 251.5,197.5C 253.595,196.588 255.595,195.421 257.5,194C 256.692,193.692 256.025,193.192 255.5,192.5C 256.5,191.667 257.5,190.833 258.5,190C 264.705,188.7 270.539,186.533 276,183.5C 280.483,186.65 284.317,190.483 287.5,195C 288.793,195.49 290.127,195.657 291.5,195.5 Z"/></g>
<g><path style="opacity:1" fill="#a49682" d="M 293.5,179.5 C 293.5,183.833 293.5,188.167 293.5,192.5C 290.5,189.833 287.5,187.167 284.5,184.5C 283.766,183.292 283.433,181.959 283.5,180.5C 286.902,180.658 290.236,180.324 293.5,179.5 Z"/></g>
<g><path style="opacity:1" fill="#584834" d="M 284.5,184.5 C 287.5,187.167 290.5,189.833 293.5,192.5C 293.5,193.5 293.5,194.5 293.5,195.5C 292.833,195.5 292.167,195.5 291.5,195.5C 291.631,194.761 291.464,194.094 291,193.5C 287.718,191.482 284.885,188.982 282.5,186C 282.836,184.97 283.503,184.47 284.5,184.5 Z"/></g>
<g><path style="opacity:1" fill="#6e4a4c" d="M 155.5,185.5 C 155.369,186.239 155.536,186.906 156,187.5C 157.049,186.483 158.216,186.316 159.5,187C 159.041,188.943 160.041,190.276 162.5,191C 168.374,192.939 174.374,194.272 180.5,195C 180.167,195.333 179.833,195.667 179.5,196C 181.506,196.083 182.506,196.583 182.5,197.5C 174.368,196.429 166.368,196.762 158.5,198.5C 156.833,197.667 155.167,196.833 153.5,196C 147.86,196.756 142.527,196.589 137.5,195.5C 137.539,194.417 137.873,193.417 138.5,192.5C 141.906,190.806 144.906,188.64 147.5,186C 150.146,185.503 152.813,185.336 155.5,185.5 Z"/></g>
<g><path style="opacity:1" fill="#55373b" d="M 267.5,167.5 C 263.136,170.682 258.469,173.349 253.5,175.5C 246.723,177.392 240.057,179.558 233.5,182C 229.758,185.946 225.091,187.78 219.5,187.5C 219.67,188.822 219.337,189.989 218.5,191C 214.442,191.767 210.442,191.6 206.5,190.5C 205.167,192.167 203.833,193.833 202.5,195.5C 196.456,194.178 190.622,192.178 185,189.5C 180.95,190.697 177.783,189.53 175.5,186C 172.183,185.502 168.85,185.335 165.5,185.5C 164.816,183.551 163.649,181.885 162,180.5C 156.538,181.272 151.038,182.105 145.5,183C 129.704,187.154 114.371,192.487 99.5,199C 101.134,199.494 102.801,199.66 104.5,199.5C 103.833,200.167 103.167,200.833 102.5,201.5C 97.1563,201.666 91.8229,201.499 86.5,201C 87.4158,200.722 88.0825,200.222 88.5,199.5C 96.6548,198.172 104.655,196.338 112.5,194C 118.248,189.374 124.581,186.874 131.5,186.5C 140.183,183.169 148.183,178.669 155.5,173C 158.531,172.505 161.531,172.671 164.5,173.5C 164.351,174.552 164.517,175.552 165,176.5C 165.333,176.167 165.667,175.833 166,175.5C 169.002,180.67 173.502,183.336 179.5,183.5C 183.91,185.203 188.243,187.203 192.5,189.5C 196.058,189.384 199.725,189.218 203.5,189C 212.767,185.097 222.433,182.263 232.5,180.5C 234.957,178.243 237.624,177.243 240.5,177.5C 249.757,174.53 258.757,171.196 267.5,167.5 Z"/></g>
<g><path style="opacity:1" fill="#5f4242" d="M 165.5,185.5 C 166.815,186.563 168.815,187.729 171.5,189C 166.341,188.667 161.508,187.167 157,184.5C 156.235,184.57 155.735,184.903 155.5,185.5C 152.813,185.336 150.146,185.503 147.5,186C 144.906,188.64 141.906,190.806 138.5,192.5C 137.873,193.417 137.539,194.417 137.5,195.5C 126.443,196.591 115.443,197.924 104.5,199.5C 102.801,199.66 101.134,199.494 99.5,199C 114.371,192.487 129.704,187.154 145.5,183C 151.038,182.105 156.538,181.272 162,180.5C 163.649,181.885 164.816,183.551 165.5,185.5 Z"/></g>
<g><path style="opacity:1" fill="#795b55" d="M 293.5,162.5 C 293.5,164.167 293.5,165.833 293.5,167.5C 289.78,167.564 286.114,168.064 282.5,169C 276.299,171.838 271.132,175.338 267,179.5C 266.586,179.043 266.086,178.709 265.5,178.5C 262.829,180.491 259.996,180.491 257,178.5C 254.056,180.831 251.056,183.164 248,185.5C 245.64,188.36 243.473,191.36 241.5,194.5C 239.343,195.79 237.01,196.624 234.5,197C 236.036,198.468 236.37,199.968 235.5,201.5C 226.167,201.5 216.833,201.5 207.5,201.5C 214.338,201.561 220.672,199.728 226.5,196C 228.134,195.506 229.801,195.34 231.5,195.5C 231.635,193.446 230.968,191.779 229.5,190.5C 230.583,190.461 231.583,190.127 232.5,189.5C 233.466,187.604 233.799,185.604 233.5,183.5C 235.877,183.784 238.044,183.784 240,183.5C 240.333,184.167 240.667,184.833 241,185.5C 245.38,182.271 249.546,178.938 253.5,175.5C 263.381,173.715 272.715,170.548 281.5,166C 285.596,165.116 289.596,163.95 293.5,162.5 Z"/></g>
<g><path style="opacity:1" fill="#5b3d48" d="M 36.5,185.5 C 43.3712,187.743 50.3712,188.41 57.5,187.5C 54.0319,190.114 50.0319,191.114 45.5,190.5C 45.5,191.5 45.5,192.5 45.5,193.5C 39.4523,194.177 34.1189,196.51 29.5,200.5C 23.5368,201.496 17.5368,201.829 11.5,201.5C 11.5,200.833 11.5,200.167 11.5,199.5C 12.1667,199.5 12.8333,199.5 13.5,199.5C 19.6348,199.644 25.6348,198.811 31.5,197C 30.2068,196.51 28.8734,196.343 27.5,196.5C 29.0367,192.557 30.37,188.557 31.5,184.5C 33.2161,184.629 34.8828,184.962 36.5,185.5 Z"/></g>
<g><path style="opacity:1" fill="#6d5052" d="M 229.5,190.5 C 230.968,191.779 231.635,193.446 231.5,195.5C 229.801,195.34 228.134,195.506 226.5,196C 220.672,199.728 214.338,201.561 207.5,201.5C 172.5,201.5 137.5,201.5 102.5,201.5C 103.167,200.833 103.833,200.167 104.5,199.5C 115.443,197.924 126.443,196.591 137.5,195.5C 142.527,196.589 147.86,196.756 153.5,196C 155.167,196.833 156.833,197.667 158.5,198.5C 166.368,196.762 174.368,196.429 182.5,197.5C 182.389,198.117 182.056,198.617 181.5,199C 188.563,199.223 195.563,199.39 202.5,199.5C 208.966,197.716 215.633,196.716 222.5,196.5C 222.807,192.286 225.14,190.286 229.5,190.5 Z"/></g>
<g><path style="opacity:1" fill="#000000" d="M -0.5,202.5 C 97.5,202.5 195.5,202.5 293.5,202.5C 293.5,214.833 293.5,227.167 293.5,239.5C 195.5,239.5 97.5,239.5 -0.5,239.5C -0.5,227.167 -0.5,214.833 -0.5,202.5 Z"/></g>
</svg>
